mtllib Prop_Shell_2.mtl
o object1
g object1
v 0.00483910 0.00000000 -0.21263548
v -0.18876787 0.00000000 -0.09799978
v -0.16456700 0.05952381 -0.11232924
v -0.13068578 0.08928571 -0.13239049
v -0.09196439 0.08928571 -0.15531763
v -0.05324299 0.08928571 -0.17824477
v -0.01936177 0.05952381 -0.19830602
v 0.01955775 0.00000000 -0.16324306
v -0.15253732 0.00000000 -0.06134466
v -0.20518483 0.00000000 0.14415045
v 0.01268285 0.00000000 0.26676234
v 0.22780169 0.00000000 0.13938933
v 0.22505286 0.00000000 -0.11059555
v -0.17051107 0.05952381 0.08003937
v -0.13102544 0.05952381 -0.07408196
v -0.12706272 0.08928571 -0.01832089
v -0.10632280 0.08928571 -0.09927351
v -0.07285844 0.10416667 -0.12304980
v -0.03592027 0.08928571 -0.14095922
v 0.04503235 0.08928571 -0.12021929
v 0.15216720 0.05952381 -0.11102013
v -0.00195413 0.05952381 -0.15050576
v 0.04613189 0.08928571 -0.02022534
v 0.15422882 0.05952381 0.07646854
v -0.03991565 0.08928571 0.03072386
v -0.00711031 0.05952381 0.17199829
vt 0.00000000 1.00000000
vt 0.00000000 0.00000000
vt 0.66666667 0.12500000
vt 1.00000000 0.30000000
vt 1.00000000 0.50000000
vt 1.00000000 0.70000000
vt 0.66666667 0.87500000
vt 0.70000000 0.87995381
vt 0.72500000 1.00000000
vt 0.27500000 1.00000000
vt 0.30000000 0.87995381
vt 0.00000000 0.51981525
vt 0.25000000 0.00000000
vt 0.75000000 0.00000000
vt 1.00000000 0.51981525
vt 0.00000000 1.00000000
vt 0.00000000 0.00000000
vt 1.00000000 0.00000000
vt 1.00000000 1.00000000
vt 0.00000000 1.00000000
vt 0.00000000 0.01515152
vt 1.00000000 0.00000000
vt 1.00000000 1.00000000
vt 0.59090909 0.59090909
vt 0.00000000 0.00000000
vt 1.00000000 0.58333333
vt 1.00000000 1.00000000
vt 0.59090909 0.59090909
vt 0.00000000 0.00000000
vt 1.00000000 0.58333333
vt 1.00000000 1.00000000
vt 1.00000000 0.00000000
vt 1.00000000 1.00000000
vt 0.00000000 0.98484848
vt 0.00000000 0.00000000
vt 1.00000000 1.00000000
vt 0.00000000 1.00000000
vt 0.00000000 0.00000000
vt 1.00000000 0.00000000
vt 1.00000000 1.00000000
vt 0.00000000 1.00000000
vt 0.00000000 0.00000000
vt 1.00000000 0.00000000
vt 1.00000000 1.00000000
vt 0.00000000 1.00000000
vt 0.50000000 0.00000000
vt 0.50000000 0.00000000
vt 1.00000000 0.57825449
vt 0.00000000 1.00000000
vt 0.50000000 1.00000000
vt 0.00000000 0.42174551
vt 1.00000000 0.00000000
vt 1.00000000 1.00000000
vt 0.00000000 1.00000000
vt 0.00000000 0.00000000
vt 1.00000000 0.00000000
vt 1.00000000 1.00000000
vt 0.00000000 1.00000000
vt 0.00000000 0.00000000
vt 1.00000000 0.00000000
vt 1.00000000 1.00000000
vt 0.00000000 1.00000000
vt 0.00000000 0.00000000
vt 1.00000000 0.00000000
vt 1.00000000 1.00000000
vt 0.00000000 1.00000000
vt 0.00000000 0.00000000
vt 1.00000000 0.00000000
vt 1.00000000 0.00000000
vt 1.00000000 1.00000000
vt 0.00000000 1.00000000
vt 0.00000000 0.00000000
vt 1.00000000 0.00000000
vt 1.00000000 1.00000000
vt 0.00000000 1.00000000
vt 0.00000000 0.00000000
vt 1.00000000 0.18181818
vt 1.00000000 1.00000000
vt 0.00000000 1.00000000
vt 0.00000000 0.00000000
vt 0.90909091 0.00000000
vt 1.00000000 1.00000000
vt 0.00000000 1.00000000
vt 0.09090909 0.00000000
vt 1.00000000 1.00000000
vt 0.00000000 1.00000000
vt 0.00000000 1.00000000
vt 0.00000000 0.00000000
vt 1.00000000 0.00000000
vt 1.00000000 0.81818182
vt 0.00000000 1.00000000
vt 0.00000000 0.00000000
vt 1.00000000 0.00000000
vt 1.00000000 1.00000000
vn -0.50949201 0.00000000 -0.86047539
vn -0.50949201 0.00000000 -0.86047539
vn -0.50949201 0.00000000 -0.86047539
vn -0.50949201 0.00000000 -0.86047539
vn -0.50949201 0.00000000 -0.86047539
vn -0.50949201 0.00000000 -0.86047539
vn -0.50949201 0.00000000 -0.86047539
vn 0.00000000 -1.00000000 0.00000000
vn 0.00000000 -1.00000000 0.00000000
vn 0.00000000 -1.00000000 0.00000000
vn 0.00000000 -1.00000000 0.00000000
vn 0.00000000 -1.00000000 0.00000000
vn 0.00000000 -1.00000000 0.00000000
vn 0.00000000 -1.00000000 0.00000000
vn 0.00000000 -1.00000000 0.00000000
vn -0.92862607 0.28469506 -0.23791246
vn -0.92862607 0.28469506 -0.23791246
vn -0.92862607 0.28469506 -0.23791246
vn -0.92862607 0.28469506 -0.23791246
vn -0.83287233 0.51067840 -0.21338052
vn -0.83287233 0.51067840 -0.21338052
vn -0.83287233 0.51067840 -0.21338052
vn -0.83287233 0.51067840 -0.21338052
vn -0.47408541 0.87206107 -0.12145990
vn -0.47408541 0.87206107 -0.12145990
vn -0.47408541 0.87206107 -0.12145990
vn -0.47408541 0.87206107 -0.12145990
vn 0.12145990 0.87206107 -0.47408541
vn 0.12145990 0.87206107 -0.47408541
vn 0.12145990 0.87206107 -0.47408541
vn 0.12145990 0.87206107 -0.47408541
vn 0.21338052 0.51067840 -0.83287233
vn 0.21338052 0.51067840 -0.83287233
vn 0.21338052 0.51067840 -0.83287233
vn 0.21338052 0.51067840 -0.83287233
vn 0.26789609 0.96344331 -0.00294578
vn 0.26789609 0.96344331 -0.00294578
vn 0.26789609 0.96344331 -0.00294578
vn 0.26789609 0.96344331 -0.00294578
vn 0.10720475 0.97761216 0.18105692
vn 0.10720475 0.97761216 0.18105692
vn 0.10720475 0.97761216 0.18105692
vn 0.10720475 0.97761216 0.18105692
vn 0.05059770 0.99505653 0.08545390
vn 0.05059770 0.99505653 0.08545390
vn 0.05059770 0.99505653 0.08545390
vn 0.12526529 0.99212233 -0.00137742
vn 0.12526529 0.99212233 -0.00137742
vn 0.12526529 0.99212233 -0.00137742
vn -0.06143977 0.99212233 0.10917163
vn -0.06143977 0.99212233 0.10917163
vn -0.06143977 0.99212233 0.10917163
vn -0.13139692 0.96344331 0.23347771
vn -0.13139692 0.96344331 0.23347771
vn -0.13139692 0.96344331 0.23347771
vn -0.13139692 0.96344331 0.23347771
vn -0.31024982 0.77449084 0.55127941
vn -0.31024982 0.77449084 0.55127941
vn -0.31024982 0.77449084 0.55127941
vn -0.31024982 0.77449084 0.55127941
vn 0.27755748 0.83858357 0.46876374
vn 0.27755748 0.83858357 0.46876374
vn 0.27755748 0.83858357 0.46876374
vn 0.27755748 0.83858357 0.46876374
vn 0.63254688 0.77449084 -0.00695548
vn 0.63254688 0.77449084 -0.00695548
vn 0.63254688 0.77449084 -0.00695548
vn 0.63254688 0.77449084 -0.00695548
vn 0.23791246 0.28469506 -0.92862607
vn 0.23791246 0.28469506 -0.92862607
vn 0.23791246 0.28469506 -0.92862607
vn 0.23791246 0.28469506 -0.92862607
vn 0.86853722 0.38157288 -0.31629927
vn 0.85221410 0.42120188 -0.31035480
vn 0.87118617 0.41669903 -0.25960849
vn 0.88750778 0.37733854 -0.26447223
vn 0.58151066 0.76736873 -0.27016769
vn 0.54858044 0.79630496 -0.25486843
vn 0.57280895 0.79270101 -0.20860252
vn 0.61478067 0.75625333 -0.22388756
vn 0.00000000 1.00000000 0.00000000
vn 0.00000000 1.00000000 0.00000000
vn 0.00000000 1.00000000 0.00000000
vn 0.00000000 1.00000000 0.00000000
vn 0.00000000 1.00000000 0.00000000
vn -0.49191555 0.75625333 0.43139310
vn -0.45833196 0.79270101 0.40194144
vn -0.48724846 0.79630496 0.35845132
vn -0.51649705 0.76736873 0.37996846
vn -0.65863758 0.37733854 0.65100857
vn -0.64652498 0.41669903 0.63903628
vn -0.68189744 0.42120188 0.59800072
vn -0.69495836 0.38157288 0.60945469
s 1
usemtl Shell_-_Faded
f 5/5/5 6/6/6 7/7/7
f 1/1/1 2/2/2 5/5/5
f 2/2/2 3/3/3 5/5/5
f 5/5/5 7/7/7 1/1/1
f 3/3/3 4/4/4 5/5/5
s 2
f 2/10/10 1/9/9 8/8/8
f 12/14/14 10/12/12 8/8/8
f 12/14/14 11/13/13 10/12/12
f 8/8/8 13/15/15 12/14/14
f 10/12/12 9/11/11 8/8/8
f 9/11/11 2/10/10 8/8/8
s 3
f 14/16/16 15/17/17 9/18/18
f 14/16/16 9/18/18 10/19/19
s 4
usemtl Shell_-_Faded_-_Lighter
f 16/20/20 17/21/21 15/22/22
f 16/20/20 15/22/22 14/23/23
s 5
f 18/26/26 5/27/27 17/24/24
f 17/24/24 16/25/25 18/26/26
s 6
f 19/28/28 5/31/31 18/30/30
f 18/30/30 20/29/29 19/28/28
s 7
f 21/32/32 22/33/33 20/35/35
f 22/33/33 19/34/34 20/35/35
s 8
f 21/36/36 20/37/37 23/38/38
f 21/36/36 23/38/38 24/39/39
s 9
f 24/40/40 23/41/41 26/43/43
f 23/41/41 25/42/42 26/43/43
s 10
f 18/46/46 25/45/45 23/44/44
s 11
f 23/47/47 20/48/48 18/49/49
s 12
f 18/52/52 16/51/51 25/50/50
s 13
f 26/53/53 25/54/54 14/56/56
f 25/54/54 16/55/55 14/56/56
s 14
usemtl Shell_-_Faded
f 11/57/57 26/58/58 10/60/60
f 26/58/58 14/59/59 10/60/60
s 15
f 12/61/61 24/62/62 11/64/64
f 24/62/62 26/63/63 11/64/64
s 16
f 13/65/65 21/66/66 24/67/67
f 13/65/65 24/67/67 12/68/68
s 17
f 13/69/69 8/70/70 21/72/72
f 8/70/70 22/71/71 21/72/72
s 18
f 8/76/76 1/75/75 7/74/74
f 8/76/76 7/74/74 22/73/73
s 19
f 22/80/80 7/79/79 6/78/78
f 22/80/80 6/78/78 19/77/77
s 20
usemtl Shell_-_Faded_-_Lighter
f 19/81/81 6/82/82 5/83/83
f 17/84/84 5/85/83 4/86/85
s 21
usemtl Shell_-_Faded
f 17/90/89 4/89/88 15/87/86
f 4/89/88 3/88/87 15/87/86
s 22
f 15/94/93 3/93/92 9/91/90
f 3/93/92 2/92/91 9/91/90
