mtllib Prop_Docks_Corner_Supports.mtl
o object1
g object1
v 0.42346331 1.00000000 0.22346331
v 0.39176078 1.00000000 0.30000000
v 0.42346331 1.00000000 0.37653669
v 0.50000000 1.00000000 0.40823922
v 0.57653669 1.00000000 0.37653669
v 0.60823922 1.00000000 0.30000000
v 0.57653669 1.00000000 0.22346331
v 0.50000000 1.00000000 0.19176078
v 0.50000000 1.00000000 0.30000000
v 0.42346331 0.00000000 0.22346331
v 0.39176078 0.00000000 0.30000000
v 0.42346331 0.00000000 0.37653669
v 0.50000000 0.00000000 0.40823922
v 0.57653669 0.00000000 0.37653669
v 0.60823922 0.00000000 0.30000000
v 0.57653669 0.00000000 0.22346331
v 0.50000000 0.00000000 0.19176078
v 0.50000000 0.00000000 0.30000000
vt 0.14644661 0.14644661
vt 0.50000000 0.00000000
vt 0.85355339 0.14644661
vt 1.00000000 0.50000000
vt 0.85355339 0.85355339
vt 0.50000000 1.00000000
vt 0.14644661 0.85355339
vt 0.00000000 0.50000000
vt 0.50000000 0.50000000
vt 0.14644661 0.14644661
vt 0.50000000 0.00000000
vt 0.85355339 0.14644661
vt 1.00000000 0.50000000
vt 0.85355339 0.85355339
vt 0.50000000 1.00000000
vt 0.14644661 0.85355339
vt 0.00000000 0.50000000
vt 0.50000000 0.50000000
vt 0.00000000 1.00000000
vt 0.00000000 0.00000000
vt 1.00000000 0.00000000
vt 1.00000000 1.00000000
vt 0.00000000 1.00000000
vt 0.00000000 0.00000000
vt 1.00000000 0.00000000
vt 1.00000000 1.00000000
vt 0.00000000 1.00000000
vt 0.00000000 0.00000000
vt 1.00000000 0.00000000
vt 1.00000000 1.00000000
vt 0.00000000 1.00000000
vt 0.00000000 0.00000000
vt 1.00000000 0.00000000
vt 1.00000000 1.00000000
vt 0.00000000 1.00000000
vt 0.00000000 0.00000000
vt 1.00000000 0.00000000
vt 1.00000000 1.00000000
vt 0.00000000 1.00000000
vt 0.00000000 0.00000000
vt 1.00000000 0.00000000
vt 1.00000000 1.00000000
vt 0.00000000 1.00000000
vt 0.00000000 0.00000000
vt 1.00000000 0.00000000
vt 1.00000000 1.00000000
vt 0.00000000 1.00000000
vt 0.00000000 0.00000000
vt 1.00000000 0.00000000
vt 1.00000000 1.00000000
vn 0.00000000 1.00000000 0.00000000
vn 0.00000000 1.00000000 0.00000000
vn 0.00000000 1.00000000 0.00000000
vn 0.00000000 1.00000000 0.00000000
vn 0.00000000 1.00000000 0.00000000
vn 0.00000000 1.00000000 0.00000000
vn 0.00000000 1.00000000 0.00000000
vn 0.00000000 1.00000000 0.00000000
vn 0.00000000 1.00000000 0.00000000
vn 0.00000000 -1.00000000 0.00000000
vn 0.00000000 -1.00000000 0.00000000
vn 0.00000000 -1.00000000 0.00000000
vn 0.00000000 -1.00000000 0.00000000
vn 0.00000000 -1.00000000 0.00000000
vn 0.00000000 -1.00000000 0.00000000
vn 0.00000000 -1.00000000 0.00000000
vn 0.00000000 -1.00000000 0.00000000
vn 0.00000000 -1.00000000 0.00000000
vn -0.92387953 0.00000000 -0.38268343
vn -0.92387953 0.00000000 -0.38268343
vn -0.92387953 0.00000000 -0.38268343
vn -0.92387953 0.00000000 -0.38268343
vn -0.92387953 0.00000000 0.38268343
vn -0.92387953 0.00000000 0.38268343
vn -0.92387953 0.00000000 0.38268343
vn -0.92387953 0.00000000 0.38268343
vn -0.38268343 0.00000000 0.92387953
vn -0.38268343 0.00000000 0.92387953
vn -0.38268343 0.00000000 0.92387953
vn -0.38268343 0.00000000 0.92387953
vn 0.38268343 0.00000000 0.92387953
vn 0.38268343 0.00000000 0.92387953
vn 0.38268343 0.00000000 0.92387953
vn 0.38268343 0.00000000 0.92387953
vn 0.92387953 0.00000000 0.38268343
vn 0.92387953 0.00000000 0.38268343
vn 0.92387953 0.00000000 0.38268343
vn 0.92387953 0.00000000 0.38268343
vn 0.92387953 0.00000000 -0.38268343
vn 0.92387953 0.00000000 -0.38268343
vn 0.92387953 0.00000000 -0.38268343
vn 0.92387953 0.00000000 -0.38268343
vn 0.38268343 0.00000000 -0.92387953
vn 0.38268343 0.00000000 -0.92387953
vn 0.38268343 0.00000000 -0.92387953
vn 0.38268343 0.00000000 -0.92387953
vn -0.38268343 0.00000000 -0.92387953
vn -0.38268343 0.00000000 -0.92387953
vn -0.38268343 0.00000000 -0.92387953
vn -0.38268343 0.00000000 -0.92387953
s 1
usemtl Wood_Light
f 1/1/1 2/2/2 9/9/9
f 7/7/7 8/8/8 9/9/9
f 6/6/6 7/7/7 9/9/9
f 5/5/5 6/6/6 9/9/9
f 4/4/4 5/5/5 9/9/9
f 3/3/3 4/4/4 9/9/9
f 2/2/2 3/3/3 9/9/9
f 8/8/8 1/1/1 9/9/9
s 2
f 17/17/17 16/16/16 18/18/18
f 11/11/11 10/10/10 18/18/18
f 12/12/12 11/11/11 18/18/18
f 13/13/13 12/12/12 18/18/18
f 14/14/14 13/13/13 18/18/18
f 15/15/15 14/14/14 18/18/18
f 16/16/16 15/15/15 18/18/18
f 10/10/10 17/17/17 18/18/18
s 3
usemtl Wood_Dark
f 2/19/19 1/20/20 10/21/21
f 2/19/19 10/21/21 11/22/22
s 4
f 11/26/26 12/25/25 2/23/23
f 12/25/25 3/24/24 2/23/23
s 5
f 12/30/30 13/29/29 3/27/27
f 13/29/29 4/28/28 3/27/27
s 6
f 13/34/34 14/33/33 4/31/31
f 14/33/33 5/32/32 4/31/31
s 7
f 6/35/35 5/36/36 14/37/37
f 6/35/35 14/37/37 15/38/38
s 8
f 15/42/42 16/41/41 6/39/39
f 16/41/41 7/40/40 6/39/39
s 9
f 8/43/43 7/44/44 16/45/45
f 8/43/43 16/45/45 17/46/46
s 10
f 1/47/47 8/48/48 17/49/49
f 1/47/47 17/49/49 10/50/50
o object2
g object2
v 0.14367807 1.00000000 -0.29675144
v 0.11197554 1.00000000 -0.22021476
v 0.14367807 1.00000000 -0.14367807
v 0.22021476 1.00000000 -0.11197554
v 0.29675144 1.00000000 -0.14367807
v 0.32845398 1.00000000 -0.22021476
v 0.29675144 1.00000000 -0.29675144
v 0.22021476 1.00000000 -0.32845398
v 0.22021476 1.00000000 -0.22021476
v 0.14367807 0.00000000 -0.29675144
v 0.11197554 0.00000000 -0.22021476
v 0.14367807 0.00000000 -0.14367807
v 0.22021476 0.00000000 -0.11197554
v 0.29675144 0.00000000 -0.14367807
v 0.32845398 0.00000000 -0.22021476
v 0.29675144 0.00000000 -0.29675144
v 0.22021476 0.00000000 -0.32845398
v 0.22021476 0.00000000 -0.22021476
vt 0.14644661 0.14644661
vt 0.50000000 0.00000000
vt 0.85355339 0.14644661
vt 1.00000000 0.50000000
vt 0.85355339 0.85355339
vt 0.50000000 1.00000000
vt 0.14644661 0.85355339
vt 0.00000000 0.50000000
vt 0.50000000 0.50000000
vt 0.14644661 0.14644661
vt 0.50000000 0.00000000
vt 0.85355339 0.14644661
vt 1.00000000 0.50000000
vt 0.85355339 0.85355339
vt 0.50000000 1.00000000
vt 0.14644661 0.85355339
vt 0.00000000 0.50000000
vt 0.50000000 0.50000000
vt 0.00000000 1.00000000
vt 0.00000000 0.00000000
vt 1.00000000 0.00000000
vt 1.00000000 1.00000000
vt 0.00000000 1.00000000
vt 0.00000000 0.00000000
vt 1.00000000 0.00000000
vt 1.00000000 1.00000000
vt 0.00000000 1.00000000
vt 0.00000000 0.00000000
vt 1.00000000 0.00000000
vt 1.00000000 1.00000000
vt 0.00000000 1.00000000
vt 0.00000000 0.00000000
vt 1.00000000 0.00000000
vt 1.00000000 1.00000000
vt 0.00000000 1.00000000
vt 0.00000000 0.00000000
vt 1.00000000 0.00000000
vt 1.00000000 1.00000000
vt 0.00000000 1.00000000
vt 0.00000000 0.00000000
vt 1.00000000 0.00000000
vt 1.00000000 1.00000000
vt 0.00000000 1.00000000
vt 0.00000000 0.00000000
vt 1.00000000 0.00000000
vt 1.00000000 1.00000000
vt 0.00000000 1.00000000
vt 0.00000000 0.00000000
vt 1.00000000 0.00000000
vt 1.00000000 1.00000000
vn -0.00000000 1.00000000 -0.00000000
vn -0.00000000 1.00000000 -0.00000000
vn -0.00000000 1.00000000 -0.00000000
vn -0.00000000 1.00000000 -0.00000000
vn -0.00000000 1.00000000 -0.00000000
vn -0.00000000 1.00000000 -0.00000000
vn -0.00000000 1.00000000 -0.00000000
vn -0.00000000 1.00000000 -0.00000000
vn 0.00000000 1.00000000 0.00000000
vn 0.00000000 -1.00000000 0.00000000
vn 0.00000000 -1.00000000 0.00000000
vn 0.00000000 -1.00000000 0.00000000
vn 0.00000000 -1.00000000 0.00000000
vn 0.00000000 -1.00000000 0.00000000
vn 0.00000000 -1.00000000 0.00000000
vn 0.00000000 -1.00000000 0.00000000
vn 0.00000000 -1.00000000 0.00000000
vn 0.00000000 -1.00000000 0.00000000
vn -0.92387953 0.00000000 -0.38268343
vn -0.92387953 0.00000000 -0.38268343
vn -0.92387953 0.00000000 -0.38268343
vn -0.92387953 0.00000000 -0.38268343
vn -0.92387953 0.00000000 0.38268343
vn -0.92387953 0.00000000 0.38268343
vn -0.92387953 0.00000000 0.38268343
vn -0.92387953 0.00000000 0.38268343
vn -0.38268343 0.00000000 0.92387953
vn -0.38268343 0.00000000 0.92387953
vn -0.38268343 0.00000000 0.92387953
vn -0.38268343 0.00000000 0.92387953
vn 0.38268343 0.00000000 0.92387953
vn 0.38268343 0.00000000 0.92387953
vn 0.38268343 0.00000000 0.92387953
vn 0.38268343 0.00000000 0.92387953
vn 0.92387953 0.00000000 0.38268343
vn 0.92387953 0.00000000 0.38268343
vn 0.92387953 0.00000000 0.38268343
vn 0.92387953 0.00000000 0.38268343
vn 0.92387953 0.00000000 -0.38268343
vn 0.92387953 0.00000000 -0.38268343
vn 0.92387953 0.00000000 -0.38268343
vn 0.92387953 0.00000000 -0.38268343
vn 0.38268343 0.00000000 -0.92387953
vn 0.38268343 0.00000000 -0.92387953
vn 0.38268343 0.00000000 -0.92387953
vn 0.38268343 0.00000000 -0.92387953
vn -0.38268343 0.00000000 -0.92387953
vn -0.38268343 0.00000000 -0.92387953
vn -0.38268343 0.00000000 -0.92387953
vn -0.38268343 0.00000000 -0.92387953
s 1
usemtl Wood_Light
f 19/51/51 20/52/52 27/59/59
f 25/57/57 26/58/58 27/59/59
f 24/56/56 25/57/57 27/59/59
f 23/55/55 24/56/56 27/59/59
f 22/54/54 23/55/55 27/59/59
f 21/53/53 22/54/54 27/59/59
f 20/52/52 21/53/53 27/59/59
f 26/58/58 19/51/51 27/59/59
s 2
f 35/67/67 34/66/66 36/68/68
f 29/61/61 28/60/60 36/68/68
f 30/62/62 29/61/61 36/68/68
f 31/63/63 30/62/62 36/68/68
f 32/64/64 31/63/63 36/68/68
f 33/65/65 32/64/64 36/68/68
f 34/66/66 33/65/65 36/68/68
f 28/60/60 35/67/67 36/68/68
s 3
usemtl Wood_Dark
f 20/69/69 19/70/70 28/71/71
f 20/69/69 28/71/71 29/72/72
s 4
f 29/76/76 30/75/75 20/73/73
f 30/75/75 21/74/74 20/73/73
s 5
f 30/80/80 31/79/79 21/77/77
f 31/79/79 22/78/78 21/77/77
s 6
f 31/84/84 32/83/83 22/81/81
f 32/83/83 23/82/82 22/81/81
s 7
f 24/85/85 23/86/86 32/87/87
f 24/85/85 32/87/87 33/88/88
s 8
f 33/92/92 34/91/91 24/89/89
f 34/91/91 25/90/90 24/89/89
s 9
f 26/93/93 25/94/94 34/95/95
f 26/93/93 34/95/95 35/96/96
s 10
f 19/97/97 26/98/98 35/99/99
f 19/97/97 35/99/99 28/100/100
o object3
g object3
v -0.37653669 1.00000000 -0.57653669
v -0.40823922 1.00000000 -0.50000000
v -0.37653669 1.00000000 -0.42346331
v -0.30000000 1.00000000 -0.39176078
v -0.22346331 1.00000000 -0.42346331
v -0.19176078 1.00000000 -0.50000000
v -0.22346331 1.00000000 -0.57653669
v -0.30000000 1.00000000 -0.60823922
v -0.30000000 1.00000000 -0.50000000
v -0.37653669 0.00000000 -0.57653669
v -0.40823922 0.00000000 -0.50000000
v -0.37653669 0.00000000 -0.42346331
v -0.30000000 0.00000000 -0.39176078
v -0.22346331 0.00000000 -0.42346331
v -0.19176078 0.00000000 -0.50000000
v -0.22346331 0.00000000 -0.57653669
v -0.30000000 0.00000000 -0.60823922
v -0.30000000 0.00000000 -0.50000000
vt 0.14644661 0.14644661
vt 0.50000000 0.00000000
vt 0.85355339 0.14644661
vt 1.00000000 0.50000000
vt 0.85355339 0.85355339
vt 0.50000000 1.00000000
vt 0.14644661 0.85355339
vt 0.00000000 0.50000000
vt 0.50000000 0.50000000
vt 0.14644661 0.14644661
vt 0.50000000 0.00000000
vt 0.85355339 0.14644661
vt 1.00000000 0.50000000
vt 0.85355339 0.85355339
vt 0.50000000 1.00000000
vt 0.14644661 0.85355339
vt 0.00000000 0.50000000
vt 0.50000000 0.50000000
vt 0.00000000 1.00000000
vt 0.00000000 0.00000000
vt 1.00000000 0.00000000
vt 1.00000000 1.00000000
vt 0.00000000 1.00000000
vt 0.00000000 0.00000000
vt 1.00000000 0.00000000
vt 1.00000000 1.00000000
vt 0.00000000 1.00000000
vt 0.00000000 0.00000000
vt 1.00000000 0.00000000
vt 1.00000000 1.00000000
vt 0.00000000 1.00000000
vt 0.00000000 0.00000000
vt 1.00000000 0.00000000
vt 1.00000000 1.00000000
vt 0.00000000 1.00000000
vt 0.00000000 0.00000000
vt 1.00000000 0.00000000
vt 1.00000000 1.00000000
vt 0.00000000 1.00000000
vt 0.00000000 0.00000000
vt 1.00000000 0.00000000
vt 1.00000000 1.00000000
vt 0.00000000 1.00000000
vt 0.00000000 0.00000000
vt 1.00000000 0.00000000
vt 1.00000000 1.00000000
vt 0.00000000 1.00000000
vt 0.00000000 0.00000000
vt 1.00000000 0.00000000
vt 1.00000000 1.00000000
vn 0.00000000 1.00000000 0.00000000
vn 0.00000000 1.00000000 0.00000000
vn 0.00000000 1.00000000 0.00000000
vn 0.00000000 1.00000000 0.00000000
vn 0.00000000 1.00000000 0.00000000
vn 0.00000000 1.00000000 0.00000000
vn 0.00000000 1.00000000 0.00000000
vn 0.00000000 1.00000000 0.00000000
vn 0.00000000 1.00000000 0.00000000
vn 0.00000000 -1.00000000 0.00000000
vn 0.00000000 -1.00000000 0.00000000
vn 0.00000000 -1.00000000 0.00000000
vn 0.00000000 -1.00000000 0.00000000
vn 0.00000000 -1.00000000 0.00000000
vn 0.00000000 -1.00000000 0.00000000
vn 0.00000000 -1.00000000 0.00000000
vn 0.00000000 -1.00000000 0.00000000
vn 0.00000000 -1.00000000 0.00000000
vn -0.92387953 0.00000000 -0.38268343
vn -0.92387953 0.00000000 -0.38268343
vn -0.92387953 0.00000000 -0.38268343
vn -0.92387953 0.00000000 -0.38268343
vn -0.92387953 0.00000000 0.38268343
vn -0.92387953 0.00000000 0.38268343
vn -0.92387953 0.00000000 0.38268343
vn -0.92387953 0.00000000 0.38268343
vn -0.38268343 0.00000000 0.92387953
vn -0.38268343 0.00000000 0.92387953
vn -0.38268343 0.00000000 0.92387953
vn -0.38268343 0.00000000 0.92387953
vn 0.38268343 0.00000000 0.92387953
vn 0.38268343 0.00000000 0.92387953
vn 0.38268343 0.00000000 0.92387953
vn 0.38268343 0.00000000 0.92387953
vn 0.92387953 0.00000000 0.38268343
vn 0.92387953 0.00000000 0.38268343
vn 0.92387953 0.00000000 0.38268343
vn 0.92387953 0.00000000 0.38268343
vn 0.92387953 0.00000000 -0.38268343
vn 0.92387953 0.00000000 -0.38268343
vn 0.92387953 0.00000000 -0.38268343
vn 0.92387953 0.00000000 -0.38268343
vn 0.38268343 0.00000000 -0.92387953
vn 0.38268343 0.00000000 -0.92387953
vn 0.38268343 0.00000000 -0.92387953
vn 0.38268343 0.00000000 -0.92387953
vn -0.38268343 0.00000000 -0.92387953
vn -0.38268343 0.00000000 -0.92387953
vn -0.38268343 0.00000000 -0.92387953
vn -0.38268343 0.00000000 -0.92387953
s 1
usemtl Wood_Light
f 37/101/101 38/102/102 45/109/109
f 43/107/107 44/108/108 45/109/109
f 42/106/106 43/107/107 45/109/109
f 41/105/105 42/106/106 45/109/109
f 40/104/104 41/105/105 45/109/109
f 39/103/103 40/104/104 45/109/109
f 38/102/102 39/103/103 45/109/109
f 44/108/108 37/101/101 45/109/109
s 2
f 53/117/117 52/116/116 54/118/118
f 47/111/111 46/110/110 54/118/118
f 48/112/112 47/111/111 54/118/118
f 49/113/113 48/112/112 54/118/118
f 50/114/114 49/113/113 54/118/118
f 51/115/115 50/114/114 54/118/118
f 52/116/116 51/115/115 54/118/118
f 46/110/110 53/117/117 54/118/118
s 3
usemtl Wood_Dark
f 38/119/119 37/120/120 46/121/121
f 38/119/119 46/121/121 47/122/122
s 4
f 47/126/126 48/125/125 38/123/123
f 48/125/125 39/124/124 38/123/123
s 5
f 48/130/130 49/129/129 39/127/127
f 49/129/129 40/128/128 39/127/127
s 6
f 49/134/134 50/133/133 40/131/131
f 50/133/133 41/132/132 40/131/131
s 7
f 42/135/135 41/136/136 50/137/137
f 42/135/135 50/137/137 51/138/138
s 8
f 51/142/142 52/141/141 42/139/139
f 52/141/141 43/140/140 42/139/139
s 9
f 44/143/143 43/144/144 52/145/145
f 44/143/143 52/145/145 53/146/146
s 10
f 37/147/147 44/148/148 53/149/149
f 37/147/147 53/149/149 46/150/150
