mtllib Prop_Docks_Steps.mtl
o object1
g object1
v -0.27500000 0.79638494 0.57136649
v -0.27500000 0.90157087 0.46532580
v -0.27500000 -0.08880571 -0.52419642
v -0.27500000 -0.19399164 -0.41815573
v -0.42500000 -0.08880571 -0.52419642
v -0.42500000 -0.19399164 -0.41815573
v -0.42500000 0.79638494 0.57136649
v -0.42500000 0.90157087 0.46532580
vt 1.00000000 1.00000000
vt 0.00000000 1.00000000
vt 0.00000000 0.00000000
vt 1.00000000 0.00000000
vt 1.00000000 1.00000000
vt 0.00000000 1.00000000
vt 0.00000000 0.00000000
vt 1.00000000 0.00000000
vt 1.00000000 1.00000000
vt 0.00000000 1.00000000
vt 0.00000000 0.00000000
vt 1.00000000 0.00000000
vt 1.00000000 1.00000000
vt 0.00000000 1.00000000
vt 0.00000000 0.00000000
vt 1.00000000 0.00000000
vt 1.00000000 1.00000000
vt 0.00000000 1.00000000
vt 0.00000000 0.00000000
vt 1.00000000 0.00000000
vt 1.00000000 1.00000000
vt 0.00000000 1.00000000
vt 0.00000000 0.00000000
vt 1.00000000 0.00000000
vn 1.00000000 -0.00000000 -0.00000000
vn 1.00000000 -0.00000000 -0.00000000
vn 1.00000000 -0.00000000 -0.00000000
vn 1.00000000 -0.00000000 -0.00000000
vn 0.00000000 -0.70996238 -0.70423960
vn 0.00000000 -0.70996238 -0.70423960
vn 0.00000000 -0.70996238 -0.70423960
vn 0.00000000 -0.70996238 -0.70423960
vn -1.00000000 0.00000000 0.00000000
vn -1.00000000 0.00000000 0.00000000
vn -1.00000000 0.00000000 0.00000000
vn -1.00000000 0.00000000 0.00000000
vn 0.00000000 -0.70680159 0.70741184
vn 0.00000000 -0.70680159 0.70741184
vn 0.00000000 -0.70680159 0.70741184
vn 0.00000000 -0.70680159 0.70741184
vn -0.00000000 0.70996238 0.70423960
vn -0.00000000 0.70996238 0.70423960
vn -0.00000000 0.70996238 0.70423960
vn -0.00000000 0.70996238 0.70423960
vn -0.00000000 0.70680159 -0.70741184
vn -0.00000000 0.70680159 -0.70741184
vn -0.00000000 0.70680159 -0.70741184
vn -0.00000000 0.70680159 -0.70741184
s 1
usemtl Wood_Dark
f 4/4/4 3/3/3 2/2/2
f 4/4/4 2/2/2 1/1/1
s 2
f 6/8/8 5/7/7 3/6/6
f 6/8/8 3/6/6 4/5/5
s 3
f 7/9/9 8/10/10 6/12/12
f 8/10/10 5/11/11 6/12/12
s 4
f 1/13/13 7/14/14 4/16/16
f 7/14/14 6/15/15 4/16/16
s 5
f 1/17/17 2/18/18 7/20/20
f 2/18/18 8/19/19 7/20/20
s 6
f 3/24/24 5/23/23 2/21/21
f 5/23/23 8/22/22 2/21/21
o object2
g object2
v 0.50000000 0.30000000 -0.30000000
v 0.50000000 0.30000000 -0.10000000
v -0.50000000 0.30000000 -0.10000000
v -0.50000000 0.30000000 -0.30000000
v -0.50000000 0.25000000 -0.10000000
v -0.50000000 0.25000000 -0.30000000
v 0.50000000 0.25000000 -0.30000000
v 0.50000000 0.25000000 -0.10000000
vt 1.00000000 0.00000000
vt 1.00000000 1.00000000
vt 0.00000000 1.00000000
vt 0.00000000 0.00000000
vt 1.00000000 0.00000000
vt 1.00000000 1.00000000
vt 0.00000000 1.00000000
vt 0.00000000 0.00000000
vt 1.00000000 0.00000000
vt 1.00000000 1.00000000
vt 0.00000000 1.00000000
vt 0.00000000 0.00000000
vt 1.00000000 0.00000000
vt 1.00000000 1.00000000
vt 0.00000000 1.00000000
vt 0.00000000 0.00000000
vt 1.00000000 0.00000000
vt 1.00000000 1.00000000
vt 0.00000000 1.00000000
vt 0.00000000 0.00000000
vt 1.00000000 0.00000000
vt 1.00000000 1.00000000
vt 0.00000000 1.00000000
vt 0.00000000 0.00000000
vn 0.00000000 1.00000000 0.00000000
vn 0.00000000 1.00000000 0.00000000
vn 0.00000000 1.00000000 0.00000000
vn 0.00000000 1.00000000 0.00000000
vn -1.00000000 0.00000000 0.00000000
vn -1.00000000 0.00000000 0.00000000
vn -1.00000000 0.00000000 0.00000000
vn -1.00000000 0.00000000 0.00000000
vn 0.00000000 -1.00000000 0.00000000
vn 0.00000000 -1.00000000 0.00000000
vn 0.00000000 -1.00000000 0.00000000
vn 0.00000000 -1.00000000 0.00000000
vn -0.00000000 0.00000000 -1.00000000
vn -0.00000000 0.00000000 -1.00000000
vn -0.00000000 0.00000000 -1.00000000
vn -0.00000000 0.00000000 -1.00000000
vn 1.00000000 0.00000000 0.00000000
vn 1.00000000 0.00000000 0.00000000
vn 1.00000000 0.00000000 0.00000000
vn 1.00000000 0.00000000 0.00000000
vn 0.00000000 0.00000000 1.00000000
vn 0.00000000 0.00000000 1.00000000
vn 0.00000000 0.00000000 1.00000000
vn 0.00000000 0.00000000 1.00000000
s 1
usemtl Wood_Light
f 12/28/28 11/27/27 10/26/26
f 12/28/28 10/26/26 9/25/25
s 2
f 14/32/32 13/31/31 12/29/29
f 13/31/31 11/30/30 12/29/29
s 3
f 15/33/33 16/34/34 14/36/36
f 16/34/34 13/35/35 14/36/36
s 4
f 12/37/37 9/38/38 14/40/40
f 9/38/38 15/39/39 14/40/40
s 5
f 9/41/41 10/42/42 15/44/44
f 10/42/42 16/43/43 15/44/44
s 6
f 13/48/48 16/47/47 11/45/45
f 16/47/47 10/46/46 11/45/45
o object3
g object3
v 0.50000000 0.50000000 -0.10000000
v 0.50000000 0.50000000 0.10000000
v -0.50000000 0.50000000 0.10000000
v -0.50000000 0.50000000 -0.10000000
v -0.50000000 0.45000000 0.10000000
v -0.50000000 0.45000000 -0.10000000
v 0.50000000 0.45000000 -0.10000000
v 0.50000000 0.45000000 0.10000000
vt 1.00000000 0.00000000
vt 1.00000000 1.00000000
vt 0.00000000 1.00000000
vt 0.00000000 0.00000000
vt 1.00000000 0.00000000
vt 1.00000000 1.00000000
vt 0.00000000 1.00000000
vt 0.00000000 0.00000000
vt 1.00000000 0.00000000
vt 1.00000000 1.00000000
vt 0.00000000 1.00000000
vt 0.00000000 0.00000000
vt 1.00000000 0.00000000
vt 1.00000000 1.00000000
vt 0.00000000 1.00000000
vt 0.00000000 0.00000000
vt 1.00000000 0.00000000
vt 1.00000000 1.00000000
vt 0.00000000 1.00000000
vt 0.00000000 0.00000000
vt 1.00000000 0.00000000
vt 1.00000000 1.00000000
vt 0.00000000 1.00000000
vt 0.00000000 0.00000000
vn 0.00000000 1.00000000 0.00000000
vn 0.00000000 1.00000000 0.00000000
vn 0.00000000 1.00000000 0.00000000
vn 0.00000000 1.00000000 0.00000000
vn -1.00000000 0.00000000 0.00000000
vn -1.00000000 0.00000000 0.00000000
vn -1.00000000 0.00000000 0.00000000
vn -1.00000000 0.00000000 0.00000000
vn 0.00000000 -1.00000000 0.00000000
vn 0.00000000 -1.00000000 0.00000000
vn 0.00000000 -1.00000000 0.00000000
vn 0.00000000 -1.00000000 0.00000000
vn 0.00000000 0.00000000 -1.00000000
vn 0.00000000 0.00000000 -1.00000000
vn 0.00000000 0.00000000 -1.00000000
vn 0.00000000 0.00000000 -1.00000000
vn 1.00000000 0.00000000 0.00000000
vn 1.00000000 0.00000000 0.00000000
vn 1.00000000 0.00000000 0.00000000
vn 1.00000000 0.00000000 0.00000000
vn 0.00000000 0.00000000 1.00000000
vn 0.00000000 0.00000000 1.00000000
vn 0.00000000 0.00000000 1.00000000
vn 0.00000000 0.00000000 1.00000000
s 1
usemtl Wood_Light
f 20/52/52 19/51/51 18/50/50
f 20/52/52 18/50/50 17/49/49
s 2
f 22/56/56 21/55/55 20/53/53
f 21/55/55 19/54/54 20/53/53
s 3
f 23/57/57 24/58/58 22/60/60
f 24/58/58 21/59/59 22/60/60
s 4
f 20/61/61 17/62/62 22/64/64
f 17/62/62 23/63/63 22/64/64
s 5
f 17/65/65 18/66/66 23/68/68
f 18/66/66 24/67/67 23/68/68
s 6
f 21/72/72 24/71/71 19/69/69
f 24/71/71 18/70/70 19/69/69
o object4
g object4
v -0.50000000 0.10000000 -0.50000000
v -0.50000000 0.10000000 -0.30000000
v -0.50000000 0.05000000 -0.30000000
v -0.50000000 0.05000000 -0.50000000
v 0.50000000 0.05000000 -0.50000000
v 0.50000000 0.05000000 -0.30000000
v 0.50000000 0.10000000 -0.50000000
v 0.50000000 0.10000000 -0.30000000
vt 1.00000000 0.00000000
vt 1.00000000 1.00000000
vt 0.00000000 1.00000000
vt 0.00000000 0.00000000
vt 1.00000000 0.00000000
vt 1.00000000 1.00000000
vt 0.00000000 1.00000000
vt 0.00000000 0.00000000
vt 1.00000000 0.00000000
vt 1.00000000 1.00000000
vt 0.00000000 1.00000000
vt 0.00000000 0.00000000
vt 1.00000000 0.00000000
vt 1.00000000 1.00000000
vt 0.00000000 1.00000000
vt 0.00000000 0.00000000
vt 1.00000000 0.00000000
vt 1.00000000 1.00000000
vt 0.00000000 1.00000000
vt 0.00000000 0.00000000
vt 1.00000000 0.00000000
vt 1.00000000 1.00000000
vt 0.00000000 1.00000000
vt 0.00000000 0.00000000
vn -1.00000000 0.00000000 0.00000000
vn -1.00000000 0.00000000 0.00000000
vn -1.00000000 0.00000000 0.00000000
vn -1.00000000 0.00000000 0.00000000
vn 0.00000000 -1.00000000 0.00000000
vn 0.00000000 -1.00000000 0.00000000
vn 0.00000000 -1.00000000 0.00000000
vn 0.00000000 -1.00000000 0.00000000
vn 1.00000000 0.00000000 0.00000000
vn 1.00000000 0.00000000 0.00000000
vn 1.00000000 0.00000000 0.00000000
vn 1.00000000 0.00000000 0.00000000
vn 0.00000000 0.00000000 -1.00000000
vn 0.00000000 0.00000000 -1.00000000
vn 0.00000000 0.00000000 -1.00000000
vn 0.00000000 0.00000000 -1.00000000
vn 0.00000000 1.00000000 0.00000000
vn 0.00000000 1.00000000 0.00000000
vn 0.00000000 1.00000000 0.00000000
vn 0.00000000 1.00000000 0.00000000
vn 0.00000000 0.00000000 1.00000000
vn 0.00000000 0.00000000 1.00000000
vn 0.00000000 0.00000000 1.00000000
vn 0.00000000 0.00000000 1.00000000
s 1
usemtl Wood_Light
f 28/76/76 27/75/75 25/73/73
f 27/75/75 26/74/74 25/73/73
s 2
f 29/77/77 30/78/78 28/80/80
f 30/78/78 27/79/79 28/80/80
s 3
f 31/81/81 32/82/82 29/84/84
f 32/82/82 30/83/83 29/84/84
s 4
f 25/85/85 31/86/86 29/87/87
f 25/85/85 29/87/87 28/88/88
s 5
f 25/92/92 26/91/91 32/90/90
f 25/92/92 32/90/90 31/89/89
s 6
f 27/96/96 30/95/95 26/93/93
f 30/95/95 32/94/94 26/93/93
o object5
g object5
v -0.50000000 0.90000000 0.30000000
v -0.50000000 0.90000000 0.50000000
v -0.50000000 0.85000000 0.50000000
v -0.50000000 0.85000000 0.30000000
v 0.50000000 0.85000000 0.30000000
v 0.50000000 0.85000000 0.50000000
v 0.50000000 0.90000000 0.30000000
v 0.50000000 0.90000000 0.50000000
vt 1.00000000 0.00000000
vt 1.00000000 1.00000000
vt 0.00000000 1.00000000
vt 0.00000000 0.00000000
vt 1.00000000 0.00000000
vt 1.00000000 1.00000000
vt 0.00000000 1.00000000
vt 0.00000000 0.00000000
vt 1.00000000 0.00000000
vt 1.00000000 1.00000000
vt 0.00000000 1.00000000
vt 0.00000000 0.00000000
vt 1.00000000 0.00000000
vt 1.00000000 1.00000000
vt 0.00000000 1.00000000
vt 0.00000000 0.00000000
vt 1.00000000 0.00000000
vt 1.00000000 1.00000000
vt 0.00000000 1.00000000
vt 0.00000000 0.00000000
vt 1.00000000 0.00000000
vt 1.00000000 1.00000000
vt 0.00000000 1.00000000
vt 0.00000000 0.00000000
vn -1.00000000 0.00000000 0.00000000
vn -1.00000000 0.00000000 0.00000000
vn -1.00000000 0.00000000 0.00000000
vn -1.00000000 0.00000000 0.00000000
vn 0.00000000 -1.00000000 0.00000000
vn 0.00000000 -1.00000000 0.00000000
vn 0.00000000 -1.00000000 0.00000000
vn 0.00000000 -1.00000000 0.00000000
vn 1.00000000 0.00000000 0.00000000
vn 1.00000000 0.00000000 0.00000000
vn 1.00000000 0.00000000 0.00000000
vn 1.00000000 0.00000000 0.00000000
vn 0.00000000 0.00000000 -1.00000000
vn 0.00000000 0.00000000 -1.00000000
vn 0.00000000 0.00000000 -1.00000000
vn 0.00000000 0.00000000 -1.00000000
vn 0.00000000 1.00000000 0.00000000
vn 0.00000000 1.00000000 0.00000000
vn 0.00000000 1.00000000 0.00000000
vn 0.00000000 1.00000000 0.00000000
vn 0.00000000 0.00000000 1.00000000
vn 0.00000000 0.00000000 1.00000000
vn 0.00000000 0.00000000 1.00000000
vn 0.00000000 0.00000000 1.00000000
s 1
usemtl Wood_Light
f 36/100/100 35/99/99 33/97/97
f 35/99/99 34/98/98 33/97/97
s 2
f 37/101/101 38/102/102 36/104/104
f 38/102/102 35/103/103 36/104/104
s 3
f 39/105/105 40/106/106 37/108/108
f 40/106/106 38/107/107 37/108/108
s 4
f 33/109/109 39/110/110 36/112/112
f 39/110/110 37/111/111 36/112/112
s 5
f 33/116/116 34/115/115 40/114/114
f 33/116/116 40/114/114 39/113/113
s 6
f 35/120/120 38/119/119 34/117/117
f 38/119/119 40/118/118 34/117/117
o object6
g object6
v 0.42500000 0.90157087 0.46532580
v 0.27500000 0.90157087 0.46532580
v 0.27500000 -0.08880571 -0.52419642
v 0.42500000 -0.08880571 -0.52419642
v 0.42500000 -0.19399164 -0.41815573
v 0.27500000 -0.19399164 -0.41815573
v 0.42500000 0.79638494 0.57136649
v 0.27500000 0.79638494 0.57136649
vt 1.00000000 1.00000000
vt 0.00000000 1.00000000
vt 0.00000000 0.00000000
vt 1.00000000 0.00000000
vt 1.00000000 1.00000000
vt 0.00000000 1.00000000
vt 0.00000000 0.00000000
vt 1.00000000 0.00000000
vt 1.00000000 1.00000000
vt 0.00000000 1.00000000
vt 0.00000000 0.00000000
vt 1.00000000 0.00000000
vt 1.00000000 1.00000000
vt 0.00000000 1.00000000
vt 0.00000000 0.00000000
vt 1.00000000 0.00000000
vt 1.00000000 1.00000000
vt 0.00000000 1.00000000
vt 0.00000000 0.00000000
vt 1.00000000 0.00000000
vt 1.00000000 1.00000000
vt 0.00000000 1.00000000
vt 0.00000000 0.00000000
vt 1.00000000 0.00000000
vn -0.00000000 0.70680159 -0.70741184
vn -0.00000000 0.70680159 -0.70741184
vn 0.00000000 0.70680159 -0.70741184
vn 0.00000000 0.70680159 -0.70741184
vn 0.00000000 -0.70996238 -0.70423960
vn -0.00000000 -0.70996238 -0.70423960
vn -0.00000000 -0.70996238 -0.70423960
vn 0.00000000 -0.70996238 -0.70423960
vn 0.00000000 -0.70680159 0.70741184
vn 0.00000000 -0.70680159 0.70741184
vn -0.00000000 -0.70680159 0.70741184
vn -0.00000000 -0.70680159 0.70741184
vn 1.00000000 -0.00000000 -0.00000000
vn 1.00000000 -0.00000000 -0.00000000
vn 1.00000000 -0.00000000 -0.00000000
vn 1.00000000 -0.00000000 -0.00000000
vn -0.00000000 0.70996238 0.70423960
vn -0.00000000 0.70996238 0.70423960
vn -0.00000000 0.70996238 0.70423960
vn -0.00000000 0.70996238 0.70423960
vn -1.00000000 0.00000000 0.00000000
vn -1.00000000 0.00000000 0.00000000
vn -1.00000000 0.00000000 0.00000000
vn -1.00000000 0.00000000 0.00000000
s 1
usemtl Wood_Dark
f 44/124/124 43/123/123 41/121/121
f 43/123/123 42/122/122 41/121/121
s 2
f 46/128/128 43/127/127 44/126/126
f 46/128/128 44/126/126 45/125/125
s 3
f 47/129/129 48/130/130 45/132/132
f 48/130/130 46/131/131 45/132/132
s 4
f 45/136/136 44/135/135 41/134/134
f 45/136/136 41/134/134 47/133/133
s 5
f 47/137/137 41/138/138 48/140/140
f 41/138/138 42/139/139 48/140/140
s 6
f 48/141/141 42/142/142 46/144/144
f 42/142/142 43/143/143 46/144/144
o object7
g object7
v -0.50000000 0.70000000 0.30000000
v 0.50000000 0.70000000 0.30000000
v 0.50000000 0.65000000 0.30000000
v -0.50000000 0.65000000 0.30000000
v 0.50000000 0.65000000 0.10000000
v -0.50000000 0.65000000 0.10000000
v -0.50000000 0.70000000 0.10000000
v 0.50000000 0.70000000 0.10000000
vt 1.00000000 0.00000000
vt 1.00000000 1.00000000
vt 0.00000000 1.00000000
vt 0.00000000 0.00000000
vt 1.00000000 0.00000000
vt 1.00000000 1.00000000
vt 0.00000000 1.00000000
vt 0.00000000 0.00000000
vt 1.00000000 0.00000000
vt 1.00000000 1.00000000
vt 0.00000000 1.00000000
vt 0.00000000 0.00000000
vt 1.00000000 0.00000000
vt 1.00000000 1.00000000
vt 0.00000000 1.00000000
vt 0.00000000 0.00000000
vt 1.00000000 0.00000000
vt 1.00000000 1.00000000
vt 0.00000000 1.00000000
vt 0.00000000 0.00000000
vt 1.00000000 0.00000000
vt 1.00000000 1.00000000
vt 0.00000000 1.00000000
vt 0.00000000 0.00000000
vn 0.00000000 0.00000000 1.00000000
vn 0.00000000 0.00000000 1.00000000
vn 0.00000000 0.00000000 1.00000000
vn 0.00000000 0.00000000 1.00000000
vn 0.00000000 -1.00000000 0.00000000
vn 0.00000000 -1.00000000 0.00000000
vn 0.00000000 -1.00000000 0.00000000
vn 0.00000000 -1.00000000 0.00000000
vn -0.00000000 0.00000000 -1.00000000
vn -0.00000000 0.00000000 -1.00000000
vn -0.00000000 0.00000000 -1.00000000
vn -0.00000000 0.00000000 -1.00000000
vn -1.00000000 0.00000000 0.00000000
vn -1.00000000 0.00000000 0.00000000
vn -1.00000000 0.00000000 0.00000000
vn -1.00000000 0.00000000 0.00000000
vn 0.00000000 1.00000000 0.00000000
vn 0.00000000 1.00000000 0.00000000
vn 0.00000000 1.00000000 0.00000000
vn 0.00000000 1.00000000 0.00000000
vn 1.00000000 0.00000000 0.00000000
vn 1.00000000 0.00000000 0.00000000
vn 1.00000000 0.00000000 0.00000000
vn 1.00000000 0.00000000 0.00000000
s 1
usemtl Wood_Light
f 52/148/148 51/147/147 49/145/145
f 51/147/147 50/146/146 49/145/145
s 2
f 53/149/149 51/150/150 54/152/152
f 51/150/150 52/151/151 54/152/152
s 3
f 55/153/153 56/154/154 54/156/156
f 56/154/154 53/155/155 54/156/156
s 4
f 54/160/160 52/159/159 55/157/157
f 52/159/159 49/158/158 55/157/157
s 5
f 55/164/164 49/163/163 50/162/162
f 55/164/164 50/162/162 56/161/161
s 6
f 56/165/165 50/166/166 53/168/168
f 50/166/166 51/167/167 53/168/168
