mtllib Prop_Docks_Straight.mtl
o object1
g object1
v 0.50000000 1.00000000 0.47500000
v -0.50000000 1.00000000 0.47500000
v -0.50000000 0.95000000 0.47500000
v 0.50000000 0.95000000 0.47500000
v -0.50000000 1.00000000 0.27500000
v 0.50000000 1.00000000 0.27500000
v -0.50000000 0.95000000 0.27500000
v 0.50000000 0.95000000 0.27500000
vt 1.00000000 0.00000000
vt 1.00000000 1.00000000
vt 0.00000000 1.00000000
vt 0.00000000 0.00000000
vt 1.00000000 0.00000000
vt 1.00000000 1.00000000
vt 0.00000000 1.00000000
vt 0.00000000 0.00000000
vt 1.00000000 0.00000000
vt 1.00000000 1.00000000
vt 0.00000000 1.00000000
vt 0.00000000 0.00000000
vt 1.00000000 0.00000000
vt 1.00000000 1.00000000
vt 0.00000000 1.00000000
vt 0.00000000 0.00000000
vt 1.00000000 0.00000000
vt 1.00000000 1.00000000
vt 0.00000000 1.00000000
vt 0.00000000 0.00000000
vt 1.00000000 0.00000000
vt 1.00000000 1.00000000
vt 0.00000000 1.00000000
vt 0.00000000 0.00000000
vn 0.00000000 0.00000000 1.00000000
vn 0.00000000 0.00000000 1.00000000
vn 0.00000000 0.00000000 1.00000000
vn 0.00000000 0.00000000 1.00000000
vn 0.00000000 1.00000000 0.00000000
vn 0.00000000 1.00000000 0.00000000
vn 0.00000000 1.00000000 0.00000000
vn 0.00000000 1.00000000 0.00000000
vn 0.00000000 0.00000000 -1.00000000
vn 0.00000000 0.00000000 -1.00000000
vn 0.00000000 0.00000000 -1.00000000
vn 0.00000000 0.00000000 -1.00000000
vn 1.00000000 0.00000000 0.00000000
vn 1.00000000 0.00000000 0.00000000
vn 1.00000000 0.00000000 0.00000000
vn 1.00000000 0.00000000 0.00000000
vn 0.00000000 -1.00000000 0.00000000
vn 0.00000000 -1.00000000 0.00000000
vn 0.00000000 -1.00000000 0.00000000
vn 0.00000000 -1.00000000 0.00000000
vn -1.00000000 0.00000000 0.00000000
vn -1.00000000 0.00000000 0.00000000
vn -1.00000000 0.00000000 0.00000000
vn -1.00000000 0.00000000 0.00000000
s 1
usemtl Wood_Light
f 1/1/1 2/2/2 4/4/4
f 2/2/2 3/3/3 4/4/4
s 2
f 1/8/8 6/7/7 2/5/5
f 6/7/7 5/6/6 2/5/5
s 3
f 8/12/12 7/11/11 6/9/9
f 7/11/11 5/10/10 6/9/9
s 4
f 4/16/16 8/15/15 1/13/13
f 8/15/15 6/14/14 1/13/13
s 5
f 3/17/17 7/18/18 8/19/19
f 3/17/17 8/19/19 4/20/20
s 6
f 2/21/21 5/22/22 3/24/24
f 5/22/22 7/23/23 3/24/24
o object2
g object2
v 0.50000000 1.00000000 -0.02500000
v -0.50000000 1.00000000 -0.02500000
v -0.50000000 0.95000000 -0.02500000
v 0.50000000 0.95000000 -0.02500000
v -0.50000000 1.00000000 -0.22500000
v 0.50000000 1.00000000 -0.22500000
v -0.50000000 0.95000000 -0.22500000
v 0.50000000 0.95000000 -0.22500000
vt 1.00000000 0.00000000
vt 1.00000000 1.00000000
vt 0.00000000 1.00000000
vt 0.00000000 0.00000000
vt 1.00000000 0.00000000
vt 1.00000000 1.00000000
vt 0.00000000 1.00000000
vt 0.00000000 0.00000000
vt 1.00000000 0.00000000
vt 1.00000000 1.00000000
vt 0.00000000 1.00000000
vt 0.00000000 0.00000000
vt 1.00000000 0.00000000
vt 1.00000000 1.00000000
vt 0.00000000 1.00000000
vt 0.00000000 0.00000000
vt 1.00000000 0.00000000
vt 1.00000000 1.00000000
vt 0.00000000 1.00000000
vt 0.00000000 0.00000000
vt 1.00000000 0.00000000
vt 1.00000000 1.00000000
vt 0.00000000 1.00000000
vt 0.00000000 0.00000000
vn 0.00000000 0.00000000 1.00000000
vn 0.00000000 0.00000000 1.00000000
vn 0.00000000 0.00000000 1.00000000
vn 0.00000000 0.00000000 1.00000000
vn 0.00000000 1.00000000 0.00000000
vn 0.00000000 1.00000000 0.00000000
vn 0.00000000 1.00000000 0.00000000
vn 0.00000000 1.00000000 0.00000000
vn 0.00000000 0.00000000 -1.00000000
vn 0.00000000 0.00000000 -1.00000000
vn 0.00000000 0.00000000 -1.00000000
vn 0.00000000 0.00000000 -1.00000000
vn 1.00000000 0.00000000 0.00000000
vn 1.00000000 0.00000000 0.00000000
vn 1.00000000 0.00000000 0.00000000
vn 1.00000000 0.00000000 0.00000000
vn 0.00000000 -1.00000000 0.00000000
vn 0.00000000 -1.00000000 0.00000000
vn 0.00000000 -1.00000000 0.00000000
vn 0.00000000 -1.00000000 0.00000000
vn -1.00000000 0.00000000 0.00000000
vn -1.00000000 0.00000000 0.00000000
vn -1.00000000 0.00000000 0.00000000
vn -1.00000000 0.00000000 0.00000000
s 1
usemtl Wood_Light
f 9/25/25 10/26/26 12/28/28
f 10/26/26 11/27/27 12/28/28
s 2
f 9/32/32 14/31/31 10/29/29
f 14/31/31 13/30/30 10/29/29
s 3
f 16/36/36 15/35/35 14/33/33
f 15/35/35 13/34/34 14/33/33
s 4
f 12/40/40 16/39/39 9/37/37
f 16/39/39 14/38/38 9/37/37
s 5
f 11/41/41 15/42/42 16/43/43
f 11/41/41 16/43/43 12/44/44
s 6
f 10/45/45 13/46/46 11/48/48
f 13/46/46 15/47/47 11/48/48
o object3
g object3
v 0.50000000 1.00000000 -0.27500000
v 0.50000000 1.00000000 -0.47500000
v 0.50000000 0.95000000 -0.47500000
v 0.50000000 0.95000000 -0.27500000
v -0.50000000 0.95000000 -0.27500000
v -0.50000000 0.95000000 -0.47500000
v -0.50000000 1.00000000 -0.27500000
v -0.50000000 1.00000000 -0.47500000
vt 1.00000000 0.00000000
vt 1.00000000 1.00000000
vt 0.00000000 1.00000000
vt 0.00000000 0.00000000
vt 1.00000000 0.00000000
vt 1.00000000 1.00000000
vt 0.00000000 1.00000000
vt 0.00000000 0.00000000
vt 1.00000000 0.00000000
vt 1.00000000 1.00000000
vt 0.00000000 1.00000000
vt 0.00000000 0.00000000
vt 1.00000000 0.00000000
vt 1.00000000 1.00000000
vt 0.00000000 1.00000000
vt 0.00000000 0.00000000
vt 1.00000000 0.00000000
vt 1.00000000 1.00000000
vt 0.00000000 1.00000000
vt 0.00000000 0.00000000
vt 1.00000000 0.00000000
vt 1.00000000 1.00000000
vt 0.00000000 1.00000000
vt 0.00000000 0.00000000
vn 1.00000000 0.00000000 0.00000000
vn 1.00000000 0.00000000 0.00000000
vn 1.00000000 0.00000000 0.00000000
vn 1.00000000 0.00000000 0.00000000
vn 0.00000000 -1.00000000 0.00000000
vn 0.00000000 -1.00000000 0.00000000
vn 0.00000000 -1.00000000 0.00000000
vn 0.00000000 -1.00000000 0.00000000
vn -1.00000000 0.00000000 0.00000000
vn -1.00000000 0.00000000 0.00000000
vn -1.00000000 0.00000000 0.00000000
vn -1.00000000 0.00000000 0.00000000
vn 0.00000000 0.00000000 1.00000000
vn 0.00000000 0.00000000 1.00000000
vn 0.00000000 0.00000000 1.00000000
vn 0.00000000 0.00000000 1.00000000
vn 0.00000000 1.00000000 0.00000000
vn 0.00000000 1.00000000 0.00000000
vn 0.00000000 1.00000000 0.00000000
vn 0.00000000 1.00000000 0.00000000
vn 0.00000000 0.00000000 -1.00000000
vn 0.00000000 0.00000000 -1.00000000
vn 0.00000000 0.00000000 -1.00000000
vn 0.00000000 0.00000000 -1.00000000
s 1
usemtl Wood_Light
f 20/52/52 19/51/51 17/49/49
f 19/51/51 18/50/50 17/49/49
s 2
f 21/53/53 22/54/54 19/55/55
f 21/53/53 19/55/55 20/56/56
s 3
f 23/57/57 24/58/58 21/60/60
f 24/58/58 22/59/59 21/60/60
s 4
f 17/61/61 23/62/62 20/64/64
f 23/62/62 21/63/63 20/64/64
s 5
f 17/68/68 18/67/67 23/65/65
f 18/67/67 24/66/66 23/65/65
s 6
f 19/72/72 22/71/71 18/69/69
f 22/71/71 24/70/70 18/69/69
o object4
g object4
v -0.35000000 0.85000000 -0.65000000
v -0.45000000 0.89142136 -0.60357143
v -0.45000000 0.80857864 -0.60357143
v -0.39142136 0.75000000 -0.60357143
v -0.30857864 0.75000000 -0.60357143
v -0.25000000 0.80857864 -0.60357143
v -0.25000000 0.89142136 -0.60357143
v -0.30857864 0.95000000 -0.60357143
v -0.39142136 0.95000000 -0.60357143
v -0.30857864 0.95000000 0.60357143
v -0.39142136 0.95000000 0.60357143
v -0.35000000 0.85000000 0.65000000
v -0.25000000 0.89142136 0.60357143
v -0.25000000 0.80857864 0.60357143
v -0.30857864 0.75000000 0.60357143
v -0.39142136 0.75000000 0.60357143
v -0.45000000 0.80857864 0.60357143
v -0.45000000 0.89142136 0.60357143
vt 0.00000000 0.00000000
vt 1.00000000 0.50221105
vt 0.41421356 1.00000000
vt 0.50000000 0.00000000
vt 1.00000000 1.00000000
vt 0.00000000 1.00000000
vt 1.00000000 0.00000000
vt 0.58578644 1.00000000
vt 0.00000000 0.50221105
vt 1.00000000 0.50000000
vt 0.00000000 1.00000000
vt 0.00000000 0.00000000
vt 1.00000000 1.00000000
vt 0.00000000 0.49778895
vt 0.58578644 0.00000000
vt 0.50000000 1.00000000
vt 0.00000000 0.00000000
vt 1.00000000 0.00000000
vt 0.00000000 1.00000000
vt 0.41421356 0.00000000
vt 1.00000000 0.49778895
vt 1.00000000 0.00000000
vt 1.00000000 1.00000000
vt 0.00000000 1.00000000
vt 0.00000000 0.00000000
vt 0.00000000 1.00000000
vt 0.41421356 0.00000000
vt 1.00000000 0.49778895
vt 0.00000000 0.50000000
vt 1.00000000 0.00000000
vt 1.00000000 1.00000000
vt 0.00000000 0.00000000
vt 1.00000000 0.50221105
vt 0.41421356 1.00000000
vt 0.50000000 0.00000000
vt 1.00000000 1.00000000
vt 0.00000000 1.00000000
vt 1.00000000 0.00000000
vt 0.58578644 1.00000000
vt 0.00000000 0.50221105
vt 1.00000000 0.50000000
vt 0.00000000 1.00000000
vt 0.00000000 0.00000000
vt 1.00000000 1.00000000
vt 0.00000000 0.49778895
vt 0.58578644 0.00000000
vt 0.50000000 1.00000000
vt 0.00000000 0.00000000
vt 1.00000000 0.00000000
vt 1.00000000 0.00000000
vt 1.00000000 1.00000000
vt 0.00000000 1.00000000
vt 0.00000000 0.00000000
vt 1.00000000 0.00000000
vt 1.00000000 1.00000000
vt 0.00000000 1.00000000
vt 0.00000000 0.00000000
vt 1.00000000 0.00000000
vt 1.00000000 1.00000000
vt 0.00000000 1.00000000
vt 0.00000000 0.00000000
vt 1.00000000 0.00000000
vt 1.00000000 1.00000000
vt 0.00000000 1.00000000
vt 0.00000000 0.00000000
vt 1.00000000 0.00000000
vt 1.00000000 1.00000000
vt 0.00000000 1.00000000
vt 0.00000000 0.00000000
vt 1.00000000 0.00000000
vt 1.00000000 1.00000000
vt 0.00000000 1.00000000
vt 0.00000000 0.00000000
vt 0.00000000 0.50000000
vt 1.00000000 0.00000000
vt 1.00000000 1.00000000
vt 1.00000000 0.00000000
vt 1.00000000 1.00000000
vt 0.00000000 1.00000000
vt 0.00000000 0.00000000
vn -0.42111131 -0.00000000 -0.90700897
vn -0.42111131 -0.00000000 -0.90700897
vn -0.42111131 -0.00000000 -0.90700897
vn -0.29777066 -0.29777066 -0.90700897
vn -0.29777066 -0.29777066 -0.90700897
vn -0.29777066 -0.29777066 -0.90700897
vn 0.00000000 -0.42111131 -0.90700897
vn 0.00000000 -0.42111131 -0.90700897
vn 0.00000000 -0.42111131 -0.90700897
vn 0.29777066 -0.29777066 -0.90700897
vn 0.29777066 -0.29777066 -0.90700897
vn 0.29777066 -0.29777066 -0.90700897
vn 0.42111131 0.00000000 -0.90700897
vn 0.42111131 0.00000000 -0.90700897
vn 0.42111131 0.00000000 -0.90700897
vn 0.29777066 0.29777066 -0.90700897
vn 0.29777066 0.29777066 -0.90700897
vn 0.29777066 0.29777066 -0.90700897
vn 0.00000000 0.42111131 -0.90700897
vn 0.00000000 0.42111131 -0.90700897
vn 0.00000000 0.42111131 -0.90700897
vn 0.00000000 1.00000000 0.00000000
vn 0.00000000 1.00000000 0.00000000
vn 0.00000000 1.00000000 0.00000000
vn 0.00000000 1.00000000 0.00000000
vn 0.00000000 0.42111131 0.90700897
vn 0.00000000 0.42111131 0.90700897
vn 0.00000000 0.42111131 0.90700897
vn 0.29777066 0.29777066 0.90700897
vn 0.29777066 0.29777066 0.90700897
vn 0.29777066 0.29777066 0.90700897
vn 0.42111131 -0.00000000 0.90700897
vn 0.42111131 -0.00000000 0.90700897
vn 0.42111131 -0.00000000 0.90700897
vn 0.29777066 -0.29777066 0.90700897
vn 0.29777066 -0.29777066 0.90700897
vn 0.29777066 -0.29777066 0.90700897
vn -0.00000000 -0.42111131 0.90700897
vn -0.00000000 -0.42111131 0.90700897
vn -0.00000000 -0.42111131 0.90700897
vn -0.29777066 -0.29777066 0.90700897
vn -0.29777066 -0.29777066 0.90700897
vn -0.29777066 -0.29777066 0.90700897
vn -0.42111131 0.00000000 0.90700897
vn -0.42111131 0.00000000 0.90700897
vn -0.42111131 0.00000000 0.90700897
vn -0.29777066 0.29777066 0.90700897
vn -0.29777066 0.29777066 0.90700897
vn -0.29777066 0.29777066 0.90700897
vn -0.70710678 0.70710678 0.00000000
vn -0.70710678 0.70710678 0.00000000
vn -0.70710678 0.70710678 0.00000000
vn -0.70710678 0.70710678 0.00000000
vn 0.70710678 0.70710678 0.00000000
vn 0.70710678 0.70710678 0.00000000
vn 0.70710678 0.70710678 0.00000000
vn 0.70710678 0.70710678 0.00000000
vn 1.00000000 0.00000000 0.00000000
vn 1.00000000 0.00000000 0.00000000
vn 1.00000000 0.00000000 0.00000000
vn 1.00000000 0.00000000 0.00000000
vn 0.70710678 -0.70710678 0.00000000
vn 0.70710678 -0.70710678 0.00000000
vn 0.70710678 -0.70710678 0.00000000
vn 0.70710678 -0.70710678 0.00000000
vn 0.00000000 -1.00000000 0.00000000
vn 0.00000000 -1.00000000 0.00000000
vn 0.00000000 -1.00000000 0.00000000
vn 0.00000000 -1.00000000 0.00000000
vn -0.70710678 -0.70710678 0.00000000
vn -0.70710678 -0.70710678 0.00000000
vn -0.70710678 -0.70710678 0.00000000
vn -0.70710678 -0.70710678 0.00000000
vn -0.29777066 0.29777066 -0.90700897
vn -0.29777066 0.29777066 -0.90700897
vn -0.29777066 0.29777066 -0.90700897
vn -1.00000000 0.00000000 0.00000000
vn -1.00000000 0.00000000 0.00000000
vn -1.00000000 0.00000000 0.00000000
vn -1.00000000 0.00000000 0.00000000
s 1
usemtl Wood_Light
f 27/75/75 26/74/74 25/73/73
s 2
f 28/78/78 27/77/77 25/76/76
s 3
f 29/81/81 28/80/80 25/79/79
s 4
f 30/84/84 29/83/83 25/82/82
s 5
f 31/87/87 30/86/86 25/85/85
s 6
f 32/90/90 31/89/89 25/88/88
s 7
f 33/93/93 32/92/92 25/91/91
s 8
usemtl Wood_Dark
f 35/97/97 34/96/96 32/95/95
f 35/97/97 32/95/95 33/94/94
s 9
usemtl Wood_Light
f 34/100/100 35/99/99 36/98/98
s 10
f 37/103/103 34/102/102 36/101/101
s 11
f 38/106/106 37/105/105 36/104/104
s 12
f 39/109/109 38/108/108 36/107/107
s 13
f 40/112/112 39/111/111 36/110/110
s 14
f 41/115/115 40/114/114 36/113/113
s 15
f 42/118/118 41/117/117 36/116/116
s 16
f 35/121/121 42/120/120 36/119/119
s 17
usemtl Wood_Dark
f 42/125/125 35/124/124 33/123/123
f 42/125/125 33/123/123 26/122/122
s 18
f 31/126/126 32/127/127 37/129/129
f 32/127/127 34/128/128 37/129/129
s 19
f 37/133/133 38/132/132 31/130/130
f 38/132/132 30/131/131 31/130/130
s 20
f 29/134/134 30/135/135 38/136/136
f 29/134/134 38/136/136 39/137/137
s 21
f 28/138/138 29/139/139 39/140/140
f 28/138/138 39/140/140 40/141/141
s 22
f 27/142/142 28/143/143 40/144/144
f 27/142/142 40/144/144 41/145/145
s 23
usemtl Wood_Light
f 26/148/148 33/147/147 25/146/146
s 24
usemtl Wood_Dark
f 41/152/152 42/151/151 27/149/149
f 42/151/151 26/150/150 27/149/149
o object5
g object5
v 0.35000000 0.85000000 0.65000000
v 0.30857864 0.95000000 0.60357143
v 0.39142136 0.95000000 0.60357143
v 0.45000000 0.89142136 0.60357143
v 0.45000000 0.80857864 0.60357143
v 0.39142136 0.75000000 0.60357143
v 0.30857864 0.75000000 0.60357143
v 0.25000000 0.80857864 0.60357143
v 0.25000000 0.89142136 0.60357143
v 0.25000000 0.80857864 -0.60357143
v 0.25000000 0.89142136 -0.60357143
v 0.35000000 0.85000000 -0.65000000
v 0.30857864 0.75000000 -0.60357143
v 0.39142136 0.75000000 -0.60357143
v 0.45000000 0.80857864 -0.60357143
v 0.45000000 0.89142136 -0.60357143
v 0.39142136 0.95000000 -0.60357143
v 0.30857864 0.95000000 -0.60357143
vt 0.00000000 1.00000000
vt 0.41421356 0.00000000
vt 1.00000000 0.49778895
vt 0.00000000 0.50000000
vt 1.00000000 0.00000000
vt 1.00000000 1.00000000
vt 0.00000000 0.00000000
vt 1.00000000 0.50221105
vt 0.41421356 1.00000000
vt 0.50000000 0.00000000
vt 1.00000000 1.00000000
vt 0.00000000 1.00000000
vt 1.00000000 0.00000000
vt 0.58578644 1.00000000
vt 0.00000000 0.50221105
vt 1.00000000 0.50000000
vt 0.00000000 1.00000000
vt 0.00000000 0.00000000
vt 1.00000000 1.00000000
vt 0.00000000 0.49778895
vt 0.58578644 0.00000000
vt 1.00000000 0.00000000
vt 1.00000000 1.00000000
vt 0.00000000 1.00000000
vt 0.00000000 0.00000000
vt 0.00000000 0.00000000
vt 1.00000000 0.50221105
vt 0.41421356 1.00000000
vt 0.50000000 0.00000000
vt 1.00000000 1.00000000
vt 0.00000000 1.00000000
vt 1.00000000 0.00000000
vt 0.58578644 1.00000000
vt 0.00000000 0.50221105
vt 1.00000000 0.50000000
vt 0.00000000 1.00000000
vt 0.00000000 0.00000000
vt 1.00000000 1.00000000
vt 0.00000000 0.49778895
vt 0.58578644 0.00000000
vt 0.50000000 1.00000000
vt 0.00000000 0.00000000
vt 1.00000000 0.00000000
vt 0.00000000 1.00000000
vt 0.41421356 0.00000000
vt 1.00000000 0.49778895
vt 0.00000000 0.50000000
vt 1.00000000 0.00000000
vt 1.00000000 1.00000000
vt 1.00000000 0.00000000
vt 1.00000000 1.00000000
vt 0.00000000 1.00000000
vt 0.00000000 0.00000000
vt 1.00000000 0.00000000
vt 1.00000000 1.00000000
vt 0.00000000 1.00000000
vt 0.00000000 0.00000000
vt 1.00000000 0.00000000
vt 1.00000000 1.00000000
vt 0.00000000 1.00000000
vt 0.00000000 0.00000000
vt 1.00000000 0.00000000
vt 1.00000000 1.00000000
vt 0.00000000 1.00000000
vt 0.00000000 0.00000000
vt 1.00000000 0.00000000
vt 1.00000000 1.00000000
vt 0.00000000 1.00000000
vt 0.00000000 0.00000000
vt 1.00000000 0.00000000
vt 1.00000000 1.00000000
vt 0.00000000 1.00000000
vt 0.00000000 0.00000000
vt 0.50000000 1.00000000
vt 0.00000000 0.00000000
vt 1.00000000 0.00000000
vt 1.00000000 0.00000000
vt 1.00000000 1.00000000
vt 0.00000000 1.00000000
vt 0.00000000 0.00000000
vn 0.00000000 0.42111131 0.90700897
vn 0.00000000 0.42111131 0.90700897
vn 0.00000000 0.42111131 0.90700897
vn 0.29777066 0.29777066 0.90700897
vn 0.29777066 0.29777066 0.90700897
vn 0.29777066 0.29777066 0.90700897
vn 0.42111131 -0.00000000 0.90700897
vn 0.42111131 -0.00000000 0.90700897
vn 0.42111131 -0.00000000 0.90700897
vn 0.29777066 -0.29777066 0.90700897
vn 0.29777066 -0.29777066 0.90700897
vn 0.29777066 -0.29777066 0.90700897
vn -0.00000000 -0.42111131 0.90700897
vn -0.00000000 -0.42111131 0.90700897
vn -0.00000000 -0.42111131 0.90700897
vn -0.29777066 -0.29777066 0.90700897
vn -0.29777066 -0.29777066 0.90700897
vn -0.29777066 -0.29777066 0.90700897
vn -0.42111131 0.00000000 0.90700897
vn -0.42111131 0.00000000 0.90700897
vn -0.42111131 0.00000000 0.90700897
vn -1.00000000 0.00000000 0.00000000
vn -1.00000000 0.00000000 0.00000000
vn -1.00000000 0.00000000 0.00000000
vn -1.00000000 0.00000000 0.00000000
vn -0.42111131 -0.00000000 -0.90700897
vn -0.42111131 -0.00000000 -0.90700897
vn -0.42111131 -0.00000000 -0.90700897
vn -0.29777066 -0.29777066 -0.90700897
vn -0.29777066 -0.29777066 -0.90700897
vn -0.29777066 -0.29777066 -0.90700897
vn 0.00000000 -0.42111131 -0.90700897
vn 0.00000000 -0.42111131 -0.90700897
vn 0.00000000 -0.42111131 -0.90700897
vn 0.29777066 -0.29777066 -0.90700897
vn 0.29777066 -0.29777066 -0.90700897
vn 0.29777066 -0.29777066 -0.90700897
vn 0.42111131 0.00000000 -0.90700897
vn 0.42111131 0.00000000 -0.90700897
vn 0.42111131 0.00000000 -0.90700897
vn 0.29777066 0.29777066 -0.90700897
vn 0.29777066 0.29777066 -0.90700897
vn 0.29777066 0.29777066 -0.90700897
vn 0.00000000 0.42111131 -0.90700897
vn 0.00000000 0.42111131 -0.90700897
vn 0.00000000 0.42111131 -0.90700897
vn -0.29777066 0.29777066 -0.90700897
vn -0.29777066 0.29777066 -0.90700897
vn -0.29777066 0.29777066 -0.90700897
vn -0.70710678 0.70710678 0.00000000
vn -0.70710678 0.70710678 0.00000000
vn -0.70710678 0.70710678 0.00000000
vn -0.70710678 0.70710678 0.00000000
vn -0.70710678 -0.70710678 0.00000000
vn -0.70710678 -0.70710678 0.00000000
vn -0.70710678 -0.70710678 0.00000000
vn -0.70710678 -0.70710678 0.00000000
vn 0.00000000 -1.00000000 0.00000000
vn 0.00000000 -1.00000000 0.00000000
vn 0.00000000 -1.00000000 0.00000000
vn 0.00000000 -1.00000000 0.00000000
vn 0.70710678 -0.70710678 0.00000000
vn 0.70710678 -0.70710678 0.00000000
vn 0.70710678 -0.70710678 0.00000000
vn 0.70710678 -0.70710678 0.00000000
vn 1.00000000 0.00000000 0.00000000
vn 1.00000000 0.00000000 0.00000000
vn 1.00000000 0.00000000 0.00000000
vn 1.00000000 0.00000000 0.00000000
vn 0.70710678 0.70710678 0.00000000
vn 0.70710678 0.70710678 0.00000000
vn 0.70710678 0.70710678 0.00000000
vn 0.70710678 0.70710678 0.00000000
vn -0.29777066 0.29777066 0.90700897
vn -0.29777066 0.29777066 0.90700897
vn -0.29777066 0.29777066 0.90700897
vn 0.00000000 1.00000000 0.00000000
vn 0.00000000 1.00000000 0.00000000
vn 0.00000000 1.00000000 0.00000000
vn 0.00000000 1.00000000 0.00000000
s 1
usemtl Wood_Light
f 45/155/155 44/154/154 43/153/153
s 2
f 46/158/158 45/157/157 43/156/156
s 3
f 47/161/161 46/160/160 43/159/159
s 4
f 48/164/164 47/163/163 43/162/162
s 5
f 49/167/167 48/166/166 43/165/165
s 6
f 50/170/170 49/169/169 43/168/168
s 7
f 51/173/173 50/172/172 43/171/171
s 8
usemtl Wood_Dark
f 50/177/177 51/176/176 52/174/174
f 51/176/176 53/175/175 52/174/174
s 9
usemtl Wood_Light
f 52/180/180 53/179/179 54/178/178
s 10
f 55/183/183 52/182/182 54/181/181
s 11
f 56/186/186 55/185/185 54/184/184
s 12
f 57/189/189 56/188/188 54/187/187
s 13
f 58/192/192 57/191/191 54/190/190
s 14
f 59/195/195 58/194/194 54/193/193
s 15
f 60/198/198 59/197/197 54/196/196
s 16
f 53/201/201 60/200/200 54/199/199
s 17
usemtl Wood_Dark
f 51/205/205 44/204/204 60/203/203
f 51/205/205 60/203/203 53/202/202
s 18
f 52/206/206 55/207/207 49/208/208
f 52/206/206 49/208/208 50/209/209
s 19
f 55/210/210 56/211/211 48/212/212
f 55/210/210 48/212/212 49/213/213
s 20
f 56/214/214 57/215/215 47/216/216
f 56/214/214 47/216/216 48/217/217
s 21
f 46/221/221 47/220/220 58/218/218
f 47/220/220 57/219/219 58/218/218
s 22
f 58/222/222 59/223/223 46/225/225
f 59/223/223 45/224/224 46/225/225
s 23
usemtl Wood_Light
f 44/228/228 51/227/227 43/226/226
s 24
usemtl Wood_Dark
f 44/232/232 45/231/231 59/230/230
f 44/232/232 59/230/230 60/229/229
o object6
g object6
v -0.50000000 1.00000000 0.22500000
v -0.50000000 1.00000000 0.02500000
v -0.50000000 0.95000000 0.02500000
v -0.50000000 0.95000000 0.22500000
v 0.50000000 1.00000000 0.02500000
v 0.50000000 1.00000000 0.22500000
v 0.50000000 0.95000000 0.02500000
v 0.50000000 0.95000000 0.22500000
vt 1.00000000 0.00000000
vt 1.00000000 1.00000000
vt 0.00000000 1.00000000
vt 0.00000000 0.00000000
vt 1.00000000 0.00000000
vt 1.00000000 1.00000000
vt 0.00000000 1.00000000
vt 0.00000000 0.00000000
vt 1.00000000 0.00000000
vt 1.00000000 1.00000000
vt 0.00000000 1.00000000
vt 0.00000000 0.00000000
vt 1.00000000 0.00000000
vt 1.00000000 1.00000000
vt 0.00000000 1.00000000
vt 0.00000000 0.00000000
vt 1.00000000 0.00000000
vt 1.00000000 1.00000000
vt 0.00000000 1.00000000
vt 0.00000000 0.00000000
vt 1.00000000 0.00000000
vt 1.00000000 1.00000000
vt 0.00000000 1.00000000
vt 0.00000000 0.00000000
vn -1.00000000 0.00000000 0.00000000
vn -1.00000000 0.00000000 0.00000000
vn -1.00000000 0.00000000 0.00000000
vn -1.00000000 0.00000000 0.00000000
vn 0.00000000 1.00000000 0.00000000
vn 0.00000000 1.00000000 0.00000000
vn 0.00000000 1.00000000 0.00000000
vn 0.00000000 1.00000000 0.00000000
vn 1.00000000 0.00000000 0.00000000
vn 1.00000000 0.00000000 0.00000000
vn 1.00000000 0.00000000 0.00000000
vn 1.00000000 0.00000000 0.00000000
vn 0.00000000 0.00000000 1.00000000
vn 0.00000000 0.00000000 1.00000000
vn 0.00000000 0.00000000 1.00000000
vn 0.00000000 0.00000000 1.00000000
vn 0.00000000 -1.00000000 0.00000000
vn 0.00000000 -1.00000000 0.00000000
vn 0.00000000 -1.00000000 0.00000000
vn 0.00000000 -1.00000000 0.00000000
vn 0.00000000 0.00000000 -1.00000000
vn 0.00000000 0.00000000 -1.00000000
vn 0.00000000 0.00000000 -1.00000000
vn 0.00000000 0.00000000 -1.00000000
s 1
usemtl Wood_Light
f 61/233/233 62/234/234 64/236/236
f 62/234/234 63/235/235 64/236/236
s 2
f 66/240/240 65/239/239 61/237/237
f 65/239/239 62/238/238 61/237/237
s 3
f 68/244/244 67/243/243 66/241/241
f 67/243/243 65/242/242 66/241/241
s 4
f 66/245/245 61/246/246 68/248/248
f 61/246/246 64/247/247 68/248/248
s 5
f 64/249/249 63/250/250 67/251/251
f 64/249/249 67/251/251 68/252/252
s 6
f 67/256/256 63/255/255 65/253/253
f 63/255/255 62/254/254 65/253/253
