mtllib Prop_Docks_Straight_Supports.mtl
o object1
g object1
v -0.42346331 0.00000000 0.32653669
v -0.39176078 0.00000000 0.25000000
v -0.42346331 0.00000000 0.17346331
v -0.50000000 0.00000000 0.14176078
v -0.57653669 0.00000000 0.17346331
v -0.60823922 0.00000000 0.25000000
v -0.57653669 0.00000000 0.32653669
v -0.50000000 0.00000000 0.35823922
v -0.50000000 0.00000000 0.25000000
v -0.50000000 1.20000000 0.14176078
v -0.42346331 1.20000000 0.17346331
v -0.50000000 1.25000000 0.25000000
v -0.39176078 1.20000000 0.25000000
v -0.42346331 1.20000000 0.32653669
v -0.50000000 1.20000000 0.35823922
v -0.57653669 1.20000000 0.32653669
v -0.60823922 1.20000000 0.25000000
v -0.57653669 1.20000000 0.17346331
vt 0.14644661 0.14644661
vt 0.50000000 0.00000000
vt 0.85355339 0.14644661
vt 1.00000000 0.50000000
vt 0.85355339 0.85355339
vt 0.50000000 1.00000000
vt 0.14644661 0.85355339
vt 0.00000000 0.50000000
vt 0.50000000 0.50000000
vt 0.00000000 1.00000000
vt 0.00000000 0.00000000
vt 1.00000000 0.00000000
vt 1.00000000 1.00000000
vt 0.00000000 0.00000000
vt 1.00000000 0.50221105
vt 0.41421356 1.00000000
vt 0.00000000 0.50000000
vt 1.00000000 0.00000000
vt 1.00000000 1.00000000
vt 0.00000000 1.00000000
vt 0.41421356 0.00000000
vt 1.00000000 0.49778895
vt 0.50000000 1.00000000
vt 0.00000000 0.00000000
vt 1.00000000 0.00000000
vt 1.00000000 1.00000000
vt 0.00000000 0.49778895
vt 0.58578644 0.00000000
vt 1.00000000 0.50000000
vt 0.00000000 1.00000000
vt 0.00000000 0.00000000
vt 1.00000000 0.00000000
vt 0.58578644 1.00000000
vt 0.00000000 0.50221105
vt 0.50000000 0.00000000
vt 1.00000000 1.00000000
vt 0.00000000 1.00000000
vt 0.00000000 1.00000000
vt 0.00000000 0.00000000
vt 1.00000000 0.00000000
vt 1.00000000 1.00000000
vt 0.00000000 0.00000000
vt 1.00000000 0.00000000
vt 1.00000000 1.00000000
vt 0.00000000 1.00000000
vt 0.00000000 1.00000000
vt 0.00000000 0.00000000
vt 1.00000000 0.00000000
vt 1.00000000 1.00000000
vt 0.00000000 0.00000000
vt 1.00000000 0.00000000
vt 1.00000000 1.00000000
vt 0.00000000 1.00000000
vt 0.00000000 1.00000000
vt 0.00000000 0.00000000
vt 1.00000000 0.00000000
vt 1.00000000 1.00000000
vt 0.00000000 1.00000000
vt 0.00000000 0.00000000
vt 1.00000000 0.00000000
vt 1.00000000 1.00000000
vt 0.00000000 1.00000000
vt 0.00000000 0.00000000
vt 1.00000000 0.00000000
vt 1.00000000 1.00000000
vn 0.00000000 -1.00000000 0.00000000
vn 0.00000000 -1.00000000 0.00000000
vn 0.00000000 -1.00000000 0.00000000
vn 0.00000000 -1.00000000 0.00000000
vn 0.00000000 -1.00000000 0.00000000
vn 0.00000000 -1.00000000 0.00000000
vn 0.00000000 -1.00000000 0.00000000
vn 0.00000000 -1.00000000 0.00000000
vn 0.00000000 -1.00000000 0.00000000
vn 0.38268343 0.00000000 -0.92387953
vn 0.38268343 0.00000000 -0.92387953
vn 0.38268343 0.00000000 -0.92387953
vn 0.38268343 0.00000000 -0.92387953
vn 0.17114123 0.89442719 -0.41317149
vn 0.17114123 0.89442719 -0.41317149
vn 0.17114123 0.89442719 -0.41317149
vn 0.41317149 0.89442719 -0.17114123
vn 0.41317149 0.89442719 -0.17114123
vn 0.41317149 0.89442719 -0.17114123
vn 0.41317149 0.89442719 0.17114123
vn 0.41317149 0.89442719 0.17114123
vn 0.41317149 0.89442719 0.17114123
vn 0.17114123 0.89442719 0.41317149
vn 0.17114123 0.89442719 0.41317149
vn 0.17114123 0.89442719 0.41317149
vn -0.17114123 0.89442719 0.41317149
vn -0.17114123 0.89442719 0.41317149
vn -0.17114123 0.89442719 0.41317149
vn -0.41317149 0.89442719 0.17114123
vn -0.41317149 0.89442719 0.17114123
vn -0.41317149 0.89442719 0.17114123
vn -0.41317149 0.89442719 -0.17114123
vn -0.41317149 0.89442719 -0.17114123
vn -0.41317149 0.89442719 -0.17114123
vn -0.17114123 0.89442719 -0.41317149
vn -0.17114123 0.89442719 -0.41317149
vn -0.17114123 0.89442719 -0.41317149
vn -0.38268343 0.00000000 -0.92387953
vn -0.38268343 0.00000000 -0.92387953
vn -0.38268343 0.00000000 -0.92387953
vn -0.38268343 0.00000000 -0.92387953
vn -0.92387953 0.00000000 -0.38268343
vn -0.92387953 0.00000000 -0.38268343
vn -0.92387953 0.00000000 -0.38268343
vn -0.92387953 0.00000000 -0.38268343
vn -0.92387953 0.00000000 0.38268343
vn -0.92387953 0.00000000 0.38268343
vn -0.92387953 0.00000000 0.38268343
vn -0.92387953 0.00000000 0.38268343
vn -0.38268343 0.00000000 0.92387953
vn -0.38268343 0.00000000 0.92387953
vn -0.38268343 0.00000000 0.92387953
vn -0.38268343 0.00000000 0.92387953
vn 0.38268343 0.00000000 0.92387953
vn 0.38268343 0.00000000 0.92387953
vn 0.38268343 0.00000000 0.92387953
vn 0.38268343 0.00000000 0.92387953
vn 0.92387953 0.00000000 0.38268343
vn 0.92387953 0.00000000 0.38268343
vn 0.92387953 0.00000000 0.38268343
vn 0.92387953 0.00000000 0.38268343
vn 0.92387953 0.00000000 -0.38268343
vn 0.92387953 0.00000000 -0.38268343
vn 0.92387953 0.00000000 -0.38268343
vn 0.92387953 0.00000000 -0.38268343
s 1
usemtl Wood_Dark
f 8/8/8 7/7/7 9/9/9
f 2/2/2 1/1/1 9/9/9
f 3/3/3 2/2/2 9/9/9
f 4/4/4 3/3/3 9/9/9
f 5/5/5 4/4/4 9/9/9
f 6/6/6 5/5/5 9/9/9
f 7/7/7 6/6/6 9/9/9
f 1/1/1 8/8/8 9/9/9
s 2
f 10/10/10 11/11/11 4/13/13
f 11/11/11 3/12/12 4/13/13
s 3
usemtl Wood_Light
f 12/14/14 11/15/15 10/16/16
s 4
f 12/17/17 13/18/18 11/19/19
s 5
f 12/20/20 14/21/21 13/22/22
s 6
f 12/23/23 15/24/24 14/25/25
s 7
f 12/26/26 16/27/27 15/28/28
s 8
f 12/29/29 17/30/30 16/31/31
s 9
f 12/32/32 18/33/33 17/34/34
s 10
f 12/35/35 10/36/36 18/37/37
s 11
usemtl Wood_Dark
f 18/38/38 10/39/39 4/40/40
f 18/38/38 4/40/40 5/41/41
s 12
f 18/42/42 5/43/43 6/44/44
f 18/42/42 6/44/44 17/45/45
s 13
f 16/46/46 17/47/47 7/49/49
f 17/47/47 6/48/48 7/49/49
s 14
f 16/50/50 7/51/51 15/53/53
f 7/51/51 8/52/52 15/53/53
s 15
f 8/57/57 1/56/56 15/54/54
f 1/56/56 14/55/55 15/54/54
s 16
f 1/61/61 2/60/60 14/58/58
f 2/60/60 13/59/59 14/58/58
s 17
f 11/62/62 13/63/63 3/65/65
f 13/63/63 2/64/64 3/65/65
o object2
g object2
v -0.50000000 1.25000000 -0.25000000
v -0.60823922 1.20000000 -0.25000000
v -0.57653669 1.20000000 -0.32653669
v -0.50000000 1.20000000 -0.35823922
v -0.42346331 1.20000000 -0.32653669
v -0.39176078 1.20000000 -0.25000000
v -0.42346331 1.20000000 -0.17346331
v -0.50000000 1.20000000 -0.14176078
v -0.57653669 1.20000000 -0.17346331
v -0.50000000 0.00000000 -0.14176078
v -0.57653669 0.00000000 -0.17346331
v -0.42346331 0.00000000 -0.17346331
v -0.39176078 0.00000000 -0.25000000
v -0.42346331 0.00000000 -0.32653669
v -0.50000000 0.00000000 -0.35823922
v -0.57653669 0.00000000 -0.32653669
v -0.60823922 0.00000000 -0.25000000
v -0.50000000 0.00000000 -0.25000000
vt 1.00000000 0.50000000
vt 0.00000000 1.00000000
vt 0.00000000 0.00000000
vt 1.00000000 1.00000000
vt 0.00000000 0.49778895
vt 0.58578644 0.00000000
vt 0.50000000 1.00000000
vt 0.00000000 0.00000000
vt 1.00000000 0.00000000
vt 0.00000000 1.00000000
vt 0.41421356 0.00000000
vt 1.00000000 0.49778895
vt 0.00000000 0.50000000
vt 1.00000000 0.00000000
vt 1.00000000 1.00000000
vt 0.00000000 0.00000000
vt 1.00000000 0.50221105
vt 0.41421356 1.00000000
vt 0.50000000 0.00000000
vt 1.00000000 1.00000000
vt 0.00000000 1.00000000
vt 0.00000000 1.00000000
vt 0.00000000 0.00000000
vt 1.00000000 0.00000000
vt 1.00000000 1.00000000
vt 0.00000000 0.50000000
vt 0.14644661 0.14644661
vt 0.50000000 0.00000000
vt 0.85355339 0.14644661
vt 1.00000000 0.50000000
vt 0.85355339 0.85355339
vt 0.50000000 1.00000000
vt 0.14644661 0.85355339
vt 0.50000000 0.50000000
vt 0.00000000 1.00000000
vt 0.00000000 0.00000000
vt 1.00000000 0.00000000
vt 1.00000000 1.00000000
vt 0.00000000 1.00000000
vt 0.00000000 0.00000000
vt 1.00000000 0.00000000
vt 1.00000000 1.00000000
vt 0.00000000 1.00000000
vt 0.00000000 0.00000000
vt 1.00000000 0.00000000
vt 1.00000000 1.00000000
vt 0.00000000 1.00000000
vt 0.00000000 0.00000000
vt 1.00000000 0.00000000
vt 1.00000000 1.00000000
vt 0.00000000 1.00000000
vt 0.00000000 0.00000000
vt 1.00000000 0.00000000
vt 1.00000000 1.00000000
vt 0.00000000 1.00000000
vt 0.00000000 0.00000000
vt 1.00000000 0.00000000
vt 1.00000000 1.00000000
vt 1.00000000 0.00000000
vt 0.58578644 1.00000000
vt 0.00000000 0.50221105
vt 0.00000000 1.00000000
vt 0.00000000 0.00000000
vt 1.00000000 0.00000000
vt 1.00000000 1.00000000
vn -0.41317149 0.89442719 -0.17114123
vn -0.41317149 0.89442719 -0.17114123
vn -0.41317149 0.89442719 -0.17114123
vn -0.17114123 0.89442719 -0.41317149
vn -0.17114123 0.89442719 -0.41317149
vn -0.17114123 0.89442719 -0.41317149
vn 0.17114123 0.89442719 -0.41317149
vn 0.17114123 0.89442719 -0.41317149
vn 0.17114123 0.89442719 -0.41317149
vn 0.41317149 0.89442719 -0.17114123
vn 0.41317149 0.89442719 -0.17114123
vn 0.41317149 0.89442719 -0.17114123
vn 0.41317149 0.89442719 0.17114123
vn 0.41317149 0.89442719 0.17114123
vn 0.41317149 0.89442719 0.17114123
vn 0.17114123 0.89442719 0.41317149
vn 0.17114123 0.89442719 0.41317149
vn 0.17114123 0.89442719 0.41317149
vn -0.17114123 0.89442719 0.41317149
vn -0.17114123 0.89442719 0.41317149
vn -0.17114123 0.89442719 0.41317149
vn -0.38268343 0.00000000 0.92387953
vn -0.38268343 0.00000000 0.92387953
vn -0.38268343 0.00000000 0.92387953
vn -0.38268343 0.00000000 0.92387953
vn 0.00000000 -1.00000000 0.00000000
vn 0.00000000 -1.00000000 0.00000000
vn 0.00000000 -1.00000000 0.00000000
vn 0.00000000 -1.00000000 0.00000000
vn 0.00000000 -1.00000000 0.00000000
vn 0.00000000 -1.00000000 0.00000000
vn 0.00000000 -1.00000000 0.00000000
vn 0.00000000 -1.00000000 0.00000000
vn 0.00000000 -1.00000000 0.00000000
vn -0.92387953 0.00000000 0.38268343
vn -0.92387953 0.00000000 0.38268343
vn -0.92387953 0.00000000 0.38268343
vn -0.92387953 0.00000000 0.38268343
vn 0.38268343 0.00000000 0.92387953
vn 0.38268343 0.00000000 0.92387953
vn 0.38268343 0.00000000 0.92387953
vn 0.38268343 0.00000000 0.92387953
vn 0.92387953 0.00000000 0.38268343
vn 0.92387953 0.00000000 0.38268343
vn 0.92387953 0.00000000 0.38268343
vn 0.92387953 0.00000000 0.38268343
vn 0.92387953 0.00000000 -0.38268343
vn 0.92387953 0.00000000 -0.38268343
vn 0.92387953 0.00000000 -0.38268343
vn 0.92387953 0.00000000 -0.38268343
vn 0.38268343 0.00000000 -0.92387953
vn 0.38268343 0.00000000 -0.92387953
vn 0.38268343 0.00000000 -0.92387953
vn 0.38268343 0.00000000 -0.92387953
vn -0.38268343 0.00000000 -0.92387953
vn -0.38268343 0.00000000 -0.92387953
vn -0.38268343 0.00000000 -0.92387953
vn -0.38268343 0.00000000 -0.92387953
vn -0.41317149 0.89442719 0.17114123
vn -0.41317149 0.89442719 0.17114123
vn -0.41317149 0.89442719 0.17114123
vn -0.92387953 0.00000000 -0.38268343
vn -0.92387953 0.00000000 -0.38268343
vn -0.92387953 0.00000000 -0.38268343
vn -0.92387953 0.00000000 -0.38268343
s 1
usemtl Wood_Light
f 21/68/68 20/67/67 19/66/66
s 2
f 22/71/71 21/70/70 19/69/69
s 3
f 23/74/74 22/73/73 19/72/72
s 4
f 24/77/77 23/76/76 19/75/75
s 5
f 25/80/80 24/79/79 19/78/78
s 6
f 26/83/83 25/82/82 19/81/81
s 7
f 27/86/86 26/85/85 19/84/84
s 8
usemtl Wood_Dark
f 29/90/90 28/89/89 27/87/87
f 28/89/89 26/88/88 27/87/87
s 9
f 29/98/98 35/97/97 36/99/99
f 30/92/92 28/91/91 36/99/99
f 31/93/93 30/92/92 36/99/99
f 32/94/94 31/93/93 36/99/99
f 33/95/95 32/94/94 36/99/99
f 34/96/96 33/95/95 36/99/99
f 35/97/97 34/96/96 36/99/99
f 28/91/91 29/98/98 36/99/99
s 10
f 27/100/100 20/101/101 35/102/102
f 27/100/100 35/102/102 29/103/103
s 11
f 28/107/107 30/106/106 25/105/105
f 28/107/107 25/105/105 26/104/104
s 12
f 30/111/111 31/110/110 24/109/109
f 30/111/111 24/109/109 25/108/108
s 13
f 23/112/112 24/113/113 31/114/114
f 23/112/112 31/114/114 32/115/115
s 14
f 22/116/116 23/117/117 32/118/118
f 22/116/116 32/118/118 33/119/119
s 15
f 21/120/120 22/121/121 34/123/123
f 22/121/121 33/122/122 34/123/123
s 16
usemtl Wood_Light
f 20/126/126 27/125/125 19/124/124
s 17
usemtl Wood_Dark
f 34/130/130 35/129/129 20/128/128
f 34/130/130 20/128/128 21/127/127
