mtllib Sand_Side.mtl
o object1
g object1
v 0.50000000 0.07500000 -0.75000000
v 0.50000000 0.42500000 0.75000000
v 0.50000000 0.50000000 1.50000000
v 0.50000000 0.00000000 1.50000000
v 0.50000000 -0.00000000 -1.50000000
v -0.50000000 0.07500000 -0.75000000
v -0.50000000 0.42500000 0.75000000
v -0.50000000 0.50000000 1.50000000
v -0.50000000 0.00000000 1.50000000
v -0.50000000 -0.00000000 -1.50000000
vt 0.25000000 0.85000000
vt 0.75000000 0.15000000
vt 1.00000000 0.00000000
vt 1.00000000 1.00000000
vt 0.00000000 1.00000000
vt 0.00000000 1.00000000
vt 0.00000000 0.00000000
vt 1.00000000 0.00000000
vt 1.00000000 1.00000000
vt 0.25000000 0.85000000
vt 0.75000000 0.15000000
vt 1.00000000 0.00000000
vt 1.00000000 1.00000000
vt 0.00000000 1.00000000
vt 0.00000000 1.00000000
vt 0.00000000 0.00000000
vt 1.00000000 0.00000000
vt 1.00000000 1.00000000
vt 0.00000000 0.00000000
vt 1.00000000 0.00000000
vt 1.00000000 1.00000000
vt 0.00000000 1.00000000
vt 0.00000000 1.00000000
vt 0.00000000 0.00000000
vt 1.00000000 0.00000000
vt 1.00000000 1.00000000
vt 0.00000000 1.00000000
vt 0.00000000 0.00000000
vt 1.00000000 0.00000000
vt 1.00000000 1.00000000
vn 1.00000000 0.00000000 -0.00000000
vn 1.00000000 -0.00000000 -0.00000000
vn 1.00000000 -0.00000000 -0.00000000
vn 1.00000000 -0.00000000 -0.00000000
vn 1.00000000 0.00000000 -0.00000000
vn 0.00000000 0.97384121 -0.22722962
vn 0.00000000 0.97384121 -0.22722962
vn 0.00000000 0.97384121 -0.22722962
vn 0.00000000 0.97384121 -0.22722962
vn -1.00000000 -0.00000000 0.00000000
vn -1.00000000 0.00000000 0.00000000
vn -1.00000000 0.00000000 0.00000000
vn -1.00000000 0.00000000 0.00000000
vn -1.00000000 -0.00000000 0.00000000
vn 0.00000000 0.99503719 -0.09950372
vn 0.00000000 0.99503719 -0.09950372
vn 0.00000000 0.99503719 -0.09950372
vn 0.00000000 0.99503719 -0.09950372
vn 0.00000000 -1.00000000 0.00000000
vn 0.00000000 -1.00000000 0.00000000
vn 0.00000000 -1.00000000 0.00000000
vn 0.00000000 -1.00000000 0.00000000
vn 0.00000000 0.00000000 1.00000000
vn 0.00000000 0.00000000 1.00000000
vn 0.00000000 0.00000000 1.00000000
vn 0.00000000 0.00000000 1.00000000
vn 0.00000000 0.99503719 -0.09950372
vn 0.00000000 0.99503719 -0.09950372
vn 0.00000000 0.99503719 -0.09950372
vn 0.00000000 0.99503719 -0.09950372
s 1
usemtl Sand_-_Bright
f 2/2/2 3/3/3 4/4/4
f 1/1/1 4/4/4 5/5/5
f 1/1/1 2/2/2 4/4/4
s 2
f 2/6/6 1/7/7 7/9/9
f 1/7/7 6/8/8 7/9/9
s 3
f 9/13/13 8/12/12 7/11/11
f 10/14/14 9/13/13 6/10/10
f 9/13/13 7/11/11 6/10/10
s 4
f 1/15/15 5/16/16 6/18/18
f 5/16/16 10/17/17 6/18/18
s 5
f 9/19/19 10/20/20 5/21/21
f 9/19/19 5/21/21 4/22/22
s 6
f 4/23/23 3/24/24 9/26/26
f 3/24/24 8/25/25 9/26/26
s 7
f 3/27/27 2/28/28 8/30/30
f 2/28/28 7/29/29 8/30/30
