mtllib Cliff_Base_Corner_Outer_Lg.mtl
o object1
g object1
v 0.62051435 -0.00000000 -0.62132034
v 0.62051435 0.20000000 -0.62132034
v -0.00080599 0.20000000 -1.09807621
v -0.00080599 0.00000000 -1.09807621
v -0.72434886 0.20000000 -1.39777748
v -0.72434886 -0.00000000 -1.39777748
v -1.50080599 0.20000000 -1.50000000
v -1.50080599 0.00000000 -1.50000000
v -1.50080599 1.00000000 -0.80000000
v -1.50080599 1.00000000 -0.50000000
v -1.50080599 0.00000000 -0.50000000
v -1.50080599 0.20000000 -1.15000000
v -1.50080599 0.30000000 -1.00000000
v -1.50080599 0.50000000 -0.90000000
v -0.73728981 0.20000000 -1.34948119
v -0.78905362 0.40000000 -1.15629602
v -0.15080599 0.20000000 -0.83826859
v -0.22580599 0.30000000 -0.70836478
v 0.58515901 0.20000000 -0.58596500
v 0.44373765 0.40000000 -0.44454365
v 0.83746260 0.20000000 0.15000000
v 0.70755879 0.30000000 0.22500000
v 1.34867519 0.20000000 0.73648382
v 1.15549003 0.40000000 0.78824763
v 1.14919401 0.20000000 1.50000000
v 0.99919401 0.30000000 1.50000000
v 1.49919401 0.20000000 1.50000000
v 1.49919401 0.00000000 1.50000000
v 0.49919401 0.00000000 1.50000000
v 0.49919401 1.00000000 1.50000000
v 0.79919401 1.00000000 1.50000000
v 0.89919401 0.50000000 1.50000000
v 0.49919401 1.00000000 0.49919401
v 0.49919401 0.00000000 0.49919401
v -0.50000000 1.00000000 0.50000000
v -0.50000000 0.00000000 0.50000000
v -0.50000000 1.00000000 -0.50000000
v -0.50000000 0.00000000 -0.50000000
v 0.96230486 1.00000000 0.84001143
v 1.01060115 0.70000000 0.82707048
v 0.53435370 1.00000000 0.32500000
v 0.62095624 0.50000000 0.27500000
v 0.30231630 1.00000000 -0.30312229
v 0.33767164 0.70000000 -0.33847763
v -0.32580599 1.00000000 -0.53515970
v -0.27580599 0.50000000 -0.62176224
v -0.84081743 1.00000000 -0.96311086
v -0.82787648 0.70000000 -1.01140715
v 1.39697148 0.20000000 0.72354286
v 1.39697148 -0.00000000 0.72354286
v 1.09727022 0.20000000 0.00000000
v 1.09727022 0.00000000 0.00000000
vt 1.00000000 0.00000000
vt 1.00000000 1.00000000
vt 0.00000000 1.00000000
vt 0.00000000 0.00000000
vt 1.00000000 0.00000000
vt 1.00000000 1.00000000
vt 0.00000000 1.00000000
vt 0.00000000 0.00000000
vt 0.00000000 1.00000000
vt 0.00000000 0.00000000
vt 1.00000000 0.00000000
vt 1.00000000 1.00000000
vt 1.00000000 0.70000000
vt 1.00000000 1.00000000
vt 0.00000000 1.00000000
vt 0.00000000 0.00000000
vt 0.20000000 0.00000000
vt 0.20000000 0.35000000
vt 0.30000000 0.50000000
vt 0.50000000 0.60000000
vt 0.00000000 1.00000000
vt 0.00000000 0.00000000
vt 1.00000000 0.00000000
vt 1.00000000 1.00000000
vt 1.00000000 0.00000000
vt 1.00000000 1.00000000
vt 0.00000000 1.00000000
vt 0.00000000 0.00000000
vt 1.00000000 0.00000000
vt 1.00000000 1.00000000
vt 0.00000000 1.00000000
vt 0.00000000 0.00000000
vt 1.00000000 0.00000000
vt 1.00000000 1.00000000
vt 0.00000000 1.00000000
vt 0.00000000 0.00000000
vt 1.00000000 0.00000000
vt 1.00000000 1.00000000
vt 0.00000000 1.00000000
vt 0.00000000 0.00000000
vt 1.00000000 0.00000000
vt 1.00000000 1.00000000
vt 0.00000000 1.00000000
vt 0.00000000 0.00000000
vt 0.20000000 1.00000000
vt 0.00000000 1.00000000
vt 0.00000000 0.00000000
vt 1.00000000 0.00000000
vt 1.00000000 0.30000000
vt 0.50000000 0.40000000
vt 0.30000000 0.50000000
vt 0.20000000 0.65000000
vt 1.00000000 0.00000000
vt 1.00000000 1.00000000
vt 0.00000000 1.00000000
vt 0.00000000 0.00000000
vt 1.00000000 0.00000000
vt 1.00000000 1.00000000
vt 0.00000000 1.00000000
vt 0.00000000 0.00000000
vt 1.00000000 0.00000000
vt 1.00000000 1.00000000
vt 0.00000000 1.00000000
vt 0.00000000 0.00000000
vt 1.00000000 0.00000000
vt 1.00000000 1.00000000
vt 0.00000000 1.00000000
vt 0.00000000 0.00000000
vt 1.00000000 0.00000000
vt 1.00000000 1.00000000
vt 0.00000000 1.00000000
vt 0.00000000 0.00000000
vt 1.00000000 0.00000000
vt 1.00000000 1.00000000
vt 0.00000000 1.00000000
vt 0.00000000 0.00000000
vt 1.00000000 0.00000000
vt 1.00000000 1.00000000
vt 0.00000000 1.00000000
vt 0.00000000 0.00000000
vt 1.00000000 0.00000000
vt 1.00000000 1.00000000
vt 0.00000000 1.00000000
vt 0.00000000 0.00000000
vt 1.00000000 0.00000000
vt 1.00000000 1.00000000
vt 0.00000000 1.00000000
vt 0.00000000 0.00000000
vt 1.00000000 0.00000000
vt 1.00000000 1.00000000
vt 0.00000000 1.00000000
vt 0.00000000 0.00000000
vt 1.00000000 0.00000000
vt 1.00000000 1.00000000
vt 0.00000000 1.00000000
vt 0.00000000 0.00000000
vt 1.00000000 0.00000000
vt 1.00000000 1.00000000
vt 0.00000000 1.00000000
vt 0.00000000 0.00000000
vt 1.00000000 0.00000000
vt 1.00000000 1.00000000
vt 0.00000000 1.00000000
vt 0.00000000 0.00000000
vt 1.00000000 0.00000000
vt 1.00000000 1.00000000
vt 0.00000000 1.00000000
vt 0.00000000 0.00000000
vt 1.00000000 0.00000000
vt 1.00000000 1.00000000
vt 0.00000000 1.00000000
vt 0.00000000 0.00000000
vt 0.00000000 1.00000000
vt 0.00000000 0.00000000
vt 1.00000000 0.00000000
vt 1.00000000 1.00000000
vt 0.00000000 1.00000000
vt 0.00000000 0.00000000
vt 1.00000000 0.00000000
vt 1.00000000 1.00000000
vt 0.81198132 1.00000000
vt 0.81198132 0.59368211
vt 0.40599066 0.59368211
vt 0.40631789 0.18801868
vt 0.00000000 0.18801868
vt 0.00000000 0.06622148
vt 0.26794919 0.00000000
vt 0.47703902 0.17374417
vt 0.73205081 0.26794919
vt 0.82625583 0.52296098
vt 1.00000000 0.73205081
vt 0.93377852 1.00000000
vt 1.00000000 0.00000000
vt 1.00000000 1.00000000
vt 0.00000000 1.00000000
vt 0.00000000 0.00000000
vt 0.66666667 1.00000000
vt 0.66666667 0.66639800
vt 0.33333333 0.66639800
vt 0.33360200 0.33333333
vt 0.00000000 0.33333333
vt 0.00000000 0.00000000
vt 0.25881905 0.03407417
vt 0.50000000 0.13397460
vt 0.70710678 0.29289322
vt 0.86602540 0.50000000
vt 0.96592583 0.74118095
vt 1.00000000 1.00000000
vt 1.00000000 0.00000000
vt 1.00000000 1.00000000
vt 0.00000000 1.00000000
vt 0.00000000 0.00000000
vt 0.50000000 0.13397460
vt 0.70710678 0.29289322
vt 0.86602540 0.50000000
vt 0.96592583 0.74118095
vt 1.00000000 1.00000000
vt 0.88333333 1.00000000
vt 0.94982706 0.74549461
vt 0.77942286 0.55000000
vt 0.69532167 0.30467833
vt 0.45000000 0.22057714
vt 0.25450539 0.05017294
vt 0.00000000 0.11666667
vt 0.00000000 0.00000000
vt 0.25881905 0.03407417
vn 0.60876143 -0.00000000 -0.79335334
vn 0.60876143 -0.00000000 -0.79335334
vn 0.60876143 -0.00000000 -0.79335334
vn 0.60876143 -0.00000000 -0.79335334
vn 0.38268343 -0.00000000 -0.92387953
vn 0.38268343 -0.00000000 -0.92387953
vn 0.38268343 -0.00000000 -0.92387953
vn 0.38268343 -0.00000000 -0.92387953
vn 0.13052619 -0.00000000 -0.99144486
vn 0.13052619 -0.00000000 -0.99144486
vn 0.13052619 -0.00000000 -0.99144486
vn 0.13052619 -0.00000000 -0.99144486
vn -1.00000000 0.00000000 -0.00000000
vn -1.00000000 0.00000000 -0.00000000
vn -1.00000000 0.00000000 -0.00000000
vn -1.00000000 0.00000000 -0.00000000
vn -1.00000000 0.00000000 -0.00000000
vn -1.00000000 0.00000000 -0.00000000
vn -1.00000000 0.00000000 -0.00000000
vn -1.00000000 0.00000000 -0.00000000
vn -0.23218644 0.80931144 -0.53954096
vn -0.14342620 0.82344774 -0.54896516
vn -0.19079127 0.65599216 -0.73025542
vn -0.24957532 0.63857016 -0.72796999
vn 0.36922884 0.82718676 -0.42359429
vn 0.44160916 0.81593276 -0.37314217
vn 0.53893362 0.65321297 -0.53184900
vn 0.48883755 0.66822543 -0.56081425
vn 0.24126061 0.66822543 -0.70375286
vn 0.19112794 0.65321297 -0.73265471
vn 0.10234602 0.81593276 -0.56901583
vn 0.18222900 0.82718676 -0.53155870
vn 0.53155870 0.82718676 -0.18222900
vn 0.56901583 0.81593276 -0.10234602
vn 0.73265471 0.65321297 -0.19112794
vn 0.70375286 0.66822543 -0.24126061
vn 0.56081425 0.66822543 -0.48883755
vn 0.53184900 0.65321297 -0.53893362
vn 0.37314217 0.81593276 -0.44160916
vn 0.42359429 0.82718676 -0.36922884
vn 0.54896516 0.82344774 0.14342620
vn 0.53954096 0.80931144 0.23218644
vn 0.72796999 0.63857016 0.24957532
vn 0.73025542 0.65599216 0.19079127
vn -0.00000000 -0.00000000 1.00000000
vn -0.00000000 -0.00000000 1.00000000
vn -0.00000000 -0.00000000 1.00000000
vn -0.00000000 -0.00000000 1.00000000
vn -0.00000000 0.00000000 1.00000000
vn -0.00000000 -0.00000000 1.00000000
vn -0.00000000 0.00000000 1.00000000
vn -0.00000000 -0.00000000 1.00000000
vn -1.00000000 0.00000000 0.00000000
vn -1.00000000 0.00000000 0.00000000
vn -1.00000000 0.00000000 0.00000000
vn -1.00000000 0.00000000 0.00000000
vn 0.00080664 0.00000000 0.99999967
vn 0.00080664 0.00000000 0.99999967
vn 0.00080664 0.00000000 0.99999967
vn 0.00080664 0.00000000 0.99999967
vn -1.00000000 0.00000000 0.00000000
vn -1.00000000 0.00000000 0.00000000
vn -1.00000000 0.00000000 0.00000000
vn -1.00000000 0.00000000 0.00000000
vn 0.95755238 0.19151048 0.21544645
vn 0.95299524 0.19059905 0.23552510
vn 0.96061644 0.14440639 0.23740861
vn 0.96788229 0.14702009 0.20393373
vn 0.78078118 0.15184002 -0.60607373
vn 0.76045549 0.14968207 -0.63190404
vn 0.75459865 0.19340405 -0.62703728
vn 0.76699478 0.19400942 -0.61162027
vn 0.91317608 0.19400942 -0.35842683
vn 0.92032954 0.19340405 -0.33998297
vn 0.92747270 0.14968207 -0.34262175
vn 0.91526583 0.15184002 -0.37313947
vn 0.37313947 0.15184002 -0.91526583
vn 0.34262175 0.14968207 -0.92747270
vn 0.33998297 0.19340405 -0.92032954
vn 0.35842683 0.19400942 -0.91317608
vn 0.61162027 0.19400942 -0.76699478
vn 0.62703728 0.19340405 -0.75459865
vn 0.63190404 0.14968207 -0.76045549
vn 0.60607373 0.15184002 -0.78078118
vn 0.99144486 0.00000000 -0.13052619
vn 0.99144486 0.00000000 -0.13052619
vn 0.99144486 0.00000000 -0.13052619
vn 0.99144486 0.00000000 -0.13052619
vn 0.92387953 0.00000000 -0.38268343
vn 0.92387953 0.00000000 -0.38268343
vn 0.92387953 0.00000000 -0.38268343
vn 0.92387953 0.00000000 -0.38268343
vn 0.86580618 0.43290309 0.25094735
vn 0.86107889 0.43053945 0.27051605
vn 0.88177624 0.39190055 0.26245882
vn 0.88422873 0.39474497 0.24963166
vn 0.67842203 0.40681933 -0.61175288
vn 0.67161353 0.40467869 -0.62062099
vn 0.65248272 0.43726419 -0.61892352
vn 0.66371075 0.43882934 -0.60573662
vn 0.85643868 0.43882934 -0.27192206
vn 0.86224486 0.43726419 -0.25560485
vn 0.87328031 0.40467869 -0.27132388
vn 0.86900455 0.40681933 -0.28165427
vn 0.28165427 0.40681933 -0.86900455
vn 0.27132388 0.40467869 -0.87328031
vn 0.25560485 0.43726419 -0.86224486
vn 0.27192206 0.43882934 -0.85643868
vn 0.60573662 0.43882934 -0.66371075
vn 0.61892352 0.43726419 -0.65248272
vn 0.62062099 0.40467869 -0.67161353
vn 0.61175288 0.40681933 -0.67842203
vn -0.27051605 0.43053945 -0.86107889
vn -0.25094735 0.43290309 -0.86580618
vn -0.24963166 0.39474497 -0.88422873
vn -0.26245882 0.39190055 -0.88177624
vn -0.23552510 0.19059905 -0.95299524
vn -0.21544645 0.19151048 -0.95755238
vn -0.20393373 0.14702009 -0.96788229
vn -0.23740861 0.14440639 -0.96061644
vn 0.00000000 1.00000000 -0.00000000
vn 0.00000000 1.00000000 -0.00000000
vn 0.00000000 1.00000000 -0.00000000
vn 0.00000000 1.00000000 -0.00000000
vn 0.00000000 1.00000000 -0.00000000
vn 0.00000000 1.00000000 -0.00000000
vn 0.00000000 1.00000000 -0.00000000
vn 0.00000000 1.00000000 -0.00000000
vn 0.00000000 1.00000000 -0.00000000
vn 0.00000000 1.00000000 -0.00000000
vn 0.00000000 1.00000000 -0.00000000
vn 0.00000000 1.00000000 -0.00000000
vn 0.00000000 0.00000000 1.00000000
vn 0.00000000 0.00000000 1.00000000
vn 0.00000000 0.00000000 1.00000000
vn 0.00000000 0.00000000 1.00000000
vn 0.00000000 -1.00000000 -0.00000000
vn 0.00000000 -1.00000000 -0.00000000
vn 0.00000000 -1.00000000 -0.00000000
vn 0.00000000 -1.00000000 -0.00000000
vn 0.00000000 -1.00000000 -0.00000000
vn 0.00000000 -1.00000000 -0.00000000
vn 0.00000000 -1.00000000 -0.00000000
vn 0.00000000 -1.00000000 -0.00000000
vn 0.00000000 -1.00000000 -0.00000000
vn 0.00000000 -1.00000000 -0.00000000
vn 0.00000000 -1.00000000 -0.00000000
vn 0.00000000 -1.00000000 -0.00000000
vn 0.79335334 -0.00000000 -0.60876143
vn 0.79335334 -0.00000000 -0.60876143
vn 0.79335334 -0.00000000 -0.60876143
vn 0.79335334 -0.00000000 -0.60876143
vn -0.00000000 1.00000000 0.00000000
vn -0.00000000 1.00000000 0.00000000
vn -0.00000000 1.00000000 0.00000000
vn -0.00000000 1.00000000 0.00000000
vn -0.00000000 1.00000000 0.00000000
vn -0.00000000 1.00000000 0.00000000
vn -0.00000000 1.00000000 0.00000000
vn -0.00000000 1.00000000 0.00000000
vn -0.00000000 1.00000000 0.00000000
vn -0.00000000 1.00000000 0.00000000
vn -0.00000000 1.00000000 0.00000000
vn -0.00000000 1.00000000 0.00000000
vn -0.00000000 1.00000000 0.00000000
vn -0.00000000 1.00000000 0.00000000
s 1
usemtl Grass
f 4/4/4 3/3/3 2/2/2
f 4/4/4 2/2/2 1/1/1
s 2
f 6/8/8 5/7/7 3/6/6
f 6/8/8 3/6/6 4/5/5
s 3
f 5/12/12 6/11/11 7/9/9
f 6/11/11 8/10/10 7/9/9
s 4
usemtl Rock
f 12/18/18 7/17/17 8/16/16
f 13/19/19 12/18/18 11/15/15
f 14/20/20 11/15/15 10/14/14
f 10/14/14 9/13/13 14/20/20
f 14/20/20 13/19/19 11/15/15
f 12/18/18 8/16/16 11/15/15
s 5
f 16/24/24 15/23/23 12/22/22
f 16/24/24 12/22/22 13/21/21
s 6
f 15/28/28 16/27/27 17/25/25
f 16/27/27 18/26/26 17/25/25
s 7
f 17/32/32 18/31/31 20/30/30
f 17/32/32 20/30/30 19/29/29
s 8
f 19/36/36 20/35/35 21/33/33
f 20/35/35 22/34/34 21/33/33
s 9
f 21/40/40 22/39/39 24/38/38
f 21/40/40 24/38/38 23/37/37
s 10
f 23/44/44 24/43/43 25/41/41
f 24/43/43 26/42/42 25/41/41
s 11
f 28/46/46 27/45/45 25/52/52
f 29/47/47 25/52/52 26/51/51
f 32/50/50 30/48/48 29/47/47
f 32/50/50 31/49/49 30/48/48
f 29/47/47 26/51/51 32/50/50
f 29/47/47 28/46/46 25/52/52
s 12
f 34/56/56 29/55/55 33/53/53
f 29/55/55 30/54/54 33/53/53
s 13
f 36/60/60 34/59/59 35/57/57
f 34/59/59 33/58/58 35/57/57
s 14
f 38/64/64 36/63/63 37/61/61
f 36/63/63 35/62/62 37/61/61
s 15
f 40/68/68 39/67/67 31/66/66
f 40/68/68 31/66/66 32/65/65
s 16
f 42/72/72 41/71/71 40/69/69
f 41/71/71 39/70/70 40/69/69
s 17
f 44/76/76 43/75/75 41/74/74
f 44/76/76 41/74/74 42/73/73
s 18
f 46/80/80 45/79/79 44/77/77
f 45/79/79 43/78/78 44/77/77
s 19
f 48/84/84 47/83/83 45/82/82
f 48/84/84 45/82/82 46/81/81
s 20
usemtl Grass
f 50/88/88 49/87/87 28/85/85
f 49/87/87 27/86/86 28/85/85
s 21
f 52/92/92 51/91/91 50/89/89
f 51/91/91 49/90/90 50/89/89
s 22
usemtl Rock
f 24/96/96 40/95/95 32/94/94
f 24/96/96 32/94/94 26/93/93
s 23
f 22/100/100 42/99/99 24/97/97
f 42/99/99 40/98/98 24/97/97
s 24
f 20/104/104 44/103/103 42/102/102
f 20/104/104 42/102/102 22/101/101
s 25
f 18/108/108 46/107/107 20/105/105
f 46/107/107 44/106/106 20/105/105
s 26
f 16/112/112 48/111/111 46/110/110
f 16/112/112 46/110/110 18/109/109
s 27
f 48/116/116 16/115/115 14/113/113
f 16/115/115 13/114/114 14/113/113
s 28
f 47/120/120 48/119/119 9/117/117
f 48/119/119 14/118/118 9/117/117
s 29
f 30/125/125 31/126/126 39/127/127
f 33/124/124 39/127/127 41/128/128
f 41/128/128 43/129/129 45/130/130
f 45/130/130 47/131/131 37/122/122
f 47/131/131 10/121/121 37/122/122
f 47/131/131 9/132/132 10/121/121
f 37/122/122 33/124/124 45/130/130
f 33/124/124 41/128/128 45/130/130
f 37/122/122 35/123/123 33/124/124
f 33/124/124 30/125/125 39/127/127
s 30
f 11/136/136 38/135/135 10/133/133
f 38/135/135 37/134/134 10/133/133
s 31
f 11/137/137 8/148/148 6/147/147
f 38/138/138 6/147/147 4/146/146
f 1/145/145 34/140/140 38/138/138
f 52/144/144 50/143/143 34/140/140
f 50/143/143 28/142/142 29/141/141
f 50/143/143 29/141/141 34/140/140
f 1/145/145 52/144/144 34/140/140
f 34/140/140 36/139/139 38/138/138
f 38/138/138 4/146/146 1/145/145
f 38/138/138 11/137/137 6/147/147
s 32
usemtl Grass
f 1/152/152 2/151/151 51/150/150
f 1/152/152 51/150/150 52/149/149
s 33
f 23/163/163 25/164/164 27/165/165
f 19/161/161 23/163/163 51/153/153
f 15/159/159 19/161/161 3/155/155
f 3/155/155 5/156/156 15/159/159
f 5/156/156 7/157/157 15/159/159
f 7/157/157 12/158/158 15/159/159
f 19/161/161 2/154/154 3/155/155
f 19/161/161 51/153/153 2/154/154
f 15/159/159 17/160/160 19/161/161
f 23/163/163 49/166/166 51/153/153
f 23/163/163 27/165/165 49/166/166
f 19/161/161 21/162/162 23/163/163
