mtllib Cliff_Mid_Corner_Outer_Sm.mtl
o object1
g object1
v -0.11109127 1.00000000 0.11109127
v -0.20000000 1.00000000 0.50000000
v -0.20000000 -0.00000000 0.50000000
v -0.11109127 -0.00000000 0.11109127
v -0.50000000 1.00000000 0.20000000
v -0.50000000 1.00000000 0.50000000
v -0.50000000 -0.00000000 0.20000000
v -0.50000000 0.00000000 0.50000000
vt 1.00000000 0.00000000
vt 1.00000000 1.00000000
vt 0.00000000 1.00000000
vt 0.00000000 0.00000000
vt 1.00000000 0.00000000
vt 0.77138922 1.00000000
vt 0.00000000 1.00000000
vt 0.00000000 0.22861078
vt 1.00000000 0.00000000
vt 1.00000000 1.00000000
vt 0.00000000 1.00000000
vt 0.00000000 0.00000000
vt 1.00000000 0.00000000
vt 1.00000000 1.00000000
vt 0.00000000 1.00000000
vt 0.00000000 0.00000000
vt 1.00000000 0.00000000
vt 0.77138922 1.00000000
vt 0.00000000 1.00000000
vt 0.00000000 0.22861078
vt 1.00000000 0.00000000
vt 1.00000000 1.00000000
vt 0.00000000 1.00000000
vt 0.00000000 0.00000000
vn 0.97485017 -0.00000000 0.22286126
vn 0.97485017 -0.00000000 0.22286126
vn 0.97485017 -0.00000000 0.22286126
vn 0.97485017 -0.00000000 0.22286126
vn 0.00000000 1.00000000 -0.00000000
vn 0.00000000 1.00000000 -0.00000000
vn 0.00000000 1.00000000 -0.00000000
vn 0.00000000 1.00000000 -0.00000000
vn -1.00000000 0.00000000 -0.00000000
vn -1.00000000 0.00000000 -0.00000000
vn -1.00000000 0.00000000 -0.00000000
vn -1.00000000 0.00000000 -0.00000000
vn -0.22286126 -0.00000000 -0.97485017
vn -0.22286126 -0.00000000 -0.97485017
vn -0.22286126 -0.00000000 -0.97485017
vn -0.22286126 -0.00000000 -0.97485017
vn -0.00000000 -1.00000000 0.00000000
vn -0.00000000 -1.00000000 0.00000000
vn -0.00000000 -1.00000000 0.00000000
vn -0.00000000 -1.00000000 0.00000000
vn -0.00000000 0.00000000 1.00000000
vn -0.00000000 0.00000000 1.00000000
vn -0.00000000 0.00000000 1.00000000
vn -0.00000000 0.00000000 1.00000000
s 1
usemtl Rock
f 1/1/1 2/2/2 4/4/4
f 2/2/2 3/3/3 4/4/4
s 2
f 5/6/6 6/7/7 2/8/8
f 1/5/5 5/6/6 2/8/8
s 3
f 6/9/9 5/10/10 8/12/12
f 5/10/10 7/11/11 8/12/12
s 4
f 5/13/13 1/14/14 4/15/15
f 5/13/13 4/15/15 7/16/16
s 5
f 3/20/20 8/19/19 7/18/18
f 3/20/20 7/18/18 4/17/17
s 6
f 2/21/21 6/22/22 3/24/24
f 6/22/22 8/23/23 3/24/24
