mtllib Cliff_Base_Hill_Gentle.mtl
o object1
g object1
v -0.20000000 1.15000000 0.50000000
v -0.10000000 0.65000000 0.50000000
v 0.00000000 1.02500000 1.00000000
v -0.05000000 1.32500000 1.00000000
v 0.00000000 0.45000000 0.50000000
v 0.15000000 0.72500000 1.00000000
v 0.00000000 0.80000000 1.50000000
v -0.10000000 1.00000000 1.50000000
v 0.15000000 1.07500000 2.00000000
v 0.00000000 1.37500000 2.00000000
v 0.00000000 1.15000000 2.50000000
v -0.10000000 1.35000000 2.50000000
v 0.15000000 1.32500000 3.00000000
v 0.00000000 1.62500000 3.00000000
v -0.20000000 1.85000000 2.50000000
v -0.05000000 1.92500000 3.00000000
v -0.10000000 1.50000000 3.50000000
v -0.20000000 2.00000000 3.50000000
v 0.50000000 0.00000000 3.50000000
v 0.50000000 0.00000000 -0.50000000
v -0.50000000 0.00000000 -0.50000000
v -0.50000000 0.00000000 3.50000000
v 0.50000000 0.20000000 -0.50000000
v 0.50000000 1.20000000 3.50000000
v 0.50000000 1.05000000 2.50000000
v 0.50000000 0.35000000 0.50000000
v 0.45000000 0.27500000 -0.00000000
v 0.15000000 0.20000000 -0.50000000
v 0.15000000 0.35000000 0.50000000
v 0.15000000 0.47500000 -0.00000000
v 0.00000000 0.30000000 -0.50000000
v 0.00000000 0.77500000 -0.00000000
v -0.10000000 0.50000000 -0.50000000
v 0.15000000 1.05000000 2.50000000
v 0.45000000 0.87500000 2.00000000
v 0.15000000 0.70000000 1.50000000
v 0.45000000 0.52500000 1.00000000
v 0.15000000 1.20000000 3.50000000
v 0.45000000 1.12500000 3.00000000
v 0.00000000 1.30000000 3.50000000
v -0.20000000 1.50000000 1.50000000
v -0.05000000 1.67500000 2.00000000
v -0.20000000 1.00000000 -0.50000000
v -0.20000000 2.00000000 -0.50000000
v -0.50000000 2.00000000 -0.50000000
v -0.05000000 1.07500000 -0.00000000
v -0.50000000 2.00000000 3.50000000
v -0.20000000 2.00000000 2.50000000
v -0.05000000 2.00000000 3.00000000
v -0.05000000 2.00000000 2.00000000
v -0.20000000 2.00000000 1.50000000
v -0.20000000 2.00000000 0.50000000
v -0.05000000 2.00000000 1.00000000
v -0.05000000 2.00000000 -0.00000000
vt 0.00000000 1.00000000
vt 0.00000000 0.00000000
vt 1.00000000 0.00000000
vt 1.00000000 1.00000000
vt 0.00000000 1.00000000
vt 0.00000000 0.00000000
vt 1.00000000 0.00000000
vt 1.00000000 1.00000000
vt 0.00000000 1.00000000
vt 0.00000000 0.00000000
vt 1.00000000 0.00000000
vt 1.00000000 1.00000000
vt 0.00000000 1.00000000
vt 0.00000000 0.00000000
vt 1.00000000 0.00000000
vt 1.00000000 1.00000000
vt 0.00000000 1.00000000
vt 0.00000000 0.00000000
vt 1.00000000 0.00000000
vt 1.00000000 1.00000000
vt 0.00000000 1.00000000
vt 0.00000000 0.00000000
vt 1.00000000 0.00000000
vt 1.00000000 1.00000000
vt 0.00000000 1.00000000
vt 0.00000000 0.00000000
vt 1.00000000 0.00000000
vt 1.00000000 1.00000000
vt 0.00000000 1.00000000
vt 0.00000000 0.00000000
vt 1.00000000 0.00000000
vt 1.00000000 1.00000000
vt 0.00000000 1.00000000
vt 0.00000000 0.00000000
vt 1.00000000 0.00000000
vt 1.00000000 1.00000000
vt 1.00000000 0.83333333
vt 1.00000000 1.00000000
vt 0.00000000 1.00000000
vt 0.00000000 0.00000000
vt 0.25000000 0.12500000
vt 0.75000000 0.70833333
vt 0.50000000 0.85714286
vt 1.00000000 0.00000000
vt 1.00000000 1.00000000
vt 0.00000000 1.00000000
vt 0.00000000 0.00000000
vt 0.00000000 1.00000000
vt 0.00000000 0.00000000
vt 1.00000000 0.00000000
vt 1.00000000 1.00000000
vt 1.00000000 0.00000000
vt 1.00000000 1.00000000
vt 0.00000000 1.00000000
vt 0.00000000 0.00000000
vt 1.00000000 0.00000000
vt 1.00000000 1.00000000
vt 0.00000000 1.00000000
vt 0.00000000 0.00000000
vt 1.00000000 0.00000000
vt 1.00000000 1.00000000
vt 0.00000000 1.00000000
vt 0.00000000 0.00000000
vt 0.25000000 0.85714286
vt 0.50000000 0.00000000
vt 0.75000000 0.85714286
vt 1.00000000 1.00000000
vt 0.00000000 1.00000000
vt 0.00000000 0.00000000
vt 0.50000000 0.85714286
vt 1.00000000 0.00000000
vt 0.00000000 1.00000000
vt 0.00000000 0.00000000
vt 1.00000000 0.00000000
vt 1.00000000 1.00000000
vt 0.00000000 1.00000000
vt 0.00000000 0.00000000
vt 1.00000000 0.00000000
vt 1.00000000 1.00000000
vt 0.00000000 1.00000000
vt 0.00000000 0.00000000
vt 1.00000000 0.00000000
vt 1.00000000 1.00000000
vt 0.00000000 1.00000000
vt 0.00000000 0.00000000
vt 1.00000000 0.00000000
vt 1.00000000 1.00000000
vt 0.00000000 1.00000000
vt 0.00000000 0.00000000
vt 1.00000000 0.00000000
vt 1.00000000 1.00000000
vt 0.00000000 1.00000000
vt 0.00000000 0.00000000
vt 1.00000000 0.00000000
vt 1.00000000 1.00000000
vt 0.00000000 1.00000000
vt 0.00000000 0.00000000
vt 1.00000000 0.00000000
vt 1.00000000 1.00000000
vt 0.00000000 1.00000000
vt 0.00000000 0.00000000
vt 1.00000000 0.00000000
vt 1.00000000 1.00000000
vt 0.00000000 1.00000000
vt 0.00000000 0.00000000
vt 1.00000000 0.00000000
vt 1.00000000 1.00000000
vt 0.00000000 1.00000000
vt 0.00000000 0.00000000
vt 1.00000000 0.00000000
vt 1.00000000 1.00000000
vt 0.00000000 1.00000000
vt 0.00000000 0.00000000
vt 1.00000000 0.00000000
vt 1.00000000 1.00000000
vt 0.25000000 0.60000000
vt 0.50000000 0.70000000
vt 1.00000000 0.70000000
vt 1.00000000 1.00000000
vt 0.00000000 1.00000000
vt 0.00000000 0.00000000
vt 0.10000000 0.00000000
vt 0.10000000 0.35000000
vt 0.15000000 0.50000000
vt 1.00000000 0.00000000
vt 1.00000000 1.00000000
vt 0.00000000 1.00000000
vt 0.00000000 0.00000000
vt 0.00000000 1.00000000
vt 0.00000000 0.00000000
vt 1.00000000 0.00000000
vt 1.00000000 1.00000000
vt 0.00000000 0.00000000
vt 1.00000000 0.00000000
vt 1.00000000 1.00000000
vt 0.70000000 1.00000000
vt 0.60000000 0.75000000
vt 0.50000000 0.65000000
vt 0.35000000 0.60000000
vt 0.00000000 0.60000000
vt 0.50000000 1.00000000
vt 0.00000000 0.00000000
vt 1.00000000 0.00000000
vt 1.00000000 1.00000000
vt 1.00000000 1.00000000
vt 0.00000000 0.00000000
vt 1.00000000 0.00000000
vt 0.53846154 1.00000000
vt 0.00000000 0.00000000
vt 1.00000000 0.00000000
vt 1.00000000 1.00000000
vt 0.35000000 1.00000000
vt 0.00000000 0.00000000
vt 1.00000000 0.00000000
vt 1.00000000 1.00000000
vt 1.00000000 0.00000000
vt 1.00000000 1.00000000
vt 0.00000000 1.00000000
vt 0.00000000 0.00000000
vt 0.20588235 1.00000000
vt 0.00000000 0.00000000
vt 1.00000000 0.00000000
vt 1.00000000 1.00000000
vt 0.25925926 1.00000000
vt 0.00000000 0.00000000
vt 1.00000000 0.00000000
vt 1.00000000 1.00000000
vt 0.08108108 1.00000000
vt 0.00000000 0.00000000
vt 1.00000000 0.00000000
vt 1.00000000 1.00000000
vt 0.33333333 0.00000000
vt 1.00000000 0.00000000
vt 1.00000000 1.00000000
vt 0.33333333 1.00000000
vt 0.00000000 0.87500000
vt 0.33333333 0.75000000
vt 0.00000000 0.62500000
vt 0.33333333 0.50000000
vt 0.00000000 0.37500000
vt 0.33333333 0.25000000
vt 0.00000000 0.12500000
vt 0.07500000 1.00000000
vt 0.00000000 0.00000000
vt 1.00000000 0.00000000
vt 1.00000000 1.00000000
vn 0.92178624 0.18435725 -0.34106091
vn 0.92747779 0.18549556 -0.32461723
vn 0.93930766 0.15655128 -0.30527499
vn 0.93000904 0.15500151 -0.33325324
vn 0.79539998 0.39769999 -0.45735499
vn 0.79539998 0.39769999 -0.45735499
vn 0.79539998 0.39769999 -0.45735499
vn 0.79539998 0.39769999 -0.45735499
vn 0.87684726 0.43842363 0.19729063
vn 0.87684726 0.43842363 0.19729063
vn 0.87684726 0.43842363 0.19729063
vn 0.87684726 0.43842363 0.19729063
vn 0.79539998 0.39769999 -0.45735499
vn 0.79539998 0.39769999 -0.45735499
vn 0.79539998 0.39769999 -0.45735499
vn 0.79539998 0.39769999 -0.45735499
vn 0.87684726 0.43842363 0.19729063
vn 0.87684726 0.43842363 0.19729063
vn 0.87684726 0.43842363 0.19729063
vn 0.87684726 0.43842363 0.19729063
vn 0.82321258 0.41160629 -0.39102597
vn 0.82321258 0.41160629 -0.39102597
vn 0.82321258 0.41160629 -0.39102597
vn 0.82321258 0.41160629 -0.39102597
vn 0.93295111 0.18659022 -0.30787387
vn 0.93819199 0.18763840 -0.29083952
vn 0.94794301 0.15799050 -0.27648338
vn 0.93930766 0.15655128 -0.30527499
vn 0.95199126 0.15866521 0.26179760
vn 0.95950886 0.15991814 0.23188131
vn 0.95238095 0.19047619 0.23809524
vn 0.94792053 0.18958411 0.25593854
vn -0.00000000 -1.00000000 -0.00000000
vn -0.00000000 -1.00000000 -0.00000000
vn -0.00000000 -1.00000000 -0.00000000
vn -0.00000000 -1.00000000 -0.00000000
vn 1.00000000 -0.00000000 0.00000000
vn 1.00000000 -0.00000000 0.00000000
vn 1.00000000 -0.00000000 0.00000000
vn 1.00000000 -0.00000000 0.00000000
vn 1.00000000 -0.00000000 0.00000000
vn 1.00000000 -0.00000000 0.00000000
vn 0.00000000 0.98893635 -0.14834045
vn 0.00000000 0.98893635 -0.14834045
vn 0.00000000 0.98893635 -0.14834045
vn 0.00000000 0.98893635 -0.14834045
vn 0.00000000 0.98893635 -0.14834045
vn 0.54307539 0.81461308 0.20365327
vn 0.54307539 0.81461308 0.20365327
vn 0.54307539 0.81461308 0.20365327
vn 0.54307539 0.81461308 0.20365327
vn 0.50439317 0.75658975 -0.41612436
vn 0.50439317 0.75658975 -0.41612436
vn 0.50439317 0.75658975 -0.41612436
vn 0.50439317 0.75658975 -0.41612436
vn 0.82321258 0.41160629 -0.39102597
vn 0.82321258 0.41160629 -0.39102597
vn 0.82321258 0.41160629 -0.39102597
vn 0.82321258 0.41160629 -0.39102597
vn 0.00000000 0.94385836 -0.33035042
vn 0.00000000 0.94385836 -0.33035042
vn 0.00000000 0.94385836 -0.33035042
vn 0.00000000 0.94385836 -0.33035042
vn 0.00000000 0.94385836 -0.33035042
vn 0.00000000 0.94385836 -0.33035042
vn 0.00000000 0.94385836 -0.33035042
vn 0.00000000 0.98893635 -0.14834045
vn 0.00000000 0.98893635 -0.14834045
vn 0.00000000 0.98893635 -0.14834045
vn 0.00000000 0.98893635 -0.14834045
vn 0.00000000 0.98893635 -0.14834045
vn 0.54307539 0.81461308 0.20365327
vn 0.54307539 0.81461308 0.20365327
vn 0.54307539 0.81461308 0.20365327
vn 0.54307539 0.81461308 0.20365327
vn 0.85887550 0.42943775 0.27913454
vn 0.85887550 0.42943775 0.27913454
vn 0.85887550 0.42943775 0.27913454
vn 0.85887550 0.42943775 0.27913454
vn 0.50439317 0.75658975 -0.41612436
vn 0.50439317 0.75658975 -0.41612436
vn 0.50439317 0.75658975 -0.41612436
vn 0.50439317 0.75658975 -0.41612436
vn 0.55422079 0.83133118 0.04156656
vn 0.55422079 0.83133118 0.04156656
vn 0.55422079 0.83133118 0.04156656
vn 0.55422079 0.83133118 0.04156656
vn 0.47058824 0.70588235 -0.52941176
vn 0.47058824 0.70588235 -0.52941176
vn 0.47058824 0.70588235 -0.52941176
vn 0.47058824 0.70588235 -0.52941176
vn 0.55422079 0.83133118 0.04156656
vn 0.55422079 0.83133118 0.04156656
vn 0.55422079 0.83133118 0.04156656
vn 0.55422079 0.83133118 0.04156656
vn 0.47058824 0.70588235 -0.52941176
vn 0.47058824 0.70588235 -0.52941176
vn 0.47058824 0.70588235 -0.52941176
vn 0.47058824 0.70588235 -0.52941176
vn 0.85887550 0.42943775 0.27913454
vn 0.85887550 0.42943775 0.27913454
vn 0.85887550 0.42943775 0.27913454
vn 0.85887550 0.42943775 0.27913454
vn 0.95950886 0.15991814 0.23188131
vn 0.96620362 0.16103394 0.20129242
vn 0.96042914 0.19208583 0.20169012
vn 0.95655465 0.19131093 0.22000757
vn 0.92178624 0.18435725 -0.34106091
vn 0.92747779 0.18549556 -0.32461723
vn 0.93930766 0.15655128 -0.30527499
vn 0.93000904 0.15500151 -0.33325324
vn 0.95950886 0.15991814 0.23188131
vn 0.96620362 0.16103394 0.20129242
vn 0.96042914 0.19208583 0.20169012
vn 0.95655465 0.19131093 0.22000757
vn 0.00000000 -0.00000000 -1.00000000
vn 0.00000000 -0.00000000 -1.00000000
vn 0.00000000 -0.00000000 -1.00000000
vn 0.00000000 -0.00000000 -1.00000000
vn 0.00000000 -0.00000000 -1.00000000
vn 0.00000000 -0.00000000 -1.00000000
vn 0.00000000 -0.00000000 -1.00000000
vn 0.00000000 -0.00000000 -1.00000000
vn 0.00000000 -0.00000000 -1.00000000
vn 0.94794301 0.15799050 -0.27648338
vn 0.93930766 0.15655128 -0.30527499
vn 0.93295111 0.18659022 -0.30787387
vn 0.93819199 0.18763840 -0.29083952
vn 0.95199126 0.15866521 0.26179760
vn 0.95950886 0.15991814 0.23188131
vn 0.95238095 0.19047619 0.23809524
vn 0.94792053 0.18958411 0.25593854
vn -0.00000000 -0.00000000 1.00000000
vn -0.00000000 -0.00000000 1.00000000
vn -0.00000000 -0.00000000 1.00000000
vn -0.00000000 -0.00000000 1.00000000
vn -0.00000000 -0.00000000 1.00000000
vn -0.00000000 -0.00000000 1.00000000
vn -0.00000000 -0.00000000 1.00000000
vn -0.00000000 -0.00000000 1.00000000
vn 0.95782629 -0.00000000 -0.28734789
vn 0.95782629 -0.00000000 -0.28734789
vn 0.95782629 -0.00000000 -0.28734789
vn 0.95782629 -0.00000000 -0.28734789
vn 0.95782629 0.00000000 0.28734789
vn 0.95782629 0.00000000 0.28734789
vn 0.95782629 0.00000000 0.28734789
vn 0.95782629 0.00000000 0.28734789
vn 0.95782629 0.00000000 0.28734789
vn 0.95782629 0.00000000 0.28734789
vn 0.95782629 0.00000000 0.28734789
vn 0.95782629 -0.00000000 -0.28734789
vn 0.95782629 -0.00000000 -0.28734789
vn 0.95782629 -0.00000000 -0.28734789
vn 0.95782629 -0.00000000 -0.28734789
vn -1.00000000 0.00000000 -0.00000000
vn -1.00000000 0.00000000 -0.00000000
vn -1.00000000 0.00000000 -0.00000000
vn -1.00000000 0.00000000 -0.00000000
vn 0.95782629 -0.00000000 -0.28734789
vn 0.95782629 -0.00000000 -0.28734789
vn 0.95782629 -0.00000000 -0.28734789
vn 0.95782629 -0.00000000 -0.28734789
vn 0.95782629 0.00000000 0.28734789
vn 0.95782629 0.00000000 0.28734789
vn 0.95782629 0.00000000 0.28734789
vn 0.95782629 0.00000000 0.28734789
vn 0.95782629 0.00000000 0.28734789
vn 0.95782629 0.00000000 0.28734789
vn 0.95782629 0.00000000 0.28734789
vn 0.95782629 0.00000000 0.28734789
vn 0.00000000 1.00000000 -0.00000000
vn 0.00000000 1.00000000 -0.00000000
vn 0.00000000 1.00000000 -0.00000000
vn 0.00000000 1.00000000 -0.00000000
vn 0.00000000 1.00000000 -0.00000000
vn 0.00000000 1.00000000 -0.00000000
vn 0.00000000 1.00000000 -0.00000000
vn 0.00000000 1.00000000 -0.00000000
vn 0.00000000 1.00000000 -0.00000000
vn 0.00000000 1.00000000 -0.00000000
vn 0.00000000 1.00000000 -0.00000000
vn 0.95782629 -0.00000000 -0.28734789
vn 0.95782629 -0.00000000 -0.28734789
vn 0.95782629 -0.00000000 -0.28734789
vn 0.95782629 -0.00000000 -0.28734789
s 1
usemtl Rock
f 4/4/4 3/3/3 1/1/1
f 3/3/3 2/2/2 1/1/1
s 2
f 3/8/8 6/7/7 2/5/5
f 6/7/7 5/6/6 2/5/5
s 3
f 8/12/12 7/11/11 3/9/9
f 7/11/11 6/10/10 3/9/9
s 4
f 10/16/16 9/15/15 8/13/13
f 9/15/15 7/14/14 8/13/13
s 5
f 12/20/20 11/19/19 10/17/17
f 11/19/19 9/18/18 10/17/17
s 6
f 14/24/24 13/23/23 12/21/21
f 13/23/23 11/22/22 12/21/21
s 7
f 16/28/28 14/27/27 15/25/25
f 14/27/27 12/26/26 15/25/25
s 8
f 18/32/32 17/31/31 14/30/30
f 18/32/32 14/30/30 16/29/29
s 9
f 22/36/36 21/35/35 20/34/34
f 22/36/36 20/34/34 19/33/33
s 10
usemtl Grass
f 20/38/38 23/37/37 26/42/42
f 26/42/42 25/41/41 19/39/39
f 25/41/41 24/40/40 19/39/39
f 26/42/42 19/39/39 20/38/38
s 11
f 27/43/43 29/47/47 26/46/46
f 26/46/46 23/45/45 27/43/43
f 23/45/45 28/44/44 27/43/43
s 12
usemtl Rock
f 5/51/51 29/50/50 30/48/48
f 29/50/50 27/49/49 30/48/48
s 13
f 28/55/55 31/54/54 30/53/53
f 28/55/55 30/53/53 27/52/52
s 14
f 31/59/59 33/58/58 30/56/56
f 33/58/58 32/57/57 30/56/56
s 15
usemtl Grass
f 26/61/61 29/60/60 37/66/66
f 37/66/66 35/64/64 25/62/62
f 35/64/64 34/63/63 25/62/62
f 37/66/66 36/65/65 35/64/64
f 37/66/66 25/62/62 26/61/61
s 16
f 25/67/67 34/71/71 39/70/70
f 39/70/70 38/69/69 24/68/68
f 39/70/70 24/68/68 25/67/67
s 17
usemtl Rock
f 40/75/75 38/74/74 13/72/72
f 38/74/74 39/73/73 13/72/72
s 18
f 17/79/79 40/78/78 13/77/77
f 17/79/79 13/77/77 14/76/76
s 19
f 13/83/83 39/82/82 34/81/81
f 13/83/83 34/81/81 11/80/80
s 20
f 11/87/87 34/86/86 9/84/84
f 34/86/86 35/85/85 9/84/84
s 21
f 9/91/91 35/90/90 36/89/89
f 9/91/91 36/89/89 7/88/88
s 22
f 7/95/95 36/94/94 6/92/92
f 36/94/94 37/93/93 6/92/92
s 23
f 6/99/99 37/98/98 29/97/97
f 6/99/99 29/97/97 5/96/96
s 24
f 2/103/103 5/102/102 30/101/101
f 2/103/103 30/101/101 32/100/100
s 25
f 41/107/107 8/106/106 4/104/104
f 8/106/106 3/105/105 4/104/104
s 26
f 42/111/111 10/110/110 41/108/108
f 10/110/110 8/109/109 41/108/108
s 27
f 15/115/115 12/114/114 42/112/112
f 12/114/114 10/113/113 42/112/112
s 28
f 28/123/123 23/122/122 20/121/121
f 31/124/124 28/123/123 21/120/120
f 21/120/120 45/119/119 43/117/117
f 45/119/119 44/118/118 43/117/117
f 43/117/117 33/116/116 21/120/120
f 33/116/116 31/124/124 21/120/120
f 28/123/123 20/121/121 21/120/120
s 29
f 33/128/128 43/127/127 32/125/125
f 43/127/127 46/126/126 32/125/125
s 30
f 1/132/132 2/131/131 32/130/130
f 1/132/132 32/130/130 46/129/129
s 31
f 17/137/137 18/136/136 47/135/135
f 40/138/138 17/137/137 22/134/134
f 22/134/134 19/133/133 38/139/139
f 19/133/133 24/140/140 38/139/139
f 22/134/134 38/139/139 40/138/138
f 17/137/137 47/135/135 22/134/134
s 32
f 16/141/141 15/142/142 48/143/143
f 16/141/141 48/143/143 49/144/144
s 33
f 18/145/145 16/146/146 49/147/147
s 34
f 15/148/148 42/149/149 50/150/150
f 15/148/148 50/150/150 48/151/151
s 35
f 42/152/152 41/153/153 51/154/154
f 42/152/152 51/154/154 50/155/155
s 36
f 22/159/159 47/158/158 45/157/157
f 22/159/159 45/157/157 21/156/156
s 37
f 4/160/160 1/161/161 52/162/162
f 4/160/160 52/162/162 53/163/163
s 38
f 41/164/164 4/165/165 53/166/166
f 41/164/164 53/166/166 51/167/167
s 39
f 1/168/168 46/169/169 54/170/170
f 1/168/168 54/170/170 52/171/171
s 40
f 47/174/174 18/175/175 49/176/176
f 45/173/173 47/174/174 51/179/179
f 48/177/177 50/178/178 51/179/179
f 51/179/179 53/180/180 52/181/181
f 51/179/179 52/181/181 45/173/173
f 52/181/181 54/182/182 45/173/173
f 54/182/182 44/172/172 45/173/173
f 47/174/174 48/177/177 51/179/179
f 47/174/174 49/176/176 48/177/177
s 41
f 46/183/183 43/184/184 44/185/185
f 46/183/183 44/185/185 54/186/186
