mtllib Cliff_Top_Straight.mtl
o object1
g object1
v 0.50000000 0.00000000 0.20000000
v 0.50000000 0.00000000 0.50000000
v -0.50000000 0.00000000 0.50000000
v -0.50000000 0.00000000 0.20000000
v 0.00000000 0.00000000 0.05000000
v 0.50000000 1.20000000 0.50000000
v 0.50000000 1.20000000 -0.25000000
v 0.50000000 1.10000000 -0.40000000
v 0.50000000 0.90000000 -0.40000000
v 0.50000000 0.90000000 -0.15000000
v 0.50000000 0.80000000 -0.00000000
v 0.50000000 0.60000000 0.10000000
v -0.50000000 1.20000000 0.50000000
v -0.50000000 1.20000000 -0.25000000
v 0.00000000 1.20000000 -0.20000000
v -0.50000000 1.10000000 -0.40000000
v 0.00000000 1.00000000 -0.50000000
v -0.50000000 0.90000000 -0.40000000
v 0.00000000 0.80000000 -0.50000000
v -0.50000000 0.90000000 -0.15000000
v 0.00000000 0.80000000 -0.45000000
v -0.50000000 0.80000000 -0.00000000
v 0.00000000 0.60000000 -0.15000000
v -0.50000000 0.60000000 0.10000000
v 0.00000000 0.30000000 -0.00000000
vt 0.33333333 0.00000000
vt 1.00000000 0.00000000
vt 1.00000000 1.00000000
vt 0.33333333 1.00000000
vt 0.00000000 0.50000000
vt 0.66666667 0.00000000
vt 1.00000000 0.00000000
vt 1.00000000 1.00000000
vt 0.16666667 1.00000000
vt 0.00000000 0.91666667
vt 0.00000000 0.75000000
vt 0.27777778 0.75000000
vt 0.44444444 0.66666667
vt 0.55555556 0.50000000
vt 0.00000000 0.00000000
vt 1.00000000 0.00000000
vt 0.93333333 0.50000000
vt 1.00000000 1.00000000
vt 0.00000000 1.00000000
vt 1.00000000 0.00000000
vt 1.00000000 1.00000000
vt 0.00000000 1.00000000
vt 0.00000000 0.00000000
vt 1.00000000 0.00000000
vt 1.00000000 1.00000000
vt 0.00000000 1.00000000
vt 0.00000000 0.00000000
vt 1.00000000 0.00000000
vt 1.00000000 1.00000000
vt 0.00000000 1.00000000
vt 0.00000000 0.00000000
vt 1.00000000 0.00000000
vt 1.00000000 1.00000000
vt 0.00000000 1.00000000
vt 0.00000000 0.00000000
vt 1.00000000 0.00000000
vt 1.00000000 1.00000000
vt 0.00000000 1.00000000
vt 0.00000000 0.00000000
vt 0.00000000 1.00000000
vt 0.00000000 0.00000000
vt 1.00000000 0.00000000
vt 1.00000000 1.00000000
vt 0.00000000 1.00000000
vt 0.00000000 0.00000000
vt 1.00000000 0.00000000
vt 1.00000000 1.00000000
vt 0.00000000 1.00000000
vt 0.00000000 0.00000000
vt 1.00000000 0.00000000
vt 1.00000000 1.00000000
vt 0.00000000 1.00000000
vt 0.00000000 0.00000000
vt 1.00000000 0.00000000
vt 1.00000000 1.00000000
vt 0.00000000 1.00000000
vt 0.00000000 0.00000000
vt 1.00000000 0.00000000
vt 1.00000000 1.00000000
vt 0.00000000 1.00000000
vt 0.00000000 0.00000000
vt 1.00000000 0.00000000
vt 1.00000000 1.00000000
vt 1.00000000 0.00000000
vt 1.00000000 1.00000000
vt 0.00000000 1.00000000
vt 0.00000000 0.00000000
vt 0.55555556 0.50000000
vt 0.66666667 0.00000000
vt 1.00000000 0.00000000
vt 1.00000000 1.00000000
vt 0.16666667 1.00000000
vt 0.00000000 0.91666667
vt 0.00000000 0.75000000
vt 0.27777778 0.75000000
vt 0.44444444 0.66666667
vt 1.00000000 0.00000000
vt 1.00000000 1.00000000
vt 0.00000000 1.00000000
vt 0.00000000 0.00000000
vn -0.00000000 -1.00000000 0.00000000
vn -0.00000000 -1.00000000 0.00000000
vn -0.00000000 -1.00000000 0.00000000
vn -0.00000000 -1.00000000 0.00000000
vn -0.00000000 -1.00000000 0.00000000
vn 1.00000000 0.00000000 0.00000000
vn 1.00000000 0.00000000 0.00000000
vn 1.00000000 0.00000000 0.00000000
vn 1.00000000 0.00000000 0.00000000
vn 1.00000000 0.00000000 0.00000000
vn 1.00000000 0.00000000 0.00000000
vn 1.00000000 0.00000000 0.00000000
vn 1.00000000 0.00000000 0.00000000
vn 1.00000000 0.00000000 0.00000000
vn 0.00000000 1.00000000 -0.00000000
vn 0.00000000 1.00000000 -0.00000000
vn 0.00000000 1.00000000 -0.00000000
vn 0.00000000 1.00000000 -0.00000000
vn 0.00000000 1.00000000 -0.00000000
vn 0.05538488 0.83077316 -0.55384878
vn 0.05538488 0.83077316 -0.55384878
vn 0.05538488 0.83077316 -0.55384878
vn 0.05538488 0.83077316 -0.55384878
vn -0.19611614 0.00000000 -0.98058068
vn -0.19611614 0.00000000 -0.98058068
vn -0.19611614 0.00000000 -0.98058068
vn -0.19611614 0.00000000 -0.98058068
vn -0.19611614 -0.98058068 0.00000000
vn -0.19611614 -0.98058068 0.00000000
vn -0.19611614 -0.98058068 0.00000000
vn -0.19611614 -0.98058068 0.00000000
vn -0.44666250 -0.74443750 -0.49629167
vn -0.44666250 -0.74443750 -0.49629167
vn -0.44666250 -0.74443750 -0.49629167
vn -0.44666250 -0.74443750 -0.49629167
vn -0.40824829 -0.40824829 -0.81649658
vn -0.40824829 -0.40824829 -0.81649658
vn -0.40824829 -0.40824829 -0.81649658
vn -0.40824829 -0.40824829 -0.81649658
vn -0.05538488 0.83077316 -0.55384878
vn -0.05538488 0.83077316 -0.55384878
vn -0.05538488 0.83077316 -0.55384878
vn -0.05538488 0.83077316 -0.55384878
vn 0.19611614 -0.00000000 -0.98058068
vn 0.19611614 -0.00000000 -0.98058068
vn 0.19611614 0.00000000 -0.98058068
vn 0.19611614 0.00000000 -0.98058068
vn 0.19611614 -0.98058068 0.00000000
vn 0.19611614 -0.98058068 0.00000000
vn 0.19611614 -0.98058068 0.00000000
vn 0.19611614 -0.98058068 0.00000000
vn 0.44666250 -0.74443750 -0.49629167
vn 0.44666250 -0.74443750 -0.49629167
vn 0.44666250 -0.74443750 -0.49629167
vn 0.44666250 -0.74443750 -0.49629167
vn 0.40824829 -0.40824829 -0.81649658
vn 0.40824829 -0.40824829 -0.81649658
vn 0.40824829 -0.40824829 -0.81649658
vn 0.40824829 -0.40824829 -0.81649658
vn 0.28375500 -0.15764167 -0.94584999
vn 0.28375500 -0.15764167 -0.94584999
vn 0.28375500 -0.15764167 -0.94584999
vn 0.28375500 -0.15764167 -0.94584999
vn -0.28375500 -0.15764167 -0.94584999
vn -0.28375500 -0.15764167 -0.94584999
vn -0.28375500 -0.15764167 -0.94584999
vn -0.28375500 -0.15764167 -0.94584999
vn -1.00000000 -0.00000000 0.00000000
vn -1.00000000 -0.00000000 0.00000000
vn -1.00000000 -0.00000000 0.00000000
vn -1.00000000 -0.00000000 0.00000000
vn -1.00000000 -0.00000000 0.00000000
vn -1.00000000 -0.00000000 0.00000000
vn -1.00000000 -0.00000000 0.00000000
vn -1.00000000 -0.00000000 0.00000000
vn -1.00000000 -0.00000000 0.00000000
vn 0.00000000 0.00000000 1.00000000
vn 0.00000000 0.00000000 1.00000000
vn 0.00000000 0.00000000 1.00000000
vn 0.00000000 0.00000000 1.00000000
s 1
usemtl Rock
f 5/5/5 1/1/1 2/2/2
f 2/2/2 3/3/3 5/5/5
f 3/3/3 4/4/4 5/5/5
s 2
f 9/11/11 8/10/10 7/9/9
f 11/13/13 7/9/9 6/8/8
f 12/14/14 6/8/8 2/7/7
f 2/7/7 1/6/6 12/14/14
f 12/14/14 11/13/13 6/8/8
f 11/13/13 10/12/12 7/9/9
f 10/12/12 9/11/11 7/9/9
s 3
usemtl Grass
f 6/19/19 7/18/18 15/17/17
f 15/17/17 14/16/16 13/15/15
f 6/19/19 15/17/17 13/15/15
s 4
f 15/23/23 17/22/22 16/21/21
f 15/23/23 16/21/21 14/20/20
s 5
f 17/27/27 19/26/26 18/25/25
f 17/27/27 18/25/25 16/24/24
s 6
f 19/31/31 21/30/30 18/28/28
f 21/30/30 20/29/29 18/28/28
s 7
usemtl Rock
f 21/35/35 23/34/34 20/32/32
f 23/34/34 22/33/33 20/32/32
s 8
f 23/39/39 25/38/38 24/37/37
f 23/39/39 24/37/37 22/36/36
s 9
usemtl Grass
f 17/43/43 15/42/42 8/40/40
f 15/42/42 7/41/41 8/40/40
s 10
f 19/47/47 17/46/46 9/44/44
f 17/46/46 8/45/45 9/44/44
s 11
f 21/51/51 19/50/50 9/49/49
f 21/51/51 9/49/49 10/48/48
s 12
usemtl Rock
f 23/55/55 21/54/54 10/53/53
f 23/55/55 10/53/53 11/52/52
s 13
f 25/59/59 23/58/58 12/56/56
f 23/58/58 11/57/57 12/56/56
s 14
f 5/63/63 25/62/62 1/60/60
f 25/62/62 12/61/61 1/60/60
s 15
f 25/67/67 5/66/66 4/65/65
f 25/67/67 4/65/65 24/64/64
s 16
f 14/72/72 16/73/73 18/74/74
f 13/71/71 14/72/72 22/76/76
f 24/68/68 3/70/70 13/71/71
f 24/68/68 4/69/69 3/70/70
f 13/71/71 22/76/76 24/68/68
f 14/72/72 20/75/75 22/76/76
f 14/72/72 18/74/74 20/75/75
s 17
f 2/80/80 6/79/79 3/77/77
f 6/79/79 13/78/78 3/77/77
