mtllib Cliff_Top_Corner_Inner_Sm.mtl
o object1
g object1
v -0.00769231 0.32307692 0.00769231
v 0.10714286 0.65714286 -0.10714286
v 0.00000000 0.80000000 -0.50000000
v -0.10000000 0.60000000 -0.50000000
v -0.05000000 0.00000000 0.05000000
v -0.20000000 0.00000000 -0.50000000
v -0.50000000 0.00000000 -0.50000000
v -0.50000000 0.00000000 0.50000000
v 0.50000000 0.00000000 0.50000000
v 0.50000000 0.00000000 0.20000000
v 0.50000000 1.20000000 0.50000000
v 0.50000000 1.20000000 -0.25000000
v 0.50000000 1.10000000 -0.40000000
v 0.50000000 0.90000000 -0.40000000
v 0.50000000 0.90000000 -0.15000000
v 0.50000000 0.80000000 -0.00000000
v 0.50000000 0.60000000 0.10000000
v 0.27352941 0.85882353 -0.27352941
v 0.40000000 1.10000000 -0.50000000
v 0.40000000 0.90000000 -0.50000000
v 0.41538462 0.88461538 -0.41538462
v 0.15000000 0.90000000 -0.50000000
v 0.25000000 1.20000000 -0.50000000
v -0.50000000 1.20000000 -0.50000000
v -0.50000000 1.20000000 0.50000000
vt 0.00000000 1.00000000
vt 0.22619048 0.00000000
vt 1.00000000 0.00000000
vt 1.00000000 1.00000000
vt 0.00000000 1.00000000
vt 0.07692308 0.00000000
vt 1.00000000 0.00000000
vt 1.00000000 1.00000000
vt 0.45000000 0.55000000
vt 1.00000000 0.70000000
vt 1.00000000 1.00000000
vt 0.00000000 1.00000000
vt 0.00000000 0.00000000
vt 0.30000000 0.00000000
vt 0.66666667 0.00000000
vt 1.00000000 0.00000000
vt 1.00000000 1.00000000
vt 0.16666667 1.00000000
vt 0.00000000 0.91666667
vt 0.00000000 0.75000000
vt 0.27777778 0.75000000
vt 0.44444444 0.66666667
vt 0.55555556 0.50000000
vt 0.00000000 0.89616811
vt 0.39170507 0.00000000
vt 1.00000000 0.52613975
vt 0.54838710 1.00000000
vt 0.00000000 1.00000000
vt 0.00000000 0.00000000
vt 1.00000000 0.00000000
vt 1.00000000 1.00000000
vt 0.00000000 0.00000000
vt 1.00000000 1.00000000
vt 0.15384615 0.88034188
vt 1.00000000 1.00000000
vt 0.00000000 0.53452685
vt 0.62637363 0.00000000
vt 1.00000000 0.05797101
vt 0.00000000 1.00000000
vt 0.00000000 0.00000000
vt 1.00000000 0.00000000
vt 1.00000000 1.00000000
vt 0.00000000 0.00000000
vt 0.75000000 0.00000000
vt 1.00000000 0.25000000
vt 1.00000000 1.00000000
vt 0.00000000 1.00000000
vt 0.00000000 0.00000000
vt 1.00000000 0.00000000
vt 1.00000000 1.00000000
vt 0.00000000 1.00000000
vt 0.00000000 0.00000000
vt 1.00000000 0.00000000
vt 1.00000000 1.00000000
vt 0.00000000 1.00000000
vt 0.92307692 0.00000000
vt 1.00000000 1.00000000
vt 0.00000000 1.00000000
vt 0.00000000 0.00000000
vt 0.55555556 0.50000000
vt 0.66666667 0.00000000
vt 1.00000000 0.00000000
vt 1.00000000 1.00000000
vt 0.16666667 1.00000000
vt 0.00000000 0.91666667
vt 0.00000000 0.75000000
vt 0.27777778 0.75000000
vt 0.44444444 0.66666667
vt 0.42352941 1.00000000
vt 0.00000000 0.03806538
vt 1.00000000 0.00000000
vt 1.00000000 0.69278997
vt 1.00000000 1.00000000
vt 0.00000000 1.00000000
vt 0.00000000 0.00000000
vt 0.77380952 0.00000000
vt 0.00000000 1.00000000
vt 0.46547315 0.00000000
vt 1.00000000 0.62637363
vt 0.94202899 1.00000000
vn 0.82856793 -0.41428397 -0.37662179
vn 0.82856793 -0.41428397 -0.37662179
vn 0.82856793 -0.41428397 -0.37662179
vn 0.82856793 -0.41428397 -0.37662179
vn 0.95252873 -0.15875479 -0.25978056
vn 0.95252873 -0.15875479 -0.25978056
vn 0.95252873 -0.15875479 -0.25978056
vn 0.95252873 -0.15875479 -0.25978056
vn 0.00000000 -1.00000000 -0.00000000
vn 0.00000000 -1.00000000 -0.00000000
vn 0.00000000 -1.00000000 -0.00000000
vn 0.00000000 -1.00000000 -0.00000000
vn 0.00000000 -1.00000000 -0.00000000
vn 0.00000000 -1.00000000 -0.00000000
vn 1.00000000 0.00000000 0.00000000
vn 1.00000000 0.00000000 0.00000000
vn 1.00000000 0.00000000 0.00000000
vn 1.00000000 0.00000000 0.00000000
vn 1.00000000 0.00000000 0.00000000
vn 1.00000000 0.00000000 0.00000000
vn 1.00000000 0.00000000 0.00000000
vn 1.00000000 0.00000000 0.00000000
vn 1.00000000 0.00000000 0.00000000
vn 0.41327472 -0.75767032 -0.50511355
vn 0.41327472 -0.75767032 -0.50511355
vn 0.41327472 -0.75767032 -0.50511355
vn 0.41327472 -0.75767032 -0.50511355
vn 0.70710678 -0.00000000 -0.70710678
vn 0.70710678 -0.00000000 -0.70710678
vn 0.70710678 -0.00000000 -0.70710678
vn 0.70710678 -0.00000000 -0.70710678
vn 0.21199958 -0.95399809 -0.21199958
vn 0.21199958 -0.95399809 -0.21199958
vn 0.21199958 -0.95399809 -0.21199958
vn -0.00000000 -0.98386991 -0.17888544
vn -0.00000000 -0.98386991 -0.17888544
vn -0.00000000 -0.98386991 -0.17888544
vn -0.00000000 -0.98386991 -0.17888544
vn 0.48507125 0.72760688 -0.48507125
vn 0.48507125 0.72760688 -0.48507125
vn 0.48507125 0.72760688 -0.48507125
vn 0.48507125 0.72760688 -0.48507125
vn 0.00000000 1.00000000 -0.00000000
vn 0.00000000 1.00000000 -0.00000000
vn 0.00000000 1.00000000 -0.00000000
vn 0.00000000 1.00000000 -0.00000000
vn 0.00000000 1.00000000 -0.00000000
vn 0.00000000 0.00000000 1.00000000
vn 0.00000000 0.00000000 1.00000000
vn 0.00000000 0.00000000 1.00000000
vn 0.00000000 0.00000000 1.00000000
vn -1.00000000 0.00000000 0.00000000
vn -1.00000000 0.00000000 0.00000000
vn -1.00000000 0.00000000 0.00000000
vn -1.00000000 0.00000000 0.00000000
vn 0.25978056 -0.15875479 -0.95252873
vn 0.25978056 -0.15875479 -0.95252873
vn 0.25978056 -0.15875479 -0.95252873
vn 0.25978056 -0.15875479 -0.95252873
vn -0.00000000 -0.00000000 -1.00000000
vn -0.00000000 -0.00000000 -1.00000000
vn -0.00000000 -0.00000000 -1.00000000
vn -0.00000000 -0.00000000 -1.00000000
vn -0.00000000 -0.00000000 -1.00000000
vn -0.00000000 -0.00000000 -1.00000000
vn -0.00000000 -0.00000000 -1.00000000
vn -0.00000000 -0.00000000 -1.00000000
vn -0.00000000 -0.00000000 -1.00000000
vn 0.50511355 -0.75767032 -0.41327472
vn 0.50511355 -0.75767032 -0.41327472
vn 0.50511355 -0.75767032 -0.41327472
vn 0.50511355 -0.75767032 -0.41327472
vn 0.37662179 -0.41428397 -0.82856793
vn 0.37662179 -0.41428397 -0.82856793
vn 0.37662179 -0.41428397 -0.82856793
vn 0.37662179 -0.41428397 -0.82856793
vn 0.17888544 -0.98386991 0.00000000
vn 0.17888544 -0.98386991 0.00000000
vn 0.17888544 -0.98386991 0.00000000
vn 0.17888544 -0.98386991 0.00000000
s 1
usemtl Rock
f 4/4/4 3/3/3 2/2/2
f 4/4/4 2/2/2 1/1/1
s 2
f 6/8/8 4/7/7 1/6/6
f 6/8/8 1/6/6 5/5/5
s 3
f 5/9/9 10/14/14 9/13/13
f 9/13/13 8/12/12 5/9/9
f 8/12/12 7/11/11 5/9/9
f 7/11/11 6/10/10 5/9/9
s 4
f 14/20/20 13/19/19 12/18/18
f 16/22/22 12/18/18 11/17/17
f 17/23/23 11/17/17 9/16/16
f 9/16/16 10/15/15 17/23/23
f 17/23/23 16/22/22 11/17/17
f 16/22/22 15/21/21 12/18/18
f 15/21/21 14/20/20 12/18/18
s 5
f 18/26/26 15/27/27 16/24/24
f 16/24/24 2/25/25 18/26/26
s 6
usemtl Grass
f 19/28/28 13/29/29 20/31/31
f 13/29/29 14/30/30 20/31/31
s 7
f 21/34/34 20/33/33 14/32/32
s 8
f 20/38/38 21/37/37 18/36/36
f 20/38/38 18/36/36 22/35/35
s 9
f 23/42/42 12/41/41 13/40/40
f 23/42/42 13/40/40 19/39/39
s 10
f 12/44/44 23/45/45 24/46/46
f 12/44/44 24/46/46 25/47/47
f 25/47/47 11/43/43 12/44/44
s 11
usemtl Rock
f 11/51/51 25/50/50 9/48/48
f 25/50/50 8/49/49 9/48/48
s 12
f 25/55/55 24/54/54 8/52/52
f 24/54/54 7/53/53 8/52/52
s 13
f 17/59/59 10/58/58 1/56/56
f 10/58/58 5/57/57 1/56/56
s 14
f 23/64/64 19/65/65 20/66/66
f 24/63/63 23/64/64 3/68/68
f 4/60/60 7/62/62 24/63/63
f 4/60/60 6/61/61 7/62/62
f 24/63/63 3/68/68 4/60/60
f 23/64/64 22/67/67 3/68/68
f 23/64/64 20/66/66 22/67/67
s 15
f 3/71/71 22/72/72 18/69/69
f 18/69/69 2/70/70 3/71/71
s 16
f 2/76/76 16/75/75 17/74/74
f 2/76/76 17/74/74 1/73/73
s 17
usemtl Grass
f 18/78/78 21/79/79 14/80/80
f 15/77/77 18/78/78 14/80/80
