mtllib Cliff_Base_Hill_Sharp.mtl
o object1
g object1
v 0.00000000 0.85000000 -0.00000000
v -0.05000000 1.15000000 -0.00000000
v -0.20000000 1.00000000 -0.50000000
v -0.10000000 0.50000000 -0.50000000
v 0.15000000 0.55000000 -0.00000000
v 0.00000000 0.30000000 -0.50000000
v 0.45000000 0.35000000 -0.00000000
v 0.15000000 0.20000000 -0.50000000
v 0.50000000 0.35000000 -0.00000000
v 0.50000000 0.20000000 -0.50000000
v 0.50000000 0.00000000 1.50000000
v 0.50000000 0.00000000 -0.50000000
v 0.50000000 1.05000000 1.00000000
v 0.50000000 1.20000000 1.50000000
v -0.50000000 0.00000000 1.50000000
v -0.50000000 2.00000000 1.50000000
v -0.20000000 2.00000000 1.50000000
v -0.10000000 1.50000000 1.50000000
v 0.00000000 1.30000000 1.50000000
v 0.15000000 1.20000000 1.50000000
v 0.15000000 1.25000000 1.00000000
v 0.45000000 1.05000000 1.00000000
v 0.00000000 0.80000000 0.50000000
v 0.15000000 0.70000000 0.50000000
v -0.10000000 1.00000000 0.50000000
v 0.00000000 1.55000000 1.00000000
v -0.20000000 1.50000000 0.50000000
v -0.05000000 1.85000000 1.00000000
v -0.20000000 2.00000000 0.50000000
v -0.05000000 2.00000000 1.00000000
v -0.05000000 2.00000000 -0.00000000
v -0.20000000 2.00000000 -0.50000000
v -0.50000000 2.00000000 -0.50000000
v -0.50000000 0.00000000 -0.50000000
vt 1.00000000 0.00000000
vt 1.00000000 1.00000000
vt 0.00000000 1.00000000
vt 0.00000000 0.00000000
vt 1.00000000 0.00000000
vt 1.00000000 1.00000000
vt 0.00000000 1.00000000
vt 0.00000000 0.00000000
vt 1.00000000 0.00000000
vt 1.00000000 1.00000000
vt 0.00000000 1.00000000
vt 0.00000000 0.00000000
vt 1.00000000 0.00000000
vt 1.00000000 1.00000000
vt 0.00000000 1.00000000
vt 0.00000000 0.00000000
vt 0.00000000 0.00000000
vt 1.00000000 0.00000000
vt 1.00000000 0.16666667
vt 0.75000000 0.29166667
vt 0.25000000 0.87500000
vt 0.00000000 1.00000000
vt 0.00000000 0.00000000
vt 1.00000000 0.00000000
vt 1.00000000 1.00000000
vt 0.70000000 1.00000000
vt 0.60000000 0.75000000
vt 0.50000000 0.65000000
vt 0.35000000 0.60000000
vt 0.00000000 0.60000000
vt 0.00000000 1.00000000
vt 0.00000000 0.00000000
vt 1.00000000 0.00000000
vt 1.00000000 1.00000000
vt 0.00000000 1.00000000
vt 0.00000000 0.00000000
vt 1.00000000 0.00000000
vt 1.00000000 1.00000000
vt 0.00000000 1.00000000
vt 0.00000000 0.00000000
vt 1.00000000 0.00000000
vt 1.00000000 1.00000000
vt 0.00000000 1.00000000
vt 0.00000000 0.00000000
vt 1.00000000 0.00000000
vt 1.00000000 1.00000000
vt 1.00000000 0.00000000
vt 0.30000000 1.00000000
vt 0.00000000 1.00000000
vt 0.00000000 0.00000000
vt 1.00000000 0.00000000
vt 0.58823529 1.00000000
vt 0.00000000 1.00000000
vt 0.00000000 0.00000000
vt 1.00000000 0.00000000
vt 0.00000000 1.00000000
vt 0.00000000 0.00000000
vt 0.00000000 1.00000000
vt 0.00000000 0.00000000
vt 1.00000000 0.00000000
vt 1.00000000 1.00000000
vt 0.00000000 1.00000000
vt 0.00000000 0.00000000
vt 1.00000000 0.00000000
vt 1.00000000 1.00000000
vt 1.00000000 0.66666667
vt 0.75000000 1.00000000
vt 0.50000000 0.66666667
vt 0.25000000 1.00000000
vt 0.00000000 0.66666667
vt 0.00000000 0.00000000
vt 1.00000000 0.00000000
vt 0.00000000 1.00000000
vt 0.00000000 0.00000000
vt 1.00000000 0.00000000
vt 1.00000000 1.00000000
vt 0.00000000 1.00000000
vt 0.00000000 0.00000000
vt 1.00000000 0.00000000
vt 1.00000000 1.00000000
vt 1.00000000 0.00000000
vt 1.00000000 0.14285714
vt 0.50000000 1.00000000
vt 0.00000000 0.14285714
vt 0.00000000 0.00000000
vt 0.00000000 1.00000000
vt 0.00000000 0.00000000
vt 1.00000000 0.00000000
vt 1.00000000 1.00000000
vt 0.00000000 1.00000000
vt 0.00000000 0.00000000
vt 1.00000000 0.00000000
vt 1.00000000 1.00000000
vt 1.00000000 1.00000000
vt 0.00000000 1.00000000
vt 0.00000000 0.00000000
vt 0.10000000 0.00000000
vt 0.10000000 0.35000000
vt 0.15000000 0.50000000
vt 0.25000000 0.60000000
vt 0.50000000 0.70000000
vt 1.00000000 0.70000000
vt 1.00000000 0.00000000
vt 0.85000000 1.00000000
vt 0.00000000 1.00000000
vt 0.00000000 0.00000000
vt 0.00000000 1.00000000
vt 0.00000000 0.00000000
vt 1.00000000 0.00000000
vt 1.00000000 1.00000000
vt 0.00000000 0.00000000
vt 1.00000000 0.00000000
vt 1.00000000 1.00000000
vt 0.00000000 1.00000000
vn 0.94153129 0.15692188 -0.29815157
vn 0.93239221 0.15539870 -0.32633727
vn 0.92465840 0.18493168 -0.33287702
vn 0.93024262 0.18604852 -0.31628249
vn 0.80257235 0.40128618 -0.44141479
vn 0.80257235 0.40128618 -0.44141479
vn 0.80257235 0.40128618 -0.44141479
vn 0.80257235 0.40128618 -0.44141479
vn 0.47932558 0.71898838 -0.50329186
vn 0.47932558 0.71898838 -0.50329186
vn 0.47932558 0.71898838 -0.50329186
vn 0.47932558 0.71898838 -0.50329186
vn 0.00000000 0.95782629 -0.28734789
vn 0.00000000 0.95782629 -0.28734789
vn 0.00000000 0.95782629 -0.28734789
vn 0.00000000 0.95782629 -0.28734789
vn 1.00000000 -0.00000000 0.00000000
vn 1.00000000 -0.00000000 0.00000000
vn 1.00000000 -0.00000000 0.00000000
vn 1.00000000 -0.00000000 0.00000000
vn 1.00000000 -0.00000000 0.00000000
vn 1.00000000 -0.00000000 0.00000000
vn -0.00000000 -0.00000000 1.00000000
vn -0.00000000 -0.00000000 1.00000000
vn -0.00000000 -0.00000000 1.00000000
vn -0.00000000 -0.00000000 1.00000000
vn -0.00000000 -0.00000000 1.00000000
vn -0.00000000 -0.00000000 1.00000000
vn -0.00000000 -0.00000000 1.00000000
vn -0.00000000 -0.00000000 1.00000000
vn 0.55278999 0.82918499 0.08291850
vn 0.55278999 0.82918499 0.08291850
vn 0.55278999 0.82918499 0.08291850
vn 0.55278999 0.82918499 0.08291850
vn 0.40918709 0.61378063 -0.67515869
vn 0.40918709 0.61378063 -0.67515869
vn 0.40918709 0.61378063 -0.67515869
vn 0.40918709 0.61378063 -0.67515869
vn 0.74278135 0.37139068 -0.55708601
vn 0.74278135 0.37139068 -0.55708601
vn 0.74278135 0.37139068 -0.55708601
vn 0.74278135 0.37139068 -0.55708601
vn 0.90035301 0.18007060 -0.39615532
vn 0.90669620 0.18133924 -0.38081240
vn 0.92264027 0.15377338 -0.35367877
vn 0.91234311 0.15205718 -0.38014296
vn 0.95782629 -0.00000000 -0.28734789
vn 0.95782629 -0.00000000 -0.28734789
vn 0.95782629 -0.00000000 -0.28734789
vn 0.95782629 -0.00000000 -0.28734789
vn 0.95782629 0.00000000 0.28734789
vn 0.95782629 0.00000000 0.28734789
vn 0.95782629 0.00000000 0.28734789
vn 0.95782629 0.00000000 0.28734789
vn 0.95782629 0.00000000 0.28734789
vn 0.95782629 0.00000000 0.28734789
vn 0.95782629 0.00000000 0.28734789
vn 0.87287156 0.43643578 0.21821789
vn 0.87287156 0.43643578 0.21821789
vn 0.87287156 0.43643578 0.21821789
vn 0.87287156 0.43643578 0.21821789
vn 0.95770426 0.15961738 0.23942607
vn 0.96461028 0.16076838 0.20899889
vn 0.95853005 0.19170601 0.21087661
vn 0.95450444 0.19090089 0.22908106
vn 0.00000000 1.00000000 -0.00000000
vn 0.00000000 1.00000000 -0.00000000
vn 0.00000000 1.00000000 -0.00000000
vn 0.00000000 1.00000000 -0.00000000
vn 0.00000000 1.00000000 -0.00000000
vn 0.00000000 1.00000000 -0.00000000
vn 0.00000000 1.00000000 -0.00000000
vn 0.00000000 0.95782629 -0.28734789
vn 0.00000000 0.95782629 -0.28734789
vn 0.00000000 0.95782629 -0.28734789
vn 0.00000000 0.95782629 -0.28734789
vn -0.00000000 -1.00000000 -0.00000000
vn -0.00000000 -1.00000000 -0.00000000
vn -0.00000000 -1.00000000 -0.00000000
vn -0.00000000 -1.00000000 -0.00000000
vn 0.00000000 0.81923192 -0.57346234
vn 0.00000000 0.81923192 -0.57346234
vn 0.00000000 0.81923192 -0.57346234
vn 0.00000000 0.81923192 -0.57346234
vn 0.00000000 0.81923192 -0.57346234
vn 0.53818694 0.80728041 -0.24218412
vn 0.53818694 0.80728041 -0.24218412
vn 0.53818694 0.80728041 -0.24218412
vn 0.53818694 0.80728041 -0.24218412
vn 0.89353410 0.44676705 0.04467671
vn 0.89353410 0.44676705 0.04467671
vn 0.89353410 0.44676705 0.04467671
vn 0.89353410 0.44676705 0.04467671
vn 0.00000000 -0.00000000 -1.00000000
vn 0.00000000 -0.00000000 -1.00000000
vn 0.00000000 -0.00000000 -1.00000000
vn 0.00000000 -0.00000000 -1.00000000
vn 0.00000000 -0.00000000 -1.00000000
vn 0.00000000 -0.00000000 -1.00000000
vn 0.00000000 -0.00000000 -1.00000000
vn 0.00000000 -0.00000000 -1.00000000
vn 0.00000000 -0.00000000 -1.00000000
vn 0.95782629 -0.00000000 -0.28734789
vn 0.95782629 -0.00000000 -0.28734789
vn 0.95782629 -0.00000000 -0.28734789
vn 0.95782629 -0.00000000 -0.28734789
vn 0.97065016 0.16177503 0.17795253
vn 0.97577101 0.16262850 0.14636565
vn 0.97146918 0.19429384 0.13600568
vn 0.96873032 0.19374606 0.15499685
vn -1.00000000 0.00000000 -0.00000000
vn -1.00000000 0.00000000 -0.00000000
vn -1.00000000 0.00000000 -0.00000000
vn -1.00000000 0.00000000 -0.00000000
s 1
usemtl Rock
f 4/4/4 3/3/3 1/1/1
f 3/3/3 2/2/2 1/1/1
s 2
f 6/8/8 4/7/7 5/5/5
f 4/7/7 1/6/6 5/5/5
s 3
f 8/12/12 6/11/11 5/10/10
f 8/12/12 5/10/10 7/9/9
s 4
usemtl Grass
f 10/16/16 8/15/15 7/14/14
f 10/16/16 7/14/14 9/13/13
s 5
f 12/18/18 10/19/19 9/20/20
f 9/20/20 13/21/21 11/17/17
f 13/21/21 14/22/22 11/17/17
f 11/17/17 12/18/18 9/20/20
s 6
usemtl Rock
f 18/27/27 17/26/26 16/25/25
f 19/28/28 18/27/27 15/24/24
f 15/24/24 11/23/23 20/29/29
f 11/23/23 14/30/30 20/29/29
f 15/24/24 20/29/29 19/28/28
f 18/27/27 16/25/25 15/24/24
s 7
f 19/34/34 20/33/33 21/31/31
f 20/33/33 22/32/32 21/31/31
s 8
f 21/38/38 22/37/37 23/35/35
f 22/37/37 24/36/36 23/35/35
s 9
f 26/42/42 21/41/41 25/39/39
f 21/41/41 23/40/40 25/39/39
s 10
f 28/46/46 26/45/45 27/43/43
f 26/45/45 25/44/44 27/43/43
s 11
f 29/47/47 30/48/48 28/49/49
f 29/47/47 28/49/49 27/50/50
s 12
f 31/51/51 29/52/52 27/53/53
f 31/51/51 27/53/53 2/54/54
s 13
f 30/55/55 17/56/56 28/57/57
s 14
f 18/61/61 19/60/60 26/58/58
f 19/60/60 21/59/59 26/58/58
s 15
f 17/65/65 18/64/64 28/62/62
f 18/64/64 26/63/63 28/62/62
s 16
f 31/69/69 32/70/70 33/71/71
f 29/68/68 33/71/71 16/72/72
f 16/72/72 17/66/66 30/67/67
f 16/72/72 30/67/67 29/68/68
f 29/68/68 31/69/69 33/71/71
s 17
usemtl Grass
f 20/76/76 14/75/75 22/73/73
f 14/75/75 13/74/74 22/73/73
s 18
usemtl Rock
f 15/80/80 34/79/79 12/78/78
f 15/80/80 12/78/78 11/77/77
s 19
usemtl Grass
f 7/82/82 24/83/83 22/84/84
f 7/82/82 22/84/84 13/85/85
f 13/85/85 9/81/81 7/82/82
s 20
usemtl Rock
f 23/89/89 24/88/88 5/86/86
f 24/88/88 7/87/87 5/86/86
s 21
f 25/93/93 23/92/92 1/90/90
f 23/92/92 5/91/91 1/90/90
s 22
f 8/98/98 10/97/97 12/96/96
f 6/99/99 8/98/98 34/95/95
f 3/101/101 34/95/95 33/94/94
f 33/94/94 32/102/102 3/101/101
f 3/101/101 4/100/100 34/95/95
f 4/100/100 6/99/99 34/95/95
f 8/98/98 12/96/96 34/95/95
s 23
f 32/103/103 31/104/104 2/105/105
f 32/103/103 2/105/105 3/106/106
s 24
f 27/110/110 25/109/109 2/107/107
f 25/109/109 1/108/108 2/107/107
s 25
f 16/114/114 33/113/113 15/111/111
f 33/113/113 34/112/112 15/111/111
