mtllib Cliff_Base_Top_Joined_Hill_Gentle.mtl
o object1
g object1
v 0.11052632 0.65263158 0.86842105
v -0.08750000 0.62500000 0.50000000
v 0.00000000 0.45000000 0.50000000
v 0.50000000 1.05000000 2.50000000
v 0.50000000 0.87500000 2.00000000
v 0.50000000 0.35000000 0.50000000
v 0.50000000 0.20000000 -0.50000000
v 0.50000000 0.00000000 -0.50000000
v 0.50000000 0.00000000 3.50000000
v 0.50000000 1.20000000 3.50000000
v 0.45000000 0.27500000 0.00000000
v 0.15000000 0.20000000 -0.50000000
v 0.15000000 0.35000000 0.50000000
v 0.15000000 0.47500000 0.00000000
v 0.00000000 0.30000000 -0.50000000
v 0.00000000 0.80000000 1.50000000
v 0.24375000 0.66250000 1.00000000
v 0.45000000 0.52500000 1.00000000
v 0.15000000 0.70000000 1.50000000
v 0.11875000 0.53750000 -0.00000000
v -0.50000000 1.20000000 3.50000000
v 0.25000000 1.20000000 3.50000000
v -0.50000000 0.00000000 3.50000000
v -0.10000000 0.50000000 -0.50000000
v -0.10909091 0.54545455 -0.50000000
v -0.10000000 0.60000000 -0.50000000
v 0.00000000 0.80000000 -0.50000000
v 0.15000000 0.90000000 -0.50000000
v 0.40000000 0.90000000 -0.50000000
v 0.40000000 1.10000000 -0.50000000
v 0.25000000 1.20000000 -0.50000000
v -0.50000000 1.20000000 -0.50000000
v -0.50000000 0.00000000 -0.50000000
v -0.08260870 0.54782609 -0.41304348
v 0.36818182 0.82727273 1.86363636
v 0.42857143 1.07142857 2.64285714
v 0.40000000 1.05000000 2.50000000
v 0.31250000 1.12500000 3.00000000
v 0.20000000 1.20000000 3.00000000
v 0.25000000 1.20000000 2.50000000
v 0.40000000 1.10000000 2.50000000
v 0.00000000 0.80000000 0.50000000
v 0.45000000 0.80000000 1.00000000
v 0.15000000 0.90000000 0.50000000
v 0.15000000 0.90000000 1.50000000
v 0.40000000 0.90000000 1.50000000
v 0.50000000 0.80000000 1.00000000
v 0.40000000 1.10000000 1.50000000
v 0.50000000 1.00000000 1.00000000
v 0.25000000 1.20000000 1.50000000
v 0.20000000 1.20000000 1.00000000
v 0.40000000 0.90000000 0.50000000
v 0.40000000 1.10000000 0.50000000
v 0.25000000 1.20000000 0.50000000
v 0.20000000 1.20000000 2.00000000
v 0.20000000 1.20000000 0.00000000
v 0.15000000 0.60000000 0.00000000
v 0.45000000 0.80000000 0.00000000
v 0.50000000 0.80000000 0.00000000
v 0.50000000 1.00000000 0.00000000
v 0.47272727 0.82727273 1.86363636
v 0.50000000 1.00000000 2.00000000
vt 1.00000000 0.00000000
vt 0.00000000 1.00000000
vt 0.00000000 0.00000000
vt 0.25000000 0.12500000
vt 0.37500000 0.27083333
vt 0.75000000 0.70833333
vt 1.00000000 0.83333333
vt 1.00000000 1.00000000
vt 0.00000000 1.00000000
vt 0.00000000 0.00000000
vt 0.50000000 0.85714286
vt 1.00000000 0.00000000
vt 1.00000000 1.00000000
vt 0.00000000 1.00000000
vt 0.00000000 0.00000000
vt 0.00000000 1.00000000
vt 0.00000000 0.00000000
vt 1.00000000 0.00000000
vt 1.00000000 1.00000000
vt 1.00000000 0.00000000
vt 1.00000000 1.00000000
vt 0.00000000 1.00000000
vt 0.00000000 0.00000000
vt 1.00000000 1.00000000
vt 0.00000000 0.68750000
vt 0.00000000 0.00000000
vt 1.00000000 0.00000000
vt 1.00000000 1.00000000
vt 0.00000000 0.23809524
vt 0.00000000 0.00000000
vt 1.00000000 0.00000000
vt 1.00000000 1.00000000
vt 0.25000000 1.00000000
vt 0.00000000 1.00000000
vt 0.00000000 0.00000000
vt 1.00000000 0.00000000
vt 0.41666667 0.60000000
vt 0.45454545 0.60909091
vt 0.50000000 0.60000000
vt 0.66666667 0.50000000
vt 0.75000000 0.35000000
vt 0.75000000 0.10000000
vt 0.91666667 0.10000000
vt 1.00000000 0.25000000
vt 1.00000000 1.00000000
vt 0.00000000 1.00000000
vt 0.00000000 0.00000000
vt 0.16666667 0.00000000
vt 0.16666667 0.35000000
vt 0.25000000 0.50000000
vt 1.00000000 0.00000000
vt 0.00000000 1.00000000
vt 0.00000000 0.00000000
vt 1.00000000 0.00000000
vt 0.00000000 1.00000000
vt 0.00000000 0.00000000
vt 0.85714286 0.71428571
vt 1.00000000 0.60000000
vt 1.00000000 1.00000000
vt 0.00000000 1.00000000
vt 0.00000000 0.00000000
vt 0.50000000 0.25000000
vt 1.00000000 1.00000000
vt 0.00000000 0.00000000
vt 1.00000000 0.00000000
vt 0.71428571 1.00000000
vt 0.00000000 0.37500000
vt 0.00000000 0.00000000
vt 1.00000000 0.00000000
vt 1.00000000 1.00000000
vt 1.00000000 1.00000000
vt 0.00000000 0.00000000
vt 1.00000000 0.00000000
vt 1.00000000 0.68750000
vt 0.73684211 1.00000000
vt 0.00000000 1.00000000
vt 0.00000000 0.00000000
vt 1.00000000 0.00000000
vt 1.00000000 1.00000000
vt 0.00000000 0.00000000
vt 1.00000000 0.00000000
vt 0.26315789 1.00000000
vt 0.00000000 0.68750000
vt 0.00000000 0.00000000
vt 1.00000000 0.00000000
vt 1.00000000 1.00000000
vt 1.00000000 0.68750000
vt 0.00000000 1.00000000
vt 0.00000000 0.00000000
vt 1.00000000 0.00000000
vt 1.00000000 1.00000000
vt 0.00000000 1.00000000
vt 0.00000000 0.00000000
vt 1.00000000 0.00000000
vt 1.00000000 1.00000000
vt 0.00000000 1.00000000
vt 0.00000000 0.00000000
vt 1.00000000 0.00000000
vt 1.00000000 1.00000000
vt 0.00000000 1.00000000
vt 0.00000000 0.00000000
vt 1.00000000 0.00000000
vt 0.00000000 0.00000000
vt 1.00000000 0.00000000
vt 1.00000000 1.00000000
vt 0.00000000 1.00000000
vt 0.00000000 0.00000000
vt 1.00000000 0.00000000
vt 1.00000000 1.00000000
vt 0.00000000 1.00000000
vt 0.00000000 0.00000000
vt 1.00000000 0.00000000
vt 1.00000000 1.00000000
vt 0.00000000 1.00000000
vt 0.93333333 0.37500000
vt 1.00000000 0.50000000
vt 0.93333333 0.62500000
vt 1.00000000 0.75000000
vt 0.93333333 0.87500000
vt 1.00000000 1.00000000
vt 0.00000000 1.00000000
vt 0.00000000 0.00000000
vt 1.00000000 0.00000000
vt 0.93333333 0.12500000
vt 1.00000000 0.25000000
vt 1.00000000 0.20833333
vt 0.17391304 1.00000000
vt 0.00000000 1.00000000
vt 0.00000000 0.00000000
vt 1.00000000 0.00000000
vt 1.00000000 1.00000000
vt 0.00000000 0.00000000
vt 1.00000000 0.00000000
vt 0.82608696 1.00000000
vt 0.00000000 0.20833333
vt 0.00000000 0.00000000
vt 1.00000000 0.00000000
vt 1.00000000 1.00000000
vt 1.00000000 0.23809524
vt 0.00000000 1.00000000
vt 0.00000000 0.00000000
vt 1.00000000 0.00000000
vt 1.00000000 1.00000000
vt 0.00000000 1.00000000
vt 0.00000000 0.00000000
vt 1.00000000 0.00000000
vt 1.00000000 1.00000000
vt 0.00000000 1.00000000
vt 0.00000000 0.00000000
vt 1.00000000 0.00000000
vt 1.00000000 1.00000000
vt 0.00000000 1.00000000
vt 0.00000000 0.00000000
vt 1.00000000 0.00000000
vt 1.00000000 1.00000000
vt 0.00000000 1.00000000
vt 0.00000000 0.00000000
vt 1.00000000 0.00000000
vt 0.00000000 0.00000000
vt 1.00000000 0.00000000
vt 1.00000000 1.00000000
vt 0.00000000 1.00000000
vt 0.00000000 0.00000000
vt 1.00000000 0.00000000
vt 1.00000000 1.00000000
vt 0.00000000 1.00000000
vt 0.00000000 0.00000000
vt 1.00000000 0.00000000
vt 1.00000000 1.00000000
vt 0.00000000 1.00000000
vt 0.00000000 0.00000000
vt 1.00000000 0.00000000
vt 1.00000000 1.00000000
vt 0.00000000 1.00000000
vt 0.00000000 0.00000000
vt 1.00000000 0.00000000
vt 1.00000000 1.00000000
vt 0.00000000 1.00000000
vt 0.00000000 0.00000000
vt 1.00000000 0.00000000
vt 1.00000000 1.00000000
vt 0.00000000 1.00000000
vt 0.00000000 0.00000000
vt 1.00000000 1.00000000
vt 0.00000000 1.00000000
vt 0.00000000 1.00000000
vt 0.09090909 0.92207792
vt 0.09090909 0.62337662
vt 0.33333333 0.00000000
vt 0.66666667 0.85714286
vt 1.00000000 0.00000000
vt 1.00000000 1.00000000
vt 1.00000000 1.00000000
vt 0.00000000 1.00000000
vt 0.00000000 0.00000000
vt 1.00000000 0.00000000
vt 1.00000000 1.00000000
vt 0.00000000 0.40000000
vt 0.00000000 0.00000000
vt 1.00000000 0.00000000
vt 0.27272727 1.00000000
vt 0.00000000 0.62500000
vt 0.00000000 0.00000000
vt 1.00000000 0.00000000
vt 1.00000000 1.00000000
vt 0.00000000 1.00000000
vt 0.00000000 0.00000000
vt 1.00000000 0.00000000
vt 1.00000000 1.00000000
vt 1.00000000 1.00000000
vt 0.00000000 0.00000000
vt 1.00000000 0.00000000
vt 0.00000000 0.00000000
vt 1.00000000 0.00000000
vt 1.00000000 1.00000000
vt 0.00000000 1.00000000
vn 0.79539998 0.39769999 -0.45735499
vn 0.79539998 0.39769999 -0.45735499
vn 0.79539998 0.39769999 -0.45735499
vn 1.00000000 -0.00000000 0.00000000
vn 1.00000000 -0.00000000 0.00000000
vn 1.00000000 -0.00000000 0.00000000
vn 1.00000000 -0.00000000 0.00000000
vn 1.00000000 -0.00000000 0.00000000
vn 1.00000000 -0.00000000 0.00000000
vn 1.00000000 -0.00000000 0.00000000
vn 0.00000000 0.98893635 -0.14834045
vn 0.00000000 0.98893635 -0.14834045
vn 0.00000000 0.98893635 -0.14834045
vn 0.00000000 0.98893635 -0.14834045
vn 0.00000000 0.98893635 -0.14834045
vn 0.54307539 0.81461308 0.20365327
vn 0.54307539 0.81461308 0.20365327
vn 0.54307539 0.81461308 0.20365327
vn 0.54307539 0.81461308 0.20365327
vn 0.50439317 0.75658975 -0.41612436
vn 0.50439317 0.75658975 -0.41612436
vn 0.50439317 0.75658975 -0.41612436
vn 0.50439317 0.75658975 -0.41612436
vn 0.55422079 0.83133118 0.04156656
vn 0.55422079 0.83133118 0.04156656
vn 0.55422079 0.83133118 0.04156656
vn 0.55422079 0.83133118 0.04156656
vn 0.85887550 0.42943775 0.27913454
vn 0.85887550 0.42943775 0.27913454
vn 0.85887550 0.42943775 0.27913454
vn 0.85887550 0.42943775 0.27913454
vn -0.00000000 -0.00000000 1.00000000
vn -0.00000000 -0.00000000 1.00000000
vn -0.00000000 -0.00000000 1.00000000
vn -0.00000000 -0.00000000 1.00000000
vn -0.00000000 -0.00000000 1.00000000
vn 0.00000000 -0.00000000 -1.00000000
vn 0.00000000 -0.00000000 -1.00000000
vn 0.00000000 -0.00000000 -1.00000000
vn 0.00000000 -0.00000000 -1.00000000
vn 0.00000000 -0.00000000 -1.00000000
vn 0.00000000 -0.00000000 -1.00000000
vn 0.00000000 -0.00000000 -1.00000000
vn 0.00000000 -0.00000000 -1.00000000
vn 0.00000000 -0.00000000 -1.00000000
vn 0.00000000 -0.00000000 -1.00000000
vn 0.00000000 -0.00000000 -1.00000000
vn 0.00000000 -0.00000000 -1.00000000
vn 0.00000000 -0.00000000 -1.00000000
vn 0.00000000 -0.00000000 -1.00000000
vn 0.93933031 0.18435455 -0.28926106
vn 0.93772552 0.18754510 -0.29239987
vn 0.93819199 0.18763840 -0.29083952
vn 0.47058824 0.70588235 -0.52941176
vn 0.47058824 0.70588235 -0.52941176
vn 0.47058824 0.70588235 -0.52941176
vn 0.00000000 0.98893635 -0.14834045
vn 0.00000000 0.98893635 -0.14834045
vn 0.00000000 0.98893635 -0.14834045
vn 0.00000000 0.98893635 -0.14834045
vn 0.00000000 0.98893635 -0.14834045
vn 0.00000000 0.98893635 -0.14834045
vn 0.55384878 0.83077316 -0.05538488
vn 0.55384878 0.83077316 -0.05538488
vn 0.55384878 0.83077316 -0.05538488
vn 0.55384878 0.83077316 0.05538488
vn 0.55384878 0.83077316 0.05538488
vn 0.55384878 0.83077316 0.05538488
vn 0.55384878 0.83077316 0.05538488
vn 0.55384878 0.83077316 0.05538488
vn 0.98058068 0.00000000 -0.19611614
vn 0.98058068 0.00000000 -0.19611614
vn 0.98058068 0.00000000 -0.19611614
vn 0.47058824 0.70588235 -0.52941176
vn 0.47058824 0.70588235 -0.52941176
vn 0.47058824 0.70588235 -0.52941176
vn 0.47058824 0.70588235 -0.52941176
vn 0.47058824 0.70588235 -0.52941176
vn 0.81649658 -0.40824829 -0.40824829
vn 0.81649658 -0.40824829 -0.40824829
vn 0.81649658 -0.40824829 -0.40824829
vn 0.49629167 -0.74443750 -0.44666250
vn 0.49629167 -0.74443750 -0.44666250
vn 0.49629167 -0.74443750 -0.44666250
vn 0.49629167 -0.74443750 -0.44666250
vn 0.49629167 -0.74443750 -0.44666250
vn 0.49629167 -0.74443750 0.44666250
vn 0.49629167 -0.74443750 0.44666250
vn 0.49629167 -0.74443750 0.44666250
vn 0.49629167 -0.74443750 0.44666250
vn -0.00000000 -0.98058068 0.19611614
vn -0.00000000 -0.98058068 0.19611614
vn -0.00000000 -0.98058068 0.19611614
vn -0.00000000 -0.98058068 0.19611614
vn 0.98058068 0.00000000 0.19611614
vn 0.98058068 -0.00000000 0.19611614
vn 0.98058068 -0.00000000 0.19611614
vn 0.98058068 0.00000000 0.19611614
vn 0.55384878 0.83077316 -0.05538488
vn 0.55384878 0.83077316 -0.05538488
vn 0.55384878 0.83077316 -0.05538488
vn 0.55384878 0.83077316 -0.05538488
vn -0.00000000 -0.98058068 -0.19611614
vn -0.00000000 -0.98058068 -0.19611614
vn -0.00000000 -0.98058068 -0.19611614
vn -0.00000000 -0.98058068 -0.19611614
vn 0.98058068 0.00000000 -0.19611614
vn 0.98058068 0.00000000 -0.19611614
vn 0.98058068 0.00000000 -0.19611614
vn 0.98058068 0.00000000 -0.19611614
vn 0.55384878 0.83077316 0.05538488
vn 0.55384878 0.83077316 0.05538488
vn 0.55384878 0.83077316 0.05538488
vn 0.55384878 0.83077316 0.05538488
vn 0.00000000 1.00000000 0.00000000
vn 0.00000000 1.00000000 0.00000000
vn 0.00000000 1.00000000 0.00000000
vn 0.00000000 1.00000000 0.00000000
vn 0.00000000 1.00000000 0.00000000
vn 0.00000000 1.00000000 0.00000000
vn 0.00000000 1.00000000 0.00000000
vn 0.00000000 1.00000000 0.00000000
vn 0.00000000 1.00000000 0.00000000
vn 0.00000000 1.00000000 0.00000000
vn 0.00000000 1.00000000 0.00000000
vn 0.82321258 0.41160629 -0.39102597
vn 0.82321258 0.41160629 -0.39102597
vn 0.82321258 0.41160629 -0.39102597
vn 0.82321258 0.41160629 -0.39102597
vn 0.82321258 0.41160629 -0.39102597
vn 0.94584999 -0.15764167 -0.28375500
vn 0.94584999 -0.15764167 -0.28375500
vn 0.94584999 -0.15764167 -0.28375500
vn 0.81649658 -0.40824829 -0.40824829
vn 0.81649658 -0.40824829 -0.40824829
vn 0.81649658 -0.40824829 -0.40824829
vn 0.81649658 -0.40824829 -0.40824829
vn 0.81649658 -0.40824829 -0.40824829
vn 0.81649658 -0.40824829 0.40824829
vn 0.81649658 -0.40824829 0.40824829
vn 0.81649658 -0.40824829 0.40824829
vn 0.81649658 -0.40824829 0.40824829
vn 0.49629167 -0.74443750 0.44666250
vn 0.49629167 -0.74443750 0.44666250
vn 0.49629167 -0.74443750 0.44666250
vn 0.49629167 -0.74443750 0.44666250
vn -0.00000000 -0.98058068 0.19611614
vn -0.00000000 -0.98058068 0.19611614
vn -0.00000000 -0.98058068 0.19611614
vn -0.00000000 -0.98058068 0.19611614
vn 0.98058068 0.00000000 0.19611614
vn 0.98058068 -0.00000000 0.19611614
vn 0.98058068 -0.00000000 0.19611614
vn 0.98058068 0.00000000 0.19611614
vn 0.55384878 0.83077316 -0.05538488
vn 0.55384878 0.83077316 -0.05538488
vn 0.55384878 0.83077316 -0.05538488
vn 0.55384878 0.83077316 -0.05538488
vn 0.49629167 -0.74443750 -0.44666250
vn 0.49629167 -0.74443750 -0.44666250
vn 0.49629167 -0.74443750 -0.44666250
vn 0.49629167 -0.74443750 -0.44666250
vn -0.00000000 -0.98058068 -0.19611614
vn -0.00000000 -0.98058068 -0.19611614
vn -0.00000000 -0.98058068 -0.19611614
vn -0.00000000 -0.98058068 -0.19611614
vn 0.98058068 0.00000000 -0.19611614
vn 0.98058068 0.00000000 -0.19611614
vn 0.98058068 0.00000000 -0.19611614
vn 0.98058068 0.00000000 -0.19611614
vn 0.55384878 0.83077316 0.05538488
vn 0.55384878 0.83077316 0.05538488
vn 0.55384878 0.83077316 0.05538488
vn 0.55384878 0.83077316 0.05538488
vn -0.00000000 -1.00000000 -0.00000000
vn -0.00000000 -1.00000000 -0.00000000
vn -0.00000000 -1.00000000 -0.00000000
vn -0.00000000 -1.00000000 -0.00000000
vn -1.00000000 0.00000000 -0.00000000
vn -1.00000000 0.00000000 -0.00000000
vn -1.00000000 0.00000000 -0.00000000
vn -1.00000000 0.00000000 -0.00000000
vn 0.00000000 0.94385836 -0.33035042
vn 0.00000000 0.94385836 -0.33035042
vn 0.00000000 0.94385836 -0.33035042
vn 0.00000000 0.94385836 -0.33035042
vn 0.00000000 0.94385836 -0.33035042
vn 0.00000000 0.94385836 -0.33035042
vn 0.00000000 0.94385836 -0.33035042
vn 0.00000000 0.94385836 -0.33035042
vn 0.00000000 0.94385836 -0.33035042
vn 0.55384878 0.83077316 -0.05538488
vn 0.55384878 0.83077316 -0.05538488
vn 0.55384878 0.83077316 -0.05538488
vn 0.55384878 0.83077316 -0.05538488
vn 0.98058068 0.00000000 0.19611614
vn 0.98058068 -0.00000000 0.19611614
vn 0.98058068 -0.00000000 0.19611614
vn 0.98058068 0.00000000 0.19611614
vn 0.98058068 0.00000000 -0.19611614
vn 0.98058068 0.00000000 -0.19611614
vn 0.98058068 0.00000000 -0.19611614
vn 0.98058068 0.00000000 -0.19611614
vn 0.98058068 0.00000000 -0.19611614
vn -0.00000000 -0.98058068 -0.19611614
vn -0.00000000 -0.98058068 -0.19611614
vn -0.00000000 -0.98058068 -0.19611614
vn -0.00000000 -0.98058068 -0.19611614
vn 0.49629167 -0.74443750 -0.44666250
vn 0.49629167 -0.74443750 -0.44666250
vn 0.49629167 -0.74443750 -0.44666250
vn 0.55384878 0.83077316 0.05538488
vn 0.55384878 0.83077316 0.05538488
vn 0.55384878 0.83077316 0.05538488
vn 0.55384878 0.83077316 0.05538488
s 1
usemtl Rock
f 3/3/3 2/2/2 1/1/1
s 2
usemtl Grass
f 8/8/8 7/7/7 6/6/6
f 6/6/6 5/5/5 9/9/9
f 4/4/4 10/10/10 9/9/9
f 5/5/5 4/4/4 9/9/9
f 9/9/9 8/8/8 6/6/6
s 3
f 11/11/11 13/15/15 6/14/14
f 6/14/14 7/13/13 11/11/11
f 7/13/13 12/12/12 11/11/11
s 4
usemtl Rock
f 3/19/19 13/18/18 14/16/16
f 13/18/18 11/17/17 14/16/16
s 5
f 12/23/23 15/22/22 14/21/21
f 12/23/23 14/21/21 11/20/20
s 6
f 19/27/27 18/26/26 17/25/25
f 19/27/27 17/25/25 16/24/24
s 7
f 3/31/31 14/30/30 20/29/29
f 3/31/31 20/29/29 2/28/28
s 8
f 9/35/35 10/34/34 22/33/33
f 22/33/33 21/32/32 23/36/36
f 23/36/36 9/35/35 22/33/33
s 9
f 31/44/44 30/43/43 29/42/42
f 32/45/45 31/44/44 27/40/40
f 33/46/46 32/45/45 26/39/39
f 33/46/46 26/39/39 25/38/38
f 25/38/38 24/37/37 33/46/46
f 24/37/37 15/50/50 33/46/46
f 15/50/50 12/49/49 33/46/46
f 12/49/49 7/48/48 8/47/47
f 12/49/49 8/47/47 33/46/46
f 32/45/45 27/40/40 26/39/39
f 31/44/44 28/41/41 27/40/40
f 31/44/44 29/42/42 28/41/41
s 10
f 24/53/53 25/52/52 34/51/51
s 11
f 19/56/56 16/55/55 35/54/54
s 12
usemtl Grass
f 4/59/59 37/58/58 36/57/57
f 36/57/57 38/62/62 10/60/60
f 38/62/62 22/61/61 10/60/60
f 10/60/60 4/59/59 36/57/57
s 13
f 39/65/65 22/64/64 38/63/63
s 14
f 36/66/66 41/70/70 40/69/69
f 40/69/69 39/68/68 36/66/66
f 39/68/68 38/67/67 36/66/66
s 15
f 41/73/73 36/72/72 37/71/71
s 16
usemtl Rock
f 1/75/75 17/74/74 18/78/78
f 18/78/78 13/77/77 1/75/75
f 13/77/77 3/76/76 1/75/75
s 17
f 42/81/81 1/80/80 2/79/79
s 18
f 43/84/84 17/83/83 1/82/82
f 1/82/82 42/86/86 44/85/85
f 44/85/85 43/84/84 1/82/82
s 19
f 43/90/90 45/89/89 17/87/87
f 45/89/89 16/88/88 17/87/87
s 20
usemtl Grass
f 47/94/94 46/93/93 43/91/91
f 46/93/93 45/92/92 43/91/91
s 21
f 49/98/98 48/97/97 46/96/96
f 49/98/98 46/96/96 47/95/95
s 22
f 51/102/102 50/101/101 48/100/100
f 51/102/102 48/100/100 49/99/99
s 23
f 43/106/106 44/105/105 52/104/104
f 43/106/106 52/104/104 47/103/103
s 24
f 47/110/110 52/109/109 49/107/107
f 52/109/109 53/108/108 49/107/107
s 25
f 49/114/114 53/113/113 51/111/111
f 53/113/113 54/112/112 51/111/111
s 26
f 21/121/121 22/120/120 39/119/119
f 21/121/121 55/117/117 51/115/115
f 51/115/115 54/125/125 32/122/122
f 56/124/124 31/123/123 32/122/122
f 54/125/125 56/124/124 32/122/122
f 55/117/117 50/116/116 51/115/115
f 51/115/115 32/122/122 21/121/121
f 21/121/121 40/118/118 55/117/117
f 21/121/121 39/119/119 40/118/118
s 27
usemtl Rock
f 15/129/129 24/128/128 34/127/127
f 14/130/130 15/129/129 20/126/126
f 15/129/129 34/127/127 20/126/126
s 28
f 26/133/133 34/132/132 25/131/131
s 29
f 34/134/134 26/138/138 27/137/137
f 57/136/136 20/135/135 34/134/134
f 34/134/134 27/137/137 57/136/136
s 30
f 57/142/142 42/141/141 2/140/140
f 57/142/142 2/140/140 20/139/139
s 31
f 58/146/146 44/145/145 57/143/143
f 44/145/145 42/144/144 57/143/143
s 32
usemtl Grass
f 59/150/150 52/149/149 58/147/147
f 52/149/149 44/148/148 58/147/147
s 33
f 60/154/154 53/153/153 52/152/152
f 60/154/154 52/152/152 59/151/151
s 34
f 56/158/158 54/157/157 53/156/156
f 56/158/158 53/156/156 60/155/155
s 35
usemtl Rock
f 57/162/162 27/161/161 28/160/160
f 57/162/162 28/160/160 58/159/159
s 36
usemtl Grass
f 58/166/166 28/165/165 29/164/164
f 58/166/166 29/164/164 59/163/163
s 37
f 59/170/170 29/169/169 60/167/167
f 29/169/169 30/168/168 60/167/167
s 38
f 60/174/174 30/173/173 56/171/171
f 30/173/173 31/172/172 56/171/171
s 39
usemtl Rock
f 9/178/178 23/177/177 8/175/175
f 23/177/177 33/176/176 8/175/175
s 40
f 21/182/182 32/181/181 23/179/179
f 32/181/181 33/180/180 23/179/179
s 41
usemtl Grass
f 4/185/185 5/184/184 37/183/183
f 6/192/191 18/190/189 5/186/184
f 18/190/189 19/189/188 61/187/186
f 19/189/188 35/188/187 61/187/186
f 6/192/191 13/191/190 18/190/189
f 18/190/189 61/187/186 5/186/184
s 42
f 55/196/195 40/195/194 41/194/193
f 55/196/195 41/194/193 62/193/192
s 43
f 62/200/199 41/199/198 37/198/197
f 62/200/199 37/198/197 5/197/196
s 44
f 62/203/202 5/202/201 61/201/200
f 61/201/200 46/205/204 48/204/203
f 48/204/203 62/203/202 61/201/200
s 45
f 45/209/208 46/208/207 35/206/205
f 46/208/207 61/207/206 35/206/205
s 46
usemtl Rock
f 45/212/211 35/211/210 16/210/209
s 47
usemtl Grass
f 62/216/215 48/215/214 55/213/212
f 48/215/214 50/214/213 55/213/212
