mtllib Cliff_Base_Waterfall.mtl
o object1
g object1
v -0.50000000 0.00000000 -0.50000000
v -0.50000000 0.00000000 1.50000000
v -0.50000000 1.00000000 1.50000000
v -0.50000000 1.00000000 -0.50000000
v -0.10000000 0.50000000 -0.50000000
v -0.20000000 1.00000000 -0.50000000
v 0.50000000 0.00000000 -0.50000000
v 0.50000000 0.20000000 -0.50000000
v 0.15000000 0.20000000 -0.50000000
v 0.00000000 0.30000000 -0.50000000
v 0.30000000 0.40000000 -0.00000000
v 0.15000000 0.70000000 -0.00000000
v 0.50000000 0.30000000 0.50000000
v 0.40000000 0.50000000 0.50000000
v 0.10000000 1.00000000 -0.00000000
v 0.30000000 1.00000000 0.50000000
v 0.85000000 0.70000000 1.00000000
v 0.80000000 1.00000000 1.00000000
v 0.90000000 0.50000000 1.50000000
v 0.80000000 1.00000000 1.50000000
v 1.00000000 0.40000000 1.00000000
v 1.00000000 0.30000000 1.50000000
v 1.30000000 0.20000000 1.00000000
v 1.15000000 0.20000000 1.50000000
v 0.65000000 0.20000000 0.50000000
v 0.60000000 0.20000000 -0.00000000
v 0.65000000 -0.00000000 -0.00000000
v 0.65000000 0.20000000 -0.00000000
v 1.35000000 -0.00000000 1.00000000
v 1.35000000 0.20000000 1.00000000
v 1.50000000 0.00000000 1.50000000
v 1.50000000 0.20000000 1.50000000
vt 0.00000000 1.00000000
vt 0.00000000 0.00000000
vt 1.00000000 0.00000000
vt 1.00000000 1.00000000
vt 0.50000000 0.60000000
vt 1.00000000 0.70000000
vt 1.00000000 1.00000000
vt 0.00000000 1.00000000
vt 0.00000000 0.00000000
vt 0.20000000 0.00000000
vt 0.20000000 0.35000000
vt 0.30000000 0.50000000
vt 1.00000000 0.00000000
vt 1.00000000 1.00000000
vt 0.00000000 1.00000000
vt 0.00000000 0.00000000
vt 0.00000000 1.00000000
vt 0.00000000 0.00000000
vt 1.00000000 0.00000000
vt 1.00000000 1.00000000
vt 0.00000000 1.00000000
vt 0.00000000 0.00000000
vt 1.00000000 0.00000000
vt 1.00000000 1.00000000
vt 0.00000000 1.00000000
vt 0.00000000 0.00000000
vt 1.00000000 0.00000000
vt 1.00000000 1.00000000
vt 0.00000000 1.00000000
vt 0.00000000 0.00000000
vt 1.00000000 0.00000000
vt 1.00000000 1.00000000
vt 0.00000000 1.00000000
vt 0.00000000 0.00000000
vt 1.00000000 0.00000000
vt 1.00000000 1.00000000
vt 0.00000000 1.00000000
vt 0.00000000 0.00000000
vt 1.00000000 0.00000000
vt 1.00000000 1.00000000
vt 0.00000000 1.00000000
vt 0.00000000 0.00000000
vt 1.00000000 0.00000000
vt 1.00000000 1.00000000
vt 0.00000000 1.00000000
vt 0.00000000 0.00000000
vt 1.00000000 0.00000000
vt 1.00000000 1.00000000
vt 0.00000000 1.00000000
vt 0.00000000 0.00000000
vt 1.00000000 0.00000000
vt 1.00000000 1.00000000
vt 1.00000000 0.00000000
vt 1.00000000 1.00000000
vt 0.00000000 1.00000000
vt 0.00000000 0.00000000
vt 1.00000000 0.00000000
vt 1.00000000 1.00000000
vt 0.00000000 1.00000000
vt 0.00000000 0.00000000
vt 0.00000000 1.00000000
vt 0.00000000 0.00000000
vt 1.00000000 0.00000000
vt 1.00000000 1.00000000
vt 0.00000000 1.00000000
vt 0.00000000 0.00000000
vt 1.00000000 0.00000000
vt 1.00000000 1.00000000
vt 1.00000000 0.00000000
vt 1.00000000 1.00000000
vt 0.00000000 1.00000000
vt 0.00000000 0.00000000
vt 0.25000000 1.00000000
vt 0.00000000 1.00000000
vt 0.00000000 0.00000000
vt 1.00000000 0.00000000
vt 1.00000000 0.23076923
vt 0.75000000 0.46153846
vt 0.50000000 0.61538462
vt 1.00000000 1.00000000
vt 0.00000000 1.00000000
vt 0.00000000 0.00000000
vt 0.20000000 0.00000000
vt 0.20000000 0.17500000
vt 0.30000000 0.25000000
vt 0.50000000 0.30000000
vt 1.00000000 0.35000000
vt 0.25000000 0.92500000
vt 0.00000000 1.00000000
vt 0.00000000 0.00000000
vt 1.00000000 0.00000000
vt 1.00000000 0.50000000
vt 0.75000000 0.57500000
vt 0.25000000 0.14814815
vt 0.00000000 0.25925926
vt 0.00000000 0.00000000
vt 0.25000000 0.11111111
vt 0.75000000 0.62962963
vt 1.00000000 0.74074074
vt 1.00000000 1.00000000
vt 0.75000000 0.66666667
vt 0.50000000 0.62962963
vn -1.00000000 0.00000000 0.00000000
vn -1.00000000 0.00000000 0.00000000
vn -1.00000000 0.00000000 0.00000000
vn -1.00000000 0.00000000 0.00000000
vn 0.00000000 0.00000000 -1.00000000
vn 0.00000000 0.00000000 -1.00000000
vn 0.00000000 0.00000000 -1.00000000
vn 0.00000000 0.00000000 -1.00000000
vn 0.00000000 0.00000000 -1.00000000
vn 0.00000000 0.00000000 -1.00000000
vn 0.00000000 0.00000000 -1.00000000
vn 0.00000000 0.00000000 -1.00000000
vn 0.75809804 0.37904902 -0.53066863
vn 0.75809804 0.37904902 -0.53066863
vn 0.75809804 0.37904902 -0.53066863
vn 0.75809804 0.37904902 -0.53066863
vn 0.86386843 0.43193421 -0.25916053
vn 0.86386843 0.43193421 -0.25916053
vn 0.86386843 0.43193421 -0.25916053
vn 0.86386843 0.43193421 -0.25916053
vn 0.91755563 0.15292594 -0.36702225
vn 0.90701108 0.15116851 -0.39303814
vn 0.90669620 0.18133924 -0.38081240
vn 0.91287093 0.18257419 -0.36514837
vn 0.70014004 0.14002801 -0.70014004
vn 0.70703608 0.14140722 -0.69289536
vn 0.71388113 0.11898019 -0.69008510
vn 0.70224688 0.11704115 -0.70224688
vn 0.98639392 0.16439899 -0.00000000
vn 0.98586117 0.16431019 -0.03286204
vn 0.98039216 0.19607843 -0.01960784
vn 0.98058068 0.19611614 -0.00000000
vn 0.89087081 0.44543540 0.08908708
vn 0.89087081 0.44543540 0.08908708
vn 0.89087081 0.44543540 0.08908708
vn 0.89087081 0.44543540 0.08908708
vn 0.54717566 0.82076348 0.16415270
vn 0.54717566 0.82076348 0.16415270
vn 0.54717566 0.82076348 0.16415270
vn 0.54717566 0.82076348 0.16415270
vn 0.44992127 0.67488191 -0.58489765
vn 0.44992127 0.67488191 -0.58489765
vn 0.44992127 0.67488191 -0.58489765
vn 0.44992127 0.67488191 -0.58489765
vn 0.63757671 0.31878836 -0.70133438
vn 0.63757671 0.31878836 -0.70133438
vn 0.63757671 0.31878836 -0.70133438
vn 0.63757671 0.31878836 -0.70133438
vn 0.55384878 0.83077316 -0.05538488
vn 0.55384878 0.83077316 -0.05538488
vn 0.55384878 0.83077316 -0.05538488
vn 0.55384878 0.83077316 -0.05538488
vn 0.49629167 0.74443750 -0.44666250
vn 0.49629167 0.74443750 -0.44666250
vn 0.49629167 0.74443750 -0.44666250
vn 0.49629167 0.74443750 -0.44666250
vn 0.95782629 -0.00000000 -0.28734789
vn 0.95782629 -0.00000000 -0.28734789
vn 0.95782629 -0.00000000 -0.28734789
vn 0.95782629 -0.00000000 -0.28734789
vn 0.81923192 -0.00000000 -0.57346234
vn 0.81923192 -0.00000000 -0.57346234
vn 0.81923192 -0.00000000 -0.57346234
vn 0.81923192 -0.00000000 -0.57346234
vn 0.95782629 -0.00000000 -0.28734789
vn 0.95782629 -0.00000000 -0.28734789
vn 0.95782629 -0.00000000 -0.28734789
vn 0.95782629 -0.00000000 -0.28734789
vn 0.86101737 0.14350289 -0.48790984
vn 0.84886775 0.14147796 -0.50932065
vn 0.84515425 0.16903085 -0.50709255
vn 0.85236904 0.17047381 -0.49437404
vn 0.00000000 1.00000000 -0.00000000
vn 0.00000000 1.00000000 -0.00000000
vn 0.00000000 1.00000000 -0.00000000
vn 0.00000000 1.00000000 -0.00000000
vn 0.00000000 1.00000000 -0.00000000
vn 0.00000000 1.00000000 -0.00000000
vn 0.00000000 1.00000000 -0.00000000
vn 0.00000000 0.00000000 1.00000000
vn 0.00000000 0.00000000 1.00000000
vn 0.00000000 0.00000000 1.00000000
vn 0.00000000 0.00000000 1.00000000
vn 0.00000000 0.00000000 1.00000000
vn 0.00000000 0.00000000 1.00000000
vn 0.00000000 0.00000000 1.00000000
vn 0.00000000 0.00000000 1.00000000
vn -0.00000000 -1.00000000 0.00000000
vn -0.00000000 -1.00000000 0.00000000
vn -0.00000000 -1.00000000 0.00000000
vn -0.00000000 -1.00000000 0.00000000
vn -0.00000000 -1.00000000 0.00000000
vn -0.00000000 -1.00000000 0.00000000
vn 0.00000000 1.00000000 -0.00000000
vn 0.00000000 1.00000000 -0.00000000
vn 0.00000000 1.00000000 -0.00000000
vn 0.00000000 1.00000000 -0.00000000
vn 0.00000000 1.00000000 -0.00000000
vn 0.00000000 1.00000000 -0.00000000
vn 0.00000000 1.00000000 -0.00000000
vn 0.00000000 1.00000000 -0.00000000
vn 0.00000000 1.00000000 -0.00000000
s 1
usemtl Rock
f 1/1/1 2/2/2 3/3/3
f 1/1/1 3/3/3 4/4/4
s 2
f 9/11/11 8/10/10 7/9/9
f 10/12/12 9/11/11 1/8/8
f 1/8/8 4/7/7 5/5/5
f 4/7/7 6/6/6 5/5/5
f 5/5/5 10/12/12 1/8/8
f 9/11/11 7/9/9 1/8/8
s 3
f 10/16/16 5/15/15 11/13/13
f 5/15/15 12/14/14 11/13/13
s 4
f 14/20/20 13/19/19 11/18/18
f 14/20/20 11/18/18 12/17/17
s 5
f 16/24/24 14/23/23 12/22/22
f 16/24/24 12/22/22 15/21/21
s 6
f 18/28/28 17/27/27 16/25/25
f 17/27/27 14/26/26 16/25/25
s 7
f 20/32/32 19/31/31 17/30/30
f 20/32/32 17/30/30 18/29/29
s 8
f 19/36/36 22/35/35 21/34/34
f 19/36/36 21/34/34 17/33/33
s 9
f 22/40/40 24/39/39 21/37/37
f 24/39/39 23/38/38 21/37/37
s 10
f 21/44/44 23/43/43 25/42/42
f 21/44/44 25/42/42 13/41/41
s 11
f 17/48/48 21/47/47 13/46/46
f 17/48/48 13/46/46 14/45/45
s 12
f 13/52/52 25/51/51 26/50/50
f 13/52/52 26/50/50 11/49/49
s 13
f 9/56/56 10/55/55 11/54/54
f 9/56/56 11/54/54 26/53/53
s 14
usemtl Grass
f 7/60/60 8/59/59 28/58/58
f 7/60/60 28/58/58 27/57/57
s 15
f 30/64/64 29/63/63 28/61/61
f 29/63/63 27/62/62 28/61/61
s 16
f 32/68/68 31/67/67 30/65/65
f 31/67/67 29/66/66 30/65/65
s 17
usemtl Rock
f 5/72/72 6/71/71 12/69/69
f 6/71/71 15/70/70 12/69/69
s 18
f 15/78/78 6/77/77 4/76/76
f 16/79/79 4/76/76 3/75/75
f 3/75/75 20/74/74 16/79/79
f 20/74/74 18/73/73 16/79/79
f 16/79/79 15/78/78 4/76/76
s 19
f 31/82/82 32/83/83 24/84/84
f 24/84/84 22/85/85 2/81/81
f 19/86/86 3/80/80 2/81/81
f 19/86/86 20/87/87 3/80/80
f 22/85/85 19/86/86 2/81/81
f 2/81/81 31/82/82 24/84/84
s 20
f 1/91/91 7/92/92 27/93/93
f 29/88/88 2/90/90 1/91/91
f 29/88/88 31/89/89 2/90/90
f 1/91/91 27/93/93 29/88/88
s 21
usemtl Grass
f 24/95/95 32/96/96 30/97/97
f 23/94/94 30/97/97 28/98/98
f 28/98/98 8/99/99 26/101/101
f 8/99/99 9/100/100 26/101/101
f 23/94/94 28/98/98 26/101/101
f 26/101/101 25/102/102 23/94/94
f 23/94/94 24/95/95 30/97/97
