mtllib Cliff_Mid_Straight.mtl
o object1
g object1
v 0.50000000 -0.00000000 0.20000000
v 0.50000000 0.00000000 0.50000000
v 0.50000000 1.00000000 0.50000000
v 0.50000000 1.00000000 0.20000000
v 0.00000000 1.00000000 0.05000000
v -0.50000000 1.00000000 0.20000000
v -0.50000000 1.00000000 0.50000000
v -0.50000000 -0.00000000 0.20000000
v -0.50000000 0.00000000 0.50000000
v 0.00000000 -0.00000000 0.05000000
vt 0.00000000 0.00000000
vt 1.00000000 0.00000000
vt 1.00000000 1.00000000
vt 0.00000000 1.00000000
vt 0.33333333 1.00000000
vt 0.00000000 0.50000000
vt 0.33333333 0.00000000
vt 1.00000000 0.00000000
vt 1.00000000 1.00000000
vt 0.00000000 0.00000000
vt 1.00000000 0.00000000
vt 1.00000000 1.00000000
vt 0.00000000 1.00000000
vt 1.00000000 0.00000000
vt 1.00000000 1.00000000
vt 0.00000000 1.00000000
vt 0.00000000 0.00000000
vt 1.00000000 0.00000000
vt 1.00000000 1.00000000
vt 0.00000000 1.00000000
vt 0.00000000 0.00000000
vt 0.33333333 1.00000000
vt 0.00000000 0.50000000
vt 0.33333333 0.00000000
vt 1.00000000 0.00000000
vt 1.00000000 1.00000000
vt 0.00000000 1.00000000
vt 0.00000000 0.00000000
vt 1.00000000 0.00000000
vt 1.00000000 1.00000000
vn 1.00000000 0.00000000 0.00000000
vn 1.00000000 0.00000000 0.00000000
vn 1.00000000 0.00000000 0.00000000
vn 1.00000000 0.00000000 0.00000000
vn 0.00000000 1.00000000 -0.00000000
vn 0.00000000 1.00000000 -0.00000000
vn 0.00000000 1.00000000 -0.00000000
vn 0.00000000 1.00000000 -0.00000000
vn 0.00000000 1.00000000 -0.00000000
vn -1.00000000 0.00000000 0.00000000
vn -1.00000000 0.00000000 0.00000000
vn -1.00000000 0.00000000 0.00000000
vn -1.00000000 0.00000000 0.00000000
vn -0.28734789 -0.00000000 -0.95782629
vn -0.28734789 -0.00000000 -0.95782629
vn -0.28734789 -0.00000000 -0.95782629
vn -0.28734789 -0.00000000 -0.95782629
vn 0.28734789 -0.00000000 -0.95782629
vn 0.28734789 -0.00000000 -0.95782629
vn 0.28734789 -0.00000000 -0.95782629
vn 0.28734789 -0.00000000 -0.95782629
vn 0.00000000 -1.00000000 0.00000000
vn 0.00000000 -1.00000000 0.00000000
vn 0.00000000 -1.00000000 0.00000000
vn 0.00000000 -1.00000000 0.00000000
vn 0.00000000 -1.00000000 0.00000000
vn 0.00000000 0.00000000 1.00000000
vn 0.00000000 0.00000000 1.00000000
vn 0.00000000 0.00000000 1.00000000
vn 0.00000000 0.00000000 1.00000000
s 1
usemtl Rock
f 4/4/4 3/3/3 2/2/2
f 4/4/4 2/2/2 1/1/1
s 2
f 3/9/9 4/5/5 5/6/6
f 5/6/6 6/7/7 7/8/8
f 5/6/6 7/8/8 3/9/9
s 3
f 8/10/10 9/11/11 6/13/13
f 9/11/11 7/12/12 6/13/13
s 4
f 6/14/14 5/15/15 10/16/16
f 6/14/14 10/16/16 8/17/17
s 5
f 5/18/18 4/19/19 10/21/21
f 4/19/19 1/20/20 10/21/21
s 6
f 10/23/23 1/22/22 2/26/26
f 2/26/26 9/25/25 10/23/23
f 9/25/25 8/24/24 10/23/23
s 7
f 9/27/27 2/28/28 3/29/29
f 9/27/27 3/29/29 7/30/30
