mtllib Cliff_Top_Corner_Outer_Sm.mtl
o object1
g object1
v -0.50000000 0.90000000 -0.15000000
v -0.50000000 0.80000000 -0.00000000
v -0.50000000 0.60000000 0.10000000
v -0.50000000 0.00000000 0.20000000
v -0.50000000 0.00000000 0.50000000
v -0.50000000 1.20000000 0.50000000
v -0.50000000 1.20000000 -0.25000000
v -0.50000000 1.10000000 -0.40000000
v -0.50000000 0.90000000 -0.40000000
v 0.17175144 0.80000000 -0.17175144
v 0.03033009 0.60000000 -0.03033009
v 0.15000000 0.90000000 0.50000000
v 0.00000000 0.80000000 0.50000000
v 0.40000000 0.90000000 0.50000000
v 0.24246212 0.80000000 -0.24246212
v 0.40000000 1.10000000 0.50000000
v 0.24246212 1.00000000 -0.24246212
v 0.25000000 1.20000000 0.50000000
v -0.00502525 1.20000000 0.00502525
v -0.10000000 0.60000000 0.50000000
v -0.07573593 0.30000000 0.07573593
v -0.20000000 0.00000000 0.50000000
v -0.11109127 0.00000000 0.11109127
vt 0.72222222 0.25000000
vt 0.55555556 0.33333333
vt 0.44444444 0.50000000
vt 0.33333333 1.00000000
vt 0.00000000 1.00000000
vt 0.00000000 0.00000000
vt 0.83333333 0.00000000
vt 1.00000000 0.08333333
vt 1.00000000 0.25000000
vt 0.00000000 1.00000000
vt 0.00000000 0.00000000
vt 1.00000000 0.00000000
vt 1.00000000 1.00000000
vt 1.00000000 0.00000000
vt 1.00000000 1.00000000
vt 0.00000000 1.00000000
vt 0.00000000 0.00000000
vt 1.00000000 0.00000000
vt 1.00000000 1.00000000
vt 0.00000000 1.00000000
vt 0.00000000 0.00000000
vt 1.00000000 0.00000000
vt 1.00000000 1.00000000
vt 0.00000000 1.00000000
vt 0.00000000 0.00000000
vt 1.00000000 0.00000000
vt 1.00000000 1.00000000
vt 0.00000000 1.00000000
vt 0.00000000 0.00000000
vt 1.00000000 0.00000000
vt 1.00000000 1.00000000
vt 0.00000000 1.00000000
vt 0.00000000 0.00000000
vt 1.00000000 0.00000000
vt 1.00000000 1.00000000
vt 0.00000000 1.00000000
vt 0.00000000 0.00000000
vt 0.00000000 1.00000000
vt 0.00000000 0.00000000
vt 1.00000000 0.00000000
vt 1.00000000 1.00000000
vt 0.00000000 1.00000000
vt 0.00000000 0.00000000
vt 1.00000000 0.00000000
vt 1.00000000 1.00000000
vt 0.00000000 1.00000000
vt 0.00000000 0.00000000
vt 1.00000000 0.00000000
vt 1.00000000 1.00000000
vt 1.00000000 0.00000000
vt 0.65996633 0.65996633
vt 0.00000000 1.00000000
vt 0.00000000 0.00000000
vt 0.75000000 0.72222222
vt 0.66666667 0.55555556
vt 0.50000000 0.44444444
vt 0.00000000 0.33333333
vt 0.00000000 0.00000000
vt 1.00000000 0.00000000
vt 1.00000000 0.83333333
vt 0.91666667 1.00000000
vt 0.75000000 1.00000000
vt 0.00000000 0.00000000
vt 0.77138922 0.00000000
vt 1.00000000 1.00000000
vt 0.00000000 0.77138922
vt 0.00000000 1.00000000
vt 0.00000000 0.00000000
vt 1.00000000 0.00000000
vt 1.00000000 1.00000000
vt 0.00000000 1.00000000
vt 0.00000000 0.00000000
vt 1.00000000 0.00000000
vt 1.00000000 1.00000000
vn -1.00000000 -0.00000000 0.00000000
vn -1.00000000 -0.00000000 0.00000000
vn -1.00000000 -0.00000000 0.00000000
vn -1.00000000 -0.00000000 0.00000000
vn -1.00000000 -0.00000000 0.00000000
vn -1.00000000 -0.00000000 0.00000000
vn -1.00000000 -0.00000000 0.00000000
vn -1.00000000 -0.00000000 0.00000000
vn -1.00000000 -0.00000000 0.00000000
vn -0.32656678 -0.78643241 -0.52428828
vn -0.14041895 -0.82380649 -0.54920432
vn -0.10529865 -0.52342842 -0.84553822
vn -0.22067554 -0.45426451 -0.86310258
vn 0.54920432 -0.82380649 0.14041895
vn 0.52428828 -0.78643241 0.32656678
vn 0.86310258 -0.45426451 0.22067554
vn 0.84553822 -0.52342842 0.10529865
vn -0.00000000 -0.99105127 0.13348173
vn -0.00000000 -0.98910049 0.14724203
vn 0.15032921 -0.97713984 0.15032921
vn 0.10976426 -0.98787834 0.10976426
vn 0.97822184 -0.00000000 -0.20756210
vn 0.97822184 -0.00000000 -0.20756210
vn 0.97822184 0.00000000 -0.20756210
vn 0.97822184 0.00000000 -0.20756210
vn 0.53334579 0.80001869 -0.27479512
vn 0.54061377 0.81092065 -0.22392956
vn 0.47422245 0.85360041 -0.21559085
vn 0.45733742 0.85750766 -0.23563342
vn 0.87357256 -0.43678628 0.21468287
vn 0.83956252 -0.41978126 0.34484556
vn 0.94009482 -0.25069195 0.23103090
vn 0.94712682 -0.27856671 0.15922118
vn 0.97201170 -0.16200195 0.17014296
vn 0.96223233 -0.16037206 0.21997669
vn 0.97104434 -0.08827676 0.22199121
vn 0.98660152 -0.10118990 0.12797675
vn -0.14724203 -0.98910049 0.00000000
vn -0.13348173 -0.99105127 0.00000000
vn -0.10976426 -0.98787834 -0.10976426
vn -0.15032921 -0.97713984 -0.15032921
vn 0.20756210 -0.00000000 -0.97822184
vn 0.20756210 -0.00000000 -0.97822184
vn 0.20756210 0.00000000 -0.97822184
vn 0.20756210 0.00000000 -0.97822184
vn 0.22392956 0.81092065 -0.54061377
vn 0.27479512 0.80001869 -0.53334579
vn 0.23563342 0.85750766 -0.45733742
vn 0.21559085 0.85360041 -0.47422245
vn 0.00000000 1.00000000 -0.00000000
vn 0.00000000 1.00000000 -0.00000000
vn 0.00000000 1.00000000 -0.00000000
vn 0.00000000 1.00000000 -0.00000000
vn 0.00000000 0.00000000 1.00000000
vn 0.00000000 0.00000000 1.00000000
vn 0.00000000 0.00000000 1.00000000
vn 0.00000000 0.00000000 1.00000000
vn 0.00000000 0.00000000 1.00000000
vn 0.00000000 0.00000000 1.00000000
vn 0.00000000 0.00000000 1.00000000
vn 0.00000000 0.00000000 1.00000000
vn 0.00000000 0.00000000 1.00000000
vn 0.00000000 -1.00000000 0.00000000
vn 0.00000000 -1.00000000 0.00000000
vn 0.00000000 -1.00000000 0.00000000
vn 0.00000000 -1.00000000 0.00000000
vn -0.21997669 -0.16037206 -0.96223233
vn -0.17014296 -0.16200195 -0.97201170
vn -0.12797675 -0.10118990 -0.98660152
vn -0.22199121 -0.08827676 -0.97104434
vn -0.34484556 -0.41978126 -0.83956252
vn -0.21468287 -0.43678628 -0.87357256
vn -0.15922118 -0.27856671 -0.94712682
vn -0.23103090 -0.25069195 -0.94009482
s 1
usemtl Rock
f 7/7/7 8/8/8 9/9/9
f 6/6/6 7/7/7 2/2/2
f 3/3/3 5/5/5 6/6/6
f 3/3/3 4/4/4 5/5/5
f 6/6/6 2/2/2 3/3/3
f 7/7/7 1/1/1 2/2/2
f 7/7/7 9/9/9 1/1/1
s 2
f 2/10/10 1/11/11 11/13/13
f 1/11/11 10/12/12 11/13/13
s 3
f 12/14/14 13/15/15 11/16/16
f 12/14/14 11/16/16 10/17/17
s 4
usemtl Grass
f 14/18/18 12/19/19 10/20/20
f 14/18/18 10/20/20 15/21/21
s 5
f 16/22/22 14/23/23 17/25/25
f 14/23/23 15/24/24 17/25/25
s 6
f 18/26/26 16/27/27 19/29/29
f 16/27/27 17/28/28 19/29/29
s 7
usemtl Rock
f 13/30/30 20/31/31 11/33/33
f 20/31/31 21/32/32 11/33/33
s 8
f 20/34/34 22/35/35 21/37/37
f 22/35/35 23/36/36 21/37/37
s 9
usemtl Grass
f 1/38/38 9/39/39 10/41/41
f 9/39/39 15/40/40 10/41/41
s 10
f 9/42/42 8/43/43 17/44/44
f 9/42/42 17/44/44 15/45/45
s 11
f 8/46/46 7/47/47 19/48/48
f 8/46/46 19/48/48 17/49/49
s 12
f 6/53/53 18/52/52 19/51/51
f 6/53/53 19/51/51 7/50/50
s 13
usemtl Rock
f 14/62/62 16/61/61 18/60/60
f 13/55/55 18/60/60 6/59/59
f 6/59/59 5/58/58 20/56/56
f 5/58/58 22/57/57 20/56/56
f 20/56/56 13/55/55 6/59/59
f 13/55/55 12/54/54 18/60/60
f 12/54/54 14/62/62 18/60/60
s 14
f 22/66/66 5/63/63 4/64/64
f 4/64/64 23/65/65 22/66/66
s 15
f 4/67/67 3/68/68 21/69/69
f 4/67/67 21/69/69 23/70/70
s 16
f 3/71/71 2/72/72 11/73/73
f 3/71/71 11/73/73 21/74/74
