mtllib Cliff_Top_Hill_Sharp.mtl
o object1
g object1
v -0.05000000 0.00000000 1.00000000
v -0.05000000 0.85000000 1.00000000
v -0.20000000 1.00000000 1.50000000
v -0.20000000 -0.00000000 1.50000000
v -0.50000000 2.20000000 1.50000000
v -0.50000000 -0.00000000 1.50000000
v -0.10000000 1.60000000 1.50000000
v 0.00000000 1.80000000 1.50000000
v 0.15000000 1.90000000 1.50000000
v 0.40000000 1.90000000 1.50000000
v 0.40000000 2.10000000 1.50000000
v 0.25000000 2.20000000 1.50000000
v 0.20000000 2.05000000 1.00000000
v -0.50000000 2.05000000 1.00000000
v 0.25000000 1.70000000 0.50000000
v -0.50000000 1.70000000 0.50000000
v 0.20000000 1.35000000 0.00000000
v -0.50000000 1.35000000 0.00000000
v 0.25000000 1.20000000 -0.50000000
v -0.50000000 1.20000000 -0.50000000
v -0.50000000 0.00000000 -0.50000000
v -0.20000000 0.00000000 -0.50000000
v -0.10000000 0.60000000 -0.50000000
v 0.00000000 0.80000000 -0.50000000
v 0.15000000 0.90000000 -0.50000000
v 0.40000000 0.90000000 -0.50000000
v 0.40000000 1.10000000 -0.50000000
v 0.50000000 1.15000000 0.00000000
v 0.50000000 0.95000000 0.00000000
v 0.40000000 1.60000000 0.50000000
v 0.40000000 1.40000000 0.50000000
v 0.15000000 1.40000000 0.50000000
v 0.45000000 0.95000000 0.00000000
v 0.00000000 1.30000000 0.50000000
v 0.15000000 0.75000000 0.00000000
v -0.10000000 1.10000000 0.50000000
v 0.00000000 0.45000000 0.00000000
v -0.20000000 0.50000000 0.50000000
v -0.05000000 0.15000000 0.00000000
v -0.20000000 0.00000000 0.50000000
v -0.05000000 -0.00000000 0.00000000
v 0.00000000 1.15000000 1.00000000
v 0.15000000 1.45000000 1.00000000
v 0.45000000 1.65000000 1.00000000
v 0.50000000 1.65000000 1.00000000
v 0.50000000 1.85000000 1.00000000
vt 1.00000000 0.00000000
vt 1.00000000 1.00000000
vt 0.00000000 1.00000000
vt 0.00000000 0.00000000
vt 0.00000000 1.00000000
vt 0.00000000 0.00000000
vt 0.33333333 0.00000000
vt 0.33333333 0.45454545
vt 0.44444444 0.72727273
vt 0.55555556 0.81818182
vt 0.72222222 0.86363636
vt 1.00000000 0.86363636
vt 1.00000000 0.95454545
vt 0.83333333 1.00000000
vt 1.00000000 0.00000000
vt 1.00000000 1.00000000
vt 0.00000000 1.00000000
vt 0.00000000 0.00000000
vt 0.00000000 1.00000000
vt 0.00000000 0.00000000
vt 1.00000000 0.00000000
vt 1.00000000 1.00000000
vt 0.00000000 1.00000000
vt 0.00000000 0.00000000
vt 1.00000000 0.00000000
vt 1.00000000 1.00000000
vt 0.00000000 1.00000000
vt 0.00000000 0.00000000
vt 1.00000000 0.00000000
vt 1.00000000 1.00000000
vt 0.00000000 0.00000000
vt 0.33333333 0.00000000
vt 0.44444444 0.50000000
vt 0.55555556 0.66666667
vt 0.72222222 0.75000000
vt 1.00000000 0.75000000
vt 1.00000000 0.91666667
vt 0.83333333 1.00000000
vt 0.00000000 1.00000000
vt 0.00000000 1.00000000
vt 0.00000000 0.00000000
vt 1.00000000 0.00000000
vt 1.00000000 1.00000000
vt 0.00000000 1.00000000
vt 0.00000000 0.00000000
vt 1.00000000 0.00000000
vt 1.00000000 1.00000000
vt 0.00000000 1.00000000
vt 0.00000000 0.00000000
vt 1.00000000 0.00000000
vt 1.00000000 1.00000000
vt 0.00000000 1.00000000
vt 0.00000000 0.00000000
vt 1.00000000 0.00000000
vt 1.00000000 1.00000000
vt 0.00000000 1.00000000
vt 0.00000000 0.00000000
vt 1.00000000 0.00000000
vt 1.00000000 1.00000000
vt 0.00000000 1.00000000
vt 0.00000000 0.00000000
vt 1.00000000 0.00000000
vt 1.00000000 1.00000000
vt 0.00000000 1.00000000
vt 0.00000000 0.00000000
vt 1.00000000 0.00000000
vt 1.00000000 1.00000000
vt 0.00000000 0.00000000
vt 1.00000000 1.00000000
vt 0.00000000 1.00000000
vt 0.00000000 1.00000000
vt 0.00000000 0.00000000
vt 1.00000000 0.00000000
vt 1.00000000 1.00000000
vt 0.00000000 1.00000000
vt 0.00000000 0.00000000
vt 1.00000000 0.00000000
vt 1.00000000 1.00000000
vt 0.00000000 1.00000000
vt 0.00000000 0.00000000
vt 1.00000000 0.00000000
vt 1.00000000 1.00000000
vt 0.00000000 1.00000000
vt 0.00000000 0.00000000
vt 1.00000000 0.00000000
vt 1.00000000 1.00000000
vt 0.00000000 1.00000000
vt 0.00000000 0.00000000
vt 1.00000000 0.00000000
vt 1.00000000 1.00000000
vt 0.00000000 1.00000000
vt 0.00000000 0.00000000
vt 1.00000000 0.00000000
vt 1.00000000 1.00000000
vt 0.00000000 1.00000000
vt 0.00000000 0.00000000
vt 1.00000000 0.00000000
vt 1.00000000 1.00000000
vt 0.00000000 1.00000000
vt 0.00000000 0.00000000
vt 1.00000000 0.00000000
vt 1.00000000 1.00000000
vt 0.00000000 1.00000000
vt 0.00000000 0.00000000
vt 1.00000000 0.00000000
vt 1.00000000 1.00000000
vt 0.00000000 1.00000000
vt 0.00000000 0.00000000
vt 1.00000000 0.00000000
vt 1.00000000 1.00000000
vt 0.00000000 1.00000000
vt 0.00000000 0.00000000
vt 1.00000000 0.00000000
vt 1.00000000 1.00000000
vt 0.00000000 1.00000000
vt 0.00000000 0.00000000
vt 1.00000000 0.00000000
vt 1.00000000 1.00000000
vt 1.00000000 0.00000000
vt 1.00000000 1.00000000
vt 0.00000000 1.00000000
vt 0.00000000 0.00000000
vt 1.00000000 0.00000000
vt 1.00000000 1.00000000
vt 0.00000000 1.00000000
vt 0.00000000 0.00000000
vt 1.00000000 0.00000000
vt 1.00000000 1.00000000
vt 0.00000000 1.00000000
vt 0.00000000 0.00000000
vt 1.00000000 0.00000000
vt 1.00000000 1.00000000
vt 0.00000000 1.00000000
vt 0.00000000 0.00000000
vt 1.00000000 0.00000000
vt 1.00000000 1.00000000
vt 0.00000000 1.00000000
vt 0.00000000 0.00000000
vt 0.93181818 0.75000000
vt 1.00000000 1.00000000
vt 0.00000000 1.00000000
vt 0.00000000 0.00000000
vt 0.54545455 0.00000000
vt 0.61363636 0.25000000
vt 0.77272727 0.50000000
vt 1.00000000 0.00000000
vt 1.00000000 1.00000000
vt 0.00000000 1.00000000
vt 0.00000000 0.00000000
vt 0.00000000 1.00000000
vt 0.00000000 0.00000000
vt 1.00000000 0.00000000
vt 1.00000000 1.00000000
vt 0.66666667 0.00000000
vt 1.00000000 0.25000000
vt 0.66666667 0.50000000
vt 1.00000000 0.75000000
vt 0.66666667 1.00000000
vt 0.00000000 1.00000000
vt 0.00000000 0.00000000
vn 0.95782629 0.00000000 0.28734789
vn 0.95782629 0.00000000 0.28734789
vn 0.95782629 0.00000000 0.28734789
vn 0.95782629 0.00000000 0.28734789
vn 0.00000000 0.00000000 1.00000000
vn 0.00000000 0.00000000 1.00000000
vn 0.00000000 0.00000000 1.00000000
vn 0.00000000 0.00000000 1.00000000
vn 0.00000000 0.00000000 1.00000000
vn 0.00000000 0.00000000 1.00000000
vn 0.00000000 0.00000000 1.00000000
vn 0.00000000 0.00000000 1.00000000
vn 0.00000000 0.00000000 1.00000000
vn 0.00000000 0.00000000 1.00000000
vn -0.00000000 0.95782629 -0.28734789
vn -0.00000000 0.95782629 -0.28734789
vn 0.00000000 0.95782629 -0.28734789
vn 0.00000000 0.95782629 -0.28734789
vn -0.00000000 0.81923192 -0.57346234
vn -0.00000000 0.81923192 -0.57346234
vn 0.00000000 0.81923192 -0.57346234
vn 0.00000000 0.81923192 -0.57346234
vn 0.00000000 0.81923192 -0.57346234
vn 0.00000000 0.81923192 -0.57346234
vn 0.00000000 0.95782629 -0.28734789
vn 0.00000000 0.95782629 -0.28734789
vn 0.00000000 0.95782629 -0.28734789
vn 0.00000000 0.95782629 -0.28734789
vn -0.00000000 -0.00000000 -1.00000000
vn -0.00000000 -0.00000000 -1.00000000
vn -0.00000000 -0.00000000 -1.00000000
vn -0.00000000 -0.00000000 -1.00000000
vn -0.00000000 -0.00000000 -1.00000000
vn -0.00000000 -0.00000000 -1.00000000
vn -0.00000000 -0.00000000 -1.00000000
vn -0.00000000 -0.00000000 -1.00000000
vn -0.00000000 -0.00000000 -1.00000000
vn 0.98058068 0.00000000 -0.19611614
vn 0.98058068 0.00000000 -0.19611614
vn 0.98058068 -0.00000000 -0.19611614
vn 0.98058068 -0.00000000 -0.19611614
vn 0.98058068 0.00000000 0.19611614
vn 0.98058068 0.00000000 0.19611614
vn 0.98058068 0.00000000 0.19611614
vn 0.98058068 0.00000000 0.19611614
vn -0.00000000 -0.74329415 0.66896473
vn -0.00000000 -0.74329415 0.66896473
vn -0.00000000 -0.74329415 0.66896473
vn -0.00000000 -0.74329415 0.66896473
vn 0.37655503 -0.56483254 0.73428231
vn 0.37655503 -0.56483254 0.73428231
vn 0.37655503 -0.56483254 0.73428231
vn 0.37655503 -0.56483254 0.73428231
vn 0.71201885 -0.35600943 0.60521603
vn 0.71201885 -0.35600943 0.60521603
vn 0.71201885 -0.35600943 0.60521603
vn 0.71201885 -0.35600943 0.60521603
vn 0.91234311 -0.15205718 0.38014296
vn 0.91234311 -0.15205718 0.38014296
vn 0.91234311 -0.15205718 0.38014296
vn 0.91234311 -0.15205718 0.38014296
vn 0.95782629 0.00000000 0.28734789
vn 0.95782629 0.00000000 0.28734789
vn 0.95782629 0.00000000 0.28734789
vn 0.95782629 0.00000000 0.28734789
vn 0.95782629 0.00000000 -0.28734789
vn 0.95782629 0.00000000 -0.28734789
vn 0.95782629 0.00000000 -0.28734789
vn 0.97065016 -0.16177503 -0.17795253
vn 0.97065016 -0.16177503 -0.17795253
vn 0.97065016 -0.16177503 -0.17795253
vn 0.97065016 -0.16177503 -0.17795253
vn 0.88648441 -0.44324221 -0.13297266
vn 0.88648441 -0.44324221 -0.13297266
vn 0.88648441 -0.44324221 -0.13297266
vn 0.88648441 -0.44324221 -0.13297266
vn 0.55278999 -0.82918499 0.08291850
vn 0.55278999 -0.82918499 0.08291850
vn 0.55278999 -0.82918499 0.08291850
vn 0.55278999 -0.82918499 0.08291850
vn -0.00000000 -0.89442719 0.44721360
vn -0.00000000 -0.89442719 0.44721360
vn -0.00000000 -0.89442719 0.44721360
vn -0.00000000 -0.89442719 0.44721360
vn 0.98058068 0.00000000 -0.19611614
vn 0.98058068 0.00000000 -0.19611614
vn 0.98058068 0.00000000 -0.19611614
vn 0.98058068 0.00000000 -0.19611614
vn -0.00000000 -0.99503719 0.09950372
vn -0.00000000 -0.99503719 0.09950372
vn -0.00000000 -0.99503719 0.09950372
vn -0.00000000 -0.99503719 0.09950372
vn 0.53818694 -0.80728041 -0.24218412
vn 0.53818694 -0.80728041 -0.24218412
vn 0.53818694 -0.80728041 -0.24218412
vn 0.53818694 -0.80728041 -0.24218412
vn 0.85357920 -0.42678960 -0.29875272
vn 0.85357920 -0.42678960 -0.29875272
vn 0.85357920 -0.42678960 -0.29875272
vn 0.85357920 -0.42678960 -0.29875272
vn 0.95770426 -0.15961738 -0.23942607
vn 0.95770426 -0.15961738 -0.23942607
vn 0.95770426 -0.15961738 -0.23942607
vn 0.95770426 -0.15961738 -0.23942607
vn 0.54453277 0.81679916 -0.19058647
vn 0.54453277 0.81679916 -0.19058647
vn 0.54453277 0.81679916 -0.19058647
vn 0.54453277 0.81679916 -0.19058647
vn 0.46765237 0.70147856 -0.53780023
vn 0.46765237 0.70147856 -0.53780023
vn 0.46765237 0.70147856 -0.53780023
vn 0.46765237 0.70147856 -0.53780023
vn 0.49073290 0.73609936 -0.46619626
vn 0.49073290 0.73609936 -0.46619626
vn 0.49073290 0.73609936 -0.46619626
vn 0.49073290 0.73609936 -0.46619626
vn 0.53055811 0.79583716 -0.29180696
vn 0.53055811 0.79583716 -0.29180696
vn 0.53055811 0.79583716 -0.29180696
vn 0.53055811 0.79583716 -0.29180696
vn 0.98058068 0.00000000 0.19611614
vn 0.98058068 0.00000000 0.19611614
vn 0.98058068 -0.00000000 0.19611614
vn 0.98058068 -0.00000000 0.19611614
vn -0.00000000 -0.89442719 0.44721360
vn -0.00000000 -0.89442719 0.44721360
vn 0.44400614 -0.66600920 0.59940828
vn 0.44400614 -0.66600920 0.59940828
vn 0.44400614 -0.66600920 0.59940828
vn 0.44400614 -0.66600920 0.59940828
vn 0.77324467 -0.38662234 0.50260904
vn 0.77324467 -0.38662234 0.50260904
vn 0.77324467 -0.38662234 0.50260904
vn 0.77324467 -0.38662234 0.50260904
vn -1.00000000 0.00000000 0.00000000
vn -1.00000000 0.00000000 0.00000000
vn -1.00000000 0.00000000 0.00000000
vn -1.00000000 0.00000000 0.00000000
vn -1.00000000 0.00000000 0.00000000
vn -1.00000000 0.00000000 0.00000000
vn -1.00000000 0.00000000 0.00000000
vn 0.93239221 -0.15539870 0.32633727
vn 0.93239221 -0.15539870 0.32633727
vn 0.93239221 -0.15539870 0.32633727
vn 0.93239221 -0.15539870 0.32633727
vn 0.95782629 0.00000000 -0.28734789
vn 0.95782629 0.00000000 -0.28734789
vn 0.95782629 0.00000000 -0.28734789
vn 0.95782629 0.00000000 -0.28734789
vn -0.00000000 -1.00000000 -0.00000000
vn -0.00000000 -1.00000000 -0.00000000
vn -0.00000000 -1.00000000 -0.00000000
vn -0.00000000 -1.00000000 -0.00000000
vn -0.00000000 -1.00000000 -0.00000000
vn -0.00000000 -1.00000000 -0.00000000
vn -0.00000000 -1.00000000 -0.00000000
s 1
usemtl Rock
f 1/1/1 2/2/2 4/4/4
f 2/2/2 3/3/3 4/4/4
s 2
f 10/12/12 11/13/13 12/14/14
f 8/10/10 12/14/14 5/5/5
f 5/5/5 6/6/6 3/8/8
f 6/6/6 4/7/7 3/8/8
f 3/8/8 7/9/9 5/5/5
f 7/9/9 8/10/10 5/5/5
f 8/10/10 9/11/11 12/14/14
f 9/11/11 10/12/12 12/14/14
s 3
usemtl Grass
f 13/15/15 14/16/16 5/17/17
f 13/15/15 5/17/17 12/18/18
s 4
f 14/19/19 13/20/20 16/22/22
f 16/23/22 17/25/23 18/26/24
f 16/23/22 15/24/21 17/25/23
f 13/20/20 15/21/21 16/22/22
s 5
f 18/27/25 17/28/26 20/30/28
f 17/28/26 19/29/27 20/30/28
s 6
usemtl Rock
f 19/38/36 27/37/35 26/36/34
f 20/39/37 19/38/36 24/34/32
f 20/39/37 23/33/31 21/31/29
f 23/33/31 22/32/30 21/31/29
f 20/39/37 24/34/32 23/33/31
f 19/38/36 25/35/33 24/34/32
f 19/38/36 26/36/34 25/35/33
s 7
usemtl Grass
f 28/40/38 29/41/39 27/43/41
f 29/41/39 26/42/40 27/43/41
s 8
f 30/44/42 31/45/43 28/47/45
f 31/45/43 29/46/44 28/47/45
s 9
f 31/48/46 32/49/47 33/50/48
f 31/48/46 33/50/48 29/51/49
s 10
usemtl Rock
f 32/52/50 34/53/51 33/55/53
f 34/53/51 35/54/52 33/55/53
s 11
f 34/56/54 36/57/55 35/59/57
f 36/57/55 37/58/56 35/59/57
s 12
f 36/60/58 38/61/59 37/63/61
f 38/61/59 39/62/60 37/63/61
s 13
f 38/64/62 40/65/63 39/67/65
f 40/65/63 41/66/64 39/67/65
s 14
f 41/68/66 22/69/67 39/70/68
s 15
f 42/71/69 2/72/70 36/74/72
f 2/72/70 38/73/71 36/74/72
s 16
f 43/75/73 42/76/74 34/78/76
f 42/76/74 36/77/75 34/78/76
s 17
f 44/79/77 43/80/78 32/82/80
f 43/80/78 34/81/79 32/82/80
s 18
usemtl Grass
f 45/83/81 44/84/82 31/86/84
f 44/127/82 10/129/125 9/130/126
f 44/84/82 32/85/83 31/86/84
f 44/127/82 45/128/81 10/129/125
s 19
f 46/87/85 45/88/86 30/90/88
f 45/88/86 31/89/87 30/90/88
s 20
f 29/91/89 33/92/90 26/94/92
f 33/92/90 25/93/91 26/94/92
s 21
usemtl Rock
f 33/95/93 35/96/94 25/98/96
f 35/96/94 24/97/95 25/98/96
s 22
f 35/99/97 37/100/98 23/101/99
f 35/99/97 23/101/99 24/102/100
s 23
f 37/103/101 39/104/102 23/106/104
f 39/104/102 22/105/103 23/106/104
s 24
usemtl Grass
f 17/107/105 28/108/106 19/110/108
f 28/108/106 27/109/107 19/110/108
s 25
f 15/111/109 30/112/110 17/114/112
f 30/112/110 28/113/111 17/114/112
s 26
f 13/115/113 46/116/114 15/118/116
f 46/116/114 30/117/115 15/118/116
s 27
f 46/119/117 13/120/118 11/122/120
f 13/120/118 12/121/119 11/122/120
s 28
f 45/123/121 46/124/122 10/126/124
f 46/124/122 11/125/123 10/126/124
s 29
usemtl Rock
f 43/131/127 44/132/128 9/133/129
f 43/131/127 9/133/129 8/134/130
s 30
f 42/135/131 43/136/132 7/138/134
f 43/136/132 8/137/133 7/138/134
s 31
f 18/144/140 20/143/139 21/142/138
f 16/145/141 21/142/138 6/141/137
f 6/141/137 5/140/136 14/139/135
f 6/141/137 14/139/135 16/145/141
f 16/145/141 18/144/140 21/142/138
s 32
f 2/146/142 42/147/143 3/149/145
f 42/147/143 7/148/144 3/149/145
s 33
f 2/150/146 1/151/147 38/153/149
f 1/151/147 40/152/148 38/153/149
s 34
f 1/155/151 4/154/150 6/160/156
f 6/160/156 21/159/155 40/156/152
f 21/159/155 41/157/153 40/156/152
f 21/159/155 22/158/154 41/157/153
f 40/156/152 1/155/151 6/160/156
