mtllib Cliff_Mid_Corner_Inner_Lg.mtl
o object1
g object1
v -0.50000000 1.00000000 -1.50000000
v -0.50000000 1.00000000 0.50000000
v -0.50000000 0.00000000 0.50000000
v -0.50000000 0.00000000 -1.50000000
v 0.94510902 -0.00000000 -0.16037468
v 0.33327381 -0.00000000 -0.33327381
v 0.16037468 -0.00000000 -0.94510902
v -0.20000000 -0.00000000 -1.50000000
v 1.50000000 0.00000000 0.50000000
v 1.50000000 -0.00000000 0.20000000
v -0.20000000 1.00000000 -1.50000000
v 0.16037468 1.00000000 -0.94510902
v 1.50000000 1.00000000 0.20000000
v 1.50000000 1.00000000 0.50000000
v 0.94510902 1.00000000 -0.16037468
v 0.33327381 1.00000000 -0.33327381
vt 1.00000000 0.00000000
vt 1.00000000 1.00000000
vt 0.00000000 1.00000000
vt 0.00000000 0.00000000
vt 0.33018734 0.27744549
vt 0.41663691 0.58336309
vt 0.72255451 0.66981266
vt 1.00000000 0.85000000
vt 1.00000000 1.00000000
vt 0.00000000 1.00000000
vt 0.00000000 0.00000000
vt 0.15000000 0.00000000
vt 1.00000000 0.00000000
vt 1.00000000 1.00000000
vt 0.00000000 1.00000000
vt 0.00000000 0.00000000
vt 0.00000000 1.00000000
vt 0.00000000 0.00000000
vt 1.00000000 0.00000000
vt 1.00000000 1.00000000
vt 1.00000000 0.00000000
vt 1.00000000 1.00000000
vt 0.00000000 1.00000000
vt 0.00000000 0.00000000
vt 1.00000000 0.00000000
vt 1.00000000 1.00000000
vt 0.00000000 1.00000000
vt 0.00000000 0.00000000
vt 1.00000000 0.00000000
vt 1.00000000 1.00000000
vt 0.00000000 1.00000000
vt 0.00000000 0.00000000
vt 1.00000000 0.00000000
vt 1.00000000 1.00000000
vt 0.00000000 1.00000000
vt 0.00000000 0.00000000
vt 0.33018734 0.27744549
vt 0.41663691 0.58336309
vt 0.72255451 0.66981266
vt 1.00000000 0.85000000
vt 1.00000000 1.00000000
vt 0.00000000 1.00000000
vt 0.00000000 0.00000000
vt 0.15000000 0.00000000
vt 1.00000000 0.00000000
vt 1.00000000 1.00000000
vt 0.00000000 1.00000000
vt 0.00000000 0.00000000
vn -1.00000000 0.00000000 0.00000000
vn -1.00000000 0.00000000 0.00000000
vn -1.00000000 0.00000000 0.00000000
vn -1.00000000 0.00000000 0.00000000
vn -0.00000000 -1.00000000 0.00000000
vn -0.00000000 -1.00000000 0.00000000
vn -0.00000000 -1.00000000 0.00000000
vn -0.00000000 -1.00000000 0.00000000
vn -0.00000000 -1.00000000 0.00000000
vn -0.00000000 -1.00000000 0.00000000
vn -0.00000000 -1.00000000 0.00000000
vn -0.00000000 -1.00000000 0.00000000
vn 0.83865382 -0.00000000 -0.54466483
vn 0.83865382 -0.00000000 -0.54466483
vn 0.83865382 -0.00000000 -0.54466483
vn 0.83865382 -0.00000000 -0.54466483
vn 1.00000000 -0.00000000 0.00000000
vn 1.00000000 -0.00000000 0.00000000
vn 1.00000000 -0.00000000 0.00000000
vn 1.00000000 -0.00000000 0.00000000
vn 0.54466483 -0.00000000 -0.83865382
vn 0.54466483 -0.00000000 -0.83865382
vn 0.54466483 -0.00000000 -0.83865382
vn 0.54466483 -0.00000000 -0.83865382
vn 0.27194125 -0.00000000 -0.96231386
vn 0.27194125 -0.00000000 -0.96231386
vn 0.27194125 -0.00000000 -0.96231386
vn 0.27194125 -0.00000000 -0.96231386
vn 0.96231386 -0.00000000 -0.27194125
vn 0.96231386 -0.00000000 -0.27194125
vn 0.96231386 -0.00000000 -0.27194125
vn 0.96231386 -0.00000000 -0.27194125
vn 0.00000000 0.00000000 -1.00000000
vn 0.00000000 0.00000000 -1.00000000
vn 0.00000000 0.00000000 -1.00000000
vn 0.00000000 0.00000000 -1.00000000
vn 0.00000000 1.00000000 -0.00000000
vn 0.00000000 1.00000000 0.00000000
vn 0.00000000 1.00000000 -0.00000000
vn 0.00000000 1.00000000 -0.00000000
vn 0.00000000 1.00000000 -0.00000000
vn 0.00000000 1.00000000 -0.00000000
vn 0.00000000 1.00000000 -0.00000000
vn 0.00000000 1.00000000 -0.00000000
vn 0.00000000 0.00000000 1.00000000
vn 0.00000000 0.00000000 1.00000000
vn 0.00000000 0.00000000 1.00000000
vn 0.00000000 0.00000000 1.00000000
s 1
usemtl Rock
f 4/4/4 3/3/3 1/1/1
f 3/3/3 2/2/2 1/1/1
s 2
f 5/5/5 10/12/12 9/11/11
f 6/6/6 9/11/11 3/10/10
f 3/10/10 4/9/9 6/6/6
f 4/9/9 8/8/8 7/7/7
f 4/9/9 7/7/7 6/6/6
f 6/6/6 5/5/5 9/11/11
s 3
f 11/13/13 12/14/14 8/16/16
f 12/14/14 7/15/15 8/16/16
s 4
f 9/17/17 10/18/18 13/19/19
f 9/17/17 13/19/19 14/20/20
s 5
f 15/21/21 13/22/22 5/24/24
f 13/22/22 10/23/23 5/24/24
s 6
f 16/25/25 15/26/26 6/28/28
f 15/26/26 5/27/27 6/28/28
s 7
f 12/29/29 16/30/30 7/32/32
f 16/30/30 6/31/31 7/32/32
s 8
f 8/36/36 4/35/35 11/33/33
f 4/35/35 1/34/34 11/33/33
s 9
f 14/43/43 13/44/44 15/37/37
f 2/42/42 14/43/43 16/38/38
f 16/38/38 12/39/39 1/41/41
f 12/39/39 11/40/40 1/41/41
f 16/38/38 1/41/41 2/42/42
f 14/43/43 15/37/37 16/38/38
s 10
f 3/48/48 9/47/47 2/45/45
f 9/47/47 14/46/46 2/45/45
