mtllib Cliff_Base_Corner_Inner_Sm.mtl
o object1
g object1
v 0.50000000 0.00000000 0.50000000
v 0.50000000 0.20000000 0.50000000
v 0.50000000 0.20000000 -0.15000000
v 0.50000000 0.20000000 -0.50000000
v 0.50000000 0.00000000 -0.50000000
v -0.50000000 -0.00000000 0.50000000
v -0.50000000 -0.00000000 -0.50000000
v 0.15000000 0.20000000 -0.50000000
v -0.00000000 0.30000000 -0.50000000
v -0.10000000 0.50000000 -0.50000000
v -0.20000000 1.00000000 -0.50000000
v -0.50000000 1.00000000 -0.50000000
v -0.50000000 1.00000000 0.50000000
v 0.50000000 1.00000000 0.50000000
v 0.50000000 1.00000000 0.20000000
v -0.05000000 1.00000000 0.05000000
v -0.00769231 0.68461538 0.00769231
v 0.50000000 0.50000000 0.10000000
v 0.10714286 0.37142857 -0.10714286
v 0.50000000 0.30000000 0.00000000
v 0.27352941 0.20000000 -0.27352941
vt 1.00000000 0.00000000
vt 1.00000000 1.00000000
vt 0.35000000 1.00000000
vt 0.00000000 1.00000000
vt 0.00000000 0.00000000
vt 1.00000000 1.00000000
vt 0.00000000 1.00000000
vt 0.00000000 0.00000000
vt 1.00000000 0.00000000
vt 0.00000000 0.80000000
vt 0.35000000 0.80000000
vt 0.50000000 0.70000000
vt 0.60000000 0.50000000
vt 0.70000000 0.00000000
vt 1.00000000 0.00000000
vt 1.00000000 1.00000000
vt 0.00000000 1.00000000
vt 1.00000000 1.00000000
vt 0.00000000 1.00000000
vt 0.00000000 0.00000000
vt 0.30000000 0.00000000
vt 0.45000000 0.55000000
vt 1.00000000 0.70000000
vt 0.00000000 1.00000000
vt 0.07692308 0.00000000
vt 1.00000000 0.00000000
vt 1.00000000 1.00000000
vt 0.00000000 1.00000000
vt 0.22619048 0.00000000
vt 1.00000000 0.00000000
vt 1.00000000 1.00000000
vt 0.00000000 1.00000000
vt 0.42352941 0.00000000
vt 1.00000000 0.00000000
vt 1.00000000 1.00000000
vt 0.92307692 0.00000000
vt 1.00000000 1.00000000
vt 0.00000000 1.00000000
vt 0.00000000 0.00000000
vt 0.77380952 0.00000000
vt 1.00000000 1.00000000
vt 0.00000000 1.00000000
vt 0.00000000 0.00000000
vt 0.57647059 0.00000000
vt 1.00000000 1.00000000
vt 0.00000000 1.00000000
vt 0.00000000 0.00000000
vt 1.00000000 1.00000000
vt 0.35294118 0.64705882
vt 0.00000000 0.00000000
vt 1.00000000 0.00000000
vt 1.00000000 1.00000000
vt 0.00000000 1.00000000
vt 0.23076923 0.87500000
vt 0.38461538 0.62500000
vt 0.53846154 0.00000000
vt 1.00000000 0.00000000
vt 0.00000000 1.00000000
vt 0.00000000 0.00000000
vt 1.00000000 0.00000000
vt 1.00000000 0.80000000
vt 1.00000000 1.00000000
vt 1.00000000 1.00000000
vt 0.00000000 1.00000000
vt 0.00000000 0.00000000
vt 1.00000000 0.00000000
vn 1.00000000 -0.00000000 -0.00000000
vn 1.00000000 -0.00000000 -0.00000000
vn 1.00000000 -0.00000000 0.00000000
vn 1.00000000 -0.00000000 0.00000000
vn 1.00000000 -0.00000000 0.00000000
vn 0.00000000 -1.00000000 0.00000000
vn 0.00000000 -1.00000000 0.00000000
vn 0.00000000 -1.00000000 0.00000000
vn 0.00000000 -1.00000000 0.00000000
vn 0.00000000 0.00000000 -1.00000000
vn 0.00000000 0.00000000 -1.00000000
vn 0.00000000 0.00000000 -1.00000000
vn 0.00000000 0.00000000 -1.00000000
vn 0.00000000 0.00000000 -1.00000000
vn 0.00000000 0.00000000 -1.00000000
vn 0.00000000 0.00000000 -1.00000000
vn 0.00000000 0.00000000 -1.00000000
vn 0.00000000 1.00000000 -0.00000000
vn 0.00000000 1.00000000 -0.00000000
vn 0.00000000 1.00000000 -0.00000000
vn 0.00000000 1.00000000 -0.00000000
vn 0.00000000 1.00000000 -0.00000000
vn 0.00000000 1.00000000 -0.00000000
vn 0.25978056 0.15875479 -0.95252873
vn 0.23376229 0.16363360 -0.95842539
vn 0.24217249 0.19027839 -0.95139194
vn 0.25835203 0.18945816 -0.94729079
vn 0.30929787 0.42528457 -0.85056914
vn 0.30929787 0.42528457 -0.85056914
vn 0.30929787 0.42528457 -0.85056914
vn 0.30929787 0.42528457 -0.85056914
vn 0.28959836 0.79639549 -0.53093033
vn 0.28959836 0.79639549 -0.53093033
vn 0.28959836 0.79639549 -0.53093033
vn 0.28959836 0.79639549 -0.53093033
vn 0.95842539 0.16363360 -0.23376229
vn 0.95252873 0.15875479 -0.25978056
vn 0.94729079 0.18945816 -0.25835203
vn 0.95139194 0.19027839 -0.24217249
vn 0.85056914 0.42528457 -0.30929787
vn 0.85056914 0.42528457 -0.30929787
vn 0.85056914 0.42528457 -0.30929787
vn 0.85056914 0.42528457 -0.30929787
vn 0.53093033 0.79639549 -0.28959836
vn 0.53093033 0.79639549 -0.28959836
vn 0.53093033 0.79639549 -0.28959836
vn 0.53093033 0.79639549 -0.28959836
vn -0.00000000 1.00000000 0.00000000
vn -0.00000000 1.00000000 0.00000000
vn -0.00000000 1.00000000 0.00000000
vn -0.00000000 1.00000000 0.00000000
vn 1.00000000 0.00000000 0.00000000
vn 1.00000000 0.00000000 0.00000000
vn 1.00000000 0.00000000 0.00000000
vn 1.00000000 0.00000000 0.00000000
vn 0.00000000 0.00000000 1.00000000
vn 0.00000000 0.00000000 1.00000000
vn 0.00000000 0.00000000 1.00000000
vn 0.00000000 0.00000000 1.00000000
vn 0.00000000 0.00000000 1.00000000
vn -1.00000000 0.00000000 -0.00000000
vn -1.00000000 0.00000000 -0.00000000
vn -1.00000000 0.00000000 -0.00000000
vn -1.00000000 0.00000000 -0.00000000
s 1
usemtl Rock
f 5/5/5 4/4/4 3/3/3
f 2/52/2 3/53/3 20/54/52
f 2/52/2 18/55/53 14/57/55
f 18/55/53 15/56/54 14/57/55
f 2/52/2 20/54/52 18/55/53
f 3/3/3 2/2/2 1/1/1
f 5/5/5 3/3/3 1/1/1
s 2
f 1/6/6 6/7/7 5/9/9
f 6/7/7 7/8/8 5/9/9
s 3
f 8/11/11 4/10/10 5/17/17
f 9/12/12 8/11/11 7/16/16
f 7/16/16 12/15/15 10/13/13
f 12/15/15 11/14/14 10/13/13
f 10/13/13 9/12/12 7/16/16
f 8/11/11 5/17/17 7/16/16
s 4
f 14/20/20 15/21/21 16/22/22
f 16/22/22 12/18/18 13/19/19
f 16/22/22 11/23/23 12/18/18
f 13/19/19 14/20/20 16/22/22
s 5
f 15/27/27 18/26/26 17/25/25
f 15/27/27 17/25/25 16/24/24
s 6
f 18/31/31 20/30/30 19/29/29
f 18/31/31 19/29/29 17/28/28
s 7
f 20/35/35 3/34/34 21/33/33
f 20/35/35 21/33/33 19/32/32
s 8
f 10/39/39 11/38/38 17/36/36
f 11/38/38 16/37/37 17/36/36
s 9
f 9/43/43 10/42/42 19/40/40
f 10/42/42 17/41/41 19/40/40
s 10
f 8/47/47 9/46/46 21/44/44
f 9/46/46 19/45/45 21/44/44
s 11
usemtl Grass
f 4/51/51 8/50/50 21/49/49
f 4/51/51 21/49/49 3/48/48
s 12
usemtl Rock
f 6/58/56 1/62/60 2/61/59
f 2/61/59 14/60/58 13/59/57
f 2/61/59 13/59/57 6/58/56
s 13
f 7/63/61 6/64/62 12/66/64
f 6/64/62 13/65/63 12/66/64
