mtllib Path_Steps_Center.mtl
o object1
g object1
v 0.50000000 0.90000000 0.18903882
v 0.50000000 0.86212678 0.14053170
v 0.50000000 0.70000000 0.10000000
v 0.50000000 0.70000000 -0.21096118
v 0.50000000 0.66212678 -0.25946830
v 0.50000000 0.50000000 -0.30000000
v 0.50000000 0.50000000 -0.61096118
v 0.50000000 0.46212678 -0.65946830
v 0.50000000 0.30000000 -0.70000000
v 0.50000000 0.30000000 -1.01096118
v 0.50000000 0.26212678 -1.05946830
v 0.50000000 0.10000000 -1.10000000
v 0.50000000 0.10000000 -1.41096118
v 0.50000000 0.06212678 -1.45946830
v 0.50000000 -0.10000000 -1.50000000
v 0.50000000 -0.20000000 -1.50000000
v 0.50000000 -0.20000000 0.50000000
v 0.50000000 0.90000000 0.50000000
v -0.50000000 -0.20000000 -1.50000000
v -0.50000000 -0.20000000 0.50000000
v -0.50000000 -0.10000000 -1.50000000
v -0.50000000 0.90000000 0.50000000
v -0.50000000 0.46212678 -0.65946830
v -0.50000000 0.30000000 -0.70000000
v -0.50000000 0.50000000 -0.61096118
v -0.50000000 0.50000000 -0.30000000
v -0.50000000 0.26212678 -1.05946830
v -0.50000000 0.10000000 -1.10000000
v -0.50000000 0.30000000 -1.01096118
v -0.50000000 0.06212678 -1.45946830
v -0.50000000 0.10000000 -1.41096118
v -0.50000000 0.66212678 -0.25946830
v -0.50000000 0.70000000 -0.21096118
v -0.50000000 0.70000000 0.10000000
v -0.50000000 0.86212678 0.14053170
v -0.50000000 0.90000000 0.18903882
vt 0.15548059 0.00000000
vt 0.17973415 0.03443020
vt 0.20000000 0.18181818
vt 0.35548059 0.18181818
vt 0.37973415 0.21624838
vt 0.40000000 0.36363636
vt 0.55548059 0.36363636
vt 0.57973415 0.39806656
vt 0.60000000 0.54545455
vt 0.75548059 0.54545455
vt 0.77973415 0.57988474
vt 0.80000000 0.72727273
vt 0.95548059 0.72727273
vt 0.97973415 0.76170293
vt 1.00000000 0.90909091
vt 1.00000000 1.00000000
vt 0.00000000 1.00000000
vt 0.00000000 0.00000000
vt 0.00000000 1.00000000
vt 0.00000000 0.00000000
vt 1.00000000 0.00000000
vt 1.00000000 1.00000000
vt 0.00000000 0.00000000
vt 1.00000000 0.00000000
vt 1.00000000 1.00000000
vt 0.00000000 1.00000000
vt 1.00000000 1.00000000
vt 0.00000000 1.00000000
vt 0.00000000 0.00000000
vt 1.00000000 0.00000000
vt 1.00000000 1.00000000
vt 0.00000000 1.00000000
vt 0.00000000 0.00000000
vt 1.00000000 0.00000000
vt 1.00000000 1.00000000
vt 0.00000000 1.00000000
vt 0.00000000 0.00000000
vt 1.00000000 0.00000000
vt 1.00000000 1.00000000
vt 0.00000000 1.00000000
vt 0.00000000 0.00000000
vt 1.00000000 0.00000000
vt 1.00000000 1.00000000
vt 0.00000000 1.00000000
vt 0.00000000 0.00000000
vt 1.00000000 0.00000000
vt 1.00000000 1.00000000
vt 0.00000000 1.00000000
vt 0.00000000 0.00000000
vt 1.00000000 0.00000000
vt 1.00000000 1.00000000
vt 0.00000000 1.00000000
vt 0.00000000 0.00000000
vt 1.00000000 0.00000000
vt 1.00000000 1.00000000
vt 0.00000000 1.00000000
vt 0.00000000 0.00000000
vt 1.00000000 0.00000000
vt 1.00000000 1.00000000
vt 0.00000000 1.00000000
vt 0.00000000 0.00000000
vt 1.00000000 0.00000000
vt 1.00000000 1.00000000
vt 0.00000000 1.00000000
vt 0.00000000 0.00000000
vt 1.00000000 0.00000000
vt 1.00000000 1.00000000
vt 0.00000000 1.00000000
vt 0.00000000 0.00000000
vt 1.00000000 0.00000000
vt 0.15548059 0.00000000
vt 0.17973415 0.03443020
vt 0.20000000 0.18181818
vt 0.35548059 0.18181818
vt 0.37973415 0.21624838
vt 0.40000000 0.36363636
vt 0.55548059 0.36363636
vt 0.57973415 0.39806656
vt 0.60000000 0.54545455
vt 0.75548059 0.54545455
vt 0.77973415 0.57988474
vt 0.80000000 0.72727273
vt 0.95548059 0.72727273
vt 0.97973415 0.76170293
vt 1.00000000 0.90909091
vt 1.00000000 1.00000000
vt 0.00000000 1.00000000
vt 0.00000000 0.00000000
vt 0.00000000 0.00000000
vt 1.00000000 0.00000000
vt 1.00000000 1.00000000
vt 0.00000000 1.00000000
vt 0.00000000 0.00000000
vt 1.00000000 0.00000000
vt 1.00000000 1.00000000
vt 0.00000000 1.00000000
vt 0.00000000 0.00000000
vt 1.00000000 0.00000000
vt 1.00000000 1.00000000
vt 0.00000000 1.00000000
vt 0.00000000 0.00000000
vt 1.00000000 0.00000000
vt 1.00000000 1.00000000
vt 0.00000000 1.00000000
vt 0.00000000 0.00000000
vt 1.00000000 0.00000000
vt 1.00000000 1.00000000
vt 0.00000000 1.00000000
vn 1.00000000 0.00000000 -0.00000000
vn 1.00000000 0.00000000 -0.00000000
vn 1.00000000 0.00000000 -0.00000000
vn 1.00000000 0.00000000 -0.00000000
vn 1.00000000 0.00000000 -0.00000000
vn 1.00000000 0.00000000 -0.00000000
vn 1.00000000 0.00000000 -0.00000000
vn 1.00000000 0.00000000 -0.00000000
vn 1.00000000 0.00000000 -0.00000000
vn 1.00000000 0.00000000 -0.00000000
vn 1.00000000 0.00000000 -0.00000000
vn 1.00000000 0.00000000 -0.00000000
vn 1.00000000 0.00000000 -0.00000000
vn 1.00000000 0.00000000 -0.00000000
vn 1.00000000 0.00000000 -0.00000000
vn 1.00000000 0.00000000 -0.00000000
vn 1.00000000 0.00000000 -0.00000000
vn 1.00000000 0.00000000 -0.00000000
vn 0.00000000 -1.00000000 -0.00000000
vn 0.00000000 -1.00000000 -0.00000000
vn 0.00000000 -1.00000000 -0.00000000
vn 0.00000000 -1.00000000 -0.00000000
vn -0.00000000 0.00000000 -1.00000000
vn -0.00000000 0.00000000 -1.00000000
vn -0.00000000 0.00000000 -1.00000000
vn -0.00000000 0.00000000 -1.00000000
vn 0.00000000 0.00000000 1.00000000
vn 0.00000000 0.00000000 1.00000000
vn 0.00000000 0.00000000 1.00000000
vn 0.00000000 0.00000000 1.00000000
vn 0.00000000 0.24253563 -0.97014250
vn 0.00000000 0.24253563 -0.97014250
vn 0.00000000 0.24253563 -0.97014250
vn 0.00000000 0.24253563 -0.97014250
vn 0.00000000 1.00000000 0.00000000
vn 0.00000000 1.00000000 0.00000000
vn 0.00000000 1.00000000 0.00000000
vn 0.00000000 1.00000000 0.00000000
vn 0.00000000 0.24253563 -0.97014250
vn 0.00000000 0.24253563 -0.97014250
vn 0.00000000 0.24253563 -0.97014250
vn 0.00000000 0.24253563 -0.97014250
vn 0.00000000 1.00000000 0.00000000
vn 0.00000000 1.00000000 0.00000000
vn 0.00000000 1.00000000 0.00000000
vn 0.00000000 1.00000000 0.00000000
vn 0.00000000 0.24253563 -0.97014250
vn 0.00000000 0.24253563 -0.97014250
vn 0.00000000 0.24253563 -0.97014250
vn 0.00000000 0.24253563 -0.97014250
vn 0.00000000 1.00000000 0.00000000
vn 0.00000000 1.00000000 0.00000000
vn 0.00000000 1.00000000 0.00000000
vn 0.00000000 1.00000000 0.00000000
vn 0.00000000 0.24253563 -0.97014250
vn 0.00000000 0.24253563 -0.97014250
vn 0.00000000 0.24253563 -0.97014250
vn 0.00000000 0.24253563 -0.97014250
vn 0.00000000 1.00000000 0.00000000
vn 0.00000000 1.00000000 0.00000000
vn 0.00000000 1.00000000 0.00000000
vn 0.00000000 1.00000000 0.00000000
vn 0.00000000 0.24253563 -0.97014250
vn 0.00000000 0.24253563 -0.97014250
vn 0.00000000 0.24253563 -0.97014250
vn 0.00000000 0.24253563 -0.97014250
vn 0.00000000 1.00000000 0.00000000
vn 0.00000000 1.00000000 0.00000000
vn 0.00000000 1.00000000 0.00000000
vn 0.00000000 1.00000000 0.00000000
vn -1.00000000 0.00000000 0.00000000
vn -1.00000000 0.00000000 0.00000000
vn -1.00000000 0.00000000 0.00000000
vn -1.00000000 0.00000000 0.00000000
vn -1.00000000 0.00000000 0.00000000
vn -1.00000000 0.00000000 0.00000000
vn -1.00000000 0.00000000 0.00000000
vn -1.00000000 0.00000000 0.00000000
vn -1.00000000 0.00000000 0.00000000
vn -1.00000000 0.00000000 0.00000000
vn -1.00000000 0.00000000 0.00000000
vn -1.00000000 0.00000000 0.00000000
vn -1.00000000 0.00000000 0.00000000
vn -1.00000000 0.00000000 0.00000000
vn -1.00000000 0.00000000 0.00000000
vn -1.00000000 0.00000000 0.00000000
vn -1.00000000 0.00000000 0.00000000
vn -1.00000000 0.00000000 0.00000000
vn 0.00000000 0.78820544 -0.61541221
vn 0.00000000 0.78820544 -0.61541221
vn 0.00000000 0.78820544 -0.61541221
vn 0.00000000 0.78820544 -0.61541221
vn 0.00000000 0.78820544 -0.61541221
vn 0.00000000 0.78820544 -0.61541221
vn 0.00000000 0.78820544 -0.61541221
vn 0.00000000 0.78820544 -0.61541221
vn 0.00000000 0.78820544 -0.61541221
vn 0.00000000 0.78820544 -0.61541221
vn 0.00000000 0.78820544 -0.61541221
vn 0.00000000 0.78820544 -0.61541221
vn -0.00000000 0.78820544 -0.61541221
vn -0.00000000 0.78820544 -0.61541221
vn 0.00000000 0.78820544 -0.61541221
vn 0.00000000 0.78820544 -0.61541221
vn 0.00000000 0.78820544 -0.61541221
vn 0.00000000 0.78820544 -0.61541221
vn 0.00000000 0.78820544 -0.61541221
vn 0.00000000 0.78820544 -0.61541221
s 1
usemtl Rock
f 1/1/1 18/18/18 17/17/17
f 17/17/17 6/6/6 3/3/3
f 9/9/9 7/7/7 6/6/6
f 9/9/9 8/8/8 7/7/7
f 12/12/12 10/10/10 9/9/9
f 16/16/16 15/15/15 12/12/12
f 15/15/15 14/14/14 13/13/13
f 15/15/15 13/13/13 12/12/12
f 12/12/12 11/11/11 10/10/10
f 6/6/6 4/4/4 3/3/3
f 6/6/6 5/5/5 4/4/4
f 17/17/17 9/9/9 6/6/6
f 17/17/17 12/12/12 9/9/9
f 17/17/17 16/16/16 12/12/12
f 17/17/17 3/3/3 1/1/1
f 3/3/3 2/2/2 1/1/1
s 2
f 20/22/22 19/21/21 16/20/20
f 20/22/22 16/20/20 17/19/19
s 3
f 16/26/26 19/25/25 15/23/23
f 19/25/25 21/24/24 15/23/23
s 4
f 22/27/27 20/28/28 18/30/30
f 20/28/28 17/29/29 18/30/30
s 5
f 23/31/31 8/32/32 9/33/33
f 23/31/31 9/33/33 24/34/34
s 6
f 26/38/38 6/37/37 7/36/36
f 26/38/38 7/36/36 25/35/35
s 7
f 27/39/39 11/40/40 12/41/41
f 27/39/39 12/41/41 28/42/42
s 8
f 24/46/46 9/45/45 10/44/44
f 24/46/46 10/44/44 29/43/43
s 9
f 30/47/47 14/48/48 15/49/49
f 30/47/47 15/49/49 21/50/50
s 10
f 28/54/54 12/53/53 13/52/52
f 28/54/54 13/52/52 31/51/51
s 11
f 32/55/55 5/56/56 6/57/57
f 32/55/55 6/57/57 26/58/58
s 12
f 34/62/62 3/61/61 4/60/60
f 34/62/62 4/60/60 33/59/59
s 13
f 35/63/63 2/64/64 3/65/65
f 35/63/63 3/65/65 34/66/66
s 14
f 22/70/70 18/69/69 1/68/68
f 22/70/70 1/68/68 36/67/67
s 15
f 20/87/87 22/88/88 36/71/71
f 36/71/71 35/72/72 34/73/73
f 34/73/73 33/74/74 26/76/76
f 26/76/76 25/77/77 24/79/79
f 24/79/79 29/80/80 28/82/82
f 28/82/82 21/85/85 19/86/86
f 31/83/83 30/84/84 21/85/85
f 28/82/82 31/83/83 21/85/85
f 29/80/80 27/81/81 28/82/82
f 25/77/77 23/78/78 24/79/79
f 33/74/74 32/75/75 26/76/76
f 36/71/71 34/73/73 20/87/87
f 34/73/73 26/76/76 20/87/87
f 26/76/76 24/79/79 20/87/87
f 24/79/79 28/82/82 20/87/87
f 28/82/82 19/86/86 20/87/87
s 16
f 8/89/89 23/90/90 7/92/92
f 23/90/90 25/91/91 7/92/92
s 17
f 11/93/93 27/94/94 10/96/96
f 27/94/94 29/95/95 10/96/96
s 18
f 14/97/97 30/98/98 13/100/100
f 30/98/98 31/99/99 13/100/100
s 19
f 5/101/101 32/102/102 4/104/104
f 32/102/102 33/103/103 4/104/104
s 20
f 2/105/105 35/106/106 1/108/108
f 35/106/106 36/107/107 1/108/108
