mtllib Path_Steps_Grass_Edge.mtl
o object1
g object1
v -0.50000000 0.20000000 -1.50000000
v -0.50000000 0.35000000 -1.00000000
v -0.40000000 0.35000000 -1.00000000
v -0.40000000 0.20000000 -1.50000000
v -0.25000000 1.00000000 0.00000000
v -0.40000000 1.05000000 0.00000000
v -0.40000000 1.20000000 0.50000000
v -0.25000000 1.15000000 0.50000000
v -0.50000000 1.05000000 0.00000000
v -0.50000000 1.20000000 0.50000000
v -0.15000000 0.90000000 0.00000000
v -0.15000000 1.05000000 0.50000000
v -0.25000000 0.30000000 -1.00000000
v -0.25000000 0.15000000 -1.50000000
v -0.50000000 -0.20000000 0.50000000
v -0.50000000 -0.20000000 -1.50000000
v -0.14487765 0.06212678 -1.38781523
v -0.15000000 0.09736640 -1.34211202
v -0.15000000 0.05000000 -1.50000000
v -0.11431023 -0.10000000 -1.50000000
v -0.10947643 -0.10000000 -1.43228040
v -0.14373906 0.46212678 -0.58794174
v -0.14465440 0.50000000 -0.53933291
v -0.09380413 0.50000000 -0.23402176
v -0.12505037 0.66212678 -0.19001826
v -0.12596570 0.70000000 -0.14140944
v -0.10241364 0.70000000 -0.00000000
v -0.15000000 0.30000000 -0.85714286
v -0.11249283 0.30000000 -0.63194524
v 0.50000000 -0.20000000 0.50000000
v 0.50000000 -0.20000000 -1.50000000
v -0.20299541 0.30000000 -0.93285058
v -0.19935993 0.26212678 -0.98176165
v -0.15769231 0.20769231 -1.00000000
v -0.12836120 0.10000000 -1.03018209
v -0.15000000 0.19909910 -1.00300300
v -0.15000000 0.10000000 -1.33333333
v 0.50000000 -0.10000000 -1.50000000
v -0.15156937 0.10000000 -1.33856458
v -0.09059167 0.70000000 0.16562130
v -0.12599288 0.86212678 0.21008646
v -0.13149805 0.90000000 0.25920527
v -0.11431023 0.90000000 0.50000000
v 0.50000000 0.90000000 0.50000000
v 0.50000000 0.90000000 0.18903882
v 0.50000000 0.86212678 0.14053170
v 0.50000000 0.70000000 0.10000000
v 0.50000000 0.70000000 -0.21096118
v 0.50000000 0.66212678 -0.25946830
v 0.50000000 0.50000000 -0.30000000
v 0.50000000 0.50000000 -0.61096118
v 0.50000000 0.46212678 -0.65946830
v 0.50000000 0.30000000 -0.70000000
v 0.50000000 0.30000000 -1.01096118
v 0.50000000 0.26212678 -1.05946830
v 0.50000000 0.10000000 -1.10000000
v 0.50000000 0.10000000 -1.41096118
v 0.50000000 0.06212678 -1.45946830
vt 0.00000000 0.00000000
vt 1.00000000 0.00000000
vt 1.00000000 1.00000000
vt 0.00000000 1.00000000
vt 0.00000000 1.00000000
vt 0.00000000 0.00000000
vt 1.00000000 0.00000000
vt 1.00000000 1.00000000
vt 0.00000000 1.00000000
vt 0.00000000 0.00000000
vt 1.00000000 0.00000000
vt 1.00000000 1.00000000
vt 0.00000000 1.00000000
vt 0.00000000 0.00000000
vt 1.00000000 0.00000000
vt 1.00000000 1.00000000
vt 0.00000000 1.00000000
vt 0.00000000 0.00000000
vt 1.00000000 0.00000000
vt 1.00000000 1.00000000
vt 1.00000000 0.00000000
vt 1.00000000 1.00000000
vt 0.00000000 1.00000000
vt 0.00000000 0.00000000
vt 0.00000000 1.00000000
vt 0.00000000 0.00000000
vt 1.00000000 0.00000000
vt 1.00000000 1.00000000
vt 0.00000000 0.00000000
vt 1.00000000 0.00000000
vt 1.00000000 0.28571429
vt 0.75000000 0.39285714
vt 0.25000000 0.89285714
vt 0.00000000 1.00000000
vt 0.71053392 0.87359576
vt 1.00000000 1.00000000
vt 0.00000000 1.00000000
vt 0.00000000 0.11928354
vt 0.42890917 0.00000000
vt 0.31406797 0.88858723
vt 0.37077827 0.90487549
vt 0.72697461 0.00000000
vt 0.77831203 0.55602372
vt 0.83502233 0.57231198
vt 1.00000000 0.15320533
vt 1.00000000 1.00000000
vt 0.00000000 1.00000000
vt 0.26273055 0.33256351
vt 1.00000000 0.00000000
vt 1.00000000 1.00000000
vt 0.00000000 1.00000000
vt 0.00000000 0.00000000
vt 0.06714942 0.47004595
vt 0.01823835 0.50640067
vt 0.00000000 0.92307692
vt 0.00000000 0.00000000
vt 1.00000000 0.00000000
vt 1.00000000 1.00000000
vt 0.14285714 1.00000000
vt 0.91772150 0.00000000
vt 1.00000000 1.00000000
vt 0.00000000 1.00000000
vt 0.62500000 0.35000000
vt 0.25000000 0.38568977
vt 0.25000000 1.00000000
vt 0.00000000 1.00000000
vt 0.00000000 0.00000000
vt 1.00000000 0.00000000
vt 1.00000000 0.10000000
vt 0.87500000 0.25000000
vt 1.00000000 0.92307692
vt 0.99399399 1.00000000
vt 0.33333333 1.00000000
vt 0.32287084 0.98430625
vt 0.31577597 1.00000000
vt 0.00000000 1.00000000
vt 0.00000000 0.00000000
vt 1.00000000 0.00000000
vt 0.00000000 0.19899518
vt 0.33124259 0.00000000
vt 0.42017292 0.59589645
vt 0.51841054 0.68856300
vt 1.00000000 0.39924639
vt 1.00000000 1.00000000
vt 0.00000000 1.00000000
vt 0.89285714 0.35000000
vt 0.78571429 0.38568977
vt 0.78571429 1.00000000
vt 0.00000000 1.00000000
vt 0.00000000 0.00000000
vt 1.00000000 0.00000000
vt 1.00000000 0.10000000
vt 0.96428571 0.25000000
vt 0.97278247 0.21950229
vt 1.00000000 1.00000000
vt 0.00000000 1.00000000
vt 0.00000000 0.00000000
vt 1.00000000 0.00000000
vt 0.99128237 1.00000000
vt 0.00000000 1.00000000
vt 0.00000000 0.00000000
vt 1.00000000 0.00000000
vt 0.94344790 1.00000000
vt 0.00000000 1.00000000
vt 0.00000000 0.00000000
vt 0.94348886 0.00000000
vt 0.96237484 0.53683501
vt 1.00000000 1.00000000
vt 0.00000000 1.00000000
vt 0.00000000 0.00000000
vt 1.00000000 0.00000000
vt 0.99853773 1.00000000
vt 0.00000000 1.00000000
vt 0.00000000 0.00000000
vt 1.00000000 0.00000000
vt 0.95001005 1.00000000
vt 0.00000000 1.00000000
vt 0.00000000 0.00000000
vt 0.92112012 0.00000000
vt 1.00000000 1.00000000
vt 0.00000000 1.00000000
vt 0.00000000 0.00000000
vt 1.00000000 0.00000000
vt 0.99858012 1.00000000
vt 0.00000000 1.00000000
vt 0.00000000 0.00000000
vt 1.00000000 0.00000000
vt 0.95146133 1.00000000
vt 0.00000000 1.00000000
vt 0.00000000 0.00000000
vt 0.92461486 0.73760036
vt 1.00000000 1.00000000
vt 0.00000000 1.00000000
vt 0.00000000 0.00000000
vt 0.87126149 0.00000000
vt 1.00000000 0.00000000
vt 0.99482860 1.00000000
vt 0.00000000 1.00000000
vt 0.00000000 0.00000000
vt 0.94042034 0.33575251
vt 0.92942127 0.38875553
vt 0.89848042 1.00000000
vt 0.00000000 1.00000000
vt 0.00000000 0.00000000
vt 1.00000000 0.00000000
vt 0.99759139 0.98261640
vt 1.00000000 1.00000000
vt 0.00000000 1.00000000
vt 0.00000000 0.00000000
vt 0.96438112 0.00000000
vt 1.00000000 0.00000000
vt 0.99759139 0.06953739
vt 0.98972983 1.00000000
vt 0.00000000 1.00000000
vt 0.00000000 0.00000000
vt 1.00000000 0.00000000
vt 0.94510398 1.00000000
vt 0.00000000 1.00000000
vt 0.00000000 0.00000000
vt 0.97973415 0.76170293
vt 1.00000000 0.90909091
vt 1.00000000 1.00000000
vt 0.00000000 1.00000000
vt 0.00000000 0.00000000
vt 0.15548059 0.00000000
vt 0.17973415 0.03443020
vt 0.20000000 0.18181818
vt 0.35548059 0.18181818
vt 0.37973415 0.21624838
vt 0.40000000 0.36363636
vt 0.55548059 0.36363636
vt 0.57973415 0.39806656
vt 0.60000000 0.54545455
vt 0.75548059 0.54545455
vt 0.77973415 0.57988474
vt 0.80000000 0.72727273
vt 0.95548059 0.72727273
vt 0.00000000 0.00786865
vt 1.00000000 0.00000000
vt 1.00000000 1.00000000
vn 0.00000000 0.95782629 -0.28734789
vn 0.00000000 0.95782629 -0.28734789
vn 0.00000000 0.95782629 -0.28734789
vn 0.00000000 0.95782629 -0.28734789
vn 0.30414953 0.91244860 -0.27373458
vn 0.30414953 0.91244860 -0.27373458
vn 0.30414953 0.91244860 -0.27373458
vn 0.30414953 0.91244860 -0.27373458
vn 0.00000000 0.95782629 -0.28734789
vn 0.00000000 0.95782629 -0.28734789
vn 0.00000000 0.95782629 -0.28734789
vn 0.00000000 0.95782629 -0.28734789
vn 0.69171446 0.69171446 -0.20751434
vn 0.69171446 0.69171446 -0.20751434
vn 0.69171446 0.69171446 -0.20751434
vn 0.69171446 0.69171446 -0.20751434
vn 0.26343168 0.79029505 -0.55320654
vn 0.26343168 0.79029505 -0.55320654
vn 0.26343168 0.79029505 -0.55320654
vn 0.26343168 0.79029505 -0.55320654
vn 0.30414953 0.91244860 -0.27373458
vn 0.30414953 0.91244860 -0.27373458
vn 0.30414953 0.91244860 -0.27373458
vn 0.30414953 0.91244860 -0.27373458
vn 0.00000000 0.81923192 -0.57346234
vn 0.00000000 0.81923192 -0.57346234
vn 0.00000000 0.81923192 -0.57346234
vn 0.00000000 0.81923192 -0.57346234
vn -1.00000000 -0.00000000 0.00000000
vn -1.00000000 -0.00000000 0.00000000
vn -1.00000000 -0.00000000 0.00000000
vn -1.00000000 -0.00000000 0.00000000
vn -1.00000000 -0.00000000 0.00000000
vn -1.00000000 -0.00000000 0.00000000
vn 0.97050493 0.23091399 -0.06927420
vn 0.97050493 0.23091399 -0.06927420
vn 0.97050493 0.23091399 -0.06927420
vn 0.97050493 0.23091399 -0.06927420
vn 0.97050493 0.23091399 -0.06927420
vn 0.96031789 0.22849017 -0.15994312
vn 0.96031789 0.22849017 -0.15994312
vn 0.96031789 0.22849017 -0.15994312
vn 0.96031789 0.22849017 -0.15994312
vn 0.96031789 0.22849017 -0.15994312
vn 0.96031789 0.22849017 -0.15994312
vn 0.96031789 0.22849017 -0.15994312
vn 0.96031789 0.22849017 -0.15994312
vn 0.96031789 0.22849017 -0.15994312
vn 0.00000000 -1.00000000 -0.00000000
vn 0.00000000 -1.00000000 -0.00000000
vn 0.00000000 -1.00000000 0.00000000
vn 0.00000000 -1.00000000 0.00000000
vn 0.63372425 0.63372425 -0.44360698
vn 0.63372425 0.63372425 -0.44360698
vn 0.63372425 0.63372425 -0.44360698
vn 0.63372425 0.63372425 -0.44360698
vn 0.63372425 0.63372425 -0.44360698
vn 0.63372425 0.63372425 -0.44360698
vn 0.63372425 0.63372425 -0.44360698
vn 0.97050493 0.23091399 -0.06927420
vn 0.97050493 0.23091399 -0.06927420
vn 0.97050493 0.23091399 -0.06927420
vn -0.00000000 0.00000000 -1.00000000
vn -0.00000000 0.00000000 -1.00000000
vn -0.00000000 0.00000000 -1.00000000
vn -0.00000000 0.00000000 -1.00000000
vn -0.00000000 0.00000000 -1.00000000
vn -0.00000000 0.00000000 -1.00000000
vn -0.00000000 0.00000000 -1.00000000
vn -0.00000000 0.00000000 -1.00000000
vn 0.69171446 0.69171446 -0.20751434
vn 0.69171446 0.69171446 -0.20751434
vn 0.69171446 0.69171446 -0.20751434
vn 0.69171446 0.69171446 -0.20751434
vn 0.69171446 0.69171446 -0.20751434
vn 0.69171446 0.69171446 -0.20751434
vn 0.69171446 0.69171446 -0.20751434
vn 0.69171446 0.69171446 -0.20751434
vn 0.97050493 0.23091399 -0.06927420
vn 0.97050493 0.23091399 -0.06927420
vn 0.97050493 0.23091399 -0.06927420
vn 0.97050493 0.23091399 -0.06927420
vn 0.97050493 0.23091399 -0.06927420
vn 0.97050493 0.23091399 -0.06927420
vn 0.97050493 0.23091399 -0.06927420
vn 0.00000000 -0.00000000 1.00000000
vn 0.00000000 -0.00000000 1.00000000
vn 0.00000000 -0.00000000 1.00000000
vn 0.00000000 -0.00000000 1.00000000
vn 0.00000000 -0.00000000 1.00000000
vn 0.00000000 -0.00000000 1.00000000
vn 0.00000000 -0.00000000 1.00000000
vn 0.00000000 -0.00000000 1.00000000
vn -0.00000000 1.00000000 -0.00000000
vn 0.00000000 1.00000000 0.00000000
vn 0.00000000 1.00000000 0.00000000
vn -0.00000000 1.00000000 -0.00000000
vn -0.06821983 0.78636917 -0.61397849
vn -0.06821983 0.78636917 -0.61397849
vn -0.06821983 0.78636917 -0.61397849
vn -0.06821983 0.78636917 -0.61397849
vn -0.10717276 0.24113872 -0.96455488
vn -0.10717276 0.24113872 -0.96455488
vn -0.10717276 0.24113872 -0.96455488
vn -0.10717276 0.24113872 -0.96455488
vn -0.00000000 1.00000000 -0.00000000
vn -0.00000000 1.00000000 -0.00000000
vn 0.00000000 1.00000000 0.00000000
vn 0.00000000 1.00000000 0.00000000
vn -0.00000000 1.00000000 -0.00000000
vn -0.06821983 0.78636917 -0.61397849
vn -0.06821983 0.78636917 -0.61397849
vn -0.06821983 0.78636917 -0.61397849
vn -0.06821983 0.78636917 -0.61397849
vn -0.10717276 0.24113872 -0.96455488
vn -0.10717276 0.24113872 -0.96455488
vn -0.10717276 0.24113872 -0.96455488
vn -0.10717276 0.24113872 -0.96455488
vn 0.00000000 1.00000000 0.00000000
vn 0.00000000 1.00000000 0.00000000
vn 0.00000000 1.00000000 0.00000000
vn 0.00000000 1.00000000 0.00000000
vn -0.06821983 0.78636917 -0.61397849
vn -0.06821983 0.78636917 -0.61397849
vn -0.06821983 0.78636917 -0.61397849
vn -0.06821983 0.78636917 -0.61397849
vn -0.10717276 0.24113872 -0.96455488
vn -0.10717276 0.24113872 -0.96455488
vn -0.10717276 0.24113872 -0.96455488
vn -0.10717276 0.24113872 -0.96455488
vn 0.00000000 1.00000000 0.00000000
vn 0.00000000 1.00000000 0.00000000
vn 0.00000000 1.00000000 0.00000000
vn -0.00000000 1.00000000 -0.00000000
vn -0.00000000 1.00000000 0.00000000
vn -0.06821983 0.78636917 -0.61397849
vn -0.06821983 0.78636917 -0.61397849
vn -0.06821983 0.78636917 -0.61397849
vn -0.06821983 0.78636917 -0.61397849
vn -0.10717276 0.24113872 -0.96455488
vn -0.10717276 0.24113872 -0.96455488
vn -0.10717276 0.24113872 -0.96455488
vn -0.10717276 0.24113872 -0.96455488
vn -0.10717276 0.24113872 -0.96455488
vn -0.10717276 0.24113872 -0.96455488
vn 0.00000000 1.00000000 0.00000000
vn 0.00000000 1.00000000 0.00000000
vn 0.00000000 1.00000000 0.00000000
vn 0.00000000 1.00000000 0.00000000
vn 0.00000000 1.00000000 -0.00000000
vn -0.06821983 0.78636917 -0.61397849
vn -0.06821983 0.78636917 -0.61397849
vn -0.06821983 0.78636917 -0.61397849
vn -0.06821983 0.78636917 -0.61397849
vn -0.06821983 0.78636917 -0.61397849
vn -0.10717276 0.24113872 -0.96455488
vn -0.10717276 0.24113872 -0.96455488
vn -0.10717276 0.24113872 -0.96455488
vn -0.10717276 0.24113872 -0.96455488
vn 1.00000000 -0.00000000 0.00000000
vn 1.00000000 -0.00000000 0.00000000
vn 1.00000000 -0.00000000 0.00000000
vn 1.00000000 -0.00000000 0.00000000
vn 1.00000000 -0.00000000 0.00000000
vn 1.00000000 -0.00000000 0.00000000
vn 1.00000000 -0.00000000 0.00000000
vn 1.00000000 -0.00000000 0.00000000
vn 1.00000000 -0.00000000 0.00000000
vn 1.00000000 -0.00000000 0.00000000
vn 1.00000000 -0.00000000 0.00000000
vn 1.00000000 -0.00000000 0.00000000
vn 1.00000000 -0.00000000 0.00000000
vn 1.00000000 -0.00000000 0.00000000
vn 1.00000000 -0.00000000 0.00000000
vn 1.00000000 -0.00000000 0.00000000
vn 1.00000000 -0.00000000 0.00000000
vn 1.00000000 -0.00000000 0.00000000
vn 0.00000000 1.00000000 0.00000000
vn 0.00000000 1.00000000 0.00000000
vn 0.00000000 1.00000000 0.00000000
s 1
usemtl Grass
f 1/1/1 2/2/2 3/3/3
f 1/1/1 3/3/3 4/4/4
s 2
f 5/5/5 6/6/6 8/8/8
f 6/6/6 7/7/7 8/8/8
s 3
f 6/9/9 9/10/10 7/12/12
f 9/10/10 10/11/11 7/12/12
s 4
f 11/13/13 5/14/14 12/16/16
f 5/14/14 8/15/15 12/16/16
s 5
f 13/17/17 3/18/18 5/20/20
f 3/18/18 6/19/19 5/20/20
s 6
f 3/21/21 13/22/22 4/24/24
f 13/22/22 14/23/23 4/24/24
s 7
f 3/25/25 2/26/26 6/28/28
f 2/26/26 9/27/27 6/28/28
s 8
f 2/32/32 1/31/31 16/30/30
f 2/32/32 16/30/30 15/29/29
f 15/29/29 10/34/34 9/33/33
f 15/29/29 9/33/33 2/32/32
s 9
f 19/37/37 18/36/36 17/35/35
f 21/39/39 19/37/37 17/35/35
f 21/39/39 20/38/38 19/37/37
s 10
f 11/46/46 27/45/45 26/44/44
f 28/47/47 11/46/46 23/41/41
f 25/43/43 24/42/42 23/41/41
f 23/41/41 22/40/40 28/47/47
f 22/40/40 29/48/48 28/47/47
f 11/46/46 25/43/43 23/41/41
f 11/46/46 26/44/44 25/43/43
s 11
usemtl Rock
f 31/52/52 30/51/51 16/49/49
f 30/51/51 15/50/50 16/49/49
s 12
usemtl Grass
f 33/54/54 34/55/55 13/56/56
f 13/56/56 5/57/57 11/58/58
f 11/58/58 28/59/59 32/53/53
f 11/58/58 32/53/53 13/56/56
f 32/53/53 33/54/54 13/56/56
s 13
f 37/62/62 36/61/61 35/60/60
s 14
usemtl Rock
f 14/70/70 19/63/63 20/64/64
f 20/64/64 31/66/66 16/67/67
f 16/67/67 1/68/68 4/69/69
f 20/64/64 38/65/65 31/66/66
f 16/67/67 4/69/69 20/64/64
f 4/69/69 14/70/70 20/64/64
s 15
usemtl Grass
f 18/75/75 19/76/76 14/77/77
f 39/74/74 14/77/77 34/71/71
f 34/71/71 36/72/72 39/74/74
f 36/72/72 37/73/73 39/74/74
f 14/77/77 13/78/78 34/71/71
f 39/74/74 18/75/75 14/77/77
s 16
f 41/81/81 40/80/80 27/79/79
f 42/82/82 41/81/81 11/85/85
f 11/85/85 12/84/84 42/82/82
f 12/84/84 43/83/83 42/82/82
f 41/81/81 27/79/79 11/85/85
s 17
usemtl Rock
f 43/87/87 12/86/86 8/93/93
f 15/90/90 43/87/87 7/92/92
f 7/92/92 10/91/91 15/90/90
f 15/90/90 30/89/89 43/87/87
f 30/89/89 44/88/88 43/87/87
f 43/87/87 8/93/93 7/92/92
s 18
f 42/95/95 43/94/94 44/97/97
f 44/97/97 45/96/96 42/95/95
s 19
f 45/101/101 46/100/100 41/99/99
f 45/101/101 41/99/99 42/98/98
s 20
f 46/105/105 47/104/104 40/103/103
f 46/105/105 40/103/103 41/102/102
s 21
f 27/107/107 40/106/106 47/110/110
f 47/110/110 48/109/109 27/107/107
f 48/109/109 26/108/108 27/107/107
s 22
f 48/114/114 49/113/113 25/112/112
f 48/114/114 25/112/112 26/111/111
s 23
f 49/118/118 50/117/117 24/116/116
f 49/118/118 24/116/116 25/115/115
s 24
f 50/122/122 51/121/121 23/120/120
f 50/122/122 23/120/120 24/119/119
s 25
f 51/126/126 52/125/125 22/124/124
f 51/126/126 22/124/124 23/123/123
s 26
f 52/130/130 53/129/129 29/128/128
f 52/130/130 29/128/128 22/127/127
s 27
f 28/131/131 29/135/135 53/134/134
f 54/133/133 32/132/132 28/131/131
f 28/131/131 53/134/134 54/133/133
s 28
f 54/139/139 55/138/138 33/137/137
f 54/139/139 33/137/137 32/136/136
s 29
f 55/144/144 56/143/143 35/142/142
f 33/145/145 55/144/144 36/141/141
f 36/141/141 34/140/140 33/145/145
f 55/144/144 35/142/142 36/141/141
s 30
f 37/146/146 35/150/150 56/149/149
f 57/148/148 39/147/147 37/146/146
f 37/146/146 56/149/149 57/148/148
s 31
f 18/152/152 39/151/151 57/155/155
f 57/155/155 58/154/154 17/153/153
f 57/155/155 17/153/153 18/152/152
s 32
f 58/159/159 38/158/158 21/157/157
f 58/159/159 21/157/157 17/156/156
s 33
f 45/165/165 44/164/164 30/163/163
f 30/163/163 50/170/170 47/167/167
f 50/170/170 48/168/168 47/167/167
f 50/170/170 49/169/169 48/168/168
f 53/173/173 51/171/171 50/170/170
f 56/176/176 54/174/174 53/173/173
f 56/176/176 55/175/175 54/174/174
f 31/162/162 38/161/161 56/176/176
f 38/161/161 58/160/160 57/177/177
f 38/161/161 57/177/177 56/176/176
f 53/173/173 52/172/172 51/171/171
f 30/163/163 53/173/173 50/170/170
f 30/163/163 56/176/176 53/173/173
f 30/163/163 31/162/162 56/176/176
f 47/167/167 45/165/165 30/163/163
f 47/167/167 46/166/166 45/165/165
s 34
f 38/180/180 20/179/179 21/178/178
