mtllib Path_Steps_Grass_Edge_Top.mtl
o object1
g object1
v -0.50000000 0.20000000 -1.50000000
v -0.50000000 0.35000000 -1.00000000
v -0.40000000 0.35000000 -1.00000000
v -0.40000000 0.20000000 -1.50000000
v -0.25000000 1.00000000 0.00000000
v -0.40000000 1.05000000 0.00000000
v -0.40000000 1.20000000 0.50000000
v -0.25000000 1.15000000 0.50000000
v -0.50000000 1.05000000 0.00000000
v -0.50000000 1.20000000 0.50000000
v -0.15000000 0.90000000 0.00000000
v -0.15000000 1.05000000 0.50000000
v -0.25000000 0.30000000 -1.00000000
v -0.25000000 0.15000000 -1.50000000
v -0.50000000 -0.20000000 0.50000000
v -0.50000000 -0.20000000 -1.50000000
v 0.50000000 -0.20000000 0.50000000
v 0.00000000 1.00000000 0.50000000
v 0.50000000 1.00000000 0.50000000
v -0.14487765 0.06212678 -1.38781523
v -0.15000000 0.09736640 -1.34211202
v -0.15000000 0.05000000 -1.50000000
v -0.11431023 -0.10000000 -1.50000000
v -0.10947643 -0.10000000 -1.43228040
v -0.14373906 0.46212678 -0.58794174
v -0.14465440 0.50000000 -0.53933291
v -0.09380413 0.50000000 -0.23402176
v -0.12505037 0.66212678 -0.19001826
v -0.12596570 0.70000000 -0.14140944
v -0.10241364 0.70000000 0.00000000
v -0.15000000 0.30000000 -0.85714286
v -0.11249283 0.30000000 -0.63194524
v 0.50000000 -0.20000000 -1.50000000
v 0.50000000 0.90000000 0.33333333
v 0.50000000 0.90000000 0.18903882
v 0.50000000 0.86212678 0.14053170
v 0.50000000 0.70000000 0.10000000
v 0.50000000 0.70000000 -0.21096118
v 0.50000000 0.66212678 -0.25946830
v 0.50000000 0.50000000 -0.30000000
v 0.50000000 0.50000000 -0.61096118
v 0.50000000 0.46212678 -0.65946830
v 0.50000000 0.30000000 -0.70000000
v 0.50000000 0.30000000 -1.01096118
v 0.50000000 0.26212678 -1.05946830
v 0.50000000 0.10000000 -1.10000000
v 0.50000000 0.10000000 -1.41096118
v 0.50000000 0.06212678 -1.45946830
v 0.50000000 -0.10000000 -1.50000000
v 0.00000000 0.90000000 0.33333333
v -0.13141825 0.90000000 0.26032319
v -0.20299541 0.30000000 -0.93285058
v -0.19935993 0.26212678 -0.98176165
v -0.15769231 0.20769231 -1.00000000
v -0.12836120 0.10000000 -1.03018209
v -0.15000000 0.19909910 -1.00300300
v -0.15000000 0.10000000 -1.33333333
v -0.15156937 0.10000000 -1.33856458
v -0.09059167 0.70000000 0.16562130
v -0.12599288 0.86212678 0.21008646
v -0.13149805 0.90000000 0.25920527
vt 0.00000000 0.00000000
vt 1.00000000 0.00000000
vt 1.00000000 1.00000000
vt 0.00000000 1.00000000
vt 0.00000000 1.00000000
vt 0.00000000 0.00000000
vt 1.00000000 0.00000000
vt 1.00000000 1.00000000
vt 0.00000000 1.00000000
vt 0.00000000 0.00000000
vt 1.00000000 0.00000000
vt 1.00000000 1.00000000
vt 0.00000000 1.00000000
vt 0.00000000 0.00000000
vt 1.00000000 0.00000000
vt 1.00000000 1.00000000
vt 0.00000000 1.00000000
vt 0.00000000 0.00000000
vt 1.00000000 0.00000000
vt 1.00000000 1.00000000
vt 1.00000000 0.00000000
vt 1.00000000 1.00000000
vt 0.00000000 1.00000000
vt 0.00000000 0.00000000
vt 0.00000000 1.00000000
vt 0.00000000 0.00000000
vt 1.00000000 0.00000000
vt 1.00000000 1.00000000
vt 0.00000000 0.00000000
vt 1.00000000 0.00000000
vt 1.00000000 0.28571429
vt 0.75000000 0.39285714
vt 0.25000000 0.89285714
vt 0.00000000 1.00000000
vt 0.00000000 1.00000000
vt 0.00000000 0.00000000
vt 1.00000000 0.00000000
vt 1.00000000 0.10000000
vt 0.96428571 0.25000000
vt 0.89285714 0.35000000
vt 0.85714286 0.50000000
vt 0.85714286 1.00000000
vt 0.71053392 0.87359576
vt 1.00000000 1.00000000
vt 0.00000000 1.00000000
vt 0.00000000 0.11928354
vt 0.42890917 0.00000000
vt 0.31406797 0.88858723
vt 0.37077827 0.90487549
vt 0.72697461 0.00000000
vt 0.77831203 0.55602372
vt 0.83502233 0.57231198
vt 1.00000000 0.15320533
vt 1.00000000 1.00000000
vt 0.00000000 1.00000000
vt 0.26273055 0.33256351
vt 1.00000000 0.00000000
vt 1.00000000 1.00000000
vt 0.00000000 1.00000000
vt 0.00000000 0.00000000
vt 0.00000000 0.00000000
vt 0.08333333 0.08333333
vt 0.15548059 0.08333333
vt 0.17973415 0.11489435
vt 0.20000000 0.25000000
vt 0.35548059 0.25000000
vt 0.37973415 0.28156102
vt 0.40000000 0.41666667
vt 0.55548059 0.41666667
vt 0.57973415 0.44822768
vt 0.60000000 0.58333333
vt 0.75548059 0.58333333
vt 0.77973415 0.61489435
vt 0.80000000 0.75000000
vt 0.95548059 0.75000000
vt 0.97973415 0.78156102
vt 1.00000000 0.91666667
vt 1.00000000 1.00000000
vt 0.00000000 1.00000000
vt 1.00000000 1.00000000
vt 0.00000000 1.00000000
vt 0.00000000 0.00000000
vt 1.00000000 0.00000000
vt 1.00000000 1.00000000
vt 0.00000000 0.87612166
vt 0.30461912 0.00000000
vt 1.00000000 0.00000000
vt 0.06714942 0.47004595
vt 0.01823835 0.50640067
vt 0.00000000 0.92307692
vt 0.00000000 0.00000000
vt 1.00000000 0.00000000
vt 1.00000000 1.00000000
vt 0.14285714 1.00000000
vt 0.91772150 0.00000000
vt 1.00000000 1.00000000
vt 0.00000000 1.00000000
vt 0.62500000 0.35000000
vt 0.25000000 0.38568977
vt 0.25000000 1.00000000
vt 0.00000000 1.00000000
vt 0.00000000 0.00000000
vt 1.00000000 0.00000000
vt 1.00000000 0.10000000
vt 0.87500000 0.25000000
vt 1.00000000 0.92307692
vt 0.99399399 1.00000000
vt 0.33333333 1.00000000
vt 0.32287084 0.98430625
vt 0.31577597 1.00000000
vt 0.00000000 1.00000000
vt 0.00000000 0.00000000
vt 1.00000000 0.00000000
vt 0.00000000 0.19899518
vt 0.33124259 0.00000000
vt 0.42017292 0.59589645
vt 0.51841054 0.68856300
vt 0.52064639 0.68721980
vt 1.00000000 1.00000000
vt 0.00000000 1.00000000
vt 1.00000000 0.00000000
vt 0.99759139 0.06953739
vt 0.98972983 1.00000000
vt 0.00000000 1.00000000
vt 0.00000000 0.00000000
vt 0.99759139 0.98261640
vt 1.00000000 1.00000000
vt 0.00000000 1.00000000
vt 0.00000000 0.00000000
vt 0.96438112 0.00000000
vt 0.94042034 0.33575251
vt 0.92942127 0.38875553
vt 0.89848042 1.00000000
vt 0.00000000 1.00000000
vt 0.00000000 0.00000000
vt 1.00000000 0.00000000
vt 1.00000000 0.00000000
vt 0.99482860 1.00000000
vt 0.00000000 1.00000000
vt 0.00000000 0.00000000
vt 0.92461486 0.73760036
vt 1.00000000 1.00000000
vt 0.00000000 1.00000000
vt 0.00000000 0.00000000
vt 0.87126149 0.00000000
vt 1.00000000 0.00000000
vt 0.95146133 1.00000000
vt 0.00000000 1.00000000
vt 0.00000000 0.00000000
vt 1.00000000 0.00000000
vt 0.99858012 1.00000000
vt 0.00000000 1.00000000
vt 0.00000000 0.00000000
vt 1.00000000 1.00000000
vt 0.00000000 1.00000000
vt 0.00000000 0.00000000
vt 0.92112012 0.00000000
vt 1.00000000 0.00000000
vt 0.95001005 1.00000000
vt 0.00000000 1.00000000
vt 0.00000000 0.00000000
vt 1.00000000 0.00000000
vt 0.99853773 1.00000000
vt 0.00000000 1.00000000
vt 0.00000000 0.00000000
vt 0.94348886 0.00000000
vt 0.96237484 0.53683501
vt 1.00000000 1.00000000
vt 0.00000000 1.00000000
vt 0.00000000 0.00000000
vt 1.00000000 0.00000000
vt 0.94344790 1.00000000
vt 0.00000000 1.00000000
vt 0.00000000 0.00000000
vt 1.00000000 0.00000000
vt 0.99128237 1.00000000
vt 0.00000000 1.00000000
vt 0.00000000 0.00000000
vt 0.99987364 0.99219103
vt 1.00000000 1.00000000
vt 0.00000000 1.00000000
vt 0.00000000 0.00000000
vt 0.79176809 0.38501503
vt 1.00000000 0.00000000
vt 0.94510398 1.00000000
vt 0.00000000 1.00000000
vt 0.00000000 0.00000000
vt 0.00000000 0.00786865
vt 1.00000000 0.00000000
vt 1.00000000 1.00000000
vn 0.00000000 0.95782629 -0.28734789
vn 0.00000000 0.95782629 -0.28734789
vn 0.00000000 0.95782629 -0.28734789
vn 0.00000000 0.95782629 -0.28734789
vn 0.30414953 0.91244860 -0.27373458
vn 0.30414953 0.91244860 -0.27373458
vn 0.30414953 0.91244860 -0.27373458
vn 0.30414953 0.91244860 -0.27373458
vn 0.00000000 0.95782629 -0.28734789
vn 0.00000000 0.95782629 -0.28734789
vn 0.00000000 0.95782629 -0.28734789
vn 0.00000000 0.95782629 -0.28734789
vn 0.69171446 0.69171446 -0.20751434
vn 0.69171446 0.69171446 -0.20751434
vn 0.69171446 0.69171446 -0.20751434
vn 0.69171446 0.69171446 -0.20751434
vn 0.26343168 0.79029505 -0.55320654
vn 0.26343168 0.79029505 -0.55320654
vn 0.26343168 0.79029505 -0.55320654
vn 0.26343168 0.79029505 -0.55320654
vn 0.30414953 0.91244860 -0.27373458
vn 0.30414953 0.91244860 -0.27373458
vn 0.30414953 0.91244860 -0.27373458
vn 0.30414953 0.91244860 -0.27373458
vn 0.00000000 0.81923192 -0.57346234
vn 0.00000000 0.81923192 -0.57346234
vn 0.00000000 0.81923192 -0.57346234
vn 0.00000000 0.81923192 -0.57346234
vn -1.00000000 -0.00000000 0.00000000
vn -1.00000000 -0.00000000 0.00000000
vn -1.00000000 -0.00000000 0.00000000
vn -1.00000000 -0.00000000 0.00000000
vn -1.00000000 -0.00000000 0.00000000
vn -1.00000000 -0.00000000 0.00000000
vn 0.00000000 -0.00000000 1.00000000
vn 0.00000000 -0.00000000 1.00000000
vn 0.00000000 -0.00000000 1.00000000
vn 0.00000000 -0.00000000 1.00000000
vn 0.00000000 -0.00000000 1.00000000
vn 0.00000000 -0.00000000 1.00000000
vn 0.00000000 -0.00000000 1.00000000
vn 0.00000000 -0.00000000 1.00000000
vn 0.97050493 0.23091399 -0.06927420
vn 0.97050493 0.23091399 -0.06927420
vn 0.97050493 0.23091399 -0.06927420
vn 0.97050493 0.23091399 -0.06927420
vn 0.97050493 0.23091399 -0.06927420
vn 0.96031789 0.22849017 -0.15994312
vn 0.96031789 0.22849017 -0.15994312
vn 0.96031789 0.22849017 -0.15994312
vn 0.96031789 0.22849017 -0.15994312
vn 0.96031789 0.22849017 -0.15994312
vn 0.96031789 0.22849017 -0.15994312
vn 0.96031789 0.22849017 -0.15994312
vn 0.96031789 0.22849017 -0.15994312
vn 0.96031789 0.22849017 -0.15994312
vn 0.00000000 -1.00000000 0.00000000
vn 0.00000000 -1.00000000 0.00000000
vn 0.00000000 -1.00000000 0.00000000
vn 0.00000000 -1.00000000 0.00000000
vn 1.00000000 -0.00000000 0.00000000
vn 1.00000000 -0.00000000 0.00000000
vn 1.00000000 -0.00000000 0.00000000
vn 1.00000000 -0.00000000 0.00000000
vn 1.00000000 -0.00000000 0.00000000
vn 1.00000000 -0.00000000 0.00000000
vn 1.00000000 -0.00000000 0.00000000
vn 1.00000000 -0.00000000 0.00000000
vn 1.00000000 -0.00000000 0.00000000
vn 1.00000000 -0.00000000 0.00000000
vn 1.00000000 -0.00000000 0.00000000
vn 1.00000000 -0.00000000 0.00000000
vn 1.00000000 -0.00000000 0.00000000
vn 1.00000000 -0.00000000 0.00000000
vn 1.00000000 -0.00000000 0.00000000
vn 1.00000000 -0.00000000 0.00000000
vn 1.00000000 -0.00000000 0.00000000
vn 1.00000000 -0.00000000 0.00000000
vn 1.00000000 -0.00000000 0.00000000
vn 0.00000000 0.85749293 -0.51449576
vn 0.00000000 0.85749293 -0.51449576
vn 0.00000000 0.85749293 -0.51449576
vn 0.00000000 0.85749293 -0.51449576
vn 0.27482485 0.82447456 -0.49468474
vn 0.27482485 0.82447456 -0.49468474
vn 0.27482485 0.82447456 -0.49468474
vn 0.27482485 0.82447456 -0.49468474
vn 0.63372425 0.63372425 -0.44360698
vn 0.63372425 0.63372425 -0.44360698
vn 0.63372425 0.63372425 -0.44360698
vn 0.63372425 0.63372425 -0.44360698
vn 0.63372425 0.63372425 -0.44360698
vn 0.63372425 0.63372425 -0.44360698
vn 0.63372425 0.63372425 -0.44360698
vn 0.97050493 0.23091399 -0.06927420
vn 0.97050493 0.23091399 -0.06927420
vn 0.97050493 0.23091399 -0.06927420
vn -0.00000000 0.00000000 -1.00000000
vn -0.00000000 0.00000000 -1.00000000
vn -0.00000000 0.00000000 -1.00000000
vn -0.00000000 0.00000000 -1.00000000
vn -0.00000000 0.00000000 -1.00000000
vn -0.00000000 0.00000000 -1.00000000
vn -0.00000000 0.00000000 -1.00000000
vn -0.00000000 0.00000000 -1.00000000
vn 0.69171446 0.69171446 -0.20751434
vn 0.69171446 0.69171446 -0.20751434
vn 0.69171446 0.69171446 -0.20751434
vn 0.69171446 0.69171446 -0.20751434
vn 0.69171446 0.69171446 -0.20751434
vn 0.69171446 0.69171446 -0.20751434
vn 0.69171446 0.69171446 -0.20751434
vn 0.69171446 0.69171446 -0.20751434
vn 0.97050493 0.23091399 -0.06927420
vn 0.97050493 0.23091399 -0.06927420
vn 0.97050493 0.23091399 -0.06927420
vn 0.97050493 0.23091399 -0.06927420
vn 0.97050493 0.23091399 -0.06927420
vn 0.97050493 0.23091399 -0.06927420
vn 0.97050493 0.23091399 -0.06927420
vn -0.06821983 0.78636917 -0.61397849
vn -0.06821983 0.78636917 -0.61397849
vn -0.06821983 0.78636917 -0.61397849
vn -0.06821983 0.78636917 -0.61397849
vn -0.06821983 0.78636917 -0.61397849
vn 0.00000000 1.00000000 0.00000000
vn 0.00000000 1.00000000 0.00000000
vn 0.00000000 1.00000000 0.00000000
vn 0.00000000 1.00000000 0.00000000
vn 0.00000000 1.00000000 -0.00000000
vn -0.10717276 0.24113872 -0.96455488
vn -0.10717276 0.24113872 -0.96455488
vn -0.10717276 0.24113872 -0.96455488
vn -0.10717276 0.24113872 -0.96455488
vn -0.10717276 0.24113872 -0.96455488
vn -0.10717276 0.24113872 -0.96455488
vn -0.06821983 0.78636917 -0.61397849
vn -0.06821983 0.78636917 -0.61397849
vn -0.06821983 0.78636917 -0.61397849
vn -0.06821983 0.78636917 -0.61397849
vn 0.00000000 1.00000000 0.00000000
vn 0.00000000 1.00000000 0.00000000
vn 0.00000000 1.00000000 0.00000000
vn -0.00000000 1.00000000 -0.00000000
vn -0.00000000 1.00000000 0.00000000
vn -0.10717276 0.24113872 -0.96455488
vn -0.10717276 0.24113872 -0.96455488
vn -0.10717276 0.24113872 -0.96455488
vn -0.10717276 0.24113872 -0.96455488
vn -0.06821983 0.78636917 -0.61397849
vn -0.06821983 0.78636917 -0.61397849
vn -0.06821983 0.78636917 -0.61397849
vn -0.06821983 0.78636917 -0.61397849
vn 0.00000000 1.00000000 0.00000000
vn 0.00000000 1.00000000 0.00000000
vn 0.00000000 1.00000000 0.00000000
vn 0.00000000 1.00000000 0.00000000
vn -0.10717276 0.24113872 -0.96455488
vn -0.10717276 0.24113872 -0.96455488
vn -0.10717276 0.24113872 -0.96455488
vn -0.10717276 0.24113872 -0.96455488
vn -0.06821983 0.78636917 -0.61397849
vn -0.06821983 0.78636917 -0.61397849
vn -0.06821983 0.78636917 -0.61397849
vn -0.06821983 0.78636917 -0.61397849
vn -0.00000000 1.00000000 -0.00000000
vn -0.00000000 1.00000000 -0.00000000
vn 0.00000000 1.00000000 0.00000000
vn 0.00000000 1.00000000 0.00000000
vn -0.00000000 1.00000000 -0.00000000
vn -0.10717276 0.24113872 -0.96455488
vn -0.10717276 0.24113872 -0.96455488
vn -0.10717276 0.24113872 -0.96455488
vn -0.10717276 0.24113872 -0.96455488
vn -0.06821983 0.78636917 -0.61397849
vn -0.06821983 0.78636917 -0.61397849
vn -0.06821983 0.78636917 -0.61397849
vn -0.06821983 0.78636917 -0.61397849
vn 0.00000000 1.00000000 0.00000000
vn 0.00000000 1.00000000 0.00000000
vn 0.00000000 1.00000000 0.00000000
vn -0.00000000 1.00000000 -0.00000000
vn -0.00000000 1.00000000 -0.00000000
vn -0.10717276 0.24113872 -0.96455488
vn -0.10717276 0.24113872 -0.96455488
vn -0.10717276 0.24113872 -0.96455488
vn -0.10717276 0.24113872 -0.96455488
vn 0.00000000 1.00000000 0.00000000
vn 0.00000000 1.00000000 0.00000000
vn 0.00000000 1.00000000 0.00000000
s 1
usemtl Grass
f 1/1/1 2/2/2 3/3/3
f 1/1/1 3/3/3 4/4/4
s 2
f 5/5/5 6/6/6 8/8/8
f 6/6/6 7/7/7 8/8/8
s 3
f 6/9/9 9/10/10 7/12/12
f 9/10/10 10/11/11 7/12/12
s 4
f 11/13/13 5/14/14 12/16/16
f 5/14/14 8/15/15 12/16/16
s 5
f 13/17/17 3/18/18 5/20/20
f 3/18/18 6/19/19 5/20/20
s 6
f 3/21/21 13/22/22 4/24/24
f 13/22/22 14/23/23 4/24/24
s 7
f 3/25/25 2/26/26 6/28/28
f 2/26/26 9/27/27 6/28/28
s 8
f 2/32/32 1/31/31 16/30/30
f 2/32/32 16/30/30 15/29/29
f 15/29/29 10/34/34 9/33/33
f 15/29/29 9/33/33 2/32/32
s 9
usemtl Rock
f 12/40/40 8/39/39 7/38/38
f 18/41/41 12/40/40 15/36/36
f 15/36/36 17/35/35 18/41/41
f 17/35/35 19/42/42 18/41/41
f 12/40/40 10/37/37 15/36/36
f 12/40/40 7/38/38 10/37/37
s 10
usemtl Grass
f 22/45/45 21/44/44 20/43/43
f 24/47/47 22/45/45 20/43/43
f 24/47/47 23/46/46 22/45/45
s 11
f 11/54/54 30/53/53 29/52/52
f 31/55/55 11/54/54 26/49/49
f 28/51/51 27/50/50 26/49/49
f 26/49/49 25/48/48 31/55/55
f 25/48/48 32/56/56 31/55/55
f 11/54/54 28/51/51 26/49/49
f 11/54/54 29/52/52 28/51/51
s 12
usemtl Rock
f 33/60/60 17/59/59 16/57/57
f 17/59/59 15/58/58 16/57/57
s 13
f 36/64/64 35/63/63 34/62/62
f 17/79/79 34/62/62 19/61/61
f 17/79/79 40/68/68 37/65/65
f 40/68/68 38/66/66 37/65/65
f 40/68/68 39/67/67 38/66/66
f 43/71/71 41/69/69 40/68/68
f 46/74/74 44/72/72 43/71/71
f 46/74/74 45/73/73 44/72/72
f 33/78/78 49/77/77 46/74/74
f 49/77/77 48/76/76 47/75/75
f 49/77/77 47/75/75 46/74/74
f 43/71/71 42/70/70 41/69/69
f 17/79/79 43/71/71 40/68/68
f 17/79/79 46/74/74 43/71/71
f 17/79/79 33/78/78 46/74/74
f 17/79/79 37/65/65 34/62/62
f 37/65/65 36/64/64 34/62/62
s 14
usemtl Dirt
f 18/83/83 19/82/82 34/81/81
f 18/83/83 34/81/81 50/80/80
s 15
f 12/84/84 18/87/87 50/86/86
f 50/86/86 51/85/85 12/84/84
s 16
usemtl Grass
f 53/89/89 54/90/90 13/91/91
f 13/91/91 5/92/92 11/93/93
f 11/93/93 31/94/94 52/88/88
f 11/93/93 52/88/88 13/91/91
f 52/88/88 53/89/89 13/91/91
s 17
f 57/97/97 56/96/96 55/95/95
s 18
usemtl Rock
f 14/105/105 22/98/98 23/99/99
f 23/99/99 33/101/101 16/102/102
f 16/102/102 1/103/103 4/104/104
f 23/99/99 49/100/100 33/101/101
f 16/102/102 4/104/104 23/99/99
f 4/104/104 14/105/105 23/99/99
s 19
usemtl Grass
f 21/110/110 22/111/111 14/112/112
f 58/109/109 14/112/112 54/106/106
f 54/106/106 56/107/107 58/109/109
f 56/107/107 57/108/108 58/109/109
f 14/112/112 13/113/113 54/106/106
f 58/109/109 21/110/110 14/112/112
s 20
f 60/116/116 59/115/115 30/114/114
f 61/117/117 60/116/116 11/120/120
f 12/119/119 51/118/118 61/117/117
f 61/117/117 11/120/120 12/119/119
f 60/116/116 30/114/114 11/120/120
s 21
usemtl Rock
f 21/122/122 58/121/121 47/125/125
f 47/125/125 48/124/124 20/123/123
f 47/125/125 20/123/123 21/122/122
s 22
f 57/126/126 55/130/130 46/129/129
f 47/128/128 58/127/127 57/126/126
f 57/126/126 46/129/129 47/128/128
s 23
f 45/135/135 46/134/134 55/133/133
f 53/136/136 45/135/135 56/132/132
f 56/132/132 54/131/131 53/136/136
f 45/135/135 55/133/133 56/132/132
s 24
f 44/140/140 45/139/139 53/138/138
f 44/140/140 53/138/138 52/137/137
s 25
f 31/141/141 32/145/145 43/144/144
f 44/143/143 52/142/142 31/141/141
f 31/141/141 43/144/144 44/143/143
s 26
f 42/149/149 43/148/148 32/147/147
f 42/149/149 32/147/147 25/146/146
s 27
f 41/153/153 42/152/152 25/151/151
f 41/153/153 25/151/151 26/150/150
s 28
f 27/157/157 40/156/156 26/154/154
f 40/156/156 41/155/155 26/154/154
s 29
f 39/161/161 40/160/160 27/159/159
f 39/161/161 27/159/159 28/158/158
s 30
f 38/165/165 39/164/164 28/163/163
f 38/165/165 28/163/163 29/162/162
s 31
f 30/167/167 59/166/166 37/170/170
f 37/170/170 38/169/169 30/167/167
f 38/169/169 29/168/168 30/167/167
s 32
f 36/174/174 37/173/173 59/172/172
f 36/174/174 59/172/172 60/171/171
s 33
f 35/178/178 36/177/177 60/176/176
f 35/178/178 60/176/176 61/175/175
s 34
f 50/183/183 34/182/182 35/181/181
f 50/183/183 35/181/181 61/180/180
f 61/180/180 51/179/179 50/183/183
s 35
f 48/187/187 49/186/186 24/185/185
f 48/187/187 24/185/185 20/184/184
s 36
f 49/190/190 23/189/189 24/188/188
