mtllib Waterfall_Top.mtl
o object1
g object1
v -0.50000000 0.17500000 0.34844555
v -0.50000000 0.30310889 0.41250000
v -0.50000000 0.35000000 0.50000000
v -0.50000000 0.00000000 0.50000000
v -0.50000000 0.00000000 0.32500000
v 0.50000000 0.00000000 0.50000000
v 0.50000000 0.35000000 0.50000000
v 0.50000000 0.17500000 0.34844555
v 0.50000000 0.30310889 0.41250000
v 0.50000000 0.00000000 0.32500000
vt 0.86602540 0.50000000
vt 0.50000000 0.86602540
vt 0.00000000 1.00000000
vt 0.00000000 0.00000000
vt 1.00000000 0.00000000
vt 1.00000000 1.00000000
vt 0.00000000 1.00000000
vt 0.00000000 0.00000000
vt 1.00000000 0.00000000
vt 0.86602540 0.50000000
vt 0.50000000 0.86602540
vt 0.00000000 1.00000000
vt 0.00000000 0.00000000
vt 1.00000000 0.00000000
vt 1.00000000 1.00000000
vt 0.00000000 1.00000000
vt 0.00000000 0.00000000
vt 1.00000000 0.00000000
vt 1.00000000 1.00000000
vt 0.00000000 1.00000000
vt 0.00000000 0.00000000
vt 1.00000000 0.00000000
vt 1.00000000 1.00000000
vt 0.00000000 1.00000000
vt 0.00000000 0.00000000
vt 1.00000000 0.00000000
vt 1.00000000 1.00000000
vt 0.00000000 1.00000000
vt 0.00000000 0.00000000
vt 1.00000000 0.00000000
vn -1.00000000 0.00000000 -0.00000000
vn -1.00000000 0.00000000 -0.00000000
vn -1.00000000 0.00000000 -0.00000000
vn -1.00000000 0.00000000 -0.00000000
vn -1.00000000 0.00000000 -0.00000000
vn -0.00000000 0.00000000 1.00000000
vn -0.00000000 0.00000000 1.00000000
vn -0.00000000 0.00000000 1.00000000
vn -0.00000000 0.00000000 1.00000000
vn 1.00000000 -0.00000000 0.00000000
vn 1.00000000 -0.00000000 0.00000000
vn 1.00000000 -0.00000000 0.00000000
vn 1.00000000 -0.00000000 0.00000000
vn 1.00000000 -0.00000000 0.00000000
vn -0.00000000 -1.00000000 -0.00000000
vn -0.00000000 -1.00000000 -0.00000000
vn -0.00000000 -1.00000000 -0.00000000
vn -0.00000000 -1.00000000 -0.00000000
vn 0.00000000 0.13278818 -0.99114444
vn 0.00000000 0.13278818 -0.99114444
vn 0.00000000 0.13278818 -0.99114444
vn 0.00000000 0.13278818 -0.99114444
vn 0.00000000 0.44721360 -0.89442719
vn 0.00000000 0.44721360 -0.89442719
vn 0.00000000 0.44721360 -0.89442719
vn 0.00000000 0.44721360 -0.89442719
vn 0.00000000 0.88141242 -0.47234749
vn 0.00000000 0.88141242 -0.47234749
vn 0.00000000 0.88141242 -0.47234749
vn 0.00000000 0.88141242 -0.47234749
s 1
usemtl Water
f 3/3/3 2/2/2 1/1/1
f 1/1/1 5/5/5 4/4/4
f 4/4/4 3/3/3 1/1/1
s 2
f 4/6/6 6/7/7 3/9/9
f 6/7/7 7/8/8 3/9/9
s 3
f 8/10/10 9/11/11 7/12/12
f 8/10/10 7/12/12 6/13/13
f 6/13/13 10/14/14 8/10/10
s 4
f 5/15/15 10/16/16 6/17/17
f 5/15/15 6/17/17 4/18/18
s 5
f 1/19/19 8/20/20 5/22/22
f 8/20/20 10/21/21 5/22/22
s 6
f 2/23/23 9/24/24 1/26/26
f 9/24/24 8/25/25 1/26/26
s 7
f 3/27/27 7/28/28 9/29/29
f 3/27/27 9/29/29 2/30/30
