mtllib Grass_Flat.mtl
o object1
g object1
v 0.50000000 0.20000000 -0.50000000
v 0.50000000 0.00000000 -0.50000000
v -0.50000000 0.00000000 -0.50000000
v -0.50000000 0.20000000 -0.50000000
v 0.50000000 0.00000000 0.50000000
v 0.50000000 0.20000000 0.50000000
v -0.50000000 0.00000000 0.50000000
v -0.50000000 0.20000000 0.50000000
vt 0.00000000 1.00000000
vt 0.00000000 0.00000000
vt 1.00000000 0.00000000
vt 1.00000000 1.00000000
vt 0.00000000 1.00000000
vt 0.00000000 0.00000000
vt 1.00000000 0.00000000
vt 1.00000000 1.00000000
vt 0.00000000 1.00000000
vt 0.00000000 0.00000000
vt 1.00000000 0.00000000
vt 1.00000000 1.00000000
vt 0.00000000 1.00000000
vt 0.00000000 0.00000000
vt 1.00000000 0.00000000
vt 1.00000000 1.00000000
vt 0.00000000 1.00000000
vt 0.00000000 0.00000000
vt 1.00000000 0.00000000
vt 1.00000000 1.00000000
vt 0.00000000 1.00000000
vt 0.00000000 0.00000000
vt 1.00000000 0.00000000
vt 1.00000000 1.00000000
vn 0.00000000 0.00000000 -1.00000000
vn 0.00000000 0.00000000 -1.00000000
vn 0.00000000 0.00000000 -1.00000000
vn 0.00000000 0.00000000 -1.00000000
vn 1.00000000 0.00000000 0.00000000
vn 1.00000000 0.00000000 0.00000000
vn 1.00000000 0.00000000 0.00000000
vn 1.00000000 0.00000000 0.00000000
vn 0.00000000 0.00000000 1.00000000
vn 0.00000000 0.00000000 1.00000000
vn 0.00000000 0.00000000 1.00000000
vn 0.00000000 0.00000000 1.00000000
vn 0.00000000 1.00000000 0.00000000
vn 0.00000000 1.00000000 0.00000000
vn 0.00000000 1.00000000 0.00000000
vn 0.00000000 1.00000000 0.00000000
vn -1.00000000 0.00000000 0.00000000
vn -1.00000000 0.00000000 0.00000000
vn -1.00000000 0.00000000 0.00000000
vn -1.00000000 0.00000000 0.00000000
vn 0.00000000 -1.00000000 0.00000000
vn 0.00000000 -1.00000000 0.00000000
vn 0.00000000 -1.00000000 0.00000000
vn 0.00000000 -1.00000000 0.00000000
s 1
usemtl Grass
f 1/1/1 2/2/2 4/4/4
f 2/2/2 3/3/3 4/4/4
s 2
f 1/8/8 6/7/7 2/5/5
f 6/7/7 5/6/6 2/5/5
s 3
f 8/12/12 7/11/11 6/9/9
f 7/11/11 5/10/10 6/9/9
s 4
f 4/16/16 8/15/15 6/14/14
f 4/16/16 6/14/14 1/13/13
s 5
f 3/17/17 7/18/18 4/20/20
f 7/18/18 8/19/19 4/20/20
s 6
f 2/21/21 5/22/22 3/24/24
f 5/22/22 7/23/23 3/24/24
