mtllib Hill_Corner_Inner_2x2.mtl
o object1
g object1
v -1.50000000 -0.00000000 -0.50000000
v -1.50000000 1.20000000 -0.50000000
v -1.00000000 1.05000000 -0.50000000
v -0.00000000 0.35000000 -0.50000000
v 0.50000000 0.20000000 -0.50000000
v 0.50000000 0.00000000 -0.50000000
v -1.50000000 0.00000000 1.50000000
v -1.50000000 1.20000000 1.50000000
v -0.50000000 1.20000000 1.23205081
v 0.50000000 1.20000000 1.50000000
v -1.23205081 1.20000000 0.50000000
v -0.79903811 1.05000000 0.25000000
v -0.25000000 1.05000000 0.79903811
v 0.06698730 0.35000000 -0.25000000
v 0.25000000 0.35000000 -0.06698730
v 0.50000000 0.35000000 -0.00000000
v 0.50000000 1.05000000 1.00000000
v 0.50000000 0.00000000 1.50000000
vt 1.00000000 0.00000000
vt 1.00000000 1.00000000
vt 0.75000000 0.87500000
vt 0.25000000 0.29166667
vt 0.00000000 0.16666667
vt 0.00000000 0.00000000
vt 1.00000000 1.00000000
vt 0.00000000 1.00000000
vt 0.00000000 0.00000000
vt 1.00000000 0.00000000
vt 0.86602540 0.50000000
vt 1.00000000 0.00000000
vt 1.00000000 1.00000000
vt 0.00000000 1.00000000
vt 0.50000000 0.86602540
vt 0.00000000 0.25893554
vt 0.61774072 0.00000000
vt 1.00000000 0.98808594
vt 0.28669446 1.00000000
vt 0.81165484 1.00000000
vt 0.00000000 0.28367342
vt 0.06278172 0.00000000
vt 1.00000000 0.14897973
vt 0.81165484 1.00000000
vt 0.00000000 0.28367342
vt 0.06278172 0.00000000
vt 1.00000000 0.14897973
vt 0.00000000 0.00000000
vt 1.00000000 0.04601167
vt 0.86602540 1.00000000
vt 0.00000000 0.00000000
vt 1.00000000 0.04601167
vt 0.86602540 1.00000000
vt 0.00000000 0.25893554
vt 0.61774072 0.00000000
vt 1.00000000 0.98808594
vt 0.28669446 1.00000000
vt 1.00000000 1.00000000
vt 0.00000000 1.00000000
vt 0.00000000 0.00000000
vt 1.00000000 0.00000000
vt 0.00000000 1.00000000
vt 0.00000000 0.00000000
vt 1.00000000 0.00000000
vt 1.00000000 1.00000000
vt 1.00000000 0.00000000
vt 1.00000000 1.00000000
vt 0.75000000 0.87500000
vt 0.25000000 0.29166667
vt 0.00000000 0.16666667
vt 0.00000000 0.00000000
vt 0.00000000 0.00000000
vt 1.00000000 0.04601167
vt 0.86602540 1.00000000
vt 0.81165484 1.00000000
vt 0.00000000 0.28367342
vt 0.06278172 0.00000000
vt 1.00000000 0.14897973
vt 0.00000000 0.25893554
vt 0.61774072 0.00000000
vt 1.00000000 0.98808594
vt 0.28669446 1.00000000
vn -0.00000000 -0.00000000 -1.00000000
vn -0.00000000 -0.00000000 -1.00000000
vn -0.00000000 -0.00000000 -1.00000000
vn -0.00000000 -0.00000000 -1.00000000
vn -0.00000000 -0.00000000 -1.00000000
vn -0.00000000 -0.00000000 -1.00000000
vn -1.00000000 0.00000000 0.00000000
vn -1.00000000 0.00000000 -0.00000000
vn -1.00000000 0.00000000 -0.00000000
vn -1.00000000 0.00000000 0.00000000
vn 0.00000000 1.00000000 -0.00000000
vn 0.00000000 1.00000000 -0.00000000
vn 0.00000000 1.00000000 -0.00000000
vn 0.00000000 1.00000000 -0.00000000
vn 0.00000000 1.00000000 -0.00000000
vn 0.20973250 0.95499977 -0.20973250
vn 0.20973250 0.95499977 -0.20973250
vn 0.20973250 0.95499977 -0.20973250
vn 0.20973250 0.95499977 -0.20973250
vn 0.41493365 0.80972843 -0.41493365
vn 0.41493365 0.80972843 -0.41493365
vn 0.41493365 0.80972843 -0.41493365
vn 0.41493365 0.80972843 -0.41493365
vn 0.15187626 0.80972843 -0.56680990
vn 0.15187626 0.80972843 -0.56680990
vn 0.15187626 0.80972843 -0.56680990
vn 0.15187626 0.80972843 -0.56680990
vn 0.07676742 0.95499977 -0.28649993
vn 0.07676742 0.95499977 -0.28649993
vn 0.07676742 0.95499977 -0.28649993
vn 0.20973250 0.95499977 -0.20973250
vn 0.20973250 0.95499977 -0.20973250
vn 0.20973250 0.95499977 -0.20973250
vn 0.07676742 0.95499977 -0.28649993
vn 0.07676742 0.95499977 -0.28649993
vn 0.07676742 0.95499977 -0.28649993
vn 0.07676742 0.95499977 -0.28649993
vn 0.00000000 0.00000000 1.00000000
vn 0.00000000 0.00000000 1.00000000
vn 0.00000000 0.00000000 1.00000000
vn 0.00000000 0.00000000 1.00000000
vn -0.00000000 -1.00000000 0.00000000
vn -0.00000000 -1.00000000 0.00000000
vn -0.00000000 -1.00000000 0.00000000
vn -0.00000000 -1.00000000 0.00000000
vn 1.00000000 -0.00000000 0.00000000
vn 1.00000000 -0.00000000 0.00000000
vn 1.00000000 -0.00000000 0.00000000
vn 1.00000000 -0.00000000 0.00000000
vn 1.00000000 -0.00000000 0.00000000
vn 1.00000000 -0.00000000 0.00000000
vn 0.28649993 0.95499977 -0.07676742
vn 0.28649993 0.95499977 -0.07676742
vn 0.28649993 0.95499977 -0.07676742
vn 0.56680990 0.80972843 -0.15187626
vn 0.56680990 0.80972843 -0.15187626
vn 0.56680990 0.80972843 -0.15187626
vn 0.56680990 0.80972843 -0.15187626
vn 0.28649993 0.95499977 -0.07676742
vn 0.28649993 0.95499977 -0.07676742
vn 0.28649993 0.95499977 -0.07676742
vn 0.28649993 0.95499977 -0.07676742
s 1
usemtl Grass
f 4/4/4 5/5/5 6/6/6
f 1/1/1 4/4/4 6/6/6
f 1/1/1 2/2/2 3/3/3
f 1/1/1 3/3/3 4/4/4
s 2
f 2/7/7 1/8/8 8/10/10
f 1/8/8 7/9/9 8/10/10
s 3
f 11/15/15 2/14/14 8/13/13
f 8/13/13 10/12/12 9/11/11
f 9/11/11 11/15/15 8/13/13
s 4
f 13/19/19 12/16/16 11/17/17
f 11/17/17 9/18/18 13/19/19
s 5
f 15/22/22 14/21/21 12/20/20
f 13/23/23 15/22/22 12/20/20
s 6
f 16/26/26 15/25/25 13/24/24
f 17/27/27 16/26/26 13/24/24
s 7
f 15/30/30 16/29/29 5/28/28
s 8
f 14/33/33 15/32/32 5/31/31
s 9
f 17/37/37 13/34/34 9/35/35
f 9/35/35 10/36/36 17/37/37
s 10
f 8/38/38 7/39/39 18/40/40
f 8/38/38 18/40/40 10/41/41
s 11
f 1/42/42 6/43/43 18/44/44
f 1/42/42 18/44/44 7/45/45
s 12
f 6/51/51 5/50/50 16/49/49
f 16/49/49 17/48/48 18/46/46
f 17/48/48 10/47/47 18/46/46
f 6/51/51 16/49/49 18/46/46
s 13
f 4/54/54 14/53/53 5/52/52
s 14
f 14/57/57 4/56/56 3/55/55
f 12/58/58 14/57/57 3/55/55
s 15
f 11/61/61 12/62/62 3/59/59
f 3/59/59 2/60/60 11/61/61
