mtllib Hill_Side_Transition_From_Gentle.mtl
o object1
g object1
v 1.50000000 0.20000000 -3.50000000
v 1.50000000 -0.00000000 -3.50000000
v -0.50000000 -0.00000000 -3.50000000
v -0.50000000 0.20000000 -3.50000000
v 0.01763809 0.20000000 -3.50000000
v 0.50000000 0.20000000 -3.50000000
v 0.91421356 0.20000000 -3.50000000
v 1.23205081 0.20000000 -3.50000000
v 1.43185165 0.20000000 -3.50000000
v 1.31947922 0.35000000 -2.52477467
v 1.50000000 0.35000000 -2.50000000
v 1.09473435 1.05000000 -0.57432401
v 1.50000000 1.05000000 -0.50000000
v 0.98236191 1.20000000 0.40090132
v 1.50000000 1.20000000 0.50000000
v -0.43185165 1.20000000 -1.49414244
v -0.50000000 1.20000000 -1.50000000
v -0.50000000 1.20000000 0.50000000
v 0.50000000 1.20000000 0.00674080
v -0.00000000 1.20000000 -1.02312612
v -0.23205081 1.20000000 -1.38946900
v -0.04903811 1.05000000 -1.91710175
v -0.31947922 1.05000000 -1.99560683
v 0.31698730 0.35000000 -2.97236725
v -0.09473435 0.35000000 -2.99853561
v 0.13397460 0.70000000 -2.44473450
v -0.50000000 0.35000000 -3.00000000
v -0.50000000 1.05000000 -2.00000000
v 0.45710678 0.70000000 -2.26156306
v 0.68566017 0.35000000 -2.88078153
v 0.22855339 1.05000000 -1.64234459
v 0.86602540 0.70000000 -1.74662960
v 1.04903811 0.35000000 -2.62331480
v 0.68301270 1.05000000 -0.86994440
v 1.50000000 0.00000000 0.50000000
v -0.50000000 0.00000000 0.50000000
vt 0.00000000 1.00000000
vt 0.00000000 0.00000000
vt 1.00000000 0.00000000
vt 1.00000000 1.00000000
vt 0.86866315 1.00000000
vt 0.71236702 1.00000000
vt 0.53825368 1.00000000
vt 0.31277994 1.00000000
vt 0.14149456 1.00000000
vt 1.00000000 0.00000000
vt 1.00000000 1.00000000
vt 0.00000000 1.00000000
vt 0.00000000 0.00000000
vt 1.00000000 0.00000000
vt 1.00000000 1.00000000
vt 0.00000000 1.00000000
vt 0.00000000 0.00000000
vt 1.00000000 0.00000000
vt 1.00000000 1.00000000
vt 0.00000000 1.00000000
vt 0.00000000 0.00000000
vt 0.99707122 0.96592583
vt 1.00000000 1.00000000
vt 0.00000000 1.00000000
vt 0.00000000 0.00000000
vt 0.04954934 0.25881905
vt 0.24662960 0.50000000
vt 0.76156306 0.75000000
vt 0.94473450 0.86602540
vt 0.00000000 1.00000000
vt 0.00000000 0.00000000
vt 1.00000000 0.00000000
vt 1.00000000 1.00000000
vt 0.00000000 1.00000000
vt 0.00000000 0.00000000
vt 1.00000000 0.00000000
vt 1.00000000 1.00000000
vt 0.00000000 0.50000000
vt 0.00000000 1.00000000
vt 0.00000000 0.00000000
vt 1.00000000 0.00000000
vt 1.00000000 1.00000000
vt 0.00000000 0.50000000
vt 0.00000000 0.00000000
vt 1.00000000 0.00000000
vt 1.00000000 0.50000000
vt 1.00000000 1.00000000
vt 0.00000000 1.00000000
vt 0.00000000 0.50000000
vt 0.00000000 0.00000000
vt 1.00000000 0.00000000
vt 1.00000000 0.50000000
vt 1.00000000 1.00000000
vt 0.00000000 1.00000000
vt 0.00000000 1.00000000
vt 0.00000000 0.00000000
vt 1.00000000 0.00000000
vt 1.00000000 1.00000000
vt 0.00000000 1.00000000
vt 0.00000000 0.00000000
vt 1.00000000 0.00000000
vt 1.00000000 1.00000000
vt 0.00000000 1.00000000
vt 0.00000000 0.00000000
vt 1.00000000 0.00000000
vt 1.00000000 1.00000000
vt 0.00000000 1.00000000
vt 0.00000000 0.00000000
vt 1.00000000 0.00000000
vt 1.00000000 1.00000000
vt 0.00000000 1.00000000
vt 0.00000000 0.00000000
vt 1.00000000 0.00000000
vt 1.00000000 1.00000000
vt 0.00000000 1.00000000
vt 0.00000000 0.00000000
vt 1.00000000 0.00000000
vt 1.00000000 1.00000000
vt 1.00000000 0.50000000
vt 0.00000000 1.00000000
vt 0.00000000 0.00000000
vt 1.00000000 0.00000000
vt 1.00000000 1.00000000
vt 0.00000000 1.00000000
vt 0.00000000 0.00000000
vt 1.00000000 0.00000000
vt 1.00000000 1.00000000
vt 0.00000000 1.00000000
vt 0.00000000 0.00000000
vt 1.00000000 0.00000000
vt 1.00000000 1.00000000
vt 0.00000000 1.00000000
vt 0.00000000 0.00000000
vt 1.00000000 0.00000000
vt 1.00000000 1.00000000
vt 0.00000000 1.00000000
vt 0.00000000 0.00000000
vt 1.00000000 0.00000000
vt 1.00000000 1.00000000
vt 0.62500000 0.87500000
vt 0.50000000 1.00000000
vt 0.00000000 1.00000000
vt 0.00000000 0.00000000
vt 1.00000000 0.00000000
vt 1.00000000 0.16666667
vt 0.87500000 0.29166667
vt 0.75000000 0.29166667
vt 0.25000000 0.87500000
vt 0.00000000 1.00000000
vt 0.00000000 0.00000000
vt 1.00000000 0.00000000
vt 1.00000000 0.16666667
vt 0.00000000 1.00000000
vt 0.00000000 0.00000000
vt 1.00000000 0.00000000
vt 1.00000000 1.00000000
vn -0.00000000 -0.00000000 -1.00000000
vn -0.00000000 -0.00000000 -1.00000000
vn -0.00000000 -0.00000000 -1.00000000
vn -0.00000000 -0.00000000 -1.00000000
vn -0.00000000 -0.00000000 -1.00000000
vn -0.00000000 -0.00000000 -1.00000000
vn -0.00000000 -0.00000000 -1.00000000
vn -0.00000000 -0.00000000 -1.00000000
vn 0.00000000 -0.00000000 -1.00000000
vn -0.00000000 0.98837698 -0.15202286
vn 0.02054182 0.98852137 -0.14967810
vn 0.02035402 0.98873148 -0.14830972
vn -0.00000000 0.98893635 -0.14834045
vn 0.04567031 0.94189898 -0.33277700
vn 0.06069839 0.94168730 -0.33096939
vn 0.06047399 0.94213088 -0.32974581
vn 0.04529077 0.94288981 -0.33001143
vn 0.02730612 0.98847641 -0.14889175
vn 0.02847820 0.98846396 -0.14875478
vn 0.02838744 0.98853781 -0.14828067
vn 0.02719495 0.98857059 -0.14828559
vn -0.00000000 1.00000000 0.00000000
vn -0.00000000 1.00000000 0.00000000
vn -0.00000000 1.00000000 0.00000000
vn -0.00000000 1.00000000 0.00000000
vn -0.00000000 1.00000000 0.00000000
vn -0.00000000 1.00000000 0.00000000
vn -0.00000000 1.00000000 0.00000000
vn -0.00000000 1.00000000 0.00000000
vn 0.12162775 0.96504244 -0.23216327
vn 0.07240292 0.96568501 -0.24941988
vn 0.07825034 0.95979809 -0.26956357
vn 0.13424701 0.95724250 -0.25625092
vn 0.14818236 0.84703062 -0.51047147
vn 0.03458159 0.83831278 -0.54409171
vn 0.03600756 0.82325586 -0.56652736
vn 0.15713367 0.82601150 -0.54130769
vn 0.08150232 0.84334538 -0.53115529
vn 0.01387616 0.82139640 -0.57018893
vn 0.00207215 0.81923016 -0.57346111
vn 0.01395446 0.81915215 -0.57340651
vn 0.23340904 0.88089560 -0.41175618
vn 0.11348135 0.88229496 -0.45681242
vn 0.12840594 0.84636645 -0.51689047
vn 0.26500760 0.84333597 -0.46749910
vn 0.40139225 0.82123523 -0.40553292
vn 0.35407242 0.86409813 -0.35772495
vn 0.35486780 0.89143336 -0.28180738
vn 0.22668806 0.91991961 -0.31993818
vn 0.27826878 0.87654096 -0.39273709
vn 0.41289072 0.84971348 -0.32788451
vn 0.48704227 0.82502836 -0.28656245
vn 0.43303322 0.86461947 -0.25478500
vn 0.23231456 0.96144458 -0.14715389
vn 0.17038248 0.97022554 -0.17214011
vn 0.20076001 0.95841275 -0.20283101
vn 0.27429454 0.94581983 -0.17374507
vn 0.23769140 0.96446143 -0.11539908
vn 0.20828248 0.97036099 -0.12254776
vn 0.24275741 0.95951441 -0.14283187
vn 0.00000000 -0.00000000 1.00000000
vn 0.00000000 -0.00000000 1.00000000
vn 0.00000000 -0.00000000 1.00000000
vn 0.00000000 -0.00000000 1.00000000
vn 0.02419690 0.95925226 -0.28151306
vn 0.00693927 0.95845979 -0.28514325
vn 0.00699275 0.95780287 -0.28734086
vn 0.02469089 0.95753428 -0.28726028
vn 0.11302268 0.98391827 -0.13831379
vn 0.10047392 0.98505001 -0.13993382
vn 0.10508866 0.98363349 -0.14636093
vn 0.11736616 0.98264736 -0.14362921
vn 0.22035707 0.92588088 -0.30689958
vn 0.11783172 0.93890196 -0.32338644
vn 0.12573674 0.93011235 -0.34508157
vn 0.22922642 0.91952881 -0.31925227
vn 0.19036574 0.92477916 -0.32946074
vn 0.00000000 0.98567630 -0.16864827
vn 0.05712398 0.98598089 -0.15677545
vn -0.00000000 0.97189090 -0.23543167
vn 0.13243729 0.97340771 -0.18691653
vn 0.05373646 0.97484414 -0.21631294
vn -0.00000000 0.96188534 -0.27345308
vn 0.06277750 0.96550407 -0.25270708
vn -0.00000000 0.95805698 -0.28657777
vn 0.01797633 0.95900103 -0.28283187
vn -0.00000000 0.95782629 -0.28734789
vn 0.00103830 0.95782577 -0.28734773
vn -1.00000000 -0.00000000 0.00000000
vn -1.00000000 -0.00000000 0.00000000
vn -1.00000000 -0.00000000 0.00000000
vn -1.00000000 -0.00000000 0.00000000
vn -1.00000000 -0.00000000 0.00000000
vn -1.00000000 -0.00000000 0.00000000
vn -1.00000000 -0.00000000 0.00000000
vn 1.00000000 0.00000000 -0.00000000
vn 1.00000000 0.00000000 -0.00000000
vn 1.00000000 0.00000000 -0.00000000
vn 1.00000000 0.00000000 -0.00000000
vn 1.00000000 0.00000000 -0.00000000
vn 1.00000000 0.00000000 -0.00000000
vn 0.00000000 -1.00000000 0.00000000
vn 0.00000000 -1.00000000 0.00000000
vn 0.00000000 -1.00000000 0.00000000
vn 0.00000000 -1.00000000 0.00000000
s 1
usemtl Grass
f 9/9/9 1/1/1 2/2/2
f 6/6/6 2/2/2 3/3/3
f 3/3/3 4/4/4 5/5/5
f 3/3/3 5/5/5 6/6/6
f 6/6/6 7/7/7 2/2/2
f 7/7/7 8/8/8 2/2/2
f 8/8/8 9/9/9 2/2/2
s 2
f 9/10/10 10/11/11 1/13/13
f 10/11/11 11/12/12 1/13/13
f 9/81/10 8/82/78 33/83/79
f 8/85/78 7/86/80 30/87/81
f 30/88/82 7/89/80 6/90/83
f 24/92/84 6/93/83 5/94/85
f 25/96/86 5/97/85 4/98/87
f 25/96/86 4/98/87 27/99/88
f 24/92/84 5/94/85 25/95/86
f 30/88/82 6/90/83 24/91/84
f 33/84/79 8/85/78 30/87/81
f 10/80/11 9/81/10 33/83/79
s 3
f 10/14/14 12/15/15 11/17/17
f 12/15/15 13/16/16 11/17/17
s 4
f 12/18/18 14/19/19 13/21/21
f 14/19/19 15/20/20 13/21/21
s 5
f 20/28/28 21/29/29 16/22/22
f 19/27/27 20/28/28 18/24/24
f 18/24/24 15/25/25 14/26/26
f 14/26/26 19/27/27 18/24/24
f 20/28/28 17/23/23 18/24/24
f 20/28/28 16/22/22 17/23/23
s 6
f 21/30/30 22/31/31 16/33/33
f 22/31/31 23/32/32 16/33/33
s 7
f 23/37/37 22/34/34 26/38/38
f 26/38/38 24/35/35 25/36/36
f 23/39/39 25/40/36 27/41/40
f 23/39/39 27/41/40 28/42/41
f 26/38/38 25/36/36 23/37/37
s 8
f 29/43/42 30/44/43 26/46/45
f 30/44/43 24/45/44 26/46/45
f 22/47/46 31/48/47 29/43/42
f 26/46/45 22/47/46 29/43/42
s 9
f 32/49/48 33/50/49 29/52/51
f 33/50/49 30/51/50 29/52/51
f 31/53/52 34/54/53 32/49/48
f 29/52/51 31/53/52 32/49/48
s 10
f 20/55/54 31/56/55 21/58/57
f 31/56/55 22/57/56 21/58/57
f 34/60/59 31/61/60 20/62/54
f 19/59/58 34/60/59 20/62/54
s 11
f 15/66/64 18/65/63 35/63/61
f 18/65/63 36/64/62 35/63/61
s 12
f 16/67/65 23/68/66 28/69/67
f 16/67/65 28/69/67 17/70/68
s 13
f 14/71/69 12/72/70 19/74/72
f 12/72/70 34/73/71 19/74/72
s 14
f 10/76/74 33/77/75 32/79/77
f 32/79/77 34/78/76 12/75/73
f 12/75/73 10/76/74 32/79/77
s 15
f 27/106/95 4/105/94 3/104/93
f 3/104/93 36/103/92 17/101/90
f 36/103/92 18/102/91 17/101/90
f 27/106/95 3/104/93 17/101/90
f 17/101/90 28/100/89 27/106/95
s 16
f 2/111/100 1/112/101 11/107/96
f 11/107/96 13/108/97 35/110/99
f 13/108/97 15/109/98 35/110/99
f 11/107/96 35/110/99 2/111/100
s 17
f 3/116/105 2/115/104 35/114/103
f 3/116/105 35/114/103 36/113/102
