mtllib Hill_Side_On_Side.mtl
o object1
g object1
v 0.00000000 2.05000000 0.50000000
v 0.00000000 1.90000000 -0.00000000
v 1.00000000 1.20000000 -0.00000000
v 1.00000000 1.35000000 0.50000000
v 1.50000000 1.05000000 -0.00000000
v 1.50000000 1.20000000 0.50000000
v 1.50000000 0.00000000 0.50000000
v 1.50000000 -0.00000000 -1.50000000
v 1.50000000 0.20000000 -1.50000000
v 1.50000000 0.35000000 -1.00000000
v 1.00000000 0.50000000 -1.00000000
v 1.00000000 0.35000000 -1.50000000
v 0.00000000 1.20000000 -1.00000000
v 0.00000000 1.05000000 -1.50000000
v -0.50000000 1.35000000 -1.00000000
v -0.50000000 1.20000000 -1.50000000
v -0.50000000 2.05000000 -0.00000000
v -0.50000000 2.20000000 0.50000000
v -0.50000000 1.00000000 0.50000000
v -0.50000000 0.00000000 0.50000000
v -0.50000000 -0.00000000 -1.50000000
v -0.50000000 1.00000000 -1.50000000
vt 0.00000000 1.00000000
vt 0.00000000 0.00000000
vt 1.00000000 0.00000000
vt 1.00000000 1.00000000
vt 0.00000000 1.00000000
vt 0.00000000 0.00000000
vt 1.00000000 0.00000000
vt 1.00000000 1.00000000
vt 0.00000000 1.00000000
vt 0.00000000 0.00000000
vt 1.00000000 0.00000000
vt 1.00000000 0.16666667
vt 0.75000000 0.29166667
vt 0.25000000 0.87500000
vt 0.00000000 1.00000000
vt 0.00000000 0.00000000
vt 1.00000000 0.00000000
vt 1.00000000 1.00000000
vt 0.00000000 1.00000000
vt 0.00000000 0.00000000
vt 1.00000000 0.00000000
vt 1.00000000 1.00000000
vt 0.00000000 1.00000000
vt 0.00000000 0.00000000
vt 1.00000000 0.00000000
vt 1.00000000 1.00000000
vt 0.00000000 1.00000000
vt 0.00000000 0.00000000
vt 1.00000000 0.00000000
vt 1.00000000 1.00000000
vt 0.00000000 1.00000000
vt 0.00000000 0.45454545
vt 0.00000000 0.00000000
vt 1.00000000 0.00000000
vt 1.00000000 0.45454545
vt 1.00000000 0.54545455
vt 0.75000000 0.61363636
vt 0.25000000 0.93181818
vt 0.00000000 1.00000000
vt 0.00000000 0.00000000
vt 0.16666667 0.00000000
vt 0.29166667 0.25000000
vt 0.87500000 0.75000000
vt 1.00000000 1.00000000
vt 0.83333333 1.00000000
vt 0.00000000 1.00000000
vt 0.00000000 0.00000000
vt 1.00000000 0.00000000
vt 1.00000000 1.00000000
vt 0.00000000 1.00000000
vt 0.00000000 0.00000000
vt 1.00000000 0.00000000
vt 1.00000000 1.00000000
vt 0.00000000 1.00000000
vt 0.00000000 0.00000000
vt 1.00000000 0.00000000
vt 1.00000000 1.00000000
vt 0.00000000 1.00000000
vt 0.00000000 0.00000000
vt 1.00000000 0.00000000
vt 1.00000000 1.00000000
vt 0.45454545 0.00000000
vt 1.00000000 0.00000000
vt 0.93181818 0.25000000
vt 0.61363636 0.75000000
vt 0.54545455 1.00000000
vt 0.00000000 1.00000000
vt 0.00000000 0.00000000
vn 0.55689010 0.79555728 -0.23866719
vn 0.55689010 0.79555728 -0.23866719
vn 0.55689010 0.79555728 -0.23866719
vn 0.55689010 0.79555728 -0.23866719
vn 0.27617239 0.92057462 -0.27617239
vn 0.27617239 0.92057462 -0.27617239
vn 0.27617239 0.92057462 -0.27617239
vn 0.27617239 0.92057462 -0.27617239
vn 1.00000000 0.00000000 -0.00000000
vn 1.00000000 0.00000000 -0.00000000
vn 1.00000000 0.00000000 -0.00000000
vn 1.00000000 0.00000000 -0.00000000
vn 1.00000000 0.00000000 -0.00000000
vn 1.00000000 0.00000000 -0.00000000
vn 0.27617239 0.92057462 -0.27617239
vn 0.27617239 0.92057462 -0.27617239
vn 0.27617239 0.92057462 -0.27617239
vn 0.27617239 0.92057462 -0.27617239
vn 0.55689010 0.79555728 -0.23866719
vn 0.55689010 0.79555728 -0.23866719
vn 0.55689010 0.79555728 -0.23866719
vn 0.55689010 0.79555728 -0.23866719
vn 0.27617239 0.92057462 -0.27617239
vn 0.27617239 0.92057462 -0.27617239
vn 0.27617239 0.92057462 -0.27617239
vn 0.27617239 0.92057462 -0.27617239
vn 0.23866719 0.79555728 -0.55689010
vn 0.23866719 0.79555728 -0.55689010
vn 0.23866719 0.79555728 -0.55689010
vn 0.23866719 0.79555728 -0.55689010
vn -1.00000000 -0.00000000 0.00000000
vn -1.00000000 -0.00000000 0.00000000
vn -1.00000000 -0.00000000 0.00000000
vn -1.00000000 -0.00000000 0.00000000
vn -1.00000000 -0.00000000 0.00000000
vn -1.00000000 -0.00000000 0.00000000
vn -1.00000000 -0.00000000 0.00000000
vn -1.00000000 -0.00000000 0.00000000
vn -0.00000000 -0.00000000 -1.00000000
vn -0.00000000 -0.00000000 -1.00000000
vn -0.00000000 -0.00000000 -1.00000000
vn -0.00000000 -0.00000000 -1.00000000
vn -0.00000000 -0.00000000 -1.00000000
vn -0.00000000 -0.00000000 -1.00000000
vn -0.00000000 -0.00000000 -1.00000000
vn 0.00000000 -1.00000000 0.00000000
vn 0.00000000 -1.00000000 0.00000000
vn 0.00000000 -1.00000000 0.00000000
vn 0.00000000 -1.00000000 0.00000000
vn 0.23866719 0.79555728 -0.55689010
vn 0.23866719 0.79555728 -0.55689010
vn 0.23866719 0.79555728 -0.55689010
vn 0.23866719 0.79555728 -0.55689010
vn 0.49746834 0.71066905 -0.49746834
vn 0.49746834 0.71066905 -0.49746834
vn 0.49746834 0.71066905 -0.49746834
vn 0.49746834 0.71066905 -0.49746834
vn 0.27617239 0.92057462 -0.27617239
vn 0.27617239 0.92057462 -0.27617239
vn 0.27617239 0.92057462 -0.27617239
vn 0.27617239 0.92057462 -0.27617239
vn 0.00000000 0.00000000 1.00000000
vn 0.00000000 0.00000000 1.00000000
vn 0.00000000 0.00000000 1.00000000
vn 0.00000000 0.00000000 1.00000000
vn 0.00000000 0.00000000 1.00000000
vn 0.00000000 0.00000000 1.00000000
vn 0.00000000 0.00000000 1.00000000
s 1
usemtl Grass
f 4/4/4 3/3/3 2/2/2
f 4/4/4 2/2/2 1/1/1
s 2
f 6/8/8 5/7/7 3/6/6
f 6/8/8 3/6/6 4/5/5
s 3
f 8/11/11 9/12/12 10/13/13
f 10/13/13 5/14/14 7/10/10
f 5/14/14 6/9/9 7/10/10
f 7/10/10 8/11/11 10/13/13
s 4
f 10/18/18 9/17/17 12/16/16
f 10/18/18 12/16/16 11/15/15
s 5
f 11/22/22 12/21/21 14/20/20
f 11/22/22 14/20/20 13/19/19
s 6
f 13/26/26 14/25/25 16/24/24
f 13/26/26 16/24/24 15/23/23
s 7
f 2/30/30 13/29/29 15/28/28
f 2/30/30 15/28/28 17/27/27
s 8
f 15/37/37 16/36/36 22/35/35
f 15/37/37 21/34/34 20/33/33
f 20/33/33 19/32/32 15/37/37
f 19/32/32 18/31/31 17/38/38
f 19/32/32 17/38/38 15/37/37
f 15/37/37 22/35/35 21/34/34
s 9
f 22/45/45 16/44/44 14/43/43
f 21/39/39 14/43/43 12/42/42
f 12/42/42 9/41/41 8/40/40
f 12/42/42 8/40/40 21/39/39
f 21/39/39 22/45/45 14/43/43
s 10
f 21/49/49 8/48/48 7/47/47
f 21/49/49 7/47/47 20/46/46
s 11
f 5/53/53 10/52/52 11/51/51
f 5/53/53 11/51/51 3/50/50
s 12
f 3/57/57 11/56/56 13/55/55
f 3/57/57 13/55/55 2/54/54
s 13
f 1/61/61 2/60/60 17/59/59
f 1/61/61 17/59/59 18/58/58
s 14
f 1/64/64 18/63/63 19/62/62
f 4/65/65 19/62/62 20/68/68
f 20/68/68 7/67/67 4/65/65
f 7/67/67 6/66/66 4/65/65
f 4/65/65 1/64/64 19/62/62
