mtllib Path_Corner_Outer_3x3.mtl
o object1
g object1
v -2.50000000 0.00000000 2.50000000
v 0.50000000 0.00000000 2.50000000
v -0.02094453 0.00000000 2.45442326
v -0.52606043 0.00000000 2.31907786
v -1.00000000 0.00000000 2.09807621
v -1.42836283 0.00000000 1.79813333
v -1.79813333 0.00000000 1.42836283
v -2.09807621 0.00000000 1.00000000
v -2.31907786 0.00000000 0.52606043
v -2.45442326 0.00000000 0.02094453
v -2.50000000 0.00000000 -0.50000000
v -2.50000000 0.20000000 2.50000000
v 0.50000000 0.20000000 2.50000000
v -0.02094453 0.20000000 2.45442326
v -0.52606043 0.20000000 2.31907786
v -1.00000000 0.20000000 2.09807621
v -1.42836283 0.20000000 1.79813333
v -1.79813333 0.20000000 1.42836283
v -2.09807621 0.20000000 1.00000000
v -2.31907786 0.20000000 0.52606043
v -2.45442326 0.20000000 0.02094453
v -2.50000000 0.20000000 -0.50000000
v -1.41511111 0.00000000 1.10696902
v -1.10696902 0.00000000 1.41511111
v -1.53001777 0.05000000 1.20338717
v -1.20338717 0.05000000 1.53001777
v -1.60662222 0.15000000 1.26766593
v -1.26766593 0.15000000 1.60662222
v -1.72152889 0.20000000 1.36408407
v -1.36408407 0.20000000 1.72152889
v -1.66506351 0.00000000 0.75000000
v -1.79496732 0.05000000 0.82500000
v -1.88156986 0.15000000 0.87500000
v -2.01147367 0.20000000 0.95000000
v -0.75000000 0.00000000 1.66506351
v -0.82500000 0.05000000 1.79496732
v -0.87500000 0.15000000 1.88156986
v -0.95000000 0.20000000 2.01147367
v -0.35505036 0.00000000 1.84923155
v -0.40635338 0.05000000 1.99018545
v -0.44055539 0.15000000 2.08415471
v -0.49185842 0.20000000 2.22510860
v -1.84923155 0.00000000 0.35505036
v -1.99018545 0.05000000 0.40635338
v -2.08415471 0.15000000 0.44055539
v -2.22510860 0.20000000 0.49185842
v 0.06587956 0.00000000 1.96201938
v 0.03983233 0.05000000 2.10974055
v 0.02246751 0.15000000 2.20822132
v -0.00357972 0.20000000 2.35594248
v -1.96201938 0.00000000 -0.06587956
v -2.10974055 0.05000000 -0.03983233
v -2.20822132 0.15000000 -0.02246751
v -2.35594248 0.20000000 0.00357972
v 0.50000000 0.00000000 2.00000000
v 0.50000000 0.05000000 2.15000000
v 0.50000000 0.15000000 2.25000000
v 0.50000000 0.20000000 2.40000000
v -2.00000000 0.00000000 -0.50000000
v -2.15000000 0.05000000 -0.50000000
v -2.25000000 0.15000000 -0.50000000
v -2.40000000 0.20000000 -0.50000000
vt 0.00000000 1.00000000
vt 0.00000000 0.00000000
vt 0.01519225 0.17364818
vt 0.06030738 0.34202014
vt 0.13397460 0.50000000
vt 0.23395556 0.64278761
vt 0.35721239 0.76604444
vt 0.50000000 0.86602540
vt 0.65797986 0.93969262
vt 0.82635182 0.98480775
vt 1.00000000 1.00000000
vt 0.00000000 1.00000000
vt 0.00000000 0.00000000
vt 0.01519225 0.17364818
vt 0.06030738 0.34202014
vt 0.13397460 0.50000000
vt 0.23395556 0.64278761
vt 0.35721239 0.76604444
vt 0.50000000 0.86602540
vt 0.65797986 0.93969262
vt 0.82635182 0.98480775
vt 1.00000000 1.00000000
vt 0.00000000 1.00000000
vt 0.00000000 0.00000000
vt 1.00000000 0.00000000
vt 1.00000000 1.00000000
vt 0.00000000 1.00000000
vt 0.00000000 0.00000000
vt 1.00000000 0.00000000
vt 1.00000000 1.00000000
vt 0.00000000 1.00000000
vt 0.00000000 0.00000000
vt 1.00000000 0.00000000
vt 1.00000000 1.00000000
vt 0.00000000 1.00000000
vt 0.00000000 0.00000000
vt 1.00000000 0.00000000
vt 1.00000000 1.00000000
vt 0.00000000 1.00000000
vt 0.00000000 0.00000000
vt 1.00000000 0.00000000
vt 1.00000000 1.00000000
vt 0.00000000 1.00000000
vt 0.00000000 0.00000000
vt 1.00000000 0.00000000
vt 1.00000000 1.00000000
vt 0.00000000 1.00000000
vt 0.00000000 0.00000000
vt 1.00000000 0.00000000
vt 1.00000000 1.00000000
vt 0.00000000 1.00000000
vt 0.00000000 0.00000000
vt 1.00000000 0.00000000
vt 1.00000000 1.00000000
vt 0.00000000 1.00000000
vt 0.00000000 0.00000000
vt 1.00000000 0.00000000
vt 1.00000000 1.00000000
vt 0.00000000 1.00000000
vt 0.00000000 0.00000000
vt 1.00000000 0.00000000
vt 1.00000000 1.00000000
vt 0.00000000 1.00000000
vt 0.00000000 0.00000000
vt 1.00000000 0.00000000
vt 1.00000000 1.00000000
vt 0.00000000 1.00000000
vt 0.00000000 0.00000000
vt 1.00000000 0.00000000
vt 1.00000000 1.00000000
vt 0.00000000 1.00000000
vt 0.00000000 0.00000000
vt 1.00000000 0.00000000
vt 1.00000000 1.00000000
vt 0.00000000 1.00000000
vt 0.00000000 0.00000000
vt 1.00000000 0.00000000
vt 1.00000000 1.00000000
vt 0.00000000 1.00000000
vt 0.00000000 0.00000000
vt 1.00000000 0.00000000
vt 1.00000000 1.00000000
vt 0.00000000 1.00000000
vt 0.00000000 0.00000000
vt 1.00000000 0.00000000
vt 1.00000000 1.00000000
vt 0.00000000 1.00000000
vt 0.00000000 0.00000000
vt 1.00000000 0.00000000
vt 1.00000000 1.00000000
vt 0.00000000 1.00000000
vt 0.00000000 0.00000000
vt 1.00000000 0.00000000
vt 1.00000000 1.00000000
vt 0.00000000 1.00000000
vt 0.00000000 0.00000000
vt 1.00000000 0.00000000
vt 1.00000000 1.00000000
vt 0.00000000 1.00000000
vt 0.00000000 0.00000000
vt 1.00000000 0.00000000
vt 1.00000000 1.00000000
vt 0.00000000 1.00000000
vt 0.00000000 0.00000000
vt 1.00000000 0.00000000
vt 1.00000000 1.00000000
vt 0.00000000 1.00000000
vt 0.00000000 0.00000000
vt 1.00000000 0.00000000
vt 1.00000000 1.00000000
vt 0.00000000 1.00000000
vt 0.00000000 0.00000000
vt 1.00000000 0.00000000
vt 1.00000000 1.00000000
vt 0.00000000 1.00000000
vt 0.00000000 0.00000000
vt 1.00000000 0.00000000
vt 1.00000000 1.00000000
vt 0.00000000 1.00000000
vt 0.00000000 0.00000000
vt 1.00000000 0.00000000
vt 1.00000000 1.00000000
vt 0.00000000 1.00000000
vt 0.00000000 0.00000000
vt 1.00000000 0.00000000
vt 1.00000000 1.00000000
vt 0.00000000 1.00000000
vt 0.00000000 0.00000000
vt 1.00000000 0.00000000
vt 1.00000000 1.00000000
vt 0.00000000 1.00000000
vt 0.00000000 0.00000000
vt 1.00000000 0.00000000
vt 1.00000000 1.00000000
vt 0.00000000 1.00000000
vt 0.00000000 0.00000000
vt 1.00000000 0.00000000
vt 1.00000000 1.00000000
vt 0.00000000 1.00000000
vt 0.00000000 0.00000000
vt 1.00000000 0.00000000
vt 1.00000000 1.00000000
vt 0.00000000 1.00000000
vt 0.00000000 0.00000000
vt 1.00000000 0.00000000
vt 1.00000000 1.00000000
vt 0.00000000 1.00000000
vt 0.00000000 0.00000000
vt 1.00000000 0.00000000
vt 1.00000000 1.00000000
vt 0.00000000 1.00000000
vt 0.00000000 0.00000000
vt 1.00000000 0.00000000
vt 1.00000000 1.00000000
vt 0.00000000 1.00000000
vt 0.00000000 0.00000000
vt 1.00000000 0.00000000
vt 1.00000000 1.00000000
vt 0.00000000 1.00000000
vt 0.00000000 0.00000000
vt 1.00000000 0.00000000
vt 1.00000000 1.00000000
vt 0.00000000 1.00000000
vt 0.00000000 0.00000000
vt 1.00000000 0.00000000
vt 1.00000000 1.00000000
vt 0.00000000 1.00000000
vt 0.00000000 0.00000000
vt 1.00000000 0.00000000
vt 1.00000000 1.00000000
vt 0.00000000 1.00000000
vt 0.00000000 0.00000000
vt 1.00000000 0.00000000
vt 1.00000000 1.00000000
vt 0.00000000 1.00000000
vt 0.00000000 0.00000000
vt 1.00000000 0.00000000
vt 1.00000000 1.00000000
vt 0.00000000 1.00000000
vt 0.00000000 0.00000000
vt 1.00000000 0.00000000
vt 1.00000000 1.00000000
vt 0.00000000 1.00000000
vt 0.00000000 0.00000000
vt 1.00000000 0.00000000
vt 1.00000000 1.00000000
vt 0.00000000 1.00000000
vt 0.00000000 0.00000000
vt 1.00000000 0.00000000
vt 1.00000000 1.00000000
vt 0.50000000 0.75000000
vt 0.20000000 1.00000000
vt 0.00000000 1.00000000
vt 0.00000000 0.00000000
vt 1.00000000 0.00000000
vt 0.70000000 0.25000000
vt 0.00000000 1.00000000
vt 0.00000000 0.00000000
vt 1.00000000 0.00000000
vt 1.00000000 1.00000000
vt 0.00000000 1.00000000
vt 0.00000000 0.00000000
vt 1.00000000 0.00000000
vt 1.00000000 1.00000000
vt 0.00000000 1.00000000
vt 0.00000000 0.00000000
vt 1.00000000 0.00000000
vt 1.00000000 1.00000000
vt 0.00000000 1.00000000
vt 0.00000000 0.00000000
vt 1.00000000 0.00000000
vt 1.00000000 1.00000000
vt 0.00000000 1.00000000
vt 0.00000000 0.00000000
vt 1.00000000 0.00000000
vt 1.00000000 1.00000000
vt 0.75000000 0.50000000
vt 1.00000000 0.80000000
vt 1.00000000 1.00000000
vt 0.00000000 1.00000000
vt 0.00000000 0.00000000
vt 0.25000000 0.30000000
vn 0.00000000 -1.00000000 0.00000000
vn 0.00000000 -1.00000000 0.00000000
vn 0.00000000 -1.00000000 0.00000000
vn 0.00000000 -1.00000000 0.00000000
vn 0.00000000 -1.00000000 0.00000000
vn 0.00000000 -1.00000000 0.00000000
vn 0.00000000 -1.00000000 0.00000000
vn 0.00000000 -1.00000000 0.00000000
vn 0.00000000 -1.00000000 0.00000000
vn 0.00000000 -1.00000000 0.00000000
vn 0.00000000 -1.00000000 0.00000000
vn -0.00000000 1.00000000 0.00000000
vn -0.00000000 1.00000000 0.00000000
vn -0.00000000 1.00000000 0.00000000
vn -0.00000000 1.00000000 0.00000000
vn -0.00000000 1.00000000 0.00000000
vn -0.00000000 1.00000000 0.00000000
vn 0.00000000 1.00000000 0.00000000
vn 0.00000000 1.00000000 0.00000000
vn 0.00000000 1.00000000 0.00000000
vn -0.00000000 1.00000000 0.00000000
vn -0.00000000 1.00000000 0.00000000
vn 0.00000000 0.00000000 1.00000000
vn 0.00000000 0.00000000 1.00000000
vn 0.00000000 0.00000000 1.00000000
vn 0.00000000 0.00000000 1.00000000
vn -1.00000000 0.00000000 0.00000000
vn -1.00000000 0.00000000 0.00000000
vn -1.00000000 0.00000000 0.00000000
vn -1.00000000 0.00000000 0.00000000
vn 0.00000000 -1.00000000 0.00000000
vn 0.00000000 -1.00000000 0.00000000
vn 0.22437508 0.94832043 -0.22437508
vn 0.22437508 0.94832043 -0.22437508
vn 0.22437508 0.94832043 -0.22437508
vn 0.22437508 0.94832043 -0.22437508
vn 0.50095223 0.70575756 -0.50095223
vn 0.50095223 0.70575756 -0.50095223
vn 0.50095223 0.70575756 -0.50095223
vn 0.50095223 0.70575756 -0.50095223
vn 0.22437508 0.94832043 -0.22437508
vn 0.22437508 0.94832043 -0.22437508
vn 0.22437508 0.94832043 -0.22437508
vn 0.22437508 0.94832043 -0.22437508
vn -0.00000000 1.00000000 0.00000000
vn -0.00000000 1.00000000 0.00000000
vn 0.00000000 -1.00000000 0.00000000
vn 0.25992865 0.94832043 -0.18200400
vn 0.25992865 0.94832043 -0.18200400
vn 0.25992865 0.94832043 -0.18200400
vn 0.25992865 0.94832043 -0.18200400
vn 0.58033108 0.70575756 -0.40635220
vn 0.58033108 0.70575756 -0.40635220
vn 0.58033108 0.70575756 -0.40635220
vn 0.58033108 0.70575756 -0.40635220
vn 0.25992865 0.94832043 -0.18200400
vn 0.25992865 0.94832043 -0.18200400
vn 0.25992865 0.94832043 -0.18200400
vn 0.25992865 0.94832043 -0.18200400
vn -0.00000000 1.00000000 0.00000000
vn 0.00000000 -1.00000000 0.00000000
vn 0.18200400 0.94832043 -0.25992865
vn 0.18200400 0.94832043 -0.25992865
vn 0.18200400 0.94832043 -0.25992865
vn 0.18200400 0.94832043 -0.25992865
vn 0.40635220 0.70575756 -0.58033108
vn 0.40635220 0.70575756 -0.58033108
vn 0.40635220 0.70575756 -0.58033108
vn 0.40635220 0.70575756 -0.58033108
vn 0.18200400 0.94832043 -0.25992865
vn 0.18200400 0.94832043 -0.25992865
vn 0.18200400 0.94832043 -0.25992865
vn 0.18200400 0.94832043 -0.25992865
vn -0.00000000 1.00000000 0.00000000
vn 0.00000000 -1.00000000 0.00000000
vn 0.13410281 0.94832043 -0.28758441
vn 0.13410281 0.94832043 -0.28758441
vn 0.13410281 0.94832043 -0.28758441
vn 0.13410281 0.94832043 -0.28758441
vn 0.29940536 0.70575756 -0.64207687
vn 0.29940536 0.70575756 -0.64207687
vn 0.29940536 0.70575756 -0.64207687
vn 0.29940536 0.70575756 -0.64207687
vn 0.13410281 0.94832043 -0.28758441
vn 0.13410281 0.94832043 -0.28758441
vn 0.13410281 0.94832043 -0.28758441
vn 0.13410281 0.94832043 -0.28758441
vn -0.00000000 1.00000000 0.00000000
vn 0.00000000 -1.00000000 0.00000000
vn 0.28758441 0.94832043 -0.13410281
vn 0.28758441 0.94832043 -0.13410281
vn 0.28758441 0.94832043 -0.13410281
vn 0.28758441 0.94832043 -0.13410281
vn 0.64207687 0.70575756 -0.29940536
vn 0.64207687 0.70575756 -0.29940536
vn 0.64207687 0.70575756 -0.29940536
vn 0.64207687 0.70575756 -0.29940536
vn 0.28758441 0.94832043 -0.13410281
vn 0.28758441 0.94832043 -0.13410281
vn 0.28758441 0.94832043 -0.13410281
vn 0.28758441 0.94832043 -0.13410281
vn -0.00000000 1.00000000 0.00000000
vn 0.00000000 -1.00000000 0.00000000
vn 0.08212698 0.94832043 -0.30650207
vn 0.08212698 0.94832043 -0.30650207
vn 0.08212698 0.94832043 -0.30650207
vn 0.08212698 0.94832043 -0.30650207
vn 0.18336124 0.70575756 -0.68431347
vn 0.18336124 0.70575756 -0.68431347
vn 0.18336124 0.70575756 -0.68431347
vn 0.18336124 0.70575756 -0.68431347
vn 0.08212698 0.94832043 -0.30650207
vn 0.08212698 0.94832043 -0.30650207
vn 0.08212698 0.94832043 -0.30650207
vn 0.08212698 0.94832043 -0.30650207
vn -0.00000000 1.00000000 0.00000000
vn 0.00000000 -1.00000000 0.00000000
vn 0.30650207 0.94832043 -0.08212698
vn 0.30650207 0.94832043 -0.08212698
vn 0.30650207 0.94832043 -0.08212698
vn 0.30650207 0.94832043 -0.08212698
vn 0.68431347 0.70575756 -0.18336124
vn 0.68431347 0.70575756 -0.18336124
vn 0.68431347 0.70575756 -0.18336124
vn 0.68431347 0.70575756 -0.18336124
vn 0.30650207 0.94832043 -0.08212698
vn 0.30650207 0.94832043 -0.08212698
vn 0.30650207 0.94832043 -0.08212698
vn 0.30650207 0.94832043 -0.08212698
vn -0.00000000 1.00000000 0.00000000
vn 0.00000000 -1.00000000 0.00000000
vn 0.02765576 0.94832043 -0.31610681
vn 0.02765576 0.94832043 -0.31610681
vn 0.02765576 0.94832043 -0.31610681
vn 0.02765576 0.94832043 -0.31610681
vn 0.06174579 0.70575756 -0.70575756
vn 0.06174579 0.70575756 -0.70575756
vn 0.06174579 0.70575756 -0.70575756
vn 0.06174579 0.70575756 -0.70575756
vn 0.02765576 0.94832043 -0.31610681
vn 0.02765576 0.94832043 -0.31610681
vn 0.02765576 0.94832043 -0.31610681
vn 0.02765576 0.94832043 -0.31610681
vn -0.00000000 1.00000000 0.00000000
vn 1.00000000 0.00000000 0.00000000
vn 1.00000000 0.00000000 0.00000000
vn 1.00000000 0.00000000 0.00000000
vn 1.00000000 0.00000000 0.00000000
vn 1.00000000 0.00000000 0.00000000
vn 1.00000000 0.00000000 0.00000000
vn 0.00000000 -1.00000000 0.00000000
vn 0.31610681 0.94832043 -0.02765576
vn 0.31610681 0.94832043 -0.02765576
vn 0.31610681 0.94832043 -0.02765576
vn 0.31610681 0.94832043 -0.02765576
vn 0.70575756 0.70575756 -0.06174579
vn 0.70575756 0.70575756 -0.06174579
vn 0.70575756 0.70575756 -0.06174579
vn 0.70575756 0.70575756 -0.06174579
vn 0.31610681 0.94832043 -0.02765576
vn 0.31610681 0.94832043 -0.02765576
vn 0.31610681 0.94832043 -0.02765576
vn 0.31610681 0.94832043 -0.02765576
vn -0.00000000 1.00000000 0.00000000
vn 0.00000000 0.00000000 -1.00000000
vn 0.00000000 0.00000000 -1.00000000
vn 0.00000000 0.00000000 -1.00000000
vn 0.00000000 0.00000000 -1.00000000
vn 0.00000000 0.00000000 -1.00000000
vn 0.00000000 0.00000000 -1.00000000
s 1
usemtl Grass
f 1/1/1 11/11/11 10/10/10
f 51/200/117 10/199/10 59/197/151
f 43/154/89 9/153/9 51/151/117
f 8/113/8 9/112/9 43/111/89
f 7/53/7 8/52/8 31/51/47
f 23/54/31 7/53/7 31/51/47
f 24/34/32 6/33/6 23/31/31
f 5/73/5 6/72/6 24/71/32
f 4/93/4 5/92/5 35/91/61
f 3/133/3 4/132/4 39/131/75
f 2/173/2 3/172/3 47/171/103
f 55/174/131 2/173/2 47/171/103
f 47/134/103 3/133/3 39/131/75
f 39/94/75 4/93/4 35/91/61
f 35/74/61 5/73/5 24/71/32
f 6/33/6 7/32/7 23/31/31
f 31/114/47 8/113/8 43/111/89
f 9/153/9 10/152/10 51/151/117
f 10/199/10 11/198/11 59/197/151
f 3/3/3 2/2/2 1/1/1
f 1/1/1 4/4/4 3/3/3
f 1/1/1 5/5/5 4/4/4
f 1/1/1 6/6/6 5/5/5
f 1/1/1 7/7/7 6/6/6
f 1/1/1 8/8/8 7/7/7
f 1/1/1 9/9/9 8/8/8
f 1/1/1 10/10/10 9/9/9
s 2
f 21/21/21 22/22/22 12/12/12
f 12/12/12 13/13/13 14/14/14
f 58/189/144 50/188/116 14/187/14
f 14/150/14 42/148/88 15/147/15
f 15/110/15 38/108/74 16/107/16
f 16/90/16 30/88/46 17/87/17
f 17/50/17 29/48/45 18/47/18
f 18/70/18 34/68/60 19/67/19
f 19/130/19 46/128/102 20/127/20
f 20/170/20 46/169/102 54/168/130
f 19/130/19 34/129/60 46/128/102
f 18/70/18 29/69/45 34/68/60
f 17/50/17 30/49/46 29/48/45
f 16/90/16 38/89/74 30/88/46
f 15/110/15 42/109/88 38/108/74
f 14/150/14 50/149/116 42/148/88
f 13/190/13 58/189/144 14/187/14
f 14/14/14 15/15/15 12/12/12
f 15/15/15 16/16/16 12/12/12
f 16/16/16 17/17/17 12/12/12
f 17/17/17 18/18/18 12/12/12
f 18/18/18 19/19/19 12/12/12
f 19/19/19 20/20/20 12/12/12
f 21/216/21 62/214/164 22/213/22
f 21/216/21 54/215/130 62/214/164
f 20/170/20 54/168/130 21/167/21
f 20/20/20 21/21/21 12/12/12
s 3
f 13/26/26 12/25/25 2/23/23
f 12/25/25 1/24/24 2/23/23
s 4
f 12/30/30 22/29/29 1/27/27
f 22/29/29 11/28/28 1/27/27
s 5
usemtl Dirt
f 26/38/36 24/37/35 23/36/34
f 26/38/36 23/36/34 25/35/33
s 6
usemtl Grass
f 28/42/40 26/41/39 25/40/38
f 28/42/40 25/40/38 27/39/37
s 7
f 30/46/44 28/45/43 27/44/42
f 30/46/44 27/44/42 29/43/41
s 8
usemtl Dirt
f 25/58/51 23/57/50 31/56/49
f 25/58/51 31/56/49 32/55/48
s 9
usemtl Grass
f 27/62/55 25/61/54 32/60/53
f 27/62/55 32/60/53 33/59/52
s 10
f 29/66/59 27/65/58 33/64/57
f 29/66/59 33/64/57 34/63/56
s 11
usemtl Dirt
f 36/78/65 35/77/64 24/76/63
f 36/78/65 24/76/63 26/75/62
s 12
usemtl Grass
f 37/82/69 36/81/68 26/80/67
f 37/82/69 26/80/67 28/79/66
s 13
f 38/86/73 37/85/72 28/84/71
f 38/86/73 28/84/71 30/83/70
s 14
usemtl Dirt
f 40/98/79 39/97/78 35/96/77
f 40/98/79 35/96/77 36/95/76
s 15
usemtl Grass
f 41/102/83 40/101/82 36/100/81
f 41/102/83 36/100/81 37/99/80
s 16
f 42/106/87 41/105/86 37/104/85
f 42/106/87 37/104/85 38/103/84
s 17
usemtl Dirt
f 32/118/93 31/117/92 43/116/91
f 32/118/93 43/116/91 44/115/90
s 18
usemtl Grass
f 33/122/97 32/121/96 44/120/95
f 33/122/97 44/120/95 45/119/94
s 19
f 34/126/101 33/125/100 45/124/99
f 34/126/101 45/124/99 46/123/98
s 20
usemtl Dirt
f 48/138/107 47/137/106 40/135/104
f 47/137/106 39/136/105 40/135/104
s 21
usemtl Grass
f 49/142/111 48/141/110 40/140/109
f 49/142/111 40/140/109 41/139/108
s 22
f 50/146/115 49/145/114 42/143/112
f 49/145/114 41/144/113 42/143/112
s 23
usemtl Dirt
f 44/158/121 43/157/120 51/156/119
f 44/158/121 51/156/119 52/155/118
s 24
usemtl Grass
f 45/162/125 44/161/124 52/160/123
f 45/162/125 52/160/123 53/159/122
s 25
f 46/166/129 45/165/128 53/164/127
f 46/166/129 53/164/127 54/163/126
s 26
usemtl Dirt
f 56/178/135 55/177/134 48/175/132
f 55/177/134 47/176/133 48/175/132
s 27
usemtl Grass
f 57/182/139 56/181/138 49/179/136
f 56/181/138 48/180/137 49/179/136
s 28
f 58/186/143 57/185/142 50/183/140
f 57/185/142 49/184/141 50/183/140
s 29
f 58/192/146 13/193/147 2/194/148
f 2/194/148 55/195/149 56/196/150
f 56/196/150 58/192/146 2/194/148
f 56/196/150 57/191/145 58/192/146
s 30
usemtl Dirt
f 52/204/155 51/203/154 59/202/153
f 52/204/155 59/202/153 60/201/152
s 31
usemtl Grass
f 53/208/159 52/207/158 60/206/157
f 53/208/159 60/206/157 61/205/156
s 32
f 54/212/163 53/211/162 61/210/161
f 54/212/163 61/210/161 62/209/160
s 33
f 11/220/168 22/219/167 62/218/166
f 62/218/166 61/217/165 60/222/170
f 60/222/170 59/221/169 11/220/168
f 11/220/168 62/218/166 60/222/170
