mtllib Path_Corner_Y_3x3.mtl
o object1
g object1
v -0.50000000 0.00000000 1.50000000
v -0.50000000 0.00000000 0.00000000
v -0.50000000 0.05000000 0.15000000
v -0.50000000 0.15000000 0.25000000
v -0.50000000 0.20000000 0.40000000
v -0.50000000 0.20000000 1.50000000
v -0.10974055 0.05000000 1.03983233
v 0.00981455 0.05000000 0.59364662
v 0.15076845 0.00000000 0.64494964
v 0.03798062 0.00000000 1.06587956
v -0.15000000 0.05000000 1.50000000
v 0.00000000 0.00000000 1.50000000
v -0.25000000 0.15000000 1.50000000
v -0.20822132 0.15000000 1.02246751
v -0.40000000 0.20000000 1.50000000
v -0.35594248 0.20000000 0.99642028
v -0.22510860 0.20000000 0.50814158
v -0.08415471 0.15000000 0.55944461
v -0.17468135 0.20000000 0.40000000
v 0.06014168 0.15000000 0.25000000
v 0.19059892 0.06666667 0.16666667
v 0.20503268 0.05000000 0.17500000
v 0.33493649 0.00000000 0.25000000
v 0.50000000 0.00000000 0.01426488
v 0.50000000 0.00000000 0.00000000
v 0.22253787 0.05000000 0.15000000
v 0.50000000 0.00173741 0.00521222
vt 0.00000000 1.00000000
vt 0.00000000 0.00000000
vt 0.25000000 0.10000000
vt 0.75000000 0.16666667
vt 1.00000000 0.26666667
vt 1.00000000 1.00000000
vt 1.00000000 1.00000000
vt 0.00000000 1.00000000
vt 0.00000000 0.00000000
vt 1.00000000 0.00000000
vt 1.00000000 1.00000000
vt 0.00000000 1.00000000
vt 0.00000000 0.00000000
vt 1.00000000 0.00000000
vt 1.00000000 1.00000000
vt 0.00000000 1.00000000
vt 0.00000000 0.00000000
vt 1.00000000 0.00000000
vt 1.00000000 1.00000000
vt 0.00000000 1.00000000
vt 0.00000000 0.00000000
vt 1.00000000 0.00000000
vt 1.00000000 1.00000000
vt 0.00000000 1.00000000
vt 0.00000000 0.00000000
vt 1.00000000 0.00000000
vt 1.00000000 0.00000000
vt 1.00000000 1.00000000
vt 0.66860610 1.00000000
vt 0.00000000 0.00000000
vt 1.00000000 1.00000000
vt 0.00000000 1.00000000
vt 0.00000000 0.00000000
vt 1.00000000 0.00000000
vt 1.00000000 0.00000000
vt 1.00000000 1.00000000
vt 0.28772368 1.00000000
vt 0.00000000 0.16666667
vt 0.00000000 0.00000000
vt 0.70000000 0.25000000
vt 0.50000000 0.75000000
vt 0.20000000 1.00000000
vt 0.00000000 1.00000000
vt 0.00000000 0.00000000
vt 1.00000000 0.00000000
vt 0.44281973 0.45779974
vt 0.84499121 0.90168947
vt 1.00000000 1.00000000
vt 0.00000000 1.00000000
vt 0.00000000 0.00000000
vt 0.30739092 0.00000000
vt 0.53798062 0.28941363
vt 0.65076845 0.57003357
vt 0.83493649 0.83333333
vt 1.00000000 0.99049008
vt 1.00000000 1.00000000
vt 0.00000000 1.00000000
vt 0.00000000 0.00000000
vt 0.50000000 0.00000000
vt 1.00000000 0.00000000
vt 1.00000000 1.00000000
vt 0.00000000 1.00000000
vt 0.00000000 0.00000000
vt 0.22475803 1.00000000
vt 0.04420384 0.16666667
vt 0.00000000 0.00000000
vt 1.00000000 0.00000000
vt 1.00000000 1.00000000
vt 1.00000000 1.00000000
vt 0.00000000 0.00000000
vt 1.00000000 0.00000000
vt 0.41922078 1.00000000
vt 0.00000000 0.00000000
vt 1.00000000 0.00000000
vt 1.00000000 1.00000000
vt 0.27746213 1.00000000
vt 0.00000000 0.03474816
vt 0.00000000 0.00000000
vt 1.00000000 0.00000000
vt 1.00000000 1.00000000
vt 0.36538857 0.00000000
vt 1.00000000 1.00000000
vt 0.00000000 1.00000000
vt 0.90241178 1.00000000
vt 0.00000000 0.03474816
vt 0.02458923 0.00000000
vt 1.00000000 0.00000000
vt 1.00000000 1.00000000
vn -1.00000000 0.00000000 0.00000000
vn -1.00000000 0.00000000 0.00000000
vn -1.00000000 0.00000000 0.00000000
vn -1.00000000 0.00000000 0.00000000
vn -1.00000000 0.00000000 0.00000000
vn -1.00000000 0.00000000 0.00000000
vn 0.30650207 0.94832043 0.08212698
vn 0.30650207 0.94832043 0.08212698
vn 0.30650207 0.94832043 0.08212698
vn 0.30650207 0.94832043 0.08212698
vn 0.31610681 0.94832043 0.02765576
vn 0.31610681 0.94832043 0.02765576
vn 0.31610681 0.94832043 0.02765576
vn 0.31610681 0.94832043 0.02765576
vn 0.70575756 0.70575756 0.06174579
vn 0.70575756 0.70575756 0.06174579
vn 0.70575756 0.70575756 0.06174579
vn 0.70575756 0.70575756 0.06174579
vn 0.31610681 0.94832043 0.02765576
vn 0.31610681 0.94832043 0.02765576
vn 0.31610681 0.94832043 0.02765576
vn 0.31610681 0.94832043 0.02765576
vn 0.30650207 0.94832043 0.08212698
vn 0.30650207 0.94832043 0.08212698
vn 0.30650207 0.94832043 0.08212698
vn 0.30650207 0.94832043 0.08212698
vn 0.28758441 0.94832043 0.13410281
vn 0.28758441 0.94832043 0.13410281
vn 0.28758441 0.94832043 0.13410281
vn 0.28758441 0.94832043 0.13410281
vn 0.68431347 0.70575756 0.18336124
vn 0.68431347 0.70575756 0.18336124
vn 0.68431347 0.70575756 0.18336124
vn 0.68431347 0.70575756 0.18336124
vn 0.64207687 0.70575756 0.29940536
vn 0.64207687 0.70575756 0.29940536
vn 0.64207687 0.70575756 0.29940536
vn 0.64207687 0.70575756 0.29940536
vn 0.64207687 0.70575756 0.29940536
vn 0.00000000 0.00000000 1.00000000
vn 0.00000000 0.00000000 1.00000000
vn 0.00000000 0.00000000 1.00000000
vn 0.00000000 0.00000000 1.00000000
vn 0.00000000 0.00000000 1.00000000
vn 0.00000000 0.00000000 1.00000000
vn 0.00000000 1.00000000 -0.00000000
vn 0.00000000 1.00000000 -0.00000000
vn 0.00000000 1.00000000 -0.00000000
vn 0.00000000 1.00000000 -0.00000000
vn 0.00000000 1.00000000 -0.00000000
vn 0.00000000 1.00000000 -0.00000000
vn 0.00000000 -1.00000000 0.00000000
vn 0.00000000 -1.00000000 0.00000000
vn 0.00000000 -1.00000000 0.00000000
vn 0.00000000 -1.00000000 0.00000000
vn 0.00000000 -1.00000000 0.00000000
vn 0.00000000 -1.00000000 0.00000000
vn 0.00000000 -1.00000000 0.00000000
vn 0.00000000 -1.00000000 0.00000000
vn 0.28758441 0.94832043 0.13410281
vn 0.28758441 0.94832043 0.13410281
vn 0.28758441 0.94832043 0.13410281
vn 0.28758441 0.94832043 0.13410281
vn -0.00000000 0.70710678 -0.70710678
vn -0.00000000 0.70710678 -0.70710678
vn -0.00000000 0.70710678 -0.70710678
vn -0.00000000 0.70710678 -0.70710678
vn -0.00000000 0.70710678 -0.70710678
vn 0.58033108 0.70575756 0.40635220
vn 0.58033108 0.70575756 0.40635220
vn 0.58033108 0.70575756 0.40635220
vn -0.00000000 0.94868330 -0.31622777
vn -0.00000000 0.94868330 -0.31622777
vn -0.00000000 0.94868330 -0.31622777
vn -0.00000000 0.94868330 -0.31622777
vn -0.00000000 0.94868330 -0.31622777
vn -0.00000000 0.94868330 -0.31622777
vn -0.00000000 0.94868330 -0.31622777
vn -0.00000000 0.94868330 -0.31622777
vn -0.00000000 0.94868330 -0.31622777
vn 1.00000000 0.00000000 0.00000000
vn 1.00000000 0.00000000 0.00000000
vn 1.00000000 0.00000000 0.00000000
vn 0.25992865 0.94832043 0.18200400
vn 0.25992865 0.94832043 0.18200400
vn 0.25992865 0.94832043 0.18200400
vn 0.25992865 0.94832043 0.18200400
vn 0.25992865 0.94832043 0.18200400
s 1
usemtl Grass
f 5/5/5 4/4/4 3/3/3
f 3/3/3 2/2/2 1/1/1
f 1/1/1 5/5/5 3/3/3
f 1/1/1 6/6/6 5/5/5
s 2
usemtl Dirt
f 10/10/10 9/9/9 7/7/7
f 9/9/9 8/8/8 7/7/7
s 3
f 12/14/14 10/13/13 11/11/11
f 10/13/13 7/12/12 11/11/11
s 4
usemtl Grass
f 11/18/18 7/17/17 13/15/15
f 7/17/17 14/16/16 13/15/15
s 5
f 13/22/22 14/21/21 15/19/19
f 14/21/21 16/20/20 15/19/19
s 6
f 14/26/26 18/25/25 16/23/23
f 18/25/25 17/24/24 16/23/23
s 7
f 20/30/30 19/29/29 18/27/27
f 19/29/29 17/28/28 18/27/27
s 8
f 7/34/34 8/33/33 14/31/31
f 8/33/33 18/32/32 14/31/31
s 9
f 20/37/37 18/36/36 8/35/35
f 22/39/39 21/38/38 8/35/35
f 21/38/38 20/37/37 8/35/35
s 10
f 15/42/42 6/43/43 1/44/44
f 11/40/40 1/44/44 12/45/45
f 11/40/40 15/42/42 1/44/44
f 11/40/40 13/41/41 15/42/42
s 11
f 17/47/47 19/48/48 5/49/49
f 16/46/46 5/49/49 6/50/50
f 6/50/50 15/51/51 16/46/46
f 16/46/46 17/47/47 5/49/49
s 12
f 10/52/52 12/59/59 1/58/58
f 9/53/53 1/58/58 2/57/57
f 2/57/57 25/56/56 24/55/55
f 24/55/55 23/54/54 2/57/57
f 23/54/54 9/53/53 2/57/57
f 9/53/53 10/52/52 1/58/58
s 13
usemtl Dirt
f 23/63/63 22/62/62 9/60/60
f 22/62/62 8/61/61 9/60/60
s 14
usemtl Grass
f 3/67/67 4/68/68 20/64/64
f 21/65/65 26/66/66 3/67/67
f 3/67/67 20/64/64 21/65/65
s 15
f 22/71/71 26/70/70 21/69/69
s 16
f 19/72/72 20/73/73 4/74/74
f 19/72/72 4/74/74 5/75/75
s 17
usemtl Dirt
f 2/79/79 3/80/80 26/76/76
f 27/77/77 25/78/78 2/79/79
f 2/79/79 26/76/76 27/77/77
s 18
usemtl Grass
f 27/81/81 24/82/82 25/83/83
s 19
usemtl Dirt
f 26/84/84 22/88/88 23/87/87
f 24/86/86 27/85/85 26/84/84
f 26/84/84 23/87/87 24/86/86
