mtllib Path_Side.mtl
o object1
g object1
v -0.40000000 0.20000000 0.50000000
v -0.25000000 0.15000000 0.50000000
v -0.25000000 0.15000000 -0.50000000
v -0.40000000 0.20000000 -0.50000000
v -0.50000000 0.00000000 0.50000000
v -0.40000000 0.00000000 0.50000000
v 0.00000000 0.00000000 0.50000000
v -0.15000000 0.05000000 0.50000000
v -0.50000000 0.20000000 0.50000000
v -0.50000000 0.00000000 -0.50000000
v -0.50000000 0.20000000 -0.50000000
v 0.00000000 0.00000000 -0.50000000
v -0.15000000 0.05000000 -0.50000000
v -0.40000000 0.00000000 -0.50000000
vt 0.00000000 1.00000000
vt 0.00000000 0.00000000
vt 1.00000000 0.00000000
vt 1.00000000 1.00000000
vt 1.00000000 1.00000000
vt 0.80000000 1.00000000
vt 0.00000000 1.00000000
vt 0.30000000 0.75000000
vt 0.50000000 0.25000000
vt 0.80000000 0.00000000
vt 1.00000000 0.00000000
vt 0.00000000 1.00000000
vt 0.00000000 0.00000000
vt 1.00000000 0.00000000
vt 1.00000000 1.00000000
vt 0.00000000 1.00000000
vt 0.00000000 0.00000000
vt 1.00000000 0.00000000
vt 1.00000000 1.00000000
vt 0.00000000 1.00000000
vt 0.00000000 0.00000000
vt 0.80000000 0.00000000
vt 1.00000000 0.00000000
vt 1.00000000 1.00000000
vt 0.80000000 1.00000000
vt 1.00000000 1.00000000
vt 0.00000000 1.00000000
vt 0.00000000 0.00000000
vt 1.00000000 0.00000000
vt 1.00000000 1.00000000
vt 0.80000000 1.00000000
vt 0.00000000 1.00000000
vt 0.30000000 0.75000000
vt 0.50000000 0.25000000
vt 0.80000000 0.00000000
vt 1.00000000 0.00000000
vt 0.00000000 1.00000000
vt 0.00000000 0.00000000
vt 1.00000000 0.00000000
vt 1.00000000 1.00000000
vn 0.31622777 0.94868330 -0.00000000
vn 0.31622777 0.94868330 -0.00000000
vn 0.31622777 0.94868330 -0.00000000
vn 0.31622777 0.94868330 -0.00000000
vn 0.00000000 -0.00000000 1.00000000
vn 0.00000000 -0.00000000 1.00000000
vn 0.00000000 -0.00000000 1.00000000
vn 0.00000000 -0.00000000 1.00000000
vn 0.00000000 -0.00000000 1.00000000
vn 0.00000000 -0.00000000 1.00000000
vn 0.00000000 -0.00000000 1.00000000
vn -1.00000000 0.00000000 0.00000000
vn -1.00000000 0.00000000 0.00000000
vn -1.00000000 0.00000000 0.00000000
vn -1.00000000 0.00000000 0.00000000
vn 0.31622777 0.94868330 -0.00000000
vn 0.31622777 0.94868330 -0.00000000
vn 0.31622777 0.94868330 -0.00000000
vn 0.31622777 0.94868330 -0.00000000
vn 0.00000000 -1.00000000 0.00000000
vn 0.00000000 -1.00000000 0.00000000
vn 0.00000000 -1.00000000 0.00000000
vn 0.00000000 -1.00000000 0.00000000
vn 0.00000000 -1.00000000 0.00000000
vn 0.00000000 -1.00000000 0.00000000
vn 0.00000000 1.00000000 0.00000000
vn 0.00000000 1.00000000 0.00000000
vn 0.00000000 1.00000000 0.00000000
vn 0.00000000 1.00000000 0.00000000
vn -0.00000000 0.00000000 -1.00000000
vn -0.00000000 0.00000000 -1.00000000
vn -0.00000000 0.00000000 -1.00000000
vn -0.00000000 0.00000000 -1.00000000
vn -0.00000000 0.00000000 -1.00000000
vn -0.00000000 0.00000000 -1.00000000
vn -0.00000000 0.00000000 -1.00000000
vn 0.70710678 0.70710678 -0.00000000
vn 0.70710678 0.70710678 -0.00000000
vn 0.70710678 0.70710678 -0.00000000
vn 0.70710678 0.70710678 -0.00000000
s 1
usemtl Grass
f 1/1/1 2/2/2 3/3/3
f 1/1/1 3/3/3 4/4/4
s 2
f 9/11/11 5/5/5 6/6/6
f 6/6/6 7/7/7 8/8/8
f 8/8/8 2/9/9 6/6/6
f 2/9/9 1/10/10 6/6/6
f 1/10/10 9/11/11 6/6/6
s 3
f 9/15/15 11/14/14 5/12/12
f 11/14/14 10/13/13 5/12/12
s 4
usemtl Dirt
f 8/16/16 7/17/17 12/18/18
f 8/16/16 12/18/18 13/19/19
s 5
usemtl Grass
f 12/21/21 7/20/20 6/25/25
f 6/25/25 5/24/24 14/22/22
f 5/24/24 10/23/23 14/22/22
f 14/22/22 12/21/21 6/25/25
s 6
f 9/26/26 1/27/27 4/28/28
f 9/26/26 4/28/28 11/29/29
s 7
f 14/31/31 10/30/30 11/36/36
f 13/33/33 12/32/32 14/31/31
f 14/31/31 3/34/34 13/33/33
f 14/31/31 4/35/35 3/34/34
f 14/31/31 11/36/36 4/35/35
s 8
f 2/37/37 8/38/38 13/39/39
f 2/37/37 13/39/39 3/40/40
