mtllib Path_Corner_Inner_2x2.mtl
o object1
g object1
v -0.21529905 0.20000000 -0.56251841
v -0.17647619 0.15000000 -0.70740728
v -0.50000000 0.15000000 -0.75000000
v -0.50000000 0.20000000 -0.60000000
v -0.50000000 0.20000000 -0.50000000
v -0.50000000 0.20000000 0.50000000
v -0.50000000 0.00000000 0.50000000
v -0.50000000 0.00000000 -0.50000000
v -0.50000000 0.00000000 -1.00000000
v -0.50000000 0.05000000 -0.85000000
v -0.15059429 0.05000000 -0.80399987
v -0.11177143 0.00000000 -0.94888874
v 0.17500000 0.05000000 -0.66913430
v 0.25000000 0.00000000 -0.79903811
v 0.12500000 0.15000000 -0.58253175
v 0.38388348 0.15000000 -0.38388348
v 0.45459415 0.05000000 -0.45459415
v 0.27781746 0.20000000 -0.27781746
v 0.05000000 0.20000000 -0.45262794
v 0.45262794 0.20000000 -0.05000000
v 0.58253175 0.15000000 -0.12500000
v 0.56251841 0.20000000 0.21529905
v 0.70740728 0.15000000 0.17647619
v 0.80399987 0.05000000 0.15059429
v 0.66913430 0.05000000 -0.17500000
v 0.94888874 0.00000000 0.11177143
v 0.79903811 0.00000000 -0.25000000
v 0.56066017 0.00000000 -0.56066017
v 0.85000000 0.05000000 0.50000000
v 1.00000000 0.00000000 0.50000000
v 0.75000000 0.15000000 0.50000000
v 0.60000000 0.20000000 0.50000000
v 0.50000000 0.00000000 0.50000000
v 0.50000000 0.20000000 0.50000000
vt 0.00000000 1.00000000
vt 0.00000000 0.00000000
vt 1.00000000 0.00000000
vt 1.00000000 1.00000000
vt 0.26666667 0.00000000
vt 0.33333333 0.00000000
vt 1.00000000 0.00000000
vt 1.00000000 1.00000000
vt 0.33333333 1.00000000
vt 0.00000000 1.00000000
vt 0.10000000 0.75000000
vt 0.16666667 0.25000000
vt 0.00000000 1.00000000
vt 0.00000000 0.00000000
vt 1.00000000 0.00000000
vt 1.00000000 1.00000000
vt 0.00000000 1.00000000
vt 0.00000000 0.00000000
vt 1.00000000 0.00000000
vt 1.00000000 1.00000000
vt 0.00000000 1.00000000
vt 0.00000000 0.00000000
vt 1.00000000 0.00000000
vt 1.00000000 1.00000000
vt 0.00000000 1.00000000
vt 0.00000000 0.00000000
vt 1.00000000 0.00000000
vt 1.00000000 1.00000000
vt 0.00000000 1.00000000
vt 0.00000000 0.00000000
vt 1.00000000 0.00000000
vt 1.00000000 1.00000000
vt 0.00000000 1.00000000
vt 0.00000000 0.00000000
vt 1.00000000 0.00000000
vt 1.00000000 1.00000000
vt 0.00000000 1.00000000
vt 0.00000000 0.00000000
vt 1.00000000 0.00000000
vt 1.00000000 1.00000000
vt 0.00000000 1.00000000
vt 0.00000000 0.00000000
vt 1.00000000 0.00000000
vt 1.00000000 1.00000000
vt 0.00000000 1.00000000
vt 0.00000000 0.00000000
vt 1.00000000 0.00000000
vt 1.00000000 1.00000000
vt 0.00000000 1.00000000
vt 0.00000000 0.00000000
vt 1.00000000 0.00000000
vt 1.00000000 1.00000000
vt 0.00000000 1.00000000
vt 0.00000000 0.00000000
vt 1.00000000 0.00000000
vt 1.00000000 1.00000000
vt 0.00000000 1.00000000
vt 0.00000000 0.00000000
vt 1.00000000 0.00000000
vt 1.00000000 1.00000000
vt 0.00000000 1.00000000
vt 0.00000000 0.00000000
vt 1.00000000 0.00000000
vt 1.00000000 1.00000000
vt 0.00000000 1.00000000
vt 0.00000000 0.00000000
vt 1.00000000 0.00000000
vt 1.00000000 1.00000000
vt 0.00000000 1.00000000
vt 0.00000000 0.00000000
vt 1.00000000 0.00000000
vt 1.00000000 1.00000000
vt 0.96592583 0.74118095
vt 1.00000000 1.00000000
vt 0.66666667 1.00000000
vt 0.00000000 1.00000000
vt 0.00000000 0.33333333
vt 0.00000000 0.00000000
vt 0.25881905 0.03407417
vt 0.50000000 0.13397460
vt 0.70710678 0.29289322
vt 0.86602540 0.50000000
vt 1.00000000 0.26666667
vt 1.00000000 0.33333333
vt 1.00000000 1.00000000
vt 0.00000000 1.00000000
vt 0.00000000 0.33333333
vt 0.00000000 0.00000000
vt 0.25000000 0.10000000
vt 0.75000000 0.16666667
vt 0.00000000 1.00000000
vt 0.00000000 0.00000000
vt 1.00000000 0.00000000
vt 1.00000000 1.00000000
vt 0.00000000 1.00000000
vt 0.00000000 0.00000000
vt 1.00000000 0.00000000
vt 1.00000000 1.00000000
vt 0.70710678 0.29289322
vt 0.86602540 0.50000000
vt 0.96592583 0.74118095
vt 1.00000000 1.00000000
vt 0.90909091 1.00000000
vt 0.00000000 1.00000000
vt 0.00000000 0.09090909
vt 0.00000000 0.00000000
vt 0.25881905 0.03407417
vt 0.50000000 0.13397460
vn 0.04159614 0.94786222 -0.31595407
vn 0.04159614 0.94786222 -0.31595407
vn 0.04159614 0.94786222 -0.31595407
vn 0.04159614 0.94786222 -0.31595407
vn -1.00000000 0.00000000 -0.00000000
vn -1.00000000 0.00000000 -0.00000000
vn -1.00000000 0.00000000 -0.00000000
vn -1.00000000 0.00000000 -0.00000000
vn -1.00000000 0.00000000 -0.00000000
vn -1.00000000 0.00000000 -0.00000000
vn -1.00000000 0.00000000 -0.00000000
vn -1.00000000 0.00000000 -0.00000000
vn 0.04159614 0.94786222 -0.31595407
vn 0.04159614 0.94786222 -0.31595407
vn 0.04159614 0.94786222 -0.31595407
vn 0.04159614 0.94786222 -0.31595407
vn 0.12195372 0.94786222 -0.29442232
vn 0.12195372 0.94786222 -0.29442232
vn 0.12195372 0.94786222 -0.29442232
vn 0.12195372 0.94786222 -0.29442232
vn 0.27175802 0.70406259 -0.65608189
vn 0.27175802 0.70406259 -0.65608189
vn 0.27175802 0.70406259 -0.65608189
vn 0.27175802 0.70406259 -0.65608189
vn 0.43230458 0.70406259 -0.56339029
vn 0.43230458 0.70406259 -0.56339029
vn 0.43230458 0.70406259 -0.56339029
vn 0.43230458 0.70406259 -0.56339029
vn 0.19400035 0.94786222 -0.25282618
vn 0.19400035 0.94786222 -0.25282618
vn 0.19400035 0.94786222 -0.25282618
vn 0.19400035 0.94786222 -0.25282618
vn 0.25282618 0.94786222 -0.19400035
vn 0.25282618 0.94786222 -0.19400035
vn 0.25282618 0.94786222 -0.19400035
vn 0.25282618 0.94786222 -0.19400035
vn 0.29442232 0.94786222 -0.12195372
vn 0.29442232 0.94786222 -0.12195372
vn 0.29442232 0.94786222 -0.12195372
vn 0.29442232 0.94786222 -0.12195372
vn 0.65608189 0.70406259 -0.27175802
vn 0.65608189 0.70406259 -0.27175802
vn 0.65608189 0.70406259 -0.27175802
vn 0.65608189 0.70406259 -0.27175802
vn 0.29442232 0.94786222 -0.12195372
vn 0.29442232 0.94786222 -0.12195372
vn 0.29442232 0.94786222 -0.12195372
vn 0.29442232 0.94786222 -0.12195372
vn 0.25282618 0.94786222 -0.19400035
vn 0.25282618 0.94786222 -0.19400035
vn 0.25282618 0.94786222 -0.19400035
vn 0.25282618 0.94786222 -0.19400035
vn 0.31595407 0.94786222 -0.04159614
vn 0.31595407 0.94786222 -0.04159614
vn 0.31595407 0.94786222 -0.04159614
vn 0.31595407 0.94786222 -0.04159614
vn 0.70406259 0.70406259 -0.09269160
vn 0.70406259 0.70406259 -0.09269160
vn 0.70406259 0.70406259 -0.09269160
vn 0.70406259 0.70406259 -0.09269160
vn 0.31595407 0.94786222 -0.04159614
vn 0.31595407 0.94786222 -0.04159614
vn 0.31595407 0.94786222 -0.04159614
vn 0.31595407 0.94786222 -0.04159614
vn 0.56339029 0.70406259 -0.43230458
vn 0.56339029 0.70406259 -0.43230458
vn 0.56339029 0.70406259 -0.43230458
vn 0.56339029 0.70406259 -0.43230458
vn 0.19400035 0.94786222 -0.25282618
vn 0.19400035 0.94786222 -0.25282618
vn 0.19400035 0.94786222 -0.25282618
vn 0.19400035 0.94786222 -0.25282618
vn 0.00000000 -1.00000000 0.00000000
vn 0.00000000 -1.00000000 0.00000000
vn 0.00000000 -1.00000000 0.00000000
vn 0.00000000 -1.00000000 0.00000000
vn 0.00000000 -1.00000000 0.00000000
vn 0.00000000 -1.00000000 0.00000000
vn 0.00000000 -1.00000000 0.00000000
vn 0.00000000 -1.00000000 0.00000000
vn 0.00000000 -1.00000000 0.00000000
vn 0.00000000 -1.00000000 0.00000000
vn -0.00000000 0.00000000 1.00000000
vn -0.00000000 0.00000000 1.00000000
vn -0.00000000 0.00000000 1.00000000
vn -0.00000000 0.00000000 1.00000000
vn -0.00000000 0.00000000 1.00000000
vn -0.00000000 0.00000000 1.00000000
vn -0.00000000 0.00000000 1.00000000
vn -0.00000000 0.00000000 1.00000000
vn 0.09269160 0.70406259 -0.70406259
vn 0.09269160 0.70406259 -0.70406259
vn 0.09269160 0.70406259 -0.70406259
vn 0.09269160 0.70406259 -0.70406259
vn 0.12195372 0.94786222 -0.29442232
vn 0.12195372 0.94786222 -0.29442232
vn 0.12195372 0.94786222 -0.29442232
vn 0.12195372 0.94786222 -0.29442232
vn -0.00000000 1.00000000 0.00000000
vn -0.00000000 1.00000000 0.00000000
vn -0.00000000 1.00000000 0.00000000
vn -0.00000000 1.00000000 0.00000000
vn -0.00000000 1.00000000 0.00000000
vn -0.00000000 1.00000000 0.00000000
vn -0.00000000 1.00000000 0.00000000
vn -0.00000000 1.00000000 0.00000000
vn -0.00000000 1.00000000 0.00000000
vn -0.00000000 1.00000000 0.00000000
s 1
usemtl Grass
f 1/1/1 2/2/2 4/4/4
f 2/2/2 3/3/3 4/4/4
s 2
f 4/5/5 3/12/12 10/11/11
f 10/11/11 9/10/10 8/9/9
f 8/9/9 7/8/8 5/6/6
f 7/8/8 6/7/7 5/6/6
f 8/9/9 4/5/5 10/11/11
f 8/9/9 5/6/6 4/5/5
s 3
usemtl Dirt
f 11/13/13 12/14/14 10/16/16
f 12/14/14 9/15/15 10/16/16
s 4
f 13/17/17 14/18/18 12/19/19
f 13/17/17 12/19/19 11/20/20
s 5
usemtl Grass
f 15/21/21 13/22/22 11/23/23
f 15/21/21 11/23/23 2/24/24
s 6
f 16/25/25 17/26/26 13/27/27
f 16/25/25 13/27/27 15/28/28
s 7
f 18/29/29 16/30/30 15/31/31
f 18/29/29 15/31/31 19/32/32
s 8
f 20/33/33 21/34/34 16/35/35
f 20/33/33 16/35/35 18/36/36
s 9
f 22/37/37 23/38/38 21/39/39
f 22/37/37 21/39/39 20/40/40
s 10
f 23/41/41 24/42/42 25/43/43
f 23/41/41 25/43/43 21/44/44
s 11
usemtl Dirt
f 24/45/45 26/46/46 27/47/47
f 24/45/45 27/47/47 25/48/48
s 12
f 25/49/49 27/50/50 28/51/51
f 25/49/49 28/51/51 17/52/52
s 13
f 29/53/53 30/54/54 26/55/55
f 29/53/53 26/55/55 24/56/56
s 14
usemtl Grass
f 31/57/57 29/58/58 24/59/59
f 31/57/57 24/59/59 23/60/60
s 15
f 32/61/61 31/62/62 23/63/63
f 32/61/61 23/63/63 22/64/64
s 16
f 21/65/65 25/66/66 17/67/67
f 21/65/65 17/67/67 16/68/68
s 17
usemtl Dirt
f 17/69/69 28/70/70 14/71/71
f 17/69/69 14/71/71 13/72/72
s 18
usemtl Grass
f 26/79/79 30/78/78 33/77/77
f 28/81/81 33/77/77 8/75/75
f 8/75/75 12/73/73 14/82/82
f 8/75/75 9/74/74 12/73/73
f 8/75/75 14/82/82 28/81/81
f 33/77/77 7/76/76 8/75/75
f 28/81/81 27/80/80 33/77/77
f 27/80/80 26/79/79 33/77/77
s 19
f 29/89/89 31/90/90 32/83/83
f 32/83/83 34/84/84 33/87/87
f 34/84/84 7/86/86 33/87/87
f 34/84/84 6/85/85 7/86/86
f 33/87/87 30/88/88 29/89/89
f 29/89/89 32/83/83 33/87/87
s 20
f 2/91/91 11/92/92 3/94/94
f 11/92/92 10/93/93 3/94/94
s 21
f 19/95/95 15/96/96 1/98/98
f 15/96/96 2/97/97 1/98/98
s 22
f 34/105/105 32/106/106 22/107/107
f 6/104/104 34/105/105 18/99/99
f 18/99/99 19/100/100 5/103/103
f 1/101/101 4/102/102 5/103/103
f 19/100/100 1/101/101 5/103/103
f 18/99/99 5/103/103 6/104/104
f 34/105/105 20/108/108 18/99/99
f 34/105/105 22/107/107 20/108/108
