mtllib Prop_Bush_3.mtl
o object1
g object1
v 0.41521275 0.30000000 0.00212793
v 0.32881161 0.10000000 0.01446499
v 0.37003686 0.10000000 0.16561054
v 0.46674431 0.30000000 0.19105987
v 0.08846289 0.10000000 0.44971633
v 0.11477685 0.30000000 0.54619211
v -0.29836693 0.10000000 0.34791901
v -0.36876042 0.30000000 0.41894546
v -0.40362277 0.10000000 -0.03798410
v -0.50033022 0.30000000 -0.06343343
v 0.32881161 0.70000000 0.01446499
v 0.41521275 0.50000000 0.00212793
v 0.46674431 0.50000000 0.19105987
v 0.37003686 0.70000000 0.16561054
v 0.11477685 0.50000000 0.54619211
v 0.08846289 0.70000000 0.44971633
v -0.36876042 0.50000000 0.41894546
v -0.29836693 0.70000000 0.34791901
v -0.50033022 0.50000000 -0.06343343
v -0.40362277 0.70000000 -0.03798410
v -0.15757994 0.80000000 0.20586612
v -0.21020786 0.80000000 0.01291456
v 0.03583497 0.80000000 0.25676478
v 0.17662195 0.80000000 0.11471188
v 0.15600933 0.80000000 0.03913911
v -0.11195236 0.00000000 -0.20655559
v -0.15506623 -0.00000000 -0.04272288
v -0.21020786 0.00000000 0.01291456
v -0.15757994 0.00000000 0.20586612
v 0.03583497 0.00000000 0.25676478
v 0.17662195 0.00000000 0.11471188
v 0.15600933 0.00000000 0.03913911
v 0.19912320 0.00000000 -0.12469360
v 0.06721694 0.00000000 -0.25542438
v -0.36247614 0.30000000 -0.20252704
v -0.36247614 0.50000000 -0.20252704
v -0.29333951 0.10000000 -0.14925899
v -0.29333951 0.70000000 -0.14925899
v -0.15506623 0.80000000 -0.04272288
v -0.11195236 0.80000000 -0.20655559
v 0.19912320 0.80000000 -0.12469360
v 0.06721694 0.80000000 -0.25542438
v -0.24385862 0.70000000 -0.33728637
v -0.30981175 0.50000000 -0.40265175
v 0.13811150 0.50000000 -0.52482371
v 0.11447998 0.70000000 -0.43502393
v 0.46787715 0.50000000 -0.19799678
v 0.37829250 0.70000000 -0.17356239
v 0.46787715 0.30000000 -0.19799678
v 0.37829250 0.10000000 -0.17356239
v -0.24385862 0.10000000 -0.33728637
v -0.30981175 0.30000000 -0.40265175
v 0.11447998 0.10000000 -0.43502393
v 0.13811150 0.30000000 -0.52482371
vt 1.00000000 1.00000000
vt 0.00000000 1.00000000
vt 0.00000000 0.00000000
vt 1.00000000 0.00000000
vt 1.00000000 1.00000000
vt 0.00000000 1.00000000
vt 0.00000000 0.00000000
vt 1.00000000 0.00000000
vt 1.00000000 1.00000000
vt 0.00000000 1.00000000
vt 0.00000000 0.00000000
vt 1.00000000 0.00000000
vt 1.00000000 1.00000000
vt 0.00000000 1.00000000
vt 0.00000000 0.00000000
vt 1.00000000 0.00000000
vt 1.00000000 1.00000000
vt 0.00000000 1.00000000
vt 0.00000000 0.00000000
vt 1.00000000 0.00000000
vt 1.00000000 1.00000000
vt 0.00000000 1.00000000
vt 0.00000000 0.00000000
vt 1.00000000 0.00000000
vt 1.00000000 1.00000000
vt 0.00000000 1.00000000
vt 0.00000000 0.00000000
vt 1.00000000 0.00000000
vt 1.00000000 1.00000000
vt 0.00000000 1.00000000
vt 0.00000000 0.00000000
vt 1.00000000 0.00000000
vt 1.00000000 1.00000000
vt 0.00000000 1.00000000
vt 0.00000000 0.00000000
vt 1.00000000 0.00000000
vt 1.00000000 1.00000000
vt 0.00000000 1.00000000
vt 0.00000000 0.00000000
vt 1.00000000 0.00000000
vt 1.00000000 1.00000000
vt 0.00000000 1.00000000
vt 0.00000000 0.00000000
vt 1.00000000 0.00000000
vt 1.00000000 1.00000000
vt 0.00000000 1.00000000
vt 0.00000000 0.00000000
vt 1.00000000 0.00000000
vt 0.81550764 0.90208322
vt 0.47891568 0.90208322
vt 0.34413092 1.00000000
vt 0.00000000 0.75000000
vt 0.00000000 0.25000000
vt 0.34413092 0.00000000
vt 0.47891568 0.09791678
vt 0.81550764 0.09791678
vt 1.00000000 0.50000000
vt 1.00000000 1.00000000
vt 0.00000000 1.00000000
vt 0.00000000 0.00000000
vt 1.00000000 0.00000000
vt 0.00000000 0.00000000
vt 1.00000000 0.00000000
vt 1.00000000 1.00000000
vt 0.00000000 1.00000000
vt 1.00000000 1.00000000
vt 0.00000000 1.00000000
vt 0.00000000 0.00000000
vt 1.00000000 0.00000000
vt 0.00000000 0.00000000
vt 1.00000000 0.00000000
vt 1.00000000 1.00000000
vt 0.00000000 1.00000000
vt 1.00000000 1.00000000
vt 0.00000000 1.00000000
vt 0.00000000 0.00000000
vt 1.00000000 0.00000000
vt 0.00000000 0.00000000
vt 1.00000000 0.00000000
vt 1.00000000 1.00000000
vt 0.00000000 1.00000000
vt 1.00000000 1.00000000
vt 0.00000000 1.00000000
vt 0.00000000 0.00000000
vt 1.00000000 0.00000000
vt 1.00000000 1.00000000
vt 0.00000000 1.00000000
vt 0.00000000 0.00000000
vt 1.00000000 0.00000000
vt 0.00000000 0.00000000
vt 1.00000000 0.00000000
vt 1.00000000 1.00000000
vt 0.00000000 1.00000000
vt 0.00000000 0.00000000
vt 1.00000000 0.00000000
vt 1.00000000 1.00000000
vt 0.00000000 1.00000000
vt 0.00000000 0.00000000
vt 1.00000000 0.00000000
vt 1.00000000 1.00000000
vt 0.00000000 1.00000000
vt 0.00000000 0.00000000
vt 1.00000000 0.00000000
vt 1.00000000 1.00000000
vt 0.00000000 1.00000000
vt 0.00000000 0.00000000
vt 1.00000000 0.00000000
vt 1.00000000 1.00000000
vt 0.00000000 1.00000000
vt 0.66898600 1.00000000
vt 0.36703135 0.80352058
vt 0.20581187 0.80352058
vt 0.00000000 0.40176029
vt 0.20581187 0.00000000
vt 0.61743561 0.00000000
vt 0.69804535 0.15735629
vt 1.00000000 0.35383571
vt 1.00000000 0.78461190
vt 1.00000000 1.00000000
vt 0.00000000 0.57383955
vt 0.00000000 0.00000000
vt 1.00000000 0.00000000
vt 1.00000000 1.00000000
vt 0.00000000 0.85147052
vt 0.00000000 0.00000000
vt 1.00000000 0.00000000
vt 1.00000000 1.00000000
vt 0.00000000 1.00000000
vt 0.00000000 0.00000000
vt 1.00000000 0.00000000
vt 1.00000000 1.00000000
vt 0.00000000 1.00000000
vt 0.00000000 0.00000000
vt 1.00000000 0.00000000
vt 0.00000000 0.14852948
vt 1.00000000 0.00000000
vt 1.00000000 1.00000000
vt 0.00000000 1.00000000
vt 0.00000000 0.00000000
vt 1.00000000 0.00000000
vt 1.00000000 1.00000000
vt 0.00000000 1.00000000
vt 0.00000000 0.00000000
vt 1.00000000 0.14852948
vt 1.00000000 1.00000000
vt 0.00000000 1.00000000
vt 0.00000000 0.00000000
vt 1.00000000 0.42616045
vt 1.00000000 1.00000000
vt 0.00000000 1.00000000
vt 1.00000000 0.57383955
vt 0.00000000 1.00000000
vt 0.00000000 0.00000000
vt 1.00000000 0.00000000
vt 1.00000000 0.85147052
vt 0.00000000 1.00000000
vt 0.00000000 0.00000000
vt 1.00000000 0.00000000
vt 1.00000000 1.00000000
vt 0.00000000 1.00000000
vt 0.00000000 0.00000000
vt 1.00000000 0.00000000
vt 0.00000000 0.00000000
vt 1.00000000 0.00000000
vt 1.00000000 1.00000000
vt 0.00000000 1.00000000
vt 0.00000000 0.00000000
vt 1.00000000 0.00000000
vt 1.00000000 1.00000000
vt 0.00000000 1.00000000
vt 1.00000000 1.00000000
vt 0.00000000 1.00000000
vt 0.00000000 0.00000000
vt 1.00000000 0.00000000
vt 1.00000000 1.00000000
vt 0.00000000 1.00000000
vt 0.00000000 0.00000000
vt 1.00000000 0.00000000
vt 1.00000000 1.00000000
vt 0.00000000 1.00000000
vt 0.00000000 0.00000000
vt 1.00000000 0.00000000
vt 1.00000000 1.00000000
vt 0.00000000 1.00000000
vt 0.00000000 0.00000000
vt 1.00000000 0.00000000
vt 1.00000000 1.00000000
vt 0.00000000 1.00000000
vt 0.00000000 0.00000000
vt 1.00000000 0.00000000
vt 1.00000000 1.00000000
vt 0.00000000 1.00000000
vt 0.00000000 0.00000000
vt 1.00000000 0.00000000
vt 0.00000000 0.42616045
vt 1.00000000 0.00000000
vt 1.00000000 1.00000000
vt 0.00000000 1.00000000
vn 0.88532244 -0.39735971 -0.24147346
vn 0.88532244 -0.39735971 -0.24147346
vn 0.88532244 -0.39735971 -0.24147346
vn 0.88532244 -0.39735971 -0.24147346
vn 0.65178338 -0.39735971 0.64597500
vn 0.65178338 -0.39735971 0.64597500
vn 0.65178338 -0.39735971 0.64597500
vn 0.65178338 -0.39735971 0.64597500
vn -0.23353907 -0.39735971 0.88744846
vn -0.23353907 -0.39735971 0.88744846
vn -0.23353907 -0.39735971 0.88744846
vn -0.23353907 -0.39735971 0.88744846
vn -0.88532244 -0.39735971 0.24147346
vn -0.88532244 -0.39735971 0.24147346
vn -0.88532244 -0.39735971 0.24147346
vn -0.88532244 -0.39735971 0.24147346
vn 0.88532244 0.39735971 -0.24147346
vn 0.88532244 0.39735971 -0.24147346
vn 0.88532244 0.39735971 -0.24147346
vn 0.88532244 0.39735971 -0.24147346
vn 0.65178338 0.39735971 0.64597500
vn 0.65178338 0.39735971 0.64597500
vn 0.65178338 0.39735971 0.64597500
vn 0.65178338 0.39735971 0.64597500
vn -0.23353907 0.39735971 0.88744846
vn -0.23353907 0.39735971 0.88744846
vn -0.23353907 0.39735971 0.88744846
vn -0.23353907 0.39735971 0.88744846
vn -0.88532244 0.39735971 0.24147346
vn -0.88532244 0.39735971 0.24147346
vn -0.88532244 0.39735971 0.24147346
vn -0.88532244 0.39735971 0.24147346
vn -0.48237888 0.86602540 0.13156980
vn -0.48237888 0.86602540 0.13156980
vn -0.48237888 0.86602540 0.13156980
vn -0.48237888 0.86602540 0.13156980
vn -0.12724665 0.86602540 0.48353727
vn -0.12724665 0.86602540 0.48353727
vn -0.12724665 0.86602540 0.48353727
vn -0.12724665 0.86602540 0.48353727
vn 0.35513223 0.86602540 0.35196747
vn 0.35513223 0.86602540 0.35196747
vn 0.35513223 0.86602540 0.35196747
vn 0.35513223 0.86602540 0.35196747
vn 0.48237888 0.86602540 -0.13156980
vn 0.48237888 0.86602540 -0.13156980
vn 0.48237888 0.86602540 -0.13156980
vn 0.48237888 0.86602540 -0.13156980
vn 0.00000000 -1.00000000 0.00000000
vn 0.00000000 -1.00000000 0.00000000
vn 0.00000000 -1.00000000 0.00000000
vn 0.00000000 -1.00000000 0.00000000
vn 0.00000000 -1.00000000 0.00000000
vn 0.00000000 -1.00000000 0.00000000
vn 0.00000000 -1.00000000 0.00000000
vn 0.00000000 -1.00000000 0.00000000
vn 0.00000000 -1.00000000 0.00000000
vn -0.96475777 0.00000000 0.26313961
vn -0.96475777 0.00000000 0.26313961
vn -0.96475777 0.00000000 0.26313961
vn -0.96475777 0.00000000 0.26313961
vn -0.48237888 -0.86602540 0.13156980
vn -0.48237888 -0.86602540 0.13156980
vn -0.48237888 -0.86602540 0.13156980
vn -0.48237888 -0.86602540 0.13156980
vn -0.25449330 0.00000000 0.96707454
vn -0.25449330 0.00000000 0.96707454
vn -0.25449330 0.00000000 0.96707454
vn -0.25449330 0.00000000 0.96707454
vn -0.12724665 -0.86602540 0.48353727
vn -0.12724665 -0.86602540 0.48353727
vn -0.12724665 -0.86602540 0.48353727
vn -0.12724665 -0.86602540 0.48353727
vn 0.71026447 0.00000000 0.70393493
vn 0.71026447 0.00000000 0.70393493
vn 0.71026447 0.00000000 0.70393493
vn 0.71026447 0.00000000 0.70393493
vn 0.35513223 -0.86602540 0.35196747
vn 0.35513223 -0.86602540 0.35196747
vn 0.35513223 -0.86602540 0.35196747
vn 0.35513223 -0.86602540 0.35196747
vn 0.96475777 0.00000000 -0.26313961
vn 0.96475777 0.00000000 -0.26313961
vn 0.96475777 0.00000000 -0.26313961
vn 0.96475777 0.00000000 -0.26313961
vn 0.48237888 -0.86602540 -0.13156980
vn 0.48237888 -0.86602540 -0.13156980
vn 0.48237888 -0.86602540 -0.13156980
vn 0.48237888 -0.86602540 -0.13156980
vn -0.71026447 -0.00000000 -0.70393493
vn -0.71026447 -0.00000000 -0.70393493
vn -0.71026447 -0.00000000 -0.70393493
vn -0.71026447 -0.00000000 -0.70393493
vn -0.65178338 -0.39735971 -0.64597500
vn -0.65178338 -0.39735971 -0.64597500
vn -0.65178338 -0.39735971 -0.64597500
vn -0.65178338 -0.39735971 -0.64597500
vn -0.35513223 0.86602540 -0.35196747
vn -0.35513223 0.86602540 -0.35196747
vn -0.35513223 0.86602540 -0.35196747
vn -0.35513223 0.86602540 -0.35196747
vn -0.65178338 0.39735971 -0.64597500
vn -0.65178338 0.39735971 -0.64597500
vn -0.65178338 0.39735971 -0.64597500
vn -0.65178338 0.39735971 -0.64597500
vn -0.35513223 -0.86602540 -0.35196747
vn -0.35513223 -0.86602540 -0.35196747
vn -0.35513223 -0.86602540 -0.35196747
vn -0.35513223 -0.86602540 -0.35196747
vn -0.00000000 1.00000000 -0.00000000
vn -0.00000000 1.00000000 -0.00000000
vn -0.00000000 1.00000000 -0.00000000
vn -0.00000000 1.00000000 -0.00000000
vn -0.00000000 1.00000000 -0.00000000
vn -0.00000000 1.00000000 -0.00000000
vn -0.00000000 1.00000000 -0.00000000
vn -0.00000000 1.00000000 -0.00000000
vn -0.00000000 1.00000000 -0.00000000
vn -0.51063470 0.84923193 -0.13437755
vn -0.51063470 0.84923193 -0.13437755
vn -0.51063470 0.84923193 -0.13437755
vn -0.51063470 0.84923193 -0.13437755
vn -0.89726017 0.37305631 -0.23612110
vn -0.89726017 0.37305631 -0.23612110
vn -0.89726017 0.37305631 -0.23612110
vn -0.89726017 0.37305631 -0.23612110
vn -0.24414322 0.37305631 -0.89511065
vn -0.24414322 0.37305631 -0.89511065
vn -0.24414322 0.37305631 -0.89511065
vn -0.24414322 0.37305631 -0.89511065
vn 0.65311695 0.37305631 -0.65898955
vn 0.65311695 0.37305631 -0.65898955
vn 0.65311695 0.37305631 -0.65898955
vn 0.65311695 0.37305631 -0.65898955
vn 0.89726017 0.37305631 0.23612110
vn 0.89726017 0.37305631 0.23612110
vn 0.89726017 0.37305631 0.23612110
vn 0.89726017 0.37305631 0.23612110
vn 0.96707454 0.00000000 0.25449330
vn 0.96707454 0.00000000 0.25449330
vn 0.96707454 0.00000000 0.25449330
vn 0.96707454 0.00000000 0.25449330
vn 0.89726017 -0.37305631 0.23612110
vn 0.89726017 -0.37305631 0.23612110
vn 0.89726017 -0.37305631 0.23612110
vn 0.89726017 -0.37305631 0.23612110
vn 0.51063470 -0.84923193 0.13437755
vn 0.51063470 -0.84923193 0.13437755
vn 0.51063470 -0.84923193 0.13437755
vn 0.51063470 -0.84923193 0.13437755
vn -0.51063470 -0.84923193 -0.13437755
vn -0.51063470 -0.84923193 -0.13437755
vn -0.51063470 -0.84923193 -0.13437755
vn -0.51063470 -0.84923193 -0.13437755
vn -0.89726017 -0.37305631 -0.23612110
vn -0.89726017 -0.37305631 -0.23612110
vn -0.89726017 -0.37305631 -0.23612110
vn -0.89726017 -0.37305631 -0.23612110
vn -0.24414322 -0.37305631 -0.89511065
vn -0.24414322 -0.37305631 -0.89511065
vn -0.24414322 -0.37305631 -0.89511065
vn -0.24414322 -0.37305631 -0.89511065
vn -0.13894298 -0.84923193 -0.50941140
vn -0.13894298 -0.84923193 -0.50941140
vn -0.13894298 -0.84923193 -0.50941140
vn -0.13894298 -0.84923193 -0.50941140
vn 0.37169172 -0.84923193 -0.37503384
vn 0.37169172 -0.84923193 -0.37503384
vn 0.37169172 -0.84923193 -0.37503384
vn 0.37169172 -0.84923193 -0.37503384
vn 0.65311695 -0.37305631 -0.65898955
vn 0.65311695 -0.37305631 -0.65898955
vn 0.65311695 -0.37305631 -0.65898955
vn 0.65311695 -0.37305631 -0.65898955
vn 0.70393493 -0.00000000 -0.71026447
vn 0.70393493 -0.00000000 -0.71026447
vn 0.70393493 -0.00000000 -0.71026447
vn 0.70393493 -0.00000000 -0.71026447
vn -0.26313961 -0.00000000 -0.96475777
vn -0.26313961 -0.00000000 -0.96475777
vn -0.26313961 -0.00000000 -0.96475777
vn -0.26313961 -0.00000000 -0.96475777
vn -0.96707454 -0.00000000 -0.25449330
vn -0.96707454 -0.00000000 -0.25449330
vn -0.96707454 -0.00000000 -0.25449330
vn -0.96707454 -0.00000000 -0.25449330
vn -0.13894298 0.84923193 -0.50941140
vn -0.13894298 0.84923193 -0.50941140
vn -0.13894298 0.84923193 -0.50941140
vn -0.13894298 0.84923193 -0.50941140
vn 0.37169172 0.84923193 -0.37503384
vn 0.37169172 0.84923193 -0.37503384
vn 0.37169172 0.84923193 -0.37503384
vn 0.37169172 0.84923193 -0.37503384
vn 0.51063470 0.84923193 0.13437755
vn 0.51063470 0.84923193 0.13437755
vn 0.51063470 0.84923193 0.13437755
vn 0.51063470 0.84923193 0.13437755
s 1
usemtl Oak_Leaves
f 4/4/4 3/3/3 1/1/1
f 3/3/3 2/2/2 1/1/1
s 2
f 6/8/8 5/7/7 4/5/5
f 5/7/7 3/6/6 4/5/5
s 3
f 8/12/12 7/11/11 5/10/10
f 8/12/12 5/10/10 6/9/9
s 4
f 10/16/16 9/15/15 7/14/14
f 10/16/16 7/14/14 8/13/13
s 5
f 14/20/20 13/19/19 12/18/18
f 14/20/20 12/18/18 11/17/17
s 6
f 16/24/24 15/23/23 13/22/22
f 16/24/24 13/22/22 14/21/21
s 7
f 18/28/28 17/27/27 16/25/25
f 17/27/27 15/26/26 16/25/25
s 8
f 20/32/32 19/31/31 18/29/29
f 19/31/31 17/30/30 18/29/29
s 9
f 22/36/36 20/35/35 21/33/33
f 20/35/35 18/34/34 21/33/33
s 10
f 21/40/40 18/39/39 16/38/38
f 21/40/40 16/38/38 23/37/37
s 11
f 23/44/44 16/43/43 14/42/42
f 23/44/44 14/42/42 24/41/41
s 12
f 24/48/48 14/47/47 11/46/46
f 24/48/48 11/46/46 25/45/45
s 13
f 29/52/52 28/51/51 27/50/50
f 34/57/57 32/55/55 27/50/50
f 32/55/55 31/54/54 30/53/53
f 34/57/57 33/56/56 32/55/55
f 32/55/55 30/53/53 27/50/50
f 27/50/50 26/49/49 34/57/57
f 30/53/53 29/52/52 27/50/50
s 14
f 19/61/61 10/60/60 8/59/59
f 19/61/61 8/59/59 17/58/58
s 15
f 29/65/65 7/64/64 28/62/62
f 7/64/64 9/63/63 28/62/62
s 16
f 17/69/69 8/68/68 15/66/66
f 8/68/68 6/67/67 15/66/66
s 17
f 30/73/73 5/72/72 29/70/70
f 5/72/72 7/71/71 29/70/70
s 18
f 15/77/77 6/76/76 4/75/75
f 15/77/77 4/75/75 13/74/74
s 19
f 31/81/81 3/80/80 5/79/79
f 31/81/81 5/79/79 30/78/78
s 20
f 13/85/85 4/84/84 1/83/83
f 13/85/85 1/83/83 12/82/82
s 21
f 3/89/89 31/88/88 2/86/86
f 31/88/88 32/87/87 2/86/86
s 22
f 10/93/93 19/92/92 35/90/90
f 19/92/92 36/91/91 35/90/90
s 23
f 9/97/97 10/96/96 35/95/95
f 9/97/97 35/95/95 37/94/94
s 24
f 20/101/101 22/100/100 38/98/98
f 22/100/100 39/99/99 38/98/98
s 25
f 19/105/105 20/104/104 36/102/102
f 20/104/104 38/103/103 36/102/102
s 26
f 28/109/109 9/108/108 37/107/107
f 28/109/109 37/107/107 27/106/106
s 27
f 39/111/111 22/112/112 21/113/113
f 39/111/111 25/116/116 42/118/118
f 25/116/116 41/117/117 42/118/118
f 23/114/114 24/115/115 25/116/116
f 39/111/111 23/114/114 25/116/116
f 39/111/111 21/113/113 23/114/114
f 42/118/118 40/110/110 39/111/111
s 28
f 40/122/122 43/121/121 38/120/120
f 40/122/122 38/120/120 39/119/119
s 29
f 43/126/126 44/125/125 36/124/124
f 43/126/126 36/124/124 38/123/123
s 30
f 46/130/130 45/129/129 43/127/127
f 45/129/129 44/128/128 43/127/127
s 31
f 48/134/134 47/133/133 45/132/132
f 48/134/134 45/132/132 46/131/131
s 32
f 47/138/138 48/137/137 12/135/135
f 48/137/137 11/136/136 12/135/135
s 33
f 49/142/142 47/141/141 1/139/139
f 47/141/141 12/140/140 1/139/139
s 34
f 50/146/146 49/145/145 1/144/144
f 50/146/146 1/144/144 2/143/143
s 35
f 33/150/150 50/149/149 2/148/148
f 33/150/150 2/148/148 32/147/147
s 36
f 51/154/154 26/153/153 37/151/151
f 26/153/153 27/152/152 37/151/151
s 37
f 52/158/158 51/157/157 35/155/155
f 51/157/157 37/156/156 35/155/155
s 38
f 54/162/162 53/161/161 51/160/160
f 54/162/162 51/160/160 52/159/159
s 39
f 26/166/166 51/165/165 53/164/164
f 26/166/166 53/164/164 34/163/163
s 40
f 34/170/170 53/169/169 50/168/168
f 34/170/170 50/168/168 33/167/167
s 41
f 49/174/174 50/173/173 54/171/171
f 50/173/173 53/172/172 54/171/171
s 42
f 47/178/178 49/177/177 45/175/175
f 49/177/177 54/176/176 45/175/175
s 43
f 45/182/182 54/181/181 52/180/180
f 45/182/182 52/180/180 44/179/179
s 44
f 44/186/186 52/185/185 35/184/184
f 44/186/186 35/184/184 36/183/183
s 45
f 42/190/190 46/189/189 40/187/187
f 46/189/189 43/188/188 40/187/187
s 46
f 41/194/194 48/193/193 46/192/192
f 41/194/194 46/192/192 42/191/191
s 47
f 48/198/198 41/197/197 11/195/195
f 41/197/197 25/196/196 11/195/195
