mtllib Prop_Bridge_Log_Post_Top.mtl
o object1
g object1
v -0.15857864 0.75000000 0.40000000
v -0.15857864 0.17928932 0.40000000
v -0.24142136 0.17928932 0.40000000
v -0.24142136 0.75000000 0.40000000
v -0.10000000 0.75000000 0.45857864
v -0.10000000 0.17928932 0.45857864
v -0.10000000 0.75000000 0.54142136
v -0.10000000 0.17928932 0.54142136
v -0.15857864 0.75000000 0.60000000
v -0.15857864 0.17928932 0.60000000
v -0.24142136 0.75000000 0.60000000
v -0.24142136 0.17928932 0.60000000
v -0.30000000 0.75000000 0.54142136
v -0.30000000 0.17928932 0.54142136
v -0.30000000 0.75000000 0.45857864
v -0.30000000 0.17928932 0.45857864
v -0.20000000 0.75000000 0.50000000
v -0.20000000 0.17928932 0.50000000
vt 0.00000000 0.00000000
vt 1.00000000 0.00000000
vt 1.00000000 1.00000000
vt 0.00000000 1.00000000
vt 0.00000000 0.00000000
vt 1.00000000 0.00000000
vt 1.00000000 1.00000000
vt 0.00000000 1.00000000
vt 0.00000000 0.00000000
vt 1.00000000 0.00000000
vt 1.00000000 1.00000000
vt 0.00000000 1.00000000
vt 0.00000000 0.00000000
vt 1.00000000 0.00000000
vt 1.00000000 1.00000000
vt 0.00000000 1.00000000
vt 0.00000000 0.00000000
vt 1.00000000 0.00000000
vt 1.00000000 1.00000000
vt 0.00000000 1.00000000
vt 0.00000000 0.00000000
vt 1.00000000 0.00000000
vt 1.00000000 1.00000000
vt 0.00000000 1.00000000
vt 0.00000000 0.00000000
vt 1.00000000 0.00000000
vt 1.00000000 1.00000000
vt 0.00000000 1.00000000
vt 0.29289322 1.00000000
vt 0.00000000 0.70710678
vt 0.00000000 0.29289322
vt 0.29289322 0.00000000
vt 0.70710678 0.00000000
vt 1.00000000 0.29289322
vt 1.00000000 0.70710678
vt 0.70710678 1.00000000
vt 0.50000000 0.50000000
vt 0.00000000 0.00000000
vt 1.00000000 0.00000000
vt 1.00000000 1.00000000
vt 0.00000000 1.00000000
vt 0.29289322 1.00000000
vt 0.00000000 0.70710678
vt 0.00000000 0.29289322
vt 0.29289322 0.00000000
vt 0.70710678 0.00000000
vt 1.00000000 0.29289322
vt 1.00000000 0.70710678
vt 0.70710678 1.00000000
vt 0.50000000 0.50000000
vn 0.00000000 -0.00000000 -1.00000000
vn 0.00000000 -0.00000000 -1.00000000
vn 0.00000000 -0.00000000 -1.00000000
vn 0.00000000 -0.00000000 -1.00000000
vn 0.70710678 -0.00000000 -0.70710678
vn 0.70710678 -0.00000000 -0.70710678
vn 0.70710678 -0.00000000 -0.70710678
vn 0.70710678 -0.00000000 -0.70710678
vn 1.00000000 0.00000000 -0.00000000
vn 1.00000000 0.00000000 -0.00000000
vn 1.00000000 0.00000000 -0.00000000
vn 1.00000000 0.00000000 -0.00000000
vn 0.70710678 0.00000000 0.70710678
vn 0.70710678 0.00000000 0.70710678
vn 0.70710678 0.00000000 0.70710678
vn 0.70710678 0.00000000 0.70710678
vn -0.00000000 0.00000000 1.00000000
vn -0.00000000 0.00000000 1.00000000
vn -0.00000000 0.00000000 1.00000000
vn -0.00000000 0.00000000 1.00000000
vn -0.70710678 0.00000000 0.70710678
vn -0.70710678 0.00000000 0.70710678
vn -0.70710678 0.00000000 0.70710678
vn -0.70710678 0.00000000 0.70710678
vn -1.00000000 -0.00000000 0.00000000
vn -1.00000000 -0.00000000 0.00000000
vn -1.00000000 -0.00000000 0.00000000
vn -1.00000000 -0.00000000 0.00000000
vn -0.00000000 1.00000000 -0.00000000
vn -0.00000000 1.00000000 -0.00000000
vn -0.00000000 1.00000000 -0.00000000
vn -0.00000000 1.00000000 -0.00000000
vn -0.00000000 1.00000000 -0.00000000
vn -0.00000000 1.00000000 -0.00000000
vn -0.00000000 1.00000000 -0.00000000
vn -0.00000000 1.00000000 -0.00000000
vn -0.00000000 1.00000000 -0.00000000
vn -0.70710678 -0.00000000 -0.70710678
vn -0.70710678 -0.00000000 -0.70710678
vn -0.70710678 -0.00000000 -0.70710678
vn -0.70710678 -0.00000000 -0.70710678
vn 0.00000000 -1.00000000 0.00000000
vn 0.00000000 -1.00000000 0.00000000
vn 0.00000000 -1.00000000 0.00000000
vn 0.00000000 -1.00000000 0.00000000
vn 0.00000000 -1.00000000 0.00000000
vn 0.00000000 -1.00000000 0.00000000
vn 0.00000000 -1.00000000 0.00000000
vn 0.00000000 -1.00000000 0.00000000
vn 0.00000000 -1.00000000 0.00000000
s 1
usemtl Wood_Dark
f 1/1/1 2/2/2 4/4/4
f 2/2/2 3/3/3 4/4/4
s 2
f 5/5/5 6/6/6 1/8/8
f 6/6/6 2/7/7 1/8/8
s 3
f 7/9/9 8/10/10 6/11/11
f 7/9/9 6/11/11 5/12/12
s 4
f 9/13/13 10/14/14 8/15/15
f 9/13/13 8/15/15 7/16/16
s 5
f 11/17/17 12/18/18 10/19/19
f 11/17/17 10/19/19 9/20/20
s 6
f 13/21/21 14/22/22 11/24/24
f 14/22/22 12/23/23 11/24/24
s 7
f 15/25/25 16/26/26 14/27/27
f 15/25/25 14/27/27 13/28/28
s 8
usemtl Wood_Light
f 13/29/29 11/30/30 17/37/37
f 4/35/35 15/36/36 17/37/37
f 1/34/34 4/35/35 17/37/37
f 5/33/33 1/34/34 17/37/37
f 7/32/32 5/33/33 17/37/37
f 9/31/31 7/32/32 17/37/37
f 11/30/30 9/31/31 17/37/37
f 15/36/36 13/29/29 17/37/37
s 9
usemtl Wood_Dark
f 4/38/38 3/39/39 16/40/40
f 4/38/38 16/40/40 15/41/41
s 10
usemtl Wood_Light
f 16/49/49 3/48/48 18/50/50
f 12/43/43 14/42/42 18/50/50
f 10/44/44 12/43/43 18/50/50
f 8/45/45 10/44/44 18/50/50
f 6/46/46 8/45/45 18/50/50
f 2/47/47 6/46/46 18/50/50
f 3/48/48 2/47/47 18/50/50
f 14/42/42 16/49/49 18/50/50
