mtllib Prop_Cattail_2.mtl
o object1
g object1
v -0.00878341 0.95840427 0.01199904
v 0.00176319 0.69588561 -0.00204552
v -0.01054420 0.68756952 0.00016267
v -0.00230132 0.68756952 0.00977936
vt 0.00000000 0.00000000
vt 1.00000000 0.88322407
vt 0.84277292 1.00000000
vt 0.15804517 0.00000000
vt 1.00000000 0.02775391
vt 0.00000000 1.00000000
vt 1.00000000 0.99160392
vt 0.18752996 1.00000000
vt 0.00000000 0.00000000
vt 0.00000000 0.35854711
vt 1.00000000 0.00000000
vt 0.81325948 1.00000000
vn -0.20519729 0.04406399 -0.97772820
vn -0.20519729 0.04406399 -0.97772820
vn -0.20519729 0.04406399 -0.97772820
vn 0.94115543 0.01976019 0.33739590
vn 0.94115543 0.01976019 0.33739590
vn 0.94115543 0.01976019 0.33739590
vn -0.75904694 -0.02349904 0.65061166
vn -0.75904694 -0.02349904 0.65061166
vn -0.75904694 -0.02349904 0.65061166
vn 0.46371818 -0.79182125 -0.39747272
vn 0.46371818 -0.79182125 -0.39747272
vn 0.46371818 -0.79182125 -0.39747272
s 1
usemtl Oak_Leaves
f 1/1/1 2/2/2 3/3/3
s 2
f 4/4/4 2/5/5 1/6/6
s 3
f 3/7/7 4/8/8 1/9/9
s 4
f 3/12/12 2/11/11 4/10/10
o object2
g object2
v 0.00063015 0.33126137 -0.00941535
v 0.00887303 0.33126137 0.00020135
v 0.00752769 0.00000000 -0.00698651
v -0.00357671 0.33126137 0.00253155
v 0.00332083 -0.00000000 0.00496038
v -0.00492205 -0.00000000 -0.00465632
vt 1.00000000 1.00000000
vt 0.00000000 1.00000000
vt 0.50000000 0.00000000
vt 0.00000000 0.00000000
vt 1.00000000 0.00000000
vt 0.50000000 1.00000000
vt 0.00000000 0.00000000
vt 1.00000000 0.61475410
vt 0.00000000 1.00000000
vt 0.50000000 1.00000000
vt 0.00000000 0.00000000
vt 1.00000000 0.00000000
vt 1.00000000 1.00000000
vt 0.00000000 1.00000000
vt 0.50000000 0.00000000
vt 0.00000000 0.38524590
vt 1.00000000 0.00000000
vt 1.00000000 1.00000000
vt 1.00000000 0.00000000
vt 1.00000000 1.00000000
vt 0.00000000 0.38524590
vt 0.00000000 0.00000000
vt 1.00000000 0.38524590
vt 0.00000000 1.00000000
vn 0.75921036 0.01103696 -0.65075173
vn 0.75921036 0.01103696 -0.65075173
vn 0.75921036 0.01103696 -0.65075173
vn -0.00000000 1.00000000 0.00000000
vn -0.00000000 1.00000000 0.00000000
vn -0.00000000 1.00000000 0.00000000
vn 0.18396236 0.01103696 0.98287132
vn 0.18396236 0.01103696 0.98287132
vn 0.18396236 0.01103696 0.98287132
vn -0.75921036 -0.01103696 0.65075173
vn -0.75921036 -0.01103696 0.65075173
vn -0.75921036 -0.01103696 0.65075173
vn 0.00000000 -1.00000000 -0.00000000
vn 0.00000000 -1.00000000 -0.00000000
vn 0.00000000 -1.00000000 -0.00000000
vn -0.94317271 0.01103696 -0.33211959
vn -0.94317271 0.01103696 -0.33211959
vn -0.94317271 0.01103696 -0.33211959
vn -0.18396236 -0.01103696 -0.98287132
vn -0.18396236 -0.01103696 -0.98287132
vn -0.18396236 -0.01103696 -0.98287132
vn 0.94317271 -0.01103696 0.33211959
vn 0.94317271 -0.01103696 0.33211959
vn 0.94317271 -0.01103696 0.33211959
s 1
usemtl Oak_Leaves
f 5/13/13 6/14/14 7/15/15
s 2
f 6/16/16 5/17/17 8/18/18
s 3
f 6/19/19 8/20/20 9/21/21
s 4
f 10/24/24 9/23/23 8/22/22
s 5
f 7/27/27 9/26/26 10/25/25
s 6
f 5/30/30 10/29/29 8/28/28
s 7
f 7/33/33 10/32/32 5/31/31
s 8
f 9/36/36 7/35/35 6/34/34
o object3
g object3
v 0.00176319 0.69588561 -0.00204552
v -0.00230132 0.68756952 0.00977936
v 0.00887303 0.33126137 0.00020135
v -0.01054420 0.68756952 0.00016267
v -0.00343436 0.32294528 0.00240953
v 0.00063015 0.33126137 -0.00941535
vt 0.00000000 0.00000000
vt 1.00000000 0.16853933
vt 1.00000000 1.00000000
vt 0.00000000 0.00000000
vt 1.00000000 0.00000000
vt 0.50000000 1.00000000
vt 0.00000000 1.00000000
vt 0.50000000 0.00000000
vt 1.00000000 1.00000000
vt 0.00000000 0.00000000
vt 1.00000000 1.00000000
vt 0.00000000 0.83146067
vt 1.00000000 1.00000000
vt 0.00000000 1.00000000
vt 0.50000000 0.00000000
vt 1.00000000 1.00000000
vt 0.00000000 0.83146067
vt 0.00000000 0.00000000
vt 0.50000000 1.00000000
vt 0.00000000 0.00000000
vt 1.00000000 0.00000000
vt 1.00000000 1.00000000
vt 0.00000000 0.00000000
vt 1.00000000 0.16853933
vn 0.94099223 0.02043012 0.33781095
vn 0.94099223 0.02043012 0.33781095
vn 0.94099223 0.02043012 0.33781095
vn -0.46371818 0.79182125 0.39747272
vn -0.46371818 0.79182125 0.39747272
vn -0.46371818 0.79182125 0.39747272
vn -0.75921237 -0.01079390 0.65075346
vn -0.75921237 -0.01079390 0.65075346
vn -0.75921237 -0.01079390 0.65075346
vn -0.94099223 -0.02043012 -0.33781095
vn -0.94099223 -0.02043012 -0.33781095
vn -0.94099223 -0.02043012 -0.33781095
vn 0.46371818 -0.79182125 -0.39747272
vn 0.46371818 -0.79182125 -0.39747272
vn 0.46371818 -0.79182125 -0.39747272
vn -0.18992024 0.02043012 -0.98158694
vn -0.18992024 0.02043012 -0.98158694
vn -0.18992024 0.02043012 -0.98158694
vn 0.75921237 0.01079390 -0.65075346
vn 0.75921237 0.01079390 -0.65075346
vn 0.75921237 0.01079390 -0.65075346
vn 0.18992024 -0.02043012 0.98158694
vn 0.18992024 -0.02043012 0.98158694
vn 0.18992024 -0.02043012 0.98158694
s 1
usemtl Oak_Leaves
f 11/37/37 12/38/38 13/39/39
s 2
f 14/40/40 12/41/41 11/42/42
s 3
f 14/43/43 15/44/44 12/45/45
s 4
f 16/48/48 15/47/47 14/46/46
s 5
f 15/51/51 16/50/50 13/49/49
s 6
f 16/54/54 14/53/53 11/52/52
s 7
f 13/57/57 16/56/56 11/55/55
s 8
f 12/58/58 15/59/59 13/60/60
o object4
g object4
v -0.02088777 0.81688049 -0.00894533
v 0.00387926 0.81726138 -0.00894533
v -0.00866650 0.82762084 0.01283547
v -0.01638970 0.52439614 -0.01780443
v 0.00837733 0.52477703 -0.01780443
v -0.00382397 0.51273809 0.00329794
v -0.02162901 0.53821717 -0.02609303
v 0.01318916 0.53875264 -0.02609303
v 0.00911046 0.80396735 -0.01805990
v -0.02570771 0.80343188 -0.01805990
v 0.01627276 0.81680253 0.01249625
v -0.02086780 0.81558191 0.03393784
v -0.03326131 0.81604076 0.01249625
v -0.01636973 0.52309755 0.02507874
v -0.02876323 0.52355640 0.00363715
v -0.02160094 0.53639158 0.03419331
v -0.03902406 0.53703665 0.00405014
v -0.04310276 0.80225136 0.01208327
v -0.02567963 0.80160629 0.04222644
v 0.00389923 0.81596279 0.03393784
v 0.00839730 0.52347844 0.02507874
v 0.01321724 0.53692705 0.03419331
v 0.00913854 0.80214176 0.04222644
v 0.02077083 0.52431818 0.00363715
v 0.03061229 0.53810757 0.00405014
v 0.02653359 0.80332228 0.01208327
vt 1.00000000 0.00000000
vt 1.00000000 1.00000000
vt 0.00000000 0.50000000
vt 1.00000000 0.00000000
vt 1.00000000 1.00000000
vt 0.00000000 0.50000000
vt 0.00000000 1.00000000
vt 0.00000000 0.00000000
vt 1.00000000 0.00000000
vt 1.00000000 1.00000000
vt 1.00000000 0.75000000
vt 0.00000000 1.00000000
vt 0.00000000 0.00000000
vt 0.00000000 0.25000000
vt 1.00000000 0.00000000
vt 1.00000000 1.00000000
vt 0.00000000 0.25000000
vt 1.00000000 0.00000000
vt 1.00000000 1.00000000
vt 0.00000000 1.00000000
vt 0.00000000 0.00000000
vt 1.00000000 0.00000000
vt 1.00000000 1.00000000
vt 0.00000000 0.00000000
vt 1.00000000 0.25000000
vt 0.00000000 1.00000000
vt 0.00000000 0.00000000
vt 1.00000000 0.25000000
vt 0.00000000 1.00000000
vt 0.00000000 1.00000000
vt 0.00000000 0.00000000
vt 1.00000000 0.00000000
vt 1.00000000 1.00000000
vt 0.00000000 1.00000000
vt 0.00000000 0.00000000
vt 1.00000000 0.50000000
vt 0.00000000 1.00000000
vt 0.00000000 0.00000000
vt 1.00000000 0.50000000
vt 0.00000000 1.00000000
vt 0.00000000 0.00000000
vt 1.00000000 0.00000000
vt 1.00000000 1.00000000
vt 1.00000000 0.75000000
vt 0.00000000 1.00000000
vt 0.00000000 0.00000000
vt 0.00000000 1.00000000
vt 0.00000000 0.00000000
vt 1.00000000 0.00000000
vt 1.00000000 1.00000000
vt 1.00000000 1.00000000
vt 0.00000000 0.75000000
vt 1.00000000 0.00000000
vt 1.00000000 1.00000000
vt 0.00000000 0.75000000
vt 1.00000000 0.00000000
vt 0.00000000 1.00000000
vt 0.00000000 0.00000000
vt 1.00000000 0.00000000
vt 1.00000000 1.00000000
vt 0.00000000 0.00000000
vt 1.00000000 0.00000000
vt 0.85566243 1.00000000
vt 0.14433757 1.00000000
vt 0.14433757 0.00000000
vt 0.85566243 0.00000000
vt 1.00000000 1.00000000
vt 0.00000000 1.00000000
vt 0.00001500 0.00000000
vt 1.00000000 0.00000000
vt 0.85566460 1.00000000
vt 0.14435040 1.00000000
vt 0.00000000 0.00000000
vt 0.99997500 0.00000000
vt 0.85564104 1.00000000
vt 0.14433396 1.00000000
vt 0.14433396 0.00000000
vt 0.85564104 0.00000000
vt 0.99997500 1.00000000
vt 0.00000000 1.00000000
vt 0.00001500 0.00000000
vt 0.99997500 0.00000000
vt 0.85564321 1.00000000
vt 0.14434679 1.00000000
vt 0.14435040 0.00000000
vt 0.85566460 0.00000000
vt 1.00000000 1.00000000
vt 0.00001500 1.00000000
vt 0.00000000 0.00000000
vt 1.00000000 0.00000000
vt 0.85566243 1.00000000
vt 0.14433757 1.00000000
vt 0.14433757 0.00000000
vt 0.85566243 0.00000000
vt 1.00000000 1.00000000
vt 0.00000000 1.00000000
vt 0.14435040 0.00000000
vt 0.85566460 0.00000000
vt 1.00000000 1.00000000
vt 0.00001500 1.00000000
vt 0.00001500 0.00000000
vt 0.99997500 0.00000000
vt 0.85564321 1.00000000
vt 0.14434679 1.00000000
vt 0.14435040 0.00000000
vt 0.85566460 0.00000000
vt 1.00000000 1.00000000
vt 0.00001500 1.00000000
vn -0.01383877 0.89985748 -0.43596445
vn -0.01383877 0.89985748 -0.43596445
vn -0.01383877 0.89985748 -0.43596445
vn 0.01340772 -0.87182873 -0.48962731
vn 0.01340772 -0.87182873 -0.48962731
vn 0.01340772 -0.87182873 -0.48962731
vn -0.00046549 0.03026810 -0.99954171
vn -0.00046549 0.03026810 -0.99954171
vn -0.00046549 0.03026810 -0.99954171
vn -0.00046549 0.03026810 -0.99954171
vn 0.38719833 0.89901612 -0.20456651
vn 0.38719833 0.89901612 -0.20456651
vn 0.38719833 0.89901612 -0.20456651
vn -0.41444483 0.87267009 0.25822937
vn -0.41444483 0.87267009 0.25822937
vn -0.41444483 0.87267009 0.25822937
vn -0.38719833 -0.89901612 0.20456651
vn -0.38719833 -0.89901612 0.20456651
vn -0.38719833 -0.89901612 0.20456651
vn -0.86569027 -0.02845095 0.49977085
vn -0.86569027 -0.02845095 0.49977085
vn -0.86569027 -0.02845095 0.49977085
vn -0.86569027 -0.02845095 0.49977085
vn -0.41466035 0.88668446 -0.20456651
vn -0.41466035 0.88668446 -0.20456651
vn -0.41466035 0.88668446 -0.20456651
vn -0.38741386 -0.88500175 -0.25822937
vn -0.38741386 -0.88500175 -0.25822937
vn -0.38741386 -0.88500175 -0.25822937
vn -0.86615575 0.00181715 -0.49977085
vn -0.86615575 0.00181715 -0.49977085
vn -0.86615575 0.00181715 -0.49977085
vn -0.86615575 0.00181715 -0.49977085
vn -0.01340772 0.87182873 0.48962731
vn -0.01340772 0.87182873 0.48962731
vn -0.01340772 0.87182873 0.48962731
vn 0.01383877 -0.89985748 0.43596445
vn 0.01383877 -0.89985748 0.43596445
vn 0.01383877 -0.89985748 0.43596445
vn 0.00046549 -0.03026810 0.99954171
vn 0.00046549 -0.03026810 0.99954171
vn 0.00046549 -0.03026810 0.99954171
vn 0.00046549 -0.03026810 0.99954171
vn 0.41444483 -0.87267009 -0.25822937
vn 0.41444483 -0.87267009 -0.25822937
vn 0.41444483 -0.87267009 -0.25822937
vn 0.86569027 0.02845095 -0.49977085
vn 0.86569027 0.02845095 -0.49977085
vn 0.86569027 0.02845095 -0.49977085
vn 0.86569027 0.02845095 -0.49977085
vn 0.38741386 0.88500175 0.25822937
vn 0.38741386 0.88500175 0.25822937
vn 0.38741386 0.88500175 0.25822937
vn 0.41466035 -0.88668446 0.20456651
vn 0.41466035 -0.88668446 0.20456651
vn 0.41466035 -0.88668446 0.20456651
vn 0.86615575 -0.00181715 0.49977085
vn 0.86615575 -0.00181715 0.49977085
vn 0.86615575 -0.00181715 0.49977085
vn 0.86615575 -0.00181715 0.49977085
vn -0.00866029 0.56313027 -0.82632276
vn -0.00866029 0.56313027 -0.82632276
vn -0.00866029 0.56313027 -0.82632276
vn -0.00866029 0.56313027 -0.82632276
vn 0.00787549 -0.51209867 -0.85889052
vn 0.00787549 -0.51209867 -0.85889052
vn 0.00787549 -0.51209867 -0.85889052
vn 0.00787549 -0.51209867 -0.85889052
vn 0.72150292 0.56159842 -0.40501944
vn 0.72150292 0.56159842 -0.40501944
vn 0.72150292 0.56159842 -0.40501944
vn 0.72150292 0.56159842 -0.40501944
vn -0.73803871 0.51363052 0.43758720
vn -0.73803871 0.51363052 0.43758720
vn -0.73803871 0.51363052 0.43758720
vn -0.73803871 0.51363052 0.43758720
vn -0.72150292 -0.56159842 0.40501944
vn -0.72150292 -0.56159842 0.40501944
vn -0.72150292 -0.56159842 0.40501944
vn -0.72150292 -0.56159842 0.40501944
vn -0.73843111 0.53914632 -0.40501944
vn -0.73843111 0.53914632 -0.40501944
vn -0.73843111 0.53914632 -0.40501944
vn -0.73843111 0.53914632 -0.40501944
vn -0.72189533 -0.53608262 -0.43758720
vn -0.72189533 -0.53608262 -0.43758720
vn -0.72189533 -0.53608262 -0.43758720
vn -0.72189533 -0.53608262 -0.43758720
vn -0.00787549 0.51209867 0.85889052
vn -0.00787549 0.51209867 0.85889052
vn -0.00787549 0.51209867 0.85889052
vn -0.00787549 0.51209867 0.85889052
vn 0.00866029 -0.56313027 0.82632276
vn 0.00866029 -0.56313027 0.82632276
vn 0.00866029 -0.56313027 0.82632276
vn 0.00866029 -0.56313027 0.82632276
vn 0.73803871 -0.51363052 -0.43758720
vn 0.73803871 -0.51363052 -0.43758720
vn 0.73803871 -0.51363052 -0.43758720
vn 0.73803871 -0.51363052 -0.43758720
vn 0.72189533 0.53608262 0.43758720
vn 0.72189533 0.53608262 0.43758720
vn 0.72189533 0.53608262 0.43758720
vn 0.72189533 0.53608262 0.43758720
vn 0.73843111 -0.53914632 0.40501944
vn 0.73843111 -0.53914632 0.40501944
vn 0.73843111 -0.53914632 0.40501944
vn 0.73843111 -0.53914632 0.40501944
s 1
usemtl Cattail
f 19/63/63 18/62/62 17/61/61
s 2
f 20/64/64 21/65/65 22/66/66
s 3
f 26/70/70 25/69/69 24/68/68
f 26/70/70 24/68/68 23/67/67
s 4
f 19/73/73 27/72/72 18/71/71
s 5
f 19/76/76 29/75/75 28/74/74
s 6
f 30/77/77 31/78/78 22/79/79
s 7
f 35/83/83 34/82/82 33/81/81
f 35/83/83 33/81/81 32/80/80
s 8
f 19/86/86 17/85/85 29/84/84
s 9
f 31/87/87 20/88/88 22/89/89
s 10
f 34/93/93 26/92/92 33/90/90
f 26/92/92 23/91/91 33/90/90
s 11
f 19/96/96 28/95/95 36/94/94
s 12
f 37/97/97 30/98/98 22/99/99
s 13
f 39/103/103 35/102/102 38/100/100
f 35/102/102 32/101/101 38/100/100
s 14
f 21/104/104 40/105/105 22/106/106
s 15
f 25/110/110 42/109/109 41/108/108
f 25/110/110 41/108/108 24/107/107
s 16
f 19/113/113 36/112/112 27/111/111
s 17
f 40/114/114 37/115/115 22/116/116
s 18
f 42/120/120 39/119/119 41/117/117
f 39/119/119 38/118/118 41/117/117
s 19
f 25/121/121 26/122/122 18/124/124
f 26/122/122 17/123/123 18/124/124
s 20
f 21/125/125 20/126/126 24/128/128
f 20/126/126 23/127/127 24/128/128
s 21
f 42/129/129 25/130/130 27/132/132
f 25/130/130 18/131/131 27/132/132
s 22
f 34/133/133 35/134/134 28/135/135
f 34/133/133 28/135/135 29/136/136
s 23
f 31/137/137 30/138/138 33/140/140
f 30/138/138 32/139/139 33/140/140
s 24
f 26/141/141 34/142/142 29/143/143
f 26/141/141 29/143/143 17/144/144
s 25
f 20/145/145 31/146/146 23/148/148
f 31/146/146 33/147/147 23/148/148
s 26
f 35/149/149 39/150/150 36/151/151
f 35/149/149 36/151/151 28/152/152
s 27
f 30/153/153 37/154/154 38/155/155
f 30/153/153 38/155/155 32/156/156
s 28
f 40/157/157 21/158/158 24/159/159
f 40/157/157 24/159/159 41/160/160
s 29
f 39/161/161 42/162/162 36/164/164
f 42/162/162 27/163/163 36/164/164
s 30
f 37/165/165 40/166/166 41/167/167
f 37/165/165 41/167/167 38/168/168
