mtllib Prop_Branch_2.mtl
o object1
g object1
v -0.53222866 0.10000000 -0.31554268
v -0.10146575 0.06750000 -0.10766334
v -0.09510787 0.11625000 -0.13508167
v -0.52173933 0.14062500 -0.33652134
v -0.52173933 0.05937500 -0.33652134
v -0.09510787 0.01875000 -0.13508167
v -0.50076067 0.05937500 -0.37847866
v -0.08239213 0.01875000 -0.18991833
v -0.49027134 0.10000000 -0.39945732
v -0.07603425 0.06750000 -0.21733666
v -0.50076067 0.14062500 -0.37847866
v -0.08239213 0.11625000 -0.18991833
v -0.90492990 0.13250000 -0.42464950
v -0.90860980 0.10000000 -0.44304900
v -0.89757010 0.13250000 -0.38785050
v -0.89389020 0.10000000 -0.36945100
v -0.89757010 0.06750000 -0.38785050
v -0.90492990 0.06750000 -0.42464950
v -0.90125000 0.10000000 -0.40625000
v 0.46195808 0.08375000 -0.12814673
v 0.47097904 0.14062500 -0.09657337
v 0.90250000 0.06750000 -0.14005553
v 0.90250000 0.13250000 -0.10252777
v 0.90250000 0.00250000 -0.10252777
v 0.47097904 0.02687500 -0.09657337
v 0.90250000 0.00250000 -0.02747223
v 0.48902096 0.02687500 -0.03342663
v 0.90250000 0.06750000 0.01005553
v 0.49804192 0.08375000 -0.00185327
v 0.90250000 0.13250000 -0.02747223
v 0.48902096 0.14062500 -0.03342663
v 0.14703914 0.10000000 0.26185480
v 0.13476957 0.13656250 0.24467740
v -0.17775301 0.10000000 0.36808260
v -0.18200150 0.12437500 0.35466630
v -0.18200150 0.07562500 0.35466630
v 0.13476957 0.06343750 0.24467740
v -0.19049850 0.07562500 0.32783370
v 0.11023043 0.06343750 0.21032260
v -0.19474699 0.10000000 0.31441740
v 0.09796086 0.10000000 0.19314520
v -0.19049850 0.12437500 0.32783370
v 0.11023043 0.13656250 0.21032260
v 0.41065440 0.13735486 -0.04706465
v 0.35319488 0.08860554 -0.03214397
v 0.35460685 0.07986211 -0.02716883
v 0.40852889 0.03320443 -0.04344579
v -0.18625000 0.10000000 0.34125000
v 0.90250000 0.06750000 -0.06500000
vt 1.00000000 1.00000000
vt 0.00000000 1.00000000
vt 0.00000000 0.00000000
vt 1.00000000 0.00000000
vt 1.00000000 1.00000000
vt 0.00000000 1.00000000
vt 0.00000000 0.00000000
vt 1.00000000 0.00000000
vt 1.00000000 1.00000000
vt 0.00000000 1.00000000
vt 0.00000000 0.00000000
vt 1.00000000 0.00000000
vt 1.00000000 1.00000000
vt 0.00000000 1.00000000
vt 0.00000000 0.00000000
vt 1.00000000 0.00000000
vt 1.00000000 1.00000000
vt 0.00000000 1.00000000
vt 0.00000000 0.00000000
vt 1.00000000 0.00000000
vt 1.00000000 1.00000000
vt 0.00000000 1.00000000
vt 0.00000000 0.00000000
vt 1.00000000 0.00000000
vt 1.00000000 1.00000000
vt 0.00000000 1.00000000
vt 0.00000000 0.00000000
vt 1.00000000 0.00000000
vt 0.75000000 0.00000000
vt 1.00000000 0.50000000
vt 0.75000000 1.00000000
vt 0.25000000 1.00000000
vt 0.00000000 0.50000000
vt 0.25000000 0.00000000
vt 0.50000000 0.50000000
vt 0.00000000 0.00000000
vt 1.00000000 0.00000000
vt 1.00000000 1.00000000
vt 0.00000000 1.00000000
vt 0.00000000 0.00000000
vt 1.00000000 0.00000000
vt 1.00000000 1.00000000
vt 0.00000000 1.00000000
vt 0.00000000 0.00000000
vt 1.00000000 0.00000000
vt 1.00000000 1.00000000
vt 0.00000000 1.00000000
vt 0.00000000 0.00000000
vt 1.00000000 0.00000000
vt 1.00000000 1.00000000
vt 0.00000000 1.00000000
vt 0.00000000 0.00000000
vt 1.00000000 0.00000000
vt 1.00000000 1.00000000
vt 0.00000000 1.00000000
vt 0.00000000 0.00000000
vt 1.00000000 0.00000000
vt 1.00000000 1.00000000
vt 0.00000000 1.00000000
vt 1.00000000 1.00000000
vt 0.00000000 1.00000000
vt 0.00000000 0.00000000
vt 1.00000000 0.00000000
vt 1.00000000 1.00000000
vt 0.00000000 1.00000000
vt 0.00000000 0.00000000
vt 1.00000000 0.00000000
vt 1.00000000 1.00000000
vt 0.00000000 1.00000000
vt 0.00000000 0.00000000
vt 1.00000000 0.00000000
vt 1.00000000 1.00000000
vt 0.00000000 1.00000000
vt 0.00000000 0.00000000
vt 1.00000000 0.00000000
vt 1.00000000 1.00000000
vt 0.00000000 1.00000000
vt 0.00000000 0.00000000
vt 1.00000000 0.00000000
vt 1.00000000 1.00000000
vt 0.00000000 1.00000000
vt 0.00000000 0.00000000
vt 1.00000000 0.00000000
vt 0.00000000 1.00000000
vt 0.16593491 0.95148006
vt 0.29880227 0.00000000
vt 1.00000000 0.00000000
vt 1.00000000 1.00000000
vt 0.15200331 1.00000000
vt 0.15303777 0.82757163
vt 0.00000000 0.00000000
vt 1.00000000 0.00000000
vt 1.00000000 1.00000000
vt 1.00000000 1.00000000
vt 0.17311266 1.00000000
vt 0.00000000 0.00000000
vt 1.00000000 0.00000000
vt 0.75000000 0.00000000
vt 1.00000000 0.50000000
vt 0.75000000 1.00000000
vt 0.25000000 1.00000000
vt 0.00000000 0.50000000
vt 0.25000000 0.00000000
vt 0.50000000 0.50000000
vt 1.00000000 1.00000000
vt 0.00000000 1.00000000
vt 0.00000000 0.00000000
vt 1.00000000 0.00000000
vt 1.00000000 1.00000000
vt 0.00000000 1.00000000
vt 0.00000000 0.00000000
vt 1.00000000 0.00000000
vt 1.00000000 1.00000000
vt 0.00000000 1.00000000
vt 0.00000000 0.00000000
vt 1.00000000 0.00000000
vt 0.75000000 0.00000000
vt 1.00000000 0.50000000
vt 0.75000000 1.00000000
vt 0.25000000 1.00000000
vt 0.00000000 0.50000000
vt 0.25000000 0.00000000
vt 0.50000000 0.50000000
vt 0.00000000 0.00000000
vt 1.00000000 0.00000000
vt 1.00000000 1.00000000
vt 0.00000000 1.00000000
vt 1.00000000 1.00000000
vt 0.13415972 1.00000000
vt 0.00000000 0.00000000
vt 1.00000000 0.00000000
vt 1.00000000 1.00000000
vt 0.00000000 1.00000000
vt 0.00000000 0.00000000
vt 1.00000000 0.00000000
vt 0.00000000 0.00000000
vt 1.00000000 0.00000000
vt 1.00000000 1.00000000
vt 0.00000000 1.00000000
vt 1.00000000 1.00000000
vt 0.00000000 1.00000000
vt 0.00000000 0.00000000
vt 1.00000000 0.00000000
vt 0.00000000 0.00000000
vt 1.00000000 0.00000000
vt 1.00000000 1.00000000
vt 0.00000000 1.00000000
vt 1.00000000 1.00000000
vt 0.00000000 1.00000000
vt 0.00000000 0.00000000
vt 1.00000000 0.00000000
vt 0.00000000 1.00000000
vt 0.13937460 0.86613734
vt 0.23925478 0.00000000
vt 1.00000000 0.00000000
vt 1.00000000 1.00000000
vt 1.00000000 1.00000000
vt 0.00000000 1.00000000
vt 0.00000000 0.00000000
vt 1.00000000 0.00000000
vt 1.00000000 1.00000000
vt 0.00000000 1.00000000
vt 0.00000000 0.00000000
vt 1.00000000 0.00000000
vt 0.12137927 1.00000000
vt 0.12246283 0.84052940
vt 0.00000000 0.00000000
vt 1.00000000 0.00000000
vt 1.00000000 1.00000000
vn -0.34567210 0.49946889 0.79438129
vn -0.34747139 0.49368679 0.79720574
vn -0.34809518 0.49363360 0.79696651
vn -0.34638760 0.49948682 0.79405827
vn -0.40825893 -0.49986127 0.76384773
vn -0.41038243 -0.48710628 0.77091746
vn -0.40908025 -0.48726807 0.77150708
vn -0.40672426 -0.49988094 0.76465314
vn -0.07893609 -0.99609807 -0.03946804
vn -0.08755942 -0.99595236 -0.02030363
vn -0.08549470 -0.99614137 -0.01982486
vn -0.07675178 -0.99631142 -0.03837589
vn 0.31583945 -0.49845488 -0.80733400
vn 0.31656103 -0.49603183 -0.80854285
vn 0.31628834 -0.49605001 -0.80863841
vn 0.31552698 -0.49844154 -0.80746440
vn 0.37989681 0.49998294 -0.77826440
vn 0.38168131 0.49041755 -0.78346027
vn 0.38272558 0.49030631 -0.78302034
vn 0.38112801 0.49998814 -0.77765886
vn 0.08979434 0.48295564 -0.87102860
vn 0.09042204 0.47528448 -0.87517342
vn 0.09117973 0.47540556 -0.87502904
vn 0.09075975 0.48282932 -0.87099857
vn -0.02222017 0.99974322 0.00444403
vn -0.02023167 0.99974414 -0.01011583
vn -0.01901247 0.99977405 -0.00950623
vn -0.02056848 0.99977998 0.00411370
vn -0.98058068 0.00000000 0.19611614
vn -0.98058068 0.00000000 0.19611614
vn -0.98058068 0.00000000 0.19611614
vn -0.98058068 0.00000000 0.19611614
vn -0.98058068 0.00000000 0.19611614
vn -0.98058068 0.00000000 0.19611614
vn -0.98058068 0.00000000 0.19611614
vn 0.13108265 0.46520063 -0.87544601
vn 0.12707086 0.49877756 -0.85736453
vn 0.12278126 0.49862078 -0.85808046
vn 0.12718283 0.46592474 -0.87563615
vn -0.00496729 0.49999383 -0.86601472
vn -0.00569537 0.48604519 -0.87391512
vn -0.00291618 0.48571414 -0.87411285
vn -0.00253559 0.49999839 -0.86602262
vn -0.04016067 -0.49959662 -0.86532672
vn -0.03968387 -0.48978448 -0.87093993
vn -0.04161157 -0.48997940 -0.87074029
vn -0.04181713 -0.49956264 -0.86526788
vn -0.05884883 -0.99826691 -0.00000000
vn -0.05908269 -0.99811035 0.01688077
vn -0.05616835 -0.99829233 0.01604810
vn -0.05639635 -0.99840846 -0.00000000
vn -0.04554043 -0.49948125 0.86512690
vn -0.04506659 -0.47939593 0.87644084
vn -0.04091541 -0.47998761 0.87632062
vn -0.04191004 -0.49956069 0.86526450
vn -0.00264623 0.49999825 0.86602237
vn -0.00306346 0.48498892 0.87451493
vn -0.00628557 0.48459080 0.87471838
vn -0.00541043 0.49999268 0.86601273
vn 0.53499109 0.49961291 0.68130131
vn 0.54350569 0.47166796 0.69435647
vn 0.54097075 0.47217315 0.69599078
vn 0.53132294 0.49969840 0.68410339
vn 0.26921549 0.49998336 0.82312798
vn 0.27228246 0.48249067 0.83250526
vn 0.27072756 0.48226771 0.83314131
vn 0.26683590 0.49999200 0.82389721
vn 0.26683590 -0.49999200 0.82389721
vn 0.27072756 -0.48226771 0.83314131
vn 0.27228246 -0.48249067 0.83250526
vn 0.26921549 -0.49998336 0.82312798
vn -0.03603824 -0.99928525 0.01141211
vn -0.03165939 -0.99924286 0.02261385
vn -0.03080622 -0.99928313 0.02200444
vn -0.03463999 -0.99933965 0.01096933
vn -0.33178726 -0.49860875 -0.80081616
vn -0.33360787 -0.49024678 -0.80521046
vn -0.33436779 -0.49032990 -0.80484457
vn -0.33295007 -0.49856181 -0.80036265
vn -0.33295007 0.49856181 -0.80036265
vn -0.33436779 0.49032990 -0.80484457
vn -0.33360787 0.49024678 -0.80521046
vn -0.33178726 0.49860875 -0.80081616
vn -0.57684955 0.46450332 -0.67192356
vn -0.57537769 0.46849174 -0.67041480
vn -0.57124996 0.47257238 -0.67108034
vn -0.56098036 0.49868690 -0.66076653
vn -0.56496785 0.49849365 -0.65750697
vn -0.59663517 -0.46748077 -0.65229456
vn -0.59720349 -0.46738474 -0.65184315
vn -0.60109120 -0.46298502 -0.65140943
vn -0.59098385 -0.49688042 -0.63549031
vn -0.58653552 -0.49720066 -0.63934935
vn -0.07888628 -0.99654461 0.02599593
vn -0.95334223 0.00000000 0.30189170
vn -0.95334223 0.00000000 0.30189170
vn -0.95334223 0.00000000 0.30189170
vn -0.95334223 0.00000000 0.30189170
vn -0.95334223 0.00000000 0.30189170
vn -0.95334223 0.00000000 0.30189170
vn -0.95334223 0.00000000 0.30189170
vn -0.03463999 0.99933965 0.01096933
vn -0.03080622 0.99928313 0.02200444
vn -0.03165939 0.99924286 0.02261385
vn -0.03603824 0.99928525 0.01141211
vn -0.00936642 0.99995255 0.00267612
vn -0.00905892 0.99995562 0.00258826
vn 0.50225252 -0.49999953 0.70550895
vn 0.51146722 -0.47766334 0.71431017
vn 0.51360062 -0.47728988 0.71302789
vn 0.50527622 -0.49999862 0.70334722
vn 1.00000000 0.00000000 0.00000000
vn 1.00000000 0.00000000 0.00000000
vn 1.00000000 0.00000000 0.00000000
vn 1.00000000 0.00000000 0.00000000
vn 1.00000000 0.00000000 0.00000000
vn 1.00000000 0.00000000 0.00000000
vn 1.00000000 0.00000000 0.00000000
vn 0.01882541 0.99982279 -0.00000000
vn 0.01964654 0.99980699 -0.00000000
vn -0.04007623 0.99915341 -0.00929304
vn -0.04338112 0.99901120 0.00973160
vn -0.04235002 0.99905457 -0.00982029
vn 0.09075975 -0.48282932 -0.87099857
vn 0.09117973 -0.47540556 -0.87502904
vn 0.09042204 -0.47528448 -0.87517342
vn 0.08979434 -0.48295564 -0.87102860
vn 0.15420049 -0.46074911 -0.87403231
vn 0.15122504 -0.49948505 -0.85302149
vn 0.15634277 -0.49959654 -0.85203300
vn 0.15873362 -0.45984414 -0.87369732
vn -0.02056848 -0.99977998 0.00411370
vn -0.01901247 -0.99977405 -0.00950623
vn -0.02023167 -0.99974414 -0.01011583
vn -0.02222017 -0.99974322 0.00444403
vn 0.01463571 -0.99988415 -0.00418163
vn 0.01336880 -0.99990583 0.00310001
vn 0.01412855 -0.99989482 0.00327618
vn 0.01542422 -0.99987133 -0.00440692
vn -0.12902440 -0.47744328 0.86913786
vn -0.12883340 -0.48106710 0.86716573
vn -0.12924356 -0.48112492 0.86707261
vn -0.12954626 -0.47736469 0.86910340
vn -0.14577422 -0.46240326 0.87460454
vn -0.14475030 -0.46713669 0.87225607
vn -0.14092020 -0.47104618 0.87077953
vn -0.13747297 -0.49911882 0.85555922
vn -0.14181126 -0.49924482 0.85477727
vn -0.12954626 0.47736469 0.86910340
vn -0.12924356 0.48112492 0.86707261
vn -0.12883340 0.48106710 0.86716573
vn -0.12902440 0.47744328 0.86913786
vn 0.04615997 0.99866740 0.02307998
vn 0.05142373 0.99860573 0.01192434
vn 0.05267200 0.99853717 0.01221380
vn 0.04748014 0.99859003 0.02374007
vn -0.16593335 0.46728637 0.86839483
vn -0.16664620 0.46721071 0.86829903
vn -0.17071193 0.46245102 0.87005545
vn -0.16870177 0.49981003 0.84954673
vn -0.16366796 0.49973261 0.85057634
s 1
usemtl Wood_Dark
f 1/1/1 2/2/2 3/3/3
f 1/1/1 3/3/3 4/4/4
s 2
f 5/5/5 6/6/6 2/7/7
f 5/5/5 2/7/7 1/8/8
s 3
f 7/9/9 8/10/10 5/12/12
f 8/10/10 6/11/11 5/12/12
s 4
f 9/13/13 10/14/14 7/16/16
f 10/14/14 8/15/15 7/16/16
s 5
f 11/17/17 12/18/18 9/20/20
f 12/18/18 10/19/19 9/20/20
s 6
f 13/21/21 11/22/22 14/24/24
f 11/22/22 9/23/23 14/24/24
s 7
f 15/25/25 4/26/26 13/28/28
f 4/26/26 11/27/27 13/28/28
s 8
usemtl Wood_Light
f 13/34/34 14/33/33 19/35/35
f 16/30/30 15/29/29 19/35/35
f 17/31/31 16/30/30 19/35/35
f 18/32/32 17/31/31 19/35/35
f 14/33/33 18/32/32 19/35/35
f 15/29/29 13/34/34 19/35/35
s 9
usemtl Wood_Dark
f 20/36/36 10/37/37 12/38/38
f 20/36/36 12/38/38 21/39/39
s 10
f 22/40/40 20/41/41 21/42/42
f 22/40/40 21/42/42 23/43/43
s 11
f 24/44/44 25/45/45 22/47/47
f 25/45/45 20/46/46 22/47/47
s 12
f 26/48/48 27/49/49 24/51/51
f 47/95/94 27/96/49 37/97/74
f 39/73/73 37/74/74 36/75/75
f 38/72/72 39/73/73 36/75/75
f 39/94/73 47/95/94 37/97/74
f 27/49/49 25/50/50 24/51/51
s 13
f 28/52/52 29/53/53 26/55/55
f 29/53/53 27/54/54 26/55/55
s 14
f 30/56/56 31/57/57 29/58/58
f 30/56/56 29/58/58 28/59/59
s 15
f 32/60/60 29/61/61 33/63/63
f 29/61/61 31/62/62 33/63/63
s 16
f 34/64/64 32/65/65 33/66/66
f 34/64/64 33/66/66 35/67/67
s 17
f 36/68/68 37/69/69 34/71/71
f 37/69/69 32/70/70 34/71/71
s 18
f 40/76/76 41/77/77 38/79/79
f 41/77/77 39/78/78 38/79/79
s 19
f 42/80/80 43/81/81 41/82/82
f 42/80/80 41/82/82 40/83/83
s 20
f 45/86/86 41/87/87 43/88/88
f 21/84/84 44/85/85 43/88/88
f 44/85/85 45/86/86 43/88/88
s 21
f 41/93/93 45/89/89 46/90/90
f 46/90/90 47/91/91 39/92/92
f 39/92/92 41/93/93 46/90/90
s 22
usemtl Wood_Light
f 42/103/100 40/102/99 48/104/101
f 34/99/96 35/98/95 48/104/101
f 36/100/97 34/99/96 48/104/101
f 38/101/98 36/100/97 48/104/101
f 40/102/99 38/101/98 48/104/101
f 35/98/95 42/103/100 48/104/101
s 23
usemtl Wood_Dark
f 35/105/102 33/106/103 43/107/104
f 31/110/106 21/111/107 43/112/104
f 44/129/122 21/130/107 12/131/123
f 3/128/121 44/129/122 12/131/123
f 23/124/119 31/126/106 30/127/120
f 23/124/119 21/125/107 31/126/106
f 33/109/103 31/110/106 43/112/104
f 35/105/102 43/107/104 42/108/105
s 24
f 37/113/108 27/114/109 29/115/110
f 37/113/108 29/115/110 32/116/111
s 25
usemtl Wood_Light
f 30/117/112 28/118/113 49/123/118
f 22/121/116 23/122/117 49/123/118
f 24/120/115 22/121/116 49/123/118
f 26/119/114 24/120/115 49/123/118
f 28/118/113 26/119/114 49/123/118
f 23/122/117 30/117/112 49/123/118
s 26
usemtl Wood_Dark
f 14/132/124 9/133/125 7/134/126
f 14/132/124 7/134/126 18/135/127
s 27
f 25/136/128 8/137/129 20/139/131
f 8/137/129 10/138/130 20/139/131
s 28
f 18/140/132 7/141/133 5/142/134
f 18/140/132 5/142/134 17/143/135
s 29
f 27/144/136 6/145/137 25/147/139
f 6/145/137 8/146/138 25/147/139
s 30
f 17/148/140 5/149/141 1/150/142
f 17/148/140 1/150/142 16/151/143
s 31
f 46/154/146 2/155/147 6/156/148
f 27/152/144 47/153/145 6/156/148
f 47/153/145 46/154/146 6/156/148
s 32
f 16/157/149 1/158/150 15/160/152
f 1/158/150 4/159/151 15/160/152
s 33
f 4/161/153 3/162/154 12/163/155
f 4/161/153 12/163/155 11/164/156
s 34
f 2/169/161 46/165/157 45/166/158
f 45/166/158 44/167/159 3/168/160
f 3/168/160 2/169/161 45/166/158
