mtllib Prop_Fence_Boards_3.mtl
o object1
g object1
v -0.15149953 0.42061629 0.47500000
v -0.50129850 0.40875546 0.47500000
v -0.50129850 0.40875546 0.52500000
v -0.15149953 0.42061629 0.52500000
v -0.49621529 0.25884161 0.47500000
v -0.05070976 0.39901946 0.47500000
v 0.04838560 0.42739391 0.47500000
v 0.49812713 0.44264356 0.47500000
v 0.50321035 0.29272971 0.47500000
v 0.50321035 0.29272971 0.52500000
v -0.49621529 0.25884161 0.52500000
v 0.49812713 0.44264356 0.52500000
v 0.04838560 0.42739391 0.52500000
v -0.05070976 0.39901946 0.52500000
vt 0.00000000 0.00000000
vt 1.00000000 0.00000000
vt 1.00000000 1.00000000
vt 0.00000000 1.00000000
vt 1.00000000 0.00000000
vt 1.00000000 1.00000000
vt 0.65000000 1.00000000
vt 0.55000000 0.83333333
vt 0.45000000 1.00000000
vt 0.00000000 1.00000000
vt 0.00000000 0.00000000
vt 0.00000000 1.00000000
vt 0.00000000 0.00000000
vt 1.00000000 0.00000000
vt 1.00000000 1.00000000
vt 0.00000000 1.00000000
vt 0.00000000 0.00000000
vt 1.00000000 0.00000000
vt 1.00000000 1.00000000
vt 1.00000000 1.00000000
vt 0.00000000 1.00000000
vt 0.00000000 0.00000000
vt 1.00000000 0.00000000
vt 0.00000000 0.00000000
vt 1.00000000 0.00000000
vt 1.00000000 1.00000000
vt 0.00000000 1.00000000
vt 0.00000000 0.00000000
vt 1.00000000 0.00000000
vt 1.00000000 1.00000000
vt 0.00000000 1.00000000
vt 1.00000000 0.00000000
vt 1.00000000 1.00000000
vt 0.65000000 1.00000000
vt 0.55000000 0.83333333
vt 0.45000000 1.00000000
vt 0.00000000 1.00000000
vt 0.00000000 0.00000000
vt 0.00000000 1.00000000
vt 0.00000000 0.00000000
vt 1.00000000 0.00000000
vt 1.00000000 1.00000000
vn -0.03388810 0.99942563 0.00000000
vn -0.03388810 0.99942563 0.00000000
vn -0.03388810 0.99942563 0.00000000
vn -0.03388810 0.99942563 0.00000000
vn 0.00000000 0.00000000 -1.00000000
vn 0.00000000 0.00000000 -1.00000000
vn 0.00000000 0.00000000 -1.00000000
vn 0.00000000 0.00000000 -1.00000000
vn 0.00000000 0.00000000 -1.00000000
vn 0.00000000 0.00000000 -1.00000000
vn 0.00000000 0.00000000 -1.00000000
vn 0.03388810 -0.99942563 0.00000000
vn 0.03388810 -0.99942563 0.00000000
vn 0.03388810 -0.99942563 0.00000000
vn 0.03388810 -0.99942563 0.00000000
vn 0.99942563 0.03388810 0.00000000
vn 0.99942563 0.03388810 0.00000000
vn 0.99942563 0.03388810 0.00000000
vn 0.99942563 0.03388810 0.00000000
vn -0.03388810 0.99942563 0.00000000
vn -0.03388810 0.99942563 0.00000000
vn -0.03388810 0.99942563 0.00000000
vn -0.03388810 0.99942563 0.00000000
vn -0.27527260 0.96136621 0.00000000
vn -0.27527260 0.96136621 0.00000000
vn -0.27527260 0.96136621 0.00000000
vn -0.27527260 0.96136621 0.00000000
vn 0.20952004 0.97780435 0.00000000
vn 0.20952004 0.97780435 0.00000000
vn 0.20952004 0.97780435 0.00000000
vn 0.20952004 0.97780435 0.00000000
vn 0.00000000 0.00000000 1.00000000
vn 0.00000000 0.00000000 1.00000000
vn 0.00000000 0.00000000 1.00000000
vn 0.00000000 0.00000000 1.00000000
vn 0.00000000 0.00000000 1.00000000
vn 0.00000000 0.00000000 1.00000000
vn 0.00000000 0.00000000 1.00000000
vn -0.99942563 -0.03388810 0.00000000
vn -0.99942563 -0.03388810 0.00000000
vn -0.99942563 -0.03388810 0.00000000
vn -0.99942563 -0.03388810 0.00000000
s 1
usemtl Wood_Light
f 1/1/1 2/2/2 4/4/4
f 2/2/2 3/3/3 4/4/4
s 2
f 5/5/5 2/6/6 1/7/7
f 5/5/5 6/8/8 7/9/9
f 7/9/9 8/10/10 9/11/11
f 5/5/5 1/7/7 6/8/8
f 7/9/9 9/11/11 5/5/5
s 3
f 11/15/15 5/14/14 9/13/13
f 11/15/15 9/13/13 10/12/12
s 4
f 10/16/16 9/17/17 12/19/19
f 9/17/17 8/18/18 12/19/19
s 5
f 13/20/20 12/21/21 8/22/22
f 13/20/20 8/22/22 7/23/23
s 6
f 6/27/27 14/26/26 13/25/25
f 6/27/27 13/25/25 7/24/24
s 7
f 1/31/31 4/30/30 14/29/29
f 1/31/31 14/29/29 6/28/28
s 8
f 4/34/34 3/33/33 11/32/32
f 13/36/36 14/35/35 11/32/32
f 10/38/38 12/37/37 13/36/36
f 11/32/32 10/38/38 13/36/36
f 14/35/35 4/34/34 11/32/32
s 9
f 3/42/42 2/41/41 5/40/40
f 3/42/42 5/40/40 11/39/39
o object2
g object2
v -0.30205567 0.56058381 0.47500000
v -0.50196213 0.56669969 0.47500000
v -0.50196213 0.56669969 0.52500000
v -0.30205567 0.56058381 0.52500000
v 0.50215712 0.68605012 0.52500000
v 0.49757021 0.53612027 0.52500000
v -0.15212581 0.55599689 0.52500000
v -0.25131456 0.58404315 0.52500000
v -0.49737522 0.71662954 0.52500000
v 0.30225065 0.69216600 0.52500000
v 0.40067491 0.63913144 0.52500000
v 0.45218050 0.68757909 0.52500000
v -0.25131456 0.58404315 0.47500000
v -0.15212581 0.55599689 0.47500000
v 0.30225065 0.69216600 0.47500000
v -0.49737522 0.71662954 0.47500000
v 0.40067491 0.63913144 0.47500000
v 0.45218050 0.68757909 0.47500000
v 0.50215712 0.68605012 0.47500000
v 0.49757021 0.53612027 0.47500000
vt 0.00000000 0.00000000
vt 1.00000000 0.00000000
vt 1.00000000 1.00000000
vt 0.00000000 1.00000000
vt 0.00000000 1.00000000
vt 0.00000000 0.00000000
vt 0.65000000 0.00000000
vt 0.75000000 0.16666667
vt 0.80000000 0.00000000
vt 1.00000000 0.00000000
vt 1.00000000 1.00000000
vt 0.20000000 1.00000000
vt 0.10000000 0.66666667
vt 0.05000000 1.00000000
vt 0.00000000 0.00000000
vt 1.00000000 0.00000000
vt 1.00000000 1.00000000
vt 0.00000000 1.00000000
vt 0.00000000 0.00000000
vt 1.00000000 0.00000000
vt 1.00000000 1.00000000
vt 0.00000000 1.00000000
vt 0.00000000 0.00000000
vt 1.00000000 0.00000000
vt 1.00000000 1.00000000
vt 0.00000000 1.00000000
vt 0.00000000 0.00000000
vt 1.00000000 0.00000000
vt 1.00000000 1.00000000
vt 0.00000000 1.00000000
vt 1.00000000 1.00000000
vt 0.00000000 1.00000000
vt 0.00000000 0.00000000
vt 1.00000000 0.00000000
vt 0.00000000 1.00000000
vt 0.00000000 0.00000000
vt 1.00000000 0.00000000
vt 1.00000000 1.00000000
vt 1.00000000 1.00000000
vt 0.00000000 1.00000000
vt 0.00000000 0.00000000
vt 1.00000000 0.00000000
vt 0.00000000 0.00000000
vt 1.00000000 0.00000000
vt 1.00000000 1.00000000
vt 0.00000000 1.00000000
vt 0.00000000 1.00000000
vt 0.00000000 0.00000000
vt 0.65000000 0.00000000
vt 0.75000000 0.16666667
vt 0.80000000 0.00000000
vt 1.00000000 0.00000000
vt 1.00000000 1.00000000
vt 0.20000000 1.00000000
vt 0.10000000 0.66666667
vt 0.05000000 1.00000000
vt 0.00000000 1.00000000
vt 0.00000000 0.00000000
vt 1.00000000 0.00000000
vt 1.00000000 1.00000000
vn -0.03057943 -0.99953234 0.00000000
vn -0.03057943 -0.99953234 0.00000000
vn -0.03057943 -0.99953234 0.00000000
vn -0.03057943 -0.99953234 0.00000000
vn 0.00000000 0.00000000 1.00000000
vn 0.00000000 0.00000000 1.00000000
vn 0.00000000 0.00000000 1.00000000
vn 0.00000000 0.00000000 1.00000000
vn 0.00000000 0.00000000 1.00000000
vn 0.00000000 0.00000000 1.00000000
vn 0.00000000 0.00000000 1.00000000
vn 0.00000000 0.00000000 1.00000000
vn 0.00000000 0.00000000 1.00000000
vn 0.00000000 0.00000000 1.00000000
vn -0.27208860 -0.96227220 0.00000000
vn -0.27208860 -0.96227220 0.00000000
vn -0.27208860 -0.96227220 0.00000000
vn -0.27208860 -0.96227220 0.00000000
vn 0.03057943 0.99953234 0.00000000
vn 0.03057943 0.99953234 0.00000000
vn 0.03057943 0.99953234 0.00000000
vn 0.03057943 0.99953234 0.00000000
vn 0.47435552 0.88033337 0.00000000
vn 0.47435552 0.88033337 0.00000000
vn 0.47435552 0.88033337 0.00000000
vn 0.47435552 0.88033337 0.00000000
vn -0.68515317 0.72839902 0.00000000
vn -0.68515317 0.72839902 0.00000000
vn -0.68515317 0.72839902 0.00000000
vn -0.68515317 0.72839902 0.00000000
vn 0.03057943 0.99953234 0.00000000
vn 0.03057943 0.99953234 0.00000000
vn 0.03057943 0.99953234 0.00000000
vn 0.03057943 0.99953234 0.00000000
vn 0.99953234 -0.03057943 0.00000000
vn 0.99953234 -0.03057943 0.00000000
vn 0.99953234 -0.03057943 0.00000000
vn 0.99953234 -0.03057943 0.00000000
vn -0.03057943 -0.99953234 0.00000000
vn -0.03057943 -0.99953234 0.00000000
vn -0.03057943 -0.99953234 0.00000000
vn -0.03057943 -0.99953234 0.00000000
vn 0.41965338 -0.90768444 0.00000000
vn 0.41965338 -0.90768444 0.00000000
vn 0.41965338 -0.90768444 0.00000000
vn 0.41965338 -0.90768444 0.00000000
vn 0.00000000 0.00000000 -1.00000000
vn 0.00000000 0.00000000 -1.00000000
vn 0.00000000 0.00000000 -1.00000000
vn 0.00000000 0.00000000 -1.00000000
vn 0.00000000 0.00000000 -1.00000000
vn 0.00000000 0.00000000 -1.00000000
vn 0.00000000 0.00000000 -1.00000000
vn 0.00000000 0.00000000 -1.00000000
vn 0.00000000 0.00000000 -1.00000000
vn 0.00000000 0.00000000 -1.00000000
vn -0.99953234 0.03057943 0.00000000
vn -0.99953234 0.03057943 0.00000000
vn -0.99953234 0.03057943 0.00000000
vn -0.99953234 0.03057943 0.00000000
s 1
usemtl Wood_Light
f 18/46/46 17/45/45 15/43/43
f 17/45/45 16/44/44 15/43/43
s 2
f 19/47/47 26/56/56 25/55/55
f 25/55/55 24/54/54 21/49/49
f 24/54/54 22/50/50 21/49/49
f 23/53/53 18/51/51 22/50/50
f 23/53/53 17/52/52 18/51/51
f 24/54/54 23/53/53 22/50/50
f 21/49/49 20/48/48 25/55/55
f 20/48/48 19/47/47 25/55/55
s 3
f 28/60/60 21/59/59 27/57/57
f 21/59/59 22/58/58 27/57/57
s 4
f 29/61/61 30/62/62 24/64/64
f 30/62/62 23/63/63 24/64/64
s 5
f 29/68/68 24/67/67 25/66/66
f 29/68/68 25/66/66 31/65/65
s 6
f 31/72/72 25/71/71 26/70/70
f 31/72/72 26/70/70 32/69/69
s 7
f 26/73/73 19/74/74 33/75/75
f 26/73/73 33/75/75 32/76/76
s 8
f 20/77/77 34/78/78 33/79/79
f 20/77/77 33/79/79 19/80/80
s 9
f 28/84/84 34/83/83 20/82/82
f 28/84/84 20/82/82 21/81/81
s 10
f 27/88/88 22/87/87 15/85/85
f 22/87/87 18/86/86 15/85/85
s 11
f 31/97/97 32/98/98 33/89/89
f 28/91/91 29/96/96 31/97/97
f 27/92/92 30/95/95 29/96/96
f 15/93/93 16/94/94 30/95/95
f 27/92/92 15/93/93 30/95/95
f 28/91/91 27/92/92 29/96/96
f 31/97/97 34/90/90 28/91/91
f 31/97/97 33/89/89 34/90/90
s 12
f 23/102/102 30/101/101 17/99/99
f 30/101/101 16/100/100 17/99/99
