mtllib Prop_Grass_Clump_2.mtl
o object1
g object1
v 0.08928801 0.13619822 -0.01410481
v 0.16499409 0.27067017 -0.08855549
v 0.09233613 0.22079733 -0.07344919
v 0.03794635 0.09777767 -0.03018460
v 0.03382682 0.13619822 -0.08382745
v 0.00000000 -0.03300000 -0.00000000
v 0.02150293 0.10553566 -0.01710461
v 0.07589271 0.22855533 -0.06036920
v 0.12339820 0.27067017 -0.14084747
v 0.15136379 0.31684873 -0.12040302
v 0.25972171 0.38962613 -0.20659682
v 0.16780721 0.30909073 -0.13348301
vt 0.00000000 1.00000000
vt 0.25000000 0.00000000
vt 1.00000000 0.43005952
vt 1.00000000 0.00000000
vt 1.00000000 1.00000000
vt 0.00000000 0.33103448
vt 1.00000000 0.00000000
vt 1.00000000 1.00000000
vt 0.00000000 0.33103448
vt 0.00000000 1.00000000
vt 1.00000000 0.00000000
vt 1.00000000 0.75510204
vt 0.00000000 1.00000000
vt 1.00000000 0.00000000
vt 1.00000000 0.77272727
vt 1.00000000 0.00000000
vt 1.00000000 1.00000000
vt 0.00000000 0.32413793
vt 1.00000000 0.00000000
vt 1.00000000 1.00000000
vt 0.00000000 0.32413793
vt 0.00000000 1.00000000
vt 0.25000000 0.00000000
vt 1.00000000 0.43452381
vt 1.00000000 0.00000000
vt 1.00000000 1.00000000
vt 0.00000000 0.38613861
vt 1.00000000 0.00000000
vt 1.00000000 0.74657534
vt 0.00000000 1.00000000
vt 1.00000000 0.00000000
vt 1.00000000 0.72222222
vt 0.00000000 1.00000000
vt 1.00000000 0.00000000
vt 1.00000000 0.72222222
vt 0.00000000 1.00000000
vt 1.00000000 0.00000000
vt 1.00000000 1.00000000
vt 0.00000000 0.39603960
vt 1.00000000 0.00000000
vt 1.00000000 0.74657534
vt 0.00000000 1.00000000
vt 1.00000000 0.00000000
vt 1.00000000 1.00000000
vt 0.00000000 0.38613861
vt 0.00000000 1.00000000
vt 1.00000000 0.00000000
vt 1.00000000 0.77272727
vt 0.00000000 1.00000000
vt 0.25000000 0.00000000
vt 1.00000000 0.43005952
vt 0.00000000 1.00000000
vt 1.00000000 0.00000000
vt 1.00000000 0.75510204
vt 0.00000000 1.00000000
vt 0.25000000 0.00000000
vt 1.00000000 0.43452381
vt 1.00000000 0.00000000
vt 1.00000000 1.00000000
vt 0.00000000 0.39603960
vn 0.22281904 -0.56520443 -0.79428939
vn 0.22281904 -0.56520443 -0.79428939
vn 0.22281904 -0.56520443 -0.79428939
vn 0.57063253 -0.48527733 -0.66248353
vn 0.57063253 -0.48527733 -0.66248353
vn 0.57063253 -0.48527733 -0.66248353
vn 0.77385922 -0.48527733 -0.40699855
vn 0.77385922 -0.48527733 -0.40699855
vn 0.77385922 -0.48527733 -0.40699855
vn 0.89359496 -0.32961276 -0.30470226
vn 0.89359496 -0.32961276 -0.30470226
vn 0.89359496 -0.32961276 -0.30470226
vn -0.98334943 0.13803868 -0.11819147
vn -0.98334943 0.13803868 -0.11819147
vn -0.98334943 0.13803868 -0.11819147
vn -0.91178084 0.41018529 0.02009273
vn -0.91178084 0.41018529 0.02009273
vn -0.91178084 0.41018529 0.02009273
vn -0.22466365 0.41018529 0.88389721
vn -0.22466365 0.41018529 0.88389721
vn -0.22466365 0.41018529 0.88389721
vn -0.85062278 0.45454993 -0.26424468
vn -0.85062278 0.45454993 -0.26424468
vn -0.85062278 0.45454993 -0.26424468
vn -0.80460004 0.56632719 -0.17858412
vn -0.80460004 0.56632719 -0.17858412
vn -0.80460004 0.56632719 -0.17858412
vn -0.70528753 0.59663230 -0.38288302
vn -0.70528753 0.59663230 -0.38288302
vn -0.70528753 0.59663230 -0.38288302
vn 0.65507466 -0.75551427 -0.00868209
vn 0.65507466 -0.75551427 -0.00868209
vn 0.65507466 -0.75551427 -0.00868209
vn 0.15580479 -0.75551427 -0.63633565
vn 0.15580479 -0.75551427 -0.63633565
vn 0.15580479 -0.75551427 -0.63633565
vn 0.65842650 -0.71745583 -0.22744599
vn 0.65842650 -0.71745583 -0.22744599
vn 0.65842650 -0.71745583 -0.22744599
vn 0.21443223 0.59663230 0.77333610
vn 0.21443223 0.59663230 0.77333610
vn 0.21443223 0.59663230 0.77333610
vn -0.00696980 0.56632719 0.82415104
vn -0.00696980 0.56632719 0.82415104
vn -0.00696980 0.56632719 0.82415104
vn -0.10602079 0.13803868 0.98473596
vn -0.10602079 0.13803868 0.98473596
vn -0.10602079 0.13803868 0.98473596
vn 0.82405430 -0.56520443 -0.03845077
vn 0.82405430 -0.56520443 -0.03845077
vn 0.82405430 -0.56520443 -0.03845077
vn 0.49788959 -0.32961276 -0.80216045
vn 0.49788959 -0.32961276 -0.80216045
vn 0.49788959 -0.32961276 -0.80216045
vn 0.06614389 0.45454993 0.88826198
vn 0.06614389 0.45454993 0.88826198
vn 0.06614389 0.45454993 0.88826198
vn 0.36971683 -0.71745583 -0.59039529
vn 0.36971683 -0.71745583 -0.59039529
vn 0.36971683 -0.71745583 -0.59039529
s 1
usemtl Grass
f 3/3/3 2/2/2 1/1/1
s 2
f 4/4/4 3/5/5 1/6/6
s 3
f 5/9/9 3/8/8 4/7/7
s 4
f 4/12/12 6/11/11 5/10/10
s 5
f 5/13/13 6/14/14 7/15/15
s 6
f 7/16/16 8/17/17 5/18/18
s 7
f 1/21/21 8/20/20 7/19/19
s 8
f 8/24/24 9/23/23 5/22/22
s 9
f 9/27/27 8/26/26 10/25/25
s 10
f 9/30/30 10/29/29 11/28/28
s 11
f 11/31/31 12/32/32 9/33/33
s 12
f 2/36/36 12/35/35 11/34/34
s 13
f 12/37/37 3/38/38 9/39/39
s 14
f 11/40/40 10/41/41 2/42/42
s 15
f 10/43/43 8/44/44 2/45/45
s 16
f 7/48/48 6/47/47 1/46/46
s 17
f 5/49/49 9/50/50 3/51/51
s 18
f 1/52/52 6/53/53 4/54/54
s 19
f 1/55/55 2/56/56 8/57/57
s 20
f 2/60/60 3/59/59 12/58/58
o object2
g object2
v -0.05364899 0.27476982 -0.19408891
v -0.02050495 0.19671706 -0.10175951
v -0.02361890 0.23567077 -0.19638740
v -0.08299417 0.23288084 -0.17035298
v -0.10524327 0.33957556 -0.32386551
v -0.06287411 0.26814631 -0.21281251
v -0.02973006 0.19009355 -0.12048311
v 0.01976347 0.11758899 -0.09767835
v -0.01025247 0.08185853 -0.05087975
v -0.05940355 0.11386908 -0.06296580
v 0.00000000 -0.03300000 -0.00000000
v -0.00102735 0.08848204 -0.03215615
vt 1.00000000 0.00000000
vt 1.00000000 1.00000000
vt 0.00000000 0.38613861
vt 1.00000000 0.00000000
vt 1.00000000 1.00000000
vt 0.00000000 0.38613861
vt 1.00000000 0.00000000
vt 1.00000000 0.74657534
vt 0.00000000 1.00000000
vt 1.00000000 0.00000000
vt 1.00000000 0.72222222
vt 0.00000000 1.00000000
vt 1.00000000 0.00000000
vt 1.00000000 0.72222222
vt 0.00000000 1.00000000
vt 1.00000000 0.00000000
vt 1.00000000 1.00000000
vt 0.00000000 0.39603960
vt 0.00000000 1.00000000
vt 0.25000000 0.00000000
vt 1.00000000 0.43005952
vt 1.00000000 0.00000000
vt 1.00000000 1.00000000
vt 0.00000000 0.33103448
vt 1.00000000 0.00000000
vt 1.00000000 1.00000000
vt 0.00000000 0.33103448
vt 0.00000000 1.00000000
vt 1.00000000 0.00000000
vt 1.00000000 0.75510204
vt 0.00000000 1.00000000
vt 1.00000000 0.00000000
vt 1.00000000 0.77272727
vt 1.00000000 0.00000000
vt 1.00000000 1.00000000
vt 0.00000000 0.32413793
vt 1.00000000 0.00000000
vt 1.00000000 1.00000000
vt 0.00000000 0.32413793
vt 0.00000000 1.00000000
vt 1.00000000 0.00000000
vt 1.00000000 0.77272727
vt 0.00000000 1.00000000
vt 0.25000000 0.00000000
vt 1.00000000 0.43005952
vt 0.00000000 1.00000000
vt 1.00000000 0.00000000
vt 1.00000000 0.75510204
vt 1.00000000 0.00000000
vt 1.00000000 1.00000000
vt 0.00000000 0.39603960
vt 0.00000000 1.00000000
vt 0.25000000 0.00000000
vt 1.00000000 0.43452381
vt 1.00000000 0.00000000
vt 1.00000000 0.74657534
vt 0.00000000 1.00000000
vt 0.00000000 1.00000000
vt 0.25000000 0.00000000
vt 1.00000000 0.43452381
vn 0.78046831 0.58675073 0.21585364
vn 0.78046831 0.58675073 0.21585364
vn 0.78046831 0.58675073 0.21585364
vn -0.36900303 0.64026129 0.67372268
vn -0.36900303 0.64026129 0.67372268
vn -0.36900303 0.64026129 0.67372268
vn -0.51615298 0.66644049 0.53799923
vn -0.51615298 0.66644049 0.53799923
vn -0.51615298 0.66644049 0.53799923
vn 0.17447330 -0.79652217 -0.57888817
vn 0.17447330 -0.79652217 -0.57888817
vn 0.17447330 -0.79652217 -0.57888817
vn -0.52622913 -0.79228084 -0.30882677
vn -0.52622913 -0.79228084 -0.30882677
vn -0.52622913 -0.79228084 -0.30882677
vn -0.42405771 -0.76094592 -0.49105637
vn -0.42405771 -0.76094592 -0.49105637
vn -0.42405771 -0.76094592 -0.49105637
vn -0.68562824 -0.59840559 -0.41451739
vn -0.68562824 -0.59840559 -0.41451739
vn -0.68562824 -0.59840559 -0.41451739
vn -0.46149289 -0.53710759 -0.70607347
vn -0.46149289 -0.53710759 -0.70607347
vn -0.46149289 -0.53710759 -0.70607347
vn -0.16001256 -0.55412876 -0.81690715
vn -0.16001256 -0.55412876 -0.81690715
vn -0.16001256 -0.55412876 -0.81690715
vn -0.04125796 -0.40774970 -0.91216115
vn -0.04125796 -0.40774970 -0.91216115
vn -0.04125796 -0.40774970 -0.91216115
vn -0.37198455 0.23458241 0.89810834
vn -0.37198455 0.23458241 0.89810834
vn -0.37198455 0.23458241 0.89810834
vn -0.22540979 0.49794783 0.83739978
vn -0.22540979 0.49794783 0.83739978
vn -0.22540979 0.49794783 0.83739978
vn 0.79099768 0.42522820 0.43989050
vn 0.79099768 0.42522820 0.43989050
vn 0.79099768 0.42522820 0.43989050
vn 0.93520718 0.09797948 0.34027570
vn 0.93520718 0.09797948 0.34027570
vn 0.93520718 0.09797948 0.34027570
vn 0.18796561 -0.63717825 -0.74744419
vn 0.18796561 -0.63717825 -0.74744419
vn 0.18796561 -0.63717825 -0.74744419
vn -0.63656521 -0.35914984 -0.68249258
vn -0.63656521 -0.35914984 -0.68249258
vn -0.63656521 -0.35914984 -0.68249258
vn -0.01361791 -0.76601438 -0.64267917
vn -0.01361791 -0.76601438 -0.64267917
vn -0.01361791 -0.76601438 -0.64267917
vn -0.45728839 0.54409778 0.70345216
vn -0.45728839 0.54409778 0.70345216
vn -0.45728839 0.54409778 0.70345216
vn 0.79272260 0.60948685 -0.01080089
vn 0.79272260 0.60948685 -0.01080089
vn 0.79272260 0.60948685 -0.01080089
vn 0.87669146 0.45430756 0.15816676
vn 0.87669146 0.45430756 0.15816676
vn 0.87669146 0.45430756 0.15816676
s 1
usemtl Grass
f 13/61/61 14/62/62 15/63/63
s 2
f 16/66/66 14/65/65 13/64/64
s 3
f 16/69/69 13/68/68 17/67/67
s 4
f 17/70/70 18/71/71 16/72/72
s 5
f 15/75/75 18/74/74 17/73/73
s 6
f 15/78/78 19/77/77 18/76/76
s 7
f 19/81/81 15/80/80 20/79/79
s 8
f 21/82/82 19/83/83 20/84/84
s 9
f 22/87/87 19/86/86 21/85/85
s 10
f 21/90/90 23/89/89 22/88/88
s 11
f 22/91/91 23/92/92 24/93/93
s 12
f 24/94/94 14/95/95 22/96/96
s 13
f 20/99/99 14/98/98 24/97/97
s 14
f 24/102/102 23/101/101 20/100/100
s 15
f 22/103/103 16/104/104 19/105/105
s 16
f 20/106/106 23/107/107 21/108/108
s 17
f 18/109/109 19/110/110 16/111/111
s 18
f 14/114/114 16/113/113 22/112/112
s 19
f 17/115/115 13/116/116 15/117/117
s 20
f 20/118/118 15/119/119 14/120/120
o object3
g object3
v -0.02633251 0.06907891 0.00784493
v -0.09293825 0.15972498 0.02768799
v -0.06266477 0.09167237 0.06514922
v -0.08810173 0.09167237 -0.02023316
v 0.00000000 -0.03300000 -0.00000000
v -0.04646913 0.06336249 0.01384399
v -0.11307488 0.15400856 0.03368705
v -0.16704382 0.19075697 0.08462557
v -0.20549681 0.21906685 0.06122121
v -0.18612154 0.19075697 0.02058878
v -0.31805536 0.27840873 0.09475444
v -0.18536018 0.22478327 0.05522215
vt 1.00000000 0.00000000
vt 1.00000000 1.00000000
vt 0.00000000 0.32413793
vt 1.00000000 0.00000000
vt 1.00000000 1.00000000
vt 0.00000000 0.32413793
vt 0.00000000 1.00000000
vt 1.00000000 0.00000000
vt 1.00000000 0.77272727
vt 0.00000000 1.00000000
vt 1.00000000 0.00000000
vt 1.00000000 0.75510204
vt 1.00000000 0.00000000
vt 1.00000000 1.00000000
vt 0.00000000 0.33103448
vt 1.00000000 0.00000000
vt 1.00000000 1.00000000
vt 0.00000000 0.33103448
vt 0.00000000 1.00000000
vt 0.25000000 0.00000000
vt 1.00000000 0.43005952
vt 1.00000000 0.00000000
vt 1.00000000 1.00000000
vt 0.00000000 0.39603960
vt 1.00000000 0.00000000
vt 1.00000000 1.00000000
vt 0.00000000 0.39603960
vt 1.00000000 0.00000000
vt 1.00000000 0.72222222
vt 0.00000000 1.00000000
vt 1.00000000 0.00000000
vt 1.00000000 0.74657534
vt 0.00000000 1.00000000
vt 1.00000000 0.00000000
vt 1.00000000 0.74657534
vt 0.00000000 1.00000000
vt 1.00000000 0.00000000
vt 1.00000000 1.00000000
vt 0.00000000 0.38613861
vt 1.00000000 0.00000000
vt 1.00000000 1.00000000
vt 0.00000000 0.38613861
vt 1.00000000 0.00000000
vt 1.00000000 0.72222222
vt 0.00000000 1.00000000
vt 0.00000000 1.00000000
vt 0.25000000 0.00000000
vt 1.00000000 0.43005952
vt 0.00000000 1.00000000
vt 1.00000000 0.00000000
vt 1.00000000 0.75510204
vt 0.00000000 1.00000000
vt 0.25000000 0.00000000
vt 1.00000000 0.43452381
vt 0.00000000 1.00000000
vt 1.00000000 0.00000000
vt 1.00000000 0.77272727
vt 0.00000000 1.00000000
vt 0.25000000 0.00000000
vt 1.00000000 0.43452381
vn 0.79872319 0.52100385 0.30099213
vn 0.79872319 0.52100385 0.30099213
vn 0.79872319 0.52100385 0.30099213
vn 0.50377750 0.52100385 -0.68903064
vn 0.50377750 0.52100385 -0.68903064
vn 0.50377750 0.52100385 -0.68903064
vn 0.46213900 0.18585350 -0.86711362
vn 0.46213900 0.18585350 -0.86711362
vn 0.46213900 0.18585350 -0.86711362
vn -0.72866894 -0.42817911 0.53451307
vn -0.72866894 -0.42817911 0.53451307
vn -0.72866894 -0.42817911 0.53451307
vn -0.70947964 -0.60164774 0.36695864
vn -0.70947964 -0.60164774 0.36695864
vn -0.70947964 -0.60164774 0.36695864
vn -0.79462939 -0.60164774 0.08114264
vn -0.79462939 -0.60164774 0.08114264
vn -0.79462939 -0.60164774 0.08114264
vn -0.69143330 -0.68094544 -0.24131577
vn -0.69143330 -0.68094544 -0.24131577
vn -0.69143330 -0.68094544 -0.24131577
vn -0.58113086 -0.81329429 -0.02897123
vn -0.58113086 -0.81329429 -0.02897123
vn -0.58113086 -0.81329429 -0.02897123
vn -0.47052853 -0.81329429 0.34227957
vn -0.47052853 -0.81329429 0.34227957
vn -0.47052853 -0.81329429 0.34227957
vn -0.31395336 -0.84267637 0.43741266
vn -0.31395336 -0.84267637 0.43741266
vn -0.31395336 -0.84267637 0.43741266
vn 0.07862840 0.71025777 -0.69953661
vn 0.07862840 0.71025777 -0.69953661
vn 0.07862840 0.71025777 -0.69953661
vn 0.44863983 0.71025777 0.54245387
vn 0.44863983 0.71025777 0.54245387
vn 0.44863983 0.71025777 0.54245387
vn 0.60325946 0.68201076 0.41344812
vn 0.60325946 0.68201076 0.41344812
vn 0.60325946 0.68201076 0.41344812
vn 0.27863905 0.68201076 -0.67618163
vn 0.27863905 0.68201076 -0.67618163
vn 0.27863905 0.68201076 -0.67618163
vn -0.50214654 -0.84267637 -0.19428174
vn -0.50214654 -0.84267637 -0.19428174
vn -0.50214654 -0.84267637 -0.19428174
vn -0.44663884 -0.68094544 0.58036803
vn -0.44663884 -0.68094544 0.58036803
vn -0.44663884 -0.68094544 0.58036803
vn -0.90238653 -0.42817911 -0.04859215
vn -0.90238653 -0.42817911 -0.04859215
vn -0.90238653 -0.42817911 -0.04859215
vn 0.24929014 0.56935722 -0.78338163
vn 0.24929014 0.56935722 -0.78338163
vn 0.24929014 0.56935722 -0.78338163
vn 0.86133176 0.18585350 0.47282775
vn 0.86133176 0.18585350 0.47282775
vn 0.86133176 0.18585350 0.47282775
vn 0.63736225 0.56935722 0.51923186
vn 0.63736225 0.56935722 0.51923186
vn 0.63736225 0.56935722 0.51923186
s 1
usemtl Grass
f 25/121/121 26/122/122 27/123/123
s 2
f 28/126/126 26/125/125 25/124/124
s 3
f 25/129/129 29/128/128 28/127/127
s 4
f 28/130/130 29/131/131 30/132/132
s 5
f 30/133/133 31/134/134 28/135/135
s 6
f 27/138/138 31/137/137 30/136/136
s 7
f 27/139/139 32/140/140 31/141/141
s 8
f 33/142/142 31/143/143 32/144/144
s 9
f 34/147/147 31/146/146 33/145/145
s 10
f 34/150/150 33/149/149 35/148/148
s 11
f 35/151/151 36/152/152 34/153/153
s 12
f 32/156/156 36/155/155 35/154/154
s 13
f 32/159/159 26/158/158 36/157/157
s 14
f 36/160/160 26/161/161 34/162/162
s 15
f 35/163/163 33/164/164 32/165/165
s 16
f 31/168/168 34/167/167 28/166/166
s 17
f 30/171/171 29/170/170 27/169/169
s 18
f 28/172/172 34/173/173 26/174/174
s 19
f 27/175/175 29/176/176 25/177/177
s 20
f 26/180/180 32/179/179 27/178/178
o object4
g object4
v 0.08009697 0.34483662 0.17604647
v 0.04016004 0.24947976 0.08826842
v 0.04589450 0.29496379 0.18154564
v 0.10671366 0.29496379 0.15387437
v 0.13743659 0.42343622 0.30207416
v 0.08879831 0.33645799 0.19517129
v 0.04886138 0.24110112 0.10739325
v -0.00797185 0.14973408 0.09004302
v 0.02008002 0.10823988 0.04413421
v 0.07312036 0.14973408 0.05314798
v 0.00000000 -0.03300000 -0.00000000
v 0.01137868 0.11661852 0.02500939
vt 1.00000000 0.00000000
vt 1.00000000 1.00000000
vt 0.00000000 0.38613861
vt 1.00000000 0.00000000
vt 1.00000000 1.00000000
vt 0.00000000 0.38613861
vt 1.00000000 0.00000000
vt 1.00000000 0.74657534
vt 0.00000000 1.00000000
vt 1.00000000 0.00000000
vt 1.00000000 0.72222222
vt 0.00000000 1.00000000
vt 1.00000000 0.00000000
vt 1.00000000 0.72222222
vt 0.00000000 1.00000000
vt 1.00000000 0.00000000
vt 1.00000000 1.00000000
vt 0.00000000 0.39603960
vt 0.00000000 1.00000000
vt 0.25000000 0.00000000
vt 1.00000000 0.43005952
vt 1.00000000 0.00000000
vt 1.00000000 1.00000000
vt 0.00000000 0.33103448
vt 1.00000000 0.00000000
vt 1.00000000 1.00000000
vt 0.00000000 0.33103448
vt 0.00000000 1.00000000
vt 1.00000000 0.00000000
vt 1.00000000 0.75510204
vt 0.00000000 1.00000000
vt 1.00000000 0.00000000
vt 1.00000000 0.77272727
vt 1.00000000 0.00000000
vt 1.00000000 1.00000000
vt 0.00000000 0.32413793
vt 1.00000000 0.00000000
vt 1.00000000 1.00000000
vt 0.00000000 0.32413793
vt 0.00000000 1.00000000
vt 1.00000000 0.00000000
vt 1.00000000 0.77272727
vt 0.00000000 1.00000000
vt 0.25000000 0.00000000
vt 1.00000000 0.43005952
vt 0.00000000 1.00000000
vt 1.00000000 0.00000000
vt 1.00000000 0.75510204
vt 1.00000000 0.00000000
vt 1.00000000 1.00000000
vt 0.00000000 0.39603960
vt 0.00000000 1.00000000
vt 0.25000000 0.00000000
vt 1.00000000 0.43452381
vt 1.00000000 0.00000000
vt 1.00000000 0.74657534
vt 0.00000000 1.00000000
vt 0.00000000 1.00000000
vt 0.25000000 0.00000000
vt 1.00000000 0.43452381
vn -0.81675777 0.53680155 -0.21154397
vn -0.81675777 0.53680155 -0.21154397
vn -0.81675777 0.53680155 -0.21154397
vn 0.37712495 0.53680155 -0.75473232
vn 0.37712495 0.53680155 -0.75473232
vn 0.37712495 0.53680155 -0.75473232
vn 0.55683147 0.56702248 -0.60697959
vn 0.55683147 0.56702248 -0.60697959
vn 0.55683147 0.56702248 -0.60697959
vn -0.15698346 -0.72989953 0.66528405
vn -0.15698346 -0.72989953 0.66528405
vn -0.15698346 -0.72989953 0.66528405
vn 0.60469115 -0.72989953 0.31874015
vn 0.60469115 -0.72989953 0.31874015
vn 0.60469115 -0.72989953 0.31874015
vn 0.50187674 -0.69013363 0.52137827
vn 0.50187674 -0.69013363 0.52137827
vn 0.50187674 -0.69013363 0.52137827
vn 0.73344011 -0.53568646 0.41845624
vn 0.73344011 -0.53568646 0.41845624
vn 0.73344011 -0.53568646 0.41845624
vn 0.51299559 -0.45707435 0.72658004
vn 0.51299559 -0.45707435 0.72658004
vn 0.51299559 -0.45707435 0.72658004
vn 0.21072820 -0.45707435 0.86410454
vn 0.21072820 -0.45707435 0.86410454
vn 0.21072820 -0.45707435 0.86410454
vn 0.07949446 -0.30759003 0.94819249
vn 0.07949446 -0.30759003 0.94819249
vn 0.07949446 -0.30759003 0.94819249
vn 0.35364083 0.12798767 -0.92658368
vn 0.35364083 0.12798767 -0.92658368
vn 0.35364083 0.12798767 -0.92658368
vn 0.20411104 0.38444312 -0.90030116
vn 0.20411104 0.38444312 -0.90030116
vn 0.20411104 0.38444312 -0.90030116
vn -0.81283177 0.38444312 -0.43761627
vn -0.81283177 0.38444312 -0.43761627
vn -0.81283177 0.38444312 -0.43761627
vn -0.93088650 0.12798767 -0.34215419
vn -0.93088650 0.12798767 -0.34215419
vn -0.93088650 0.12798767 -0.34215419
vn -0.16639567 -0.53568646 0.82786020
vn -0.16639567 -0.53568646 0.82786020
vn -0.16639567 -0.53568646 0.82786020
vn 0.66260904 -0.30759003 0.68288918
vn 0.66260904 -0.30759003 0.68288918
vn 0.66260904 -0.30759003 0.68288918
vn 0.06333286 -0.69013363 0.72090535
vn 0.06333286 -0.69013363 0.72090535
vn 0.06333286 -0.69013363 0.72090535
vn 0.46963458 0.42722308 -0.77260844
vn 0.46963458 0.42722308 -0.77260844
vn 0.46963458 0.42722308 -0.77260844
vn -0.82343436 0.56702248 0.02100865
vn -0.82343436 0.56702248 0.02100865
vn -0.82343436 0.56702248 0.02100865
vn -0.89101293 0.42722308 -0.15354607
vn -0.89101293 0.42722308 -0.15354607
vn -0.89101293 0.42722308 -0.15354607
s 1
usemtl Grass
f 37/181/181 38/182/182 39/183/183
s 2
f 40/186/186 38/185/185 37/184/184
s 3
f 40/189/189 37/188/188 41/187/187
s 4
f 41/190/190 42/191/191 40/192/192
s 5
f 39/195/195 42/194/194 41/193/193
s 6
f 39/198/198 43/197/197 42/196/196
s 7
f 43/201/201 39/200/200 44/199/199
s 8
f 45/202/202 43/203/203 44/204/204
s 9
f 46/207/207 43/206/206 45/205/205
s 10
f 45/210/210 47/209/209 46/208/208
s 11
f 46/211/211 47/212/212 48/213/213
s 12
f 48/214/214 38/215/215 46/216/216
s 13
f 44/219/219 38/218/218 48/217/217
s 14
f 48/222/222 47/221/221 44/220/220
s 15
f 46/223/223 40/224/224 43/225/225
s 16
f 44/226/226 47/227/227 45/228/228
s 17
f 42/229/229 43/230/230 40/231/231
s 18
f 38/234/234 40/233/233 46/232/232
s 19
f 41/235/235 37/236/236 39/237/237
s 20
f 44/238/238 39/239/239 38/240/240
