mtllib Prop_Rock_4.mtl
o object1
g object1
v -0.17228932 -0.18786797 -0.33460097
v -0.37500000 0.11213203 -0.60000000
v 0.37500000 0.11213203 -0.75000000
v 0.24362603 -0.18786797 -0.41778404
v -0.39392645 -0.18786797 0.10867328
v -0.75000000 0.11213203 0.15000000
v -0.21232619 -0.18786797 0.32659359
v -0.37500000 0.11213203 0.60000000
v 0.27639759 -0.18786797 0.42433835
v 0.37500000 0.11213203 0.75000000
v 0.45000000 -0.18786797 0.25073593
v 0.75000000 0.11213203 0.37500000
v 0.45000000 -0.18786797 -0.12886048
v 0.75000000 0.11213203 -0.22500000
v 0.75000000 0.58786797 0.37500000
v 0.75000000 0.58786797 -0.22500000
v 0.37500000 0.58786797 -0.75000000
v 0.33652146 0.80000000 -0.65269620
v 0.66213203 0.80000000 -0.19684139
v -0.37500000 0.58786797 -0.60000000
v -0.31562742 0.80000000 -0.52226642
v -0.75000000 0.58786797 0.15000000
v -0.64570847 0.80000000 0.13789569
v -0.37500000 0.58786797 0.60000000
v -0.32735394 0.80000000 0.51992112
v 0.37500000 0.58786797 0.75000000
v 0.34612002 0.80000000 0.65461591
v 0.66213203 0.80000000 0.33860390
v 0.30527756 0.92426407 0.51972244
v 0.53786797 0.92426407 0.28713203
v 0.32573593 1.01213203 0.19926407
v 0.23555513 1.01213203 0.28944487
v 0.53786797 0.92426407 -0.15701910
v 0.32573593 1.01213203 -0.08903819
v 0.28210458 0.92426407 -0.51508784
v 0.18920916 1.01213203 -0.28017568
v -0.23166190 0.92426407 -0.41233454
v -0.08832381 1.01213203 -0.22466909
v -0.49821798 0.92426407 0.12077760
v -0.24643595 1.01213203 0.09155520
v -0.25997225 0.92426407 0.40667247
v -0.14494449 1.01213203 0.21334495
vt 0.80816555 0.00000000
vt 1.00000000 1.00000000
vt 0.00000000 1.00000000
vt 0.25361174 0.00000000
vt 0.76601227 0.00000000
vt 1.00000000 1.00000000
vt 0.00000000 1.00000000
vt 0.17497994 0.00000000
vt 0.81921980 0.00000000
vt 1.00000000 1.00000000
vt 0.00000000 1.00000000
vt 0.33495245 0.00000000
vt 0.79008366 0.00000000
vt 1.00000000 1.00000000
vt 0.00000000 1.00000000
vt 0.13845196 0.00000000
vt 0.76568542 0.00000000
vt 1.00000000 1.00000000
vt 0.00000000 1.00000000
vt 0.30274565 0.00000000
vt 0.83976747 0.00000000
vt 1.00000000 1.00000000
vt 0.00000000 1.00000000
vt 0.20710678 0.00000000
vt 0.00000000 0.00000000
vt 1.00000000 0.00000000
vt 1.00000000 1.00000000
vt 0.00000000 1.00000000
vt 0.00000000 0.00000000
vt 1.00000000 0.00000000
vt 1.00000000 1.00000000
vt 0.00000000 1.00000000
vt 1.00000000 0.00000000
vt 0.91193984 1.00000000
vt 0.04364496 1.00000000
vt 0.00000000 0.00000000
vt 1.00000000 0.00000000
vt 0.94381299 1.00000000
vt 0.07428116 1.00000000
vt 0.00000000 0.00000000
vt 1.00000000 0.00000000
vt 0.93146658 1.00000000
vt 0.05125044 1.00000000
vt 0.00000000 0.00000000
vt 1.00000000 0.00000000
vt 0.94705071 1.00000000
vt 0.09810530 1.00000000
vt 0.00000000 0.00000000
vt 1.00000000 0.00000000
vt 0.93851693 1.00000000
vt 0.04055164 1.00000000
vt 0.00000000 0.00000000
vt 1.00000000 0.00000000
vt 0.93137085 1.00000000
vt 0.08867215 1.00000000
vt 0.00000000 0.00000000
vt 0.14880924 1.00000000
vt 0.00000000 0.00000000
vt 1.00000000 0.00000000
vt 0.88482684 1.00000000
vt 1.00000000 0.00000000
vt 0.73286931 1.00000000
vt 0.34514564 1.00000000
vt 0.00000000 0.00000000
vt 1.00000000 0.00000000
vt 0.84694196 1.00000000
vt 0.19783348 1.00000000
vt 0.00000000 0.00000000
vt 1.00000000 0.00000000
vt 0.68829192 1.00000000
vt 0.15449083 1.00000000
vt 0.00000000 0.00000000
vt 1.00000000 0.00000000
vt 0.80198089 1.00000000
vt 0.26178807 1.00000000
vt 0.00000000 0.00000000
vt 1.00000000 0.00000000
vt 0.76723334 1.00000000
vt 0.17406681 1.00000000
vt 0.00000000 0.00000000
vt 1.00000000 0.00000000
vt 0.79879350 1.00000000
vt 0.37279863 1.00000000
vt 0.00000000 0.00000000
vt 1.00000000 0.00000000
vt 0.80305177 1.00000000
vt 0.12989874 1.00000000
vt 0.00000000 0.00000000
vt 0.90255514 0.72366321
vt 0.34740613 1.00000000
vt 0.13359757 0.82262068
vt 0.00000000 0.15761139
vt 0.15831733 0.00000000
vt 0.66444770 0.00000000
vt 1.00000000 0.23861147
vt 0.09612908 1.00000000
vt 0.00000000 0.00000000
vt 1.00000000 0.00000000
vt 0.92562771 1.00000000
vt 0.06386514 1.00000000
vt 0.00000000 0.00000000
vt 1.00000000 0.00000000
vt 0.90316976 1.00000000
vt 0.16342847 1.00000000
vt 0.00000000 0.00000000
vt 1.00000000 0.00000000
vt 0.91179455 1.00000000
vt 0.08234235 1.00000000
vt 0.00000000 0.00000000
vt 1.00000000 0.00000000
vt 0.88988967 1.00000000
vt 0.12081147 1.00000000
vt 0.00000000 0.00000000
vt 1.00000000 0.00000000
vt 0.90861700 1.00000000
vt 0.07108564 1.00000000
vt 0.00000000 0.00000000
vt 1.00000000 0.00000000
vt 0.85657421 1.00000000
vt 1.00000000 0.00000000
vt 0.95306898 1.00000000
vt 0.06066017 1.00000000
vt 0.00000000 0.00000000
vt 0.00000000 0.00000000
vt 1.00000000 0.00000000
vt 1.00000000 1.00000000
vt 0.00000000 1.00000000
vt 0.00000000 0.00000000
vt 1.00000000 0.00000000
vt 1.00000000 1.00000000
vt 0.00000000 1.00000000
vt 0.00000000 0.00000000
vt 1.00000000 0.00000000
vt 1.00000000 1.00000000
vt 0.00000000 1.00000000
vt 0.00000000 0.00000000
vt 1.00000000 0.00000000
vt 1.00000000 1.00000000
vt 0.00000000 1.00000000
vt 0.11606954 0.78481507
vt 0.00000000 0.20570799
vt 0.20614868 0.00000000
vt 0.65691026 0.00000000
vt 1.00000000 0.24454023
vt 0.90122211 0.73737388
vt 0.37484464 1.00000000
vt 0.69934380 0.00000000
vt 1.00000000 1.00000000
vt 0.00000000 1.00000000
vt 0.14901322 0.00000000
vt 0.00000000 0.00000000
vt 1.00000000 0.00000000
vt 1.00000000 1.00000000
vt 0.00000000 1.00000000
vn -0.13867505 -0.70710678 -0.69337525
vn -0.13867505 -0.70710678 -0.69337525
vn -0.13867505 -0.70710678 -0.69337525
vn -0.13867505 -0.70710678 -0.69337525
vn -0.63245553 -0.70710678 -0.31622777
vn -0.63245553 -0.70710678 -0.31622777
vn -0.63245553 -0.70710678 -0.31622777
vn -0.63245553 -0.70710678 -0.31622777
vn -0.54321448 -0.70710678 0.45267873
vn -0.54321448 -0.70710678 0.45267873
vn -0.54321448 -0.70710678 0.45267873
vn -0.54321448 -0.70710678 0.45267873
vn -0.13867505 -0.70710678 0.69337525
vn -0.13867505 -0.70710678 0.69337525
vn -0.13867505 -0.70710678 0.69337525
vn -0.13867505 -0.70710678 0.69337525
vn 0.50000000 -0.70710678 0.50000000
vn 0.50000000 -0.70710678 0.50000000
vn 0.50000000 -0.70710678 0.50000000
vn 0.50000000 -0.70710678 0.50000000
vn 0.70710678 -0.70710678 0.00000000
vn 0.70710678 -0.70710678 0.00000000
vn 0.70710678 -0.70710678 0.00000000
vn 0.70710678 -0.70710678 0.00000000
vn 1.00000000 0.00000000 0.00000000
vn 1.00000000 0.00000000 0.00000000
vn 1.00000000 0.00000000 0.00000000
vn 1.00000000 0.00000000 0.00000000
vn 0.81373347 0.00000000 -0.58123819
vn 0.81373347 0.00000000 -0.58123819
vn 0.81373347 0.00000000 -0.58123819
vn 0.81373347 0.00000000 -0.58123819
vn 0.75179170 0.38268343 -0.53699407
vn 0.75179170 0.38268343 -0.53699407
vn 0.75179170 0.38268343 -0.53699407
vn 0.75179170 0.38268343 -0.53699407
vn -0.18118768 0.38268343 -0.90593842
vn -0.18118768 0.38268343 -0.90593842
vn -0.18118768 0.38268343 -0.90593842
vn -0.18118768 0.38268343 -0.90593842
vn -0.82634298 0.38268343 -0.41317149
vn -0.82634298 0.38268343 -0.41317149
vn -0.82634298 0.38268343 -0.41317149
vn -0.82634298 0.38268343 -0.41317149
vn -0.70974392 0.38268343 0.59145326
vn -0.70974392 0.38268343 0.59145326
vn -0.70974392 0.38268343 0.59145326
vn -0.70974392 0.38268343 0.59145326
vn -0.18118768 0.38268343 0.90593842
vn -0.18118768 0.38268343 0.90593842
vn -0.18118768 0.38268343 0.90593842
vn -0.18118768 0.38268343 0.90593842
vn 0.65328148 0.38268343 0.65328148
vn 0.65328148 0.38268343 0.65328148
vn 0.65328148 0.38268343 0.65328148
vn 0.65328148 0.38268343 0.65328148
vn 0.50000000 0.70710678 0.50000000
vn 0.50000000 0.70710678 0.50000000
vn 0.50000000 0.70710678 0.50000000
vn 0.50000000 0.70710678 0.50000000
vn 0.27059805 0.92387953 0.27059805
vn 0.27059805 0.92387953 0.27059805
vn 0.27059805 0.92387953 0.27059805
vn 0.27059805 0.92387953 0.27059805
vn 0.38268343 0.92387953 0.00000000
vn 0.38268343 0.92387953 0.00000000
vn 0.38268343 0.92387953 0.00000000
vn 0.38268343 0.92387953 0.00000000
vn 0.31140232 0.92387953 -0.22243023
vn 0.31140232 0.92387953 -0.22243023
vn 0.31140232 0.92387953 -0.22243023
vn 0.31140232 0.92387953 -0.22243023
vn -0.07505040 0.92387953 -0.37525198
vn -0.07505040 0.92387953 -0.37525198
vn -0.07505040 0.92387953 -0.37525198
vn -0.07505040 0.92387953 -0.37525198
vn -0.34228247 0.92387953 -0.17114123
vn -0.34228247 0.92387953 -0.17114123
vn -0.34228247 0.92387953 -0.17114123
vn -0.34228247 0.92387953 -0.17114123
vn -0.29398556 0.92387953 0.24498796
vn -0.29398556 0.92387953 0.24498796
vn -0.29398556 0.92387953 0.24498796
vn -0.29398556 0.92387953 0.24498796
vn -0.07505040 0.92387953 0.37525198
vn -0.07505040 0.92387953 0.37525198
vn -0.07505040 0.92387953 0.37525198
vn -0.07505040 0.92387953 0.37525198
vn 0.00000000 1.00000000 -0.00000000
vn 0.00000000 1.00000000 -0.00000000
vn 0.00000000 1.00000000 -0.00000000
vn 0.00000000 1.00000000 -0.00000000
vn 0.00000000 1.00000000 -0.00000000
vn 0.00000000 1.00000000 -0.00000000
vn 0.00000000 1.00000000 -0.00000000
vn 0.70710678 0.70710678 0.00000000
vn 0.70710678 0.70710678 0.00000000
vn 0.70710678 0.70710678 0.00000000
vn 0.70710678 0.70710678 0.00000000
vn -0.13867505 0.70710678 0.69337525
vn -0.13867505 0.70710678 0.69337525
vn -0.13867505 0.70710678 0.69337525
vn -0.13867505 0.70710678 0.69337525
vn -0.54321448 0.70710678 0.45267873
vn -0.54321448 0.70710678 0.45267873
vn -0.54321448 0.70710678 0.45267873
vn -0.54321448 0.70710678 0.45267873
vn -0.63245553 0.70710678 -0.31622777
vn -0.63245553 0.70710678 -0.31622777
vn -0.63245553 0.70710678 -0.31622777
vn -0.63245553 0.70710678 -0.31622777
vn -0.13867505 0.70710678 -0.69337525
vn -0.13867505 0.70710678 -0.69337525
vn -0.13867505 0.70710678 -0.69337525
vn -0.13867505 0.70710678 -0.69337525
vn 0.57539646 0.70710678 -0.41099747
vn 0.57539646 0.70710678 -0.41099747
vn 0.57539646 0.70710678 -0.41099747
vn 0.57539646 0.70710678 -0.41099747
vn 0.92387953 0.38268343 0.00000000
vn 0.92387953 0.38268343 0.00000000
vn 0.92387953 0.38268343 0.00000000
vn 0.92387953 0.38268343 0.00000000
vn 0.70710678 0.00000000 0.70710678
vn 0.70710678 0.00000000 0.70710678
vn 0.70710678 0.00000000 0.70710678
vn 0.70710678 0.00000000 0.70710678
vn -0.19611614 0.00000000 0.98058068
vn -0.19611614 0.00000000 0.98058068
vn -0.19611614 0.00000000 0.98058068
vn -0.19611614 0.00000000 0.98058068
vn -0.76822128 0.00000000 0.64018440
vn -0.76822128 0.00000000 0.64018440
vn -0.76822128 0.00000000 0.64018440
vn -0.76822128 0.00000000 0.64018440
vn -0.89442719 0.00000000 -0.44721360
vn -0.89442719 0.00000000 -0.44721360
vn -0.89442719 0.00000000 -0.44721360
vn -0.89442719 0.00000000 -0.44721360
vn -0.00000000 -1.00000000 0.00000000
vn -0.00000000 -1.00000000 0.00000000
vn -0.00000000 -1.00000000 0.00000000
vn -0.00000000 -1.00000000 0.00000000
vn -0.00000000 -1.00000000 0.00000000
vn -0.00000000 -1.00000000 0.00000000
vn -0.00000000 -1.00000000 0.00000000
vn 0.57539646 -0.70710678 -0.41099747
vn 0.57539646 -0.70710678 -0.41099747
vn 0.57539646 -0.70710678 -0.41099747
vn 0.57539646 -0.70710678 -0.41099747
vn -0.19611614 0.00000000 -0.98058068
vn -0.19611614 0.00000000 -0.98058068
vn -0.19611614 0.00000000 -0.98058068
vn -0.19611614 0.00000000 -0.98058068
s 1
usemtl Rock
f 1/1/1 2/2/2 4/4/4
f 2/2/2 3/3/3 4/4/4
s 2
f 5/5/5 6/6/6 2/7/7
f 5/5/5 2/7/7 1/8/8
s 3
f 7/9/9 8/10/10 5/12/12
f 8/10/10 6/11/11 5/12/12
s 4
f 9/13/13 10/14/14 8/15/15
f 9/13/13 8/15/15 7/16/16
s 5
f 11/17/17 12/18/18 9/20/20
f 12/18/18 10/19/19 9/20/20
s 6
f 13/21/21 14/22/22 11/24/24
f 14/22/22 12/23/23 11/24/24
s 7
f 14/28/28 16/27/27 12/25/25
f 16/27/27 15/26/26 12/25/25
s 8
f 3/32/32 17/31/31 14/29/29
f 17/31/31 16/30/30 14/29/29
s 9
f 17/33/33 18/34/34 16/36/36
f 18/34/34 19/35/35 16/36/36
s 10
f 20/37/37 21/38/38 18/39/39
f 20/37/37 18/39/39 17/40/40
s 11
f 22/41/41 23/42/42 20/44/44
f 23/42/42 21/43/43 20/44/44
s 12
f 24/45/45 25/46/46 23/47/47
f 24/45/45 23/47/47 22/48/48
s 13
f 26/49/49 27/50/50 24/52/52
f 27/50/50 25/51/51 24/52/52
s 14
f 15/53/53 28/54/54 27/55/55
f 15/53/53 27/55/55 26/56/56
s 15
f 29/57/57 27/58/58 28/59/59
f 29/57/57 28/59/59 30/60/60
s 16
f 30/61/61 31/62/62 32/63/63
f 30/61/61 32/63/63 29/64/64
s 17
f 33/65/65 34/66/66 31/67/67
f 33/65/65 31/67/67 30/68/68
s 18
f 35/69/69 36/70/70 33/72/72
f 36/70/70 34/71/71 33/72/72
s 19
f 37/73/73 38/74/74 36/75/75
f 37/73/73 36/75/75 35/76/76
s 20
f 39/77/77 40/78/78 37/80/80
f 40/78/78 38/79/79 37/80/80
s 21
f 41/81/81 42/82/82 40/83/83
f 41/81/81 40/83/83 39/84/84
s 22
f 29/85/85 32/86/86 41/88/88
f 32/86/86 42/87/87 41/88/88
s 23
f 32/92/92 31/93/93 34/94/94
f 38/89/89 42/91/91 34/94/94
f 38/89/89 40/90/90 42/91/91
f 34/94/94 36/95/95 38/89/89
f 42/91/91 32/92/92 34/94/94
s 24
f 30/96/96 28/97/97 19/98/98
f 30/96/96 19/98/98 33/99/99
s 25
f 41/100/100 25/101/101 29/103/103
f 25/101/101 27/102/102 29/103/103
s 26
f 39/104/104 23/105/105 25/106/106
f 39/104/104 25/106/106 41/107/107
s 27
f 37/108/108 21/109/109 39/111/111
f 21/109/109 23/110/110 39/111/111
s 28
f 35/112/112 18/113/113 21/114/114
f 35/112/112 21/114/114 37/115/115
s 29
f 33/116/116 19/117/117 35/119/119
f 19/117/117 18/118/118 35/119/119
s 30
f 16/120/120 19/121/121 28/122/122
f 16/120/120 28/122/122 15/123/123
s 31
f 12/127/127 15/126/126 10/124/124
f 15/126/126 26/125/125 10/124/124
s 32
f 10/131/131 26/130/130 8/128/128
f 26/130/130 24/129/129 8/128/128
s 33
f 8/135/135 24/134/134 6/132/132
f 24/134/134 22/133/133 6/132/132
s 34
f 6/139/139 22/138/138 2/136/136
f 22/138/138 20/137/137 2/136/136
s 35
f 13/143/143 11/142/142 9/141/141
f 1/145/145 13/143/143 7/140/140
f 7/140/140 5/146/146 1/145/145
f 13/143/143 9/141/141 7/140/140
f 1/145/145 4/144/144 13/143/143
s 36
f 4/147/147 3/148/148 14/149/149
f 4/147/147 14/149/149 13/150/150
s 37
f 2/154/154 20/153/153 3/151/151
f 20/153/153 17/152/152 3/151/151
