mtllib Prop_Bridge_Log_Middle.mtl
o object1
g object1
v -0.50000000 0.23269482 -0.13888562
v 0.50000000 0.23269482 -0.13888562
v 0.50000000 0.38658828 -0.13888562
v -0.50000000 0.38658828 -0.13888562
v -0.50000000 0.40574809 -0.10430216
v 0.50000000 0.40574809 -0.10430216
v 0.50000000 0.40574809 0.10430869
v -0.50000000 0.40574809 0.10430869
v 0.50000000 0.38658828 0.13889216
v -0.50000000 0.38658828 0.13889216
v 0.50000000 0.23269482 0.13889216
v -0.50000000 0.23269482 0.13889216
v 0.50000000 0.15574809 0.00000327
v -0.50000000 0.15574809 0.00000327
vt 0.00000000 0.00000000
vt 1.00000000 0.00000000
vt 1.00000000 1.00000000
vt 0.00000000 1.00000000
vt 0.00000000 1.00000000
vt 0.00000000 0.00000000
vt 1.00000000 0.00000000
vt 1.00000000 1.00000000
vt 0.00000000 0.00000000
vt 1.00000000 0.00000000
vt 1.00000000 1.00000000
vt 0.00000000 1.00000000
vt 1.00000000 0.00000000
vt 1.00000000 1.00000000
vt 0.00000000 1.00000000
vt 0.00000000 0.00000000
vt 0.00000000 0.00000000
vt 1.00000000 0.00000000
vt 1.00000000 1.00000000
vt 0.00000000 1.00000000
vt 0.00000000 0.00000000
vt 1.00000000 0.00000000
vt 1.00000000 1.00000000
vt 0.00000000 1.00000000
vt 1.00000000 0.69221308
vt 0.50000000 1.00000000
vt 0.00000000 0.69221308
vt 0.00000000 0.07663923
vt 0.12450047 0.00000000
vt 0.87549953 0.00000000
vt 1.00000000 0.07663923
vt 0.00000000 0.00000000
vt 1.00000000 0.00000000
vt 1.00000000 1.00000000
vt 0.00000000 1.00000000
vt 1.00000000 0.69221308
vt 0.50000000 1.00000000
vt 0.00000000 0.69221308
vt 0.00000000 0.07663923
vt 0.12450047 0.00000000
vt 0.87549953 0.00000000
vt 1.00000000 0.07663923
vn 0.00000000 -0.00000000 -1.00000000
vn 0.00000000 -0.00000000 -1.00000000
vn 0.00000000 -0.00000000 -1.00000000
vn 0.00000000 -0.00000000 -1.00000000
vn 0.00000000 0.87472821 -0.48461383
vn 0.00000000 0.87472821 -0.48461383
vn 0.00000000 0.87472821 -0.48461383
vn 0.00000000 0.87472821 -0.48461383
vn 0.00000000 1.00000000 -0.00000000
vn 0.00000000 1.00000000 -0.00000000
vn 0.00000000 1.00000000 -0.00000000
vn 0.00000000 1.00000000 -0.00000000
vn 0.00000000 0.87472821 0.48461383
vn 0.00000000 0.87472821 0.48461383
vn 0.00000000 0.87472821 0.48461383
vn 0.00000000 0.87472821 0.48461383
vn -0.00000000 0.00000000 1.00000000
vn -0.00000000 0.00000000 1.00000000
vn -0.00000000 0.00000000 1.00000000
vn -0.00000000 0.00000000 1.00000000
vn -0.00000000 -0.87472821 0.48461383
vn -0.00000000 -0.87472821 0.48461383
vn -0.00000000 -0.87472821 0.48461383
vn -0.00000000 -0.87472821 0.48461383
vn -1.00000000 -0.00000000 0.00000000
vn -1.00000000 -0.00000000 0.00000000
vn -1.00000000 -0.00000000 0.00000000
vn -1.00000000 -0.00000000 0.00000000
vn -1.00000000 -0.00000000 0.00000000
vn -1.00000000 -0.00000000 0.00000000
vn -1.00000000 -0.00000000 0.00000000
vn -0.00000000 -0.87472821 -0.48461383
vn -0.00000000 -0.87472821 -0.48461383
vn -0.00000000 -0.87472821 -0.48461383
vn -0.00000000 -0.87472821 -0.48461383
vn 1.00000000 0.00000000 -0.00000000
vn 1.00000000 0.00000000 -0.00000000
vn 1.00000000 0.00000000 -0.00000000
vn 1.00000000 0.00000000 -0.00000000
vn 1.00000000 0.00000000 -0.00000000
vn 1.00000000 0.00000000 -0.00000000
vn 1.00000000 0.00000000 -0.00000000
s 1
usemtl Wood_Dark
f 4/4/4 3/3/3 1/1/1
f 3/3/3 2/2/2 1/1/1
s 2
f 6/8/8 3/7/7 5/5/5
f 3/7/7 4/6/6 5/5/5
s 3
usemtl Wood_Light
f 5/12/12 8/11/11 7/10/10
f 5/12/12 7/10/10 6/9/9
s 4
usemtl Wood_Dark
f 8/16/16 10/15/15 9/14/14
f 8/16/16 9/14/14 7/13/13
s 5
f 12/20/20 11/19/19 9/18/18
f 12/20/20 9/18/18 10/17/17
s 6
f 14/24/24 13/23/23 11/22/22
f 14/24/24 11/22/22 12/21/21
s 7
usemtl Wood_Light
f 12/25/25 10/31/31 8/30/30
f 5/29/29 1/27/27 12/25/25
f 5/29/29 4/28/28 1/27/27
f 12/25/25 8/30/30 5/29/29
f 1/27/27 14/26/26 12/25/25
s 8
usemtl Wood_Dark
f 1/35/35 2/34/34 14/32/32
f 2/34/34 13/33/33 14/32/32
s 9
usemtl Wood_Light
f 7/41/41 9/42/42 11/36/36
f 11/36/36 2/38/38 6/40/40
f 2/38/38 3/39/39 6/40/40
f 11/36/36 13/37/37 2/38/38
f 6/40/40 7/41/41 11/36/36
o object2
g object2
v -0.50000000 0.40574809 0.22903335
v -0.50000000 0.38658828 0.19444989
v 0.50000000 0.38658828 0.19444989
v 0.50000000 0.40574809 0.22903335
v 0.50000000 0.23269482 0.47222767
v 0.50000000 0.15574809 0.33333878
v 0.50000000 0.23269482 0.19444989
v 0.50000000 0.40574809 0.43764420
v 0.50000000 0.38658828 0.47222767
v -0.50000000 0.23269482 0.47222767
v -0.50000000 0.15574809 0.33333878
v -0.50000000 0.38658828 0.47222767
v -0.50000000 0.40574809 0.43764420
v -0.50000000 0.23269482 0.19444989
vt 0.00000000 1.00000000
vt 0.00000000 0.00000000
vt 1.00000000 0.00000000
vt 1.00000000 1.00000000
vt 1.00000000 0.69221308
vt 0.50000000 1.00000000
vt 0.00000000 0.69221308
vt 0.00000000 0.07663923
vt 0.12450047 0.00000000
vt 0.87549953 0.00000000
vt 1.00000000 0.07663923
vt 0.00000000 0.00000000
vt 1.00000000 0.00000000
vt 1.00000000 1.00000000
vt 0.00000000 1.00000000
vt 0.00000000 0.00000000
vt 1.00000000 0.00000000
vt 1.00000000 1.00000000
vt 0.00000000 1.00000000
vt 1.00000000 0.00000000
vt 1.00000000 1.00000000
vt 0.00000000 1.00000000
vt 0.00000000 0.00000000
vt 0.00000000 0.00000000
vt 1.00000000 0.00000000
vt 1.00000000 1.00000000
vt 0.00000000 1.00000000
vt 0.00000000 0.00000000
vt 1.00000000 0.00000000
vt 1.00000000 1.00000000
vt 0.00000000 1.00000000
vt 1.00000000 0.69221308
vt 0.50000000 1.00000000
vt 0.00000000 0.69221308
vt 0.00000000 0.07663923
vt 0.12450047 0.00000000
vt 0.87549953 0.00000000
vt 1.00000000 0.07663923
vt 0.00000000 0.00000000
vt 1.00000000 0.00000000
vt 1.00000000 1.00000000
vt 0.00000000 1.00000000
vn 0.00000000 0.87472821 -0.48461383
vn 0.00000000 0.87472821 -0.48461383
vn 0.00000000 0.87472821 -0.48461383
vn 0.00000000 0.87472821 -0.48461383
vn 1.00000000 0.00000000 -0.00000000
vn 1.00000000 0.00000000 -0.00000000
vn 1.00000000 0.00000000 -0.00000000
vn 1.00000000 0.00000000 -0.00000000
vn 1.00000000 0.00000000 -0.00000000
vn 1.00000000 0.00000000 -0.00000000
vn 1.00000000 0.00000000 -0.00000000
vn -0.00000000 -0.87472821 0.48461383
vn -0.00000000 -0.87472821 0.48461383
vn -0.00000000 -0.87472821 0.48461383
vn -0.00000000 -0.87472821 0.48461383
vn -0.00000000 0.00000000 1.00000000
vn -0.00000000 0.00000000 1.00000000
vn -0.00000000 0.00000000 1.00000000
vn -0.00000000 0.00000000 1.00000000
vn 0.00000000 0.87472821 0.48461383
vn 0.00000000 0.87472821 0.48461383
vn 0.00000000 0.87472821 0.48461383
vn 0.00000000 0.87472821 0.48461383
vn -0.00000000 -0.87472821 -0.48461383
vn -0.00000000 -0.87472821 -0.48461383
vn -0.00000000 -0.87472821 -0.48461383
vn -0.00000000 -0.87472821 -0.48461383
vn 0.00000000 1.00000000 -0.00000000
vn 0.00000000 1.00000000 -0.00000000
vn 0.00000000 1.00000000 -0.00000000
vn 0.00000000 1.00000000 -0.00000000
vn -1.00000000 -0.00000000 0.00000000
vn -1.00000000 -0.00000000 0.00000000
vn -1.00000000 -0.00000000 0.00000000
vn -1.00000000 -0.00000000 0.00000000
vn -1.00000000 -0.00000000 0.00000000
vn -1.00000000 -0.00000000 0.00000000
vn -1.00000000 -0.00000000 0.00000000
vn 0.00000000 -0.00000000 -1.00000000
vn 0.00000000 -0.00000000 -1.00000000
vn 0.00000000 -0.00000000 -1.00000000
vn 0.00000000 -0.00000000 -1.00000000
s 1
usemtl Wood_Dark
f 18/46/46 17/45/45 15/43/43
f 17/45/45 16/44/44 15/43/43
s 2
usemtl Wood_Light
f 22/52/52 23/53/53 19/47/47
f 19/47/47 21/49/49 18/51/51
f 21/49/49 17/50/50 18/51/51
f 19/47/47 20/48/48 21/49/49
f 18/51/51 22/52/52 19/47/47
s 3
usemtl Wood_Dark
f 25/57/57 20/56/56 19/55/55
f 25/57/57 19/55/55 24/54/54
s 4
f 24/61/61 19/60/60 23/59/59
f 24/61/61 23/59/59 26/58/58
s 5
f 27/65/65 26/64/64 23/63/63
f 27/65/65 23/63/63 22/62/62
s 6
f 28/69/69 21/68/68 25/66/66
f 21/68/68 20/67/67 25/66/66
s 7
usemtl Wood_Light
f 15/73/73 27/72/72 22/71/71
f 15/73/73 22/71/71 18/70/70
s 8
f 24/74/74 26/80/80 27/79/79
f 15/78/78 28/76/76 24/74/74
f 15/78/78 16/77/77 28/76/76
f 24/74/74 27/79/79 15/78/78
f 28/76/76 25/75/75 24/74/74
s 9
usemtl Wood_Dark
f 16/84/84 17/83/83 28/81/81
f 17/83/83 21/82/82 28/81/81
o object3
g object3
v -0.50000000 0.40574809 -0.43763767
v -0.50000000 0.38658828 -0.47222113
v 0.50000000 0.38658828 -0.47222113
v 0.50000000 0.40574809 -0.43763767
v 0.50000000 0.23269482 -0.19444336
v 0.50000000 0.15574809 -0.33333224
v 0.50000000 0.23269482 -0.47222113
v 0.50000000 0.40574809 -0.22902682
v 0.50000000 0.38658828 -0.19444336
v -0.50000000 0.23269482 -0.19444336
v -0.50000000 0.15574809 -0.33333224
v -0.50000000 0.38658828 -0.19444336
v -0.50000000 0.40574809 -0.22902682
v -0.50000000 0.23269482 -0.47222113
vt 0.00000000 1.00000000
vt 0.00000000 0.00000000
vt 1.00000000 0.00000000
vt 1.00000000 1.00000000
vt 1.00000000 0.69221308
vt 0.50000000 1.00000000
vt 0.00000000 0.69221308
vt 0.00000000 0.07663923
vt 0.12450047 0.00000000
vt 0.87549953 0.00000000
vt 1.00000000 0.07663923
vt 0.00000000 0.00000000
vt 1.00000000 0.00000000
vt 1.00000000 1.00000000
vt 0.00000000 1.00000000
vt 0.00000000 0.00000000
vt 1.00000000 0.00000000
vt 1.00000000 1.00000000
vt 0.00000000 1.00000000
vt 1.00000000 0.00000000
vt 1.00000000 1.00000000
vt 0.00000000 1.00000000
vt 0.00000000 0.00000000
vt 0.00000000 0.00000000
vt 1.00000000 0.00000000
vt 1.00000000 1.00000000
vt 0.00000000 1.00000000
vt 0.00000000 0.00000000
vt 1.00000000 0.00000000
vt 1.00000000 1.00000000
vt 0.00000000 1.00000000
vt 1.00000000 0.69221308
vt 0.50000000 1.00000000
vt 0.00000000 0.69221308
vt 0.00000000 0.07663923
vt 0.12450047 0.00000000
vt 0.87549953 0.00000000
vt 1.00000000 0.07663923
vt 0.00000000 0.00000000
vt 1.00000000 0.00000000
vt 1.00000000 1.00000000
vt 0.00000000 1.00000000
vn 0.00000000 0.87472821 -0.48461383
vn 0.00000000 0.87472821 -0.48461383
vn 0.00000000 0.87472821 -0.48461383
vn 0.00000000 0.87472821 -0.48461383
vn 1.00000000 0.00000000 -0.00000000
vn 1.00000000 0.00000000 -0.00000000
vn 1.00000000 0.00000000 -0.00000000
vn 1.00000000 0.00000000 -0.00000000
vn 1.00000000 0.00000000 -0.00000000
vn 1.00000000 0.00000000 -0.00000000
vn 1.00000000 0.00000000 -0.00000000
vn -0.00000000 -0.87472821 0.48461383
vn -0.00000000 -0.87472821 0.48461383
vn -0.00000000 -0.87472821 0.48461383
vn -0.00000000 -0.87472821 0.48461383
vn -0.00000000 0.00000000 1.00000000
vn -0.00000000 0.00000000 1.00000000
vn -0.00000000 0.00000000 1.00000000
vn -0.00000000 0.00000000 1.00000000
vn 0.00000000 0.87472821 0.48461383
vn 0.00000000 0.87472821 0.48461383
vn 0.00000000 0.87472821 0.48461383
vn 0.00000000 0.87472821 0.48461383
vn -0.00000000 -0.87472821 -0.48461383
vn -0.00000000 -0.87472821 -0.48461383
vn -0.00000000 -0.87472821 -0.48461383
vn -0.00000000 -0.87472821 -0.48461383
vn 0.00000000 1.00000000 -0.00000000
vn 0.00000000 1.00000000 -0.00000000
vn 0.00000000 1.00000000 -0.00000000
vn 0.00000000 1.00000000 -0.00000000
vn -1.00000000 -0.00000000 0.00000000
vn -1.00000000 -0.00000000 0.00000000
vn -1.00000000 -0.00000000 0.00000000
vn -1.00000000 -0.00000000 0.00000000
vn -1.00000000 -0.00000000 0.00000000
vn -1.00000000 -0.00000000 0.00000000
vn -1.00000000 -0.00000000 0.00000000
vn 0.00000000 -0.00000000 -1.00000000
vn 0.00000000 -0.00000000 -1.00000000
vn 0.00000000 -0.00000000 -1.00000000
vn 0.00000000 -0.00000000 -1.00000000
s 1
usemtl Wood_Dark
f 32/88/88 31/87/87 29/85/85
f 31/87/87 30/86/86 29/85/85
s 2
usemtl Wood_Light
f 36/94/94 37/95/95 33/89/89
f 33/89/89 35/91/91 32/93/93
f 35/91/91 31/92/92 32/93/93
f 33/89/89 34/90/90 35/91/91
f 32/93/93 36/94/94 33/89/89
s 3
usemtl Wood_Dark
f 39/99/99 34/98/98 33/97/97
f 39/99/99 33/97/97 38/96/96
s 4
f 38/103/103 33/102/102 37/101/101
f 38/103/103 37/101/101 40/100/100
s 5
f 41/107/107 40/106/106 37/105/105
f 41/107/107 37/105/105 36/104/104
s 6
f 42/111/111 35/110/110 39/108/108
f 35/110/110 34/109/109 39/108/108
s 7
usemtl Wood_Light
f 29/115/115 41/114/114 36/113/113
f 29/115/115 36/113/113 32/112/112
s 8
f 38/116/116 40/122/122 41/121/121
f 29/120/120 42/118/118 38/116/116
f 29/120/120 30/119/119 42/118/118
f 38/116/116 41/121/121 29/120/120
f 42/118/118 39/117/117 38/116/116
s 9
usemtl Wood_Dark
f 30/126/126 31/125/125 42/123/123
f 31/125/125 35/124/124 42/123/123
