mtllib Prop_Bridge_Log_End.mtl
o object1
g object1
v -0.50000000 0.03384526 0.13889216
v 0.50000000 0.03384526 0.13889216
v 0.50000000 -0.04310147 0.00000327
v -0.50000000 -0.04310147 0.00000327
v 0.50000000 0.03384526 -0.13888562
v -0.50000000 0.03384526 -0.13888562
v 0.50000000 0.18773872 -0.13888562
v -0.50000000 0.18773872 -0.13888562
v -0.50000000 0.20689853 -0.10430216
v 0.50000000 0.20689853 -0.10430216
v 0.50000000 0.20689853 0.10430869
v -0.50000000 0.20689853 0.10430869
v 0.50000000 0.18773872 0.13889216
v -0.50000000 0.18773872 0.13889216
vt 0.00000000 0.00000000
vt 1.00000000 0.00000000
vt 1.00000000 1.00000000
vt 0.00000000 1.00000000
vt 0.00000000 0.00000000
vt 1.00000000 0.00000000
vt 1.00000000 1.00000000
vt 0.00000000 1.00000000
vt 0.00000000 0.00000000
vt 1.00000000 0.00000000
vt 1.00000000 1.00000000
vt 0.00000000 1.00000000
vt 0.00000000 1.00000000
vt 0.00000000 0.00000000
vt 1.00000000 0.00000000
vt 1.00000000 1.00000000
vt 0.00000000 0.00000000
vt 1.00000000 0.00000000
vt 1.00000000 1.00000000
vt 0.00000000 1.00000000
vt 1.00000000 0.00000000
vt 1.00000000 1.00000000
vt 0.00000000 1.00000000
vt 0.00000000 0.00000000
vt 1.00000000 0.69221308
vt 0.50000000 1.00000000
vt 0.00000000 0.69221308
vt 0.00000000 0.07663923
vt 0.12450047 0.00000000
vt 0.87549953 0.00000000
vt 1.00000000 0.07663923
vt 0.00000000 0.00000000
vt 1.00000000 0.00000000
vt 1.00000000 1.00000000
vt 0.00000000 1.00000000
vt 1.00000000 0.69221308
vt 0.50000000 1.00000000
vt 0.00000000 0.69221308
vt 0.00000000 0.07663923
vt 0.12450047 0.00000000
vt 0.87549953 0.00000000
vt 1.00000000 0.07663923
vn -0.00000000 -0.87472821 0.48461383
vn -0.00000000 -0.87472821 0.48461383
vn -0.00000000 -0.87472821 0.48461383
vn -0.00000000 -0.87472821 0.48461383
vn -0.00000000 -0.87472821 -0.48461383
vn -0.00000000 -0.87472821 -0.48461383
vn -0.00000000 -0.87472821 -0.48461383
vn -0.00000000 -0.87472821 -0.48461383
vn 0.00000000 -0.00000000 -1.00000000
vn 0.00000000 -0.00000000 -1.00000000
vn 0.00000000 -0.00000000 -1.00000000
vn 0.00000000 -0.00000000 -1.00000000
vn 0.00000000 0.87472821 -0.48461383
vn 0.00000000 0.87472821 -0.48461383
vn 0.00000000 0.87472821 -0.48461383
vn 0.00000000 0.87472821 -0.48461383
vn 0.00000000 1.00000000 -0.00000000
vn 0.00000000 1.00000000 -0.00000000
vn 0.00000000 1.00000000 -0.00000000
vn 0.00000000 1.00000000 -0.00000000
vn 0.00000000 0.87472821 0.48461383
vn 0.00000000 0.87472821 0.48461383
vn 0.00000000 0.87472821 0.48461383
vn 0.00000000 0.87472821 0.48461383
vn -1.00000000 -0.00000000 0.00000000
vn -1.00000000 -0.00000000 0.00000000
vn -1.00000000 -0.00000000 0.00000000
vn -1.00000000 -0.00000000 0.00000000
vn -1.00000000 -0.00000000 0.00000000
vn -1.00000000 -0.00000000 0.00000000
vn -1.00000000 -0.00000000 0.00000000
vn -0.00000000 0.00000000 1.00000000
vn -0.00000000 0.00000000 1.00000000
vn -0.00000000 0.00000000 1.00000000
vn -0.00000000 0.00000000 1.00000000
vn 1.00000000 0.00000000 -0.00000000
vn 1.00000000 0.00000000 -0.00000000
vn 1.00000000 0.00000000 -0.00000000
vn 1.00000000 0.00000000 -0.00000000
vn 1.00000000 0.00000000 -0.00000000
vn 1.00000000 0.00000000 -0.00000000
vn 1.00000000 0.00000000 -0.00000000
s 1
usemtl Wood_Dark
f 4/4/4 3/3/3 2/2/2
f 4/4/4 2/2/2 1/1/1
s 2
f 6/8/8 5/7/7 4/5/5
f 5/7/7 3/6/6 4/5/5
s 3
f 8/12/12 7/11/11 6/9/9
f 7/11/11 5/10/10 6/9/9
s 4
f 10/16/16 7/15/15 9/13/13
f 7/15/15 8/14/14 9/13/13
s 5
usemtl Wood_Light
f 9/20/20 12/19/19 11/18/18
f 9/20/20 11/18/18 10/17/17
s 6
usemtl Wood_Dark
f 12/24/24 14/23/23 13/22/22
f 12/24/24 13/22/22 11/21/21
s 7
usemtl Wood_Light
f 1/25/25 14/31/31 12/30/30
f 9/29/29 6/27/27 1/25/25
f 9/29/29 8/28/28 6/27/27
f 1/25/25 12/30/30 9/29/29
f 6/27/27 4/26/26 1/25/25
s 8
usemtl Wood_Dark
f 1/35/35 2/34/34 13/33/33
f 1/35/35 13/33/33 14/32/32
s 9
usemtl Wood_Light
f 11/41/41 13/42/42 2/36/36
f 2/36/36 5/38/38 10/40/40
f 5/38/38 7/39/39 10/40/40
f 2/36/36 3/37/37 5/38/38
f 10/40/40 11/41/41 2/36/36
o object2
g object2
v -0.50000000 -0.13965221 -0.33333224
v 0.50000000 -0.13965221 -0.33333224
v 0.50000000 -0.06270548 -0.47222113
v -0.50000000 -0.06270548 -0.47222113
v 0.50000000 0.09118799 -0.47222113
v -0.50000000 0.09118799 -0.47222113
v -0.50000000 0.11034779 -0.43763767
v 0.50000000 0.11034779 -0.43763767
v 0.50000000 0.11034779 -0.22902682
v -0.50000000 0.11034779 -0.22902682
v 0.50000000 0.09118799 -0.19444336
v -0.50000000 0.09118799 -0.19444336
v 0.50000000 -0.06270548 -0.19444336
v -0.50000000 -0.06270548 -0.19444336
vt 0.00000000 0.00000000
vt 1.00000000 0.00000000
vt 1.00000000 1.00000000
vt 0.00000000 1.00000000
vt 0.00000000 0.00000000
vt 1.00000000 0.00000000
vt 1.00000000 1.00000000
vt 0.00000000 1.00000000
vt 0.00000000 1.00000000
vt 0.00000000 0.00000000
vt 1.00000000 0.00000000
vt 1.00000000 1.00000000
vt 0.00000000 0.00000000
vt 1.00000000 0.00000000
vt 1.00000000 1.00000000
vt 0.00000000 1.00000000
vt 1.00000000 0.00000000
vt 1.00000000 1.00000000
vt 0.00000000 1.00000000
vt 0.00000000 0.00000000
vt 0.00000000 0.00000000
vt 1.00000000 0.00000000
vt 1.00000000 1.00000000
vt 0.00000000 1.00000000
vt 1.00000000 0.69221308
vt 0.50000000 1.00000000
vt 0.00000000 0.69221308
vt 0.00000000 0.07663923
vt 0.12450047 0.00000000
vt 0.87549953 0.00000000
vt 1.00000000 0.07663923
vt 0.00000000 0.00000000
vt 1.00000000 0.00000000
vt 1.00000000 1.00000000
vt 0.00000000 1.00000000
vt 1.00000000 0.69221308
vt 0.50000000 1.00000000
vt 0.00000000 0.69221308
vt 0.00000000 0.07663923
vt 0.12450047 0.00000000
vt 0.87549953 0.00000000
vt 1.00000000 0.07663923
vn -0.00000000 -0.87472821 -0.48461383
vn -0.00000000 -0.87472821 -0.48461383
vn -0.00000000 -0.87472821 -0.48461383
vn -0.00000000 -0.87472821 -0.48461383
vn 0.00000000 -0.00000000 -1.00000000
vn 0.00000000 -0.00000000 -1.00000000
vn 0.00000000 -0.00000000 -1.00000000
vn 0.00000000 -0.00000000 -1.00000000
vn 0.00000000 0.87472821 -0.48461383
vn 0.00000000 0.87472821 -0.48461383
vn 0.00000000 0.87472821 -0.48461383
vn 0.00000000 0.87472821 -0.48461383
vn 0.00000000 1.00000000 -0.00000000
vn 0.00000000 1.00000000 -0.00000000
vn 0.00000000 1.00000000 -0.00000000
vn 0.00000000 1.00000000 -0.00000000
vn 0.00000000 0.87472821 0.48461383
vn 0.00000000 0.87472821 0.48461383
vn 0.00000000 0.87472821 0.48461383
vn 0.00000000 0.87472821 0.48461383
vn -0.00000000 0.00000000 1.00000000
vn -0.00000000 0.00000000 1.00000000
vn -0.00000000 0.00000000 1.00000000
vn -0.00000000 0.00000000 1.00000000
vn -1.00000000 -0.00000000 0.00000000
vn -1.00000000 -0.00000000 0.00000000
vn -1.00000000 -0.00000000 0.00000000
vn -1.00000000 -0.00000000 0.00000000
vn -1.00000000 -0.00000000 0.00000000
vn -1.00000000 -0.00000000 0.00000000
vn -1.00000000 -0.00000000 0.00000000
vn -0.00000000 -0.87472821 0.48461383
vn -0.00000000 -0.87472821 0.48461383
vn -0.00000000 -0.87472821 0.48461383
vn -0.00000000 -0.87472821 0.48461383
vn 1.00000000 0.00000000 -0.00000000
vn 1.00000000 0.00000000 -0.00000000
vn 1.00000000 0.00000000 -0.00000000
vn 1.00000000 0.00000000 -0.00000000
vn 1.00000000 0.00000000 -0.00000000
vn 1.00000000 0.00000000 -0.00000000
vn 1.00000000 0.00000000 -0.00000000
s 1
usemtl Wood_Dark
f 18/46/46 17/45/45 15/43/43
f 17/45/45 16/44/44 15/43/43
s 2
f 20/50/50 19/49/49 18/47/47
f 19/49/49 17/48/48 18/47/47
s 3
f 22/54/54 19/53/53 21/51/51
f 19/53/53 20/52/52 21/51/51
s 4
usemtl Wood_Light
f 21/58/58 24/57/57 23/56/56
f 21/58/58 23/56/56 22/55/55
s 5
usemtl Wood_Dark
f 24/62/62 26/61/61 25/60/60
f 24/62/62 25/60/60 23/59/59
s 6
f 28/66/66 27/65/65 25/64/64
f 28/66/66 25/64/64 26/63/63
s 7
usemtl Wood_Light
f 28/67/67 26/73/73 24/72/72
f 21/71/71 18/69/69 28/67/67
f 21/71/71 20/70/70 18/69/69
f 28/67/67 24/72/72 21/71/71
f 18/69/69 15/68/68 28/67/67
s 8
usemtl Wood_Dark
f 15/77/77 16/76/76 27/75/75
f 15/77/77 27/75/75 28/74/74
s 9
usemtl Wood_Light
f 23/83/83 25/84/84 27/78/78
f 27/78/78 17/80/80 22/82/82
f 17/80/80 19/81/81 22/82/82
f 27/78/78 16/79/79 17/80/80
f 22/82/82 23/83/83 27/78/78
o object3
g object3
v 0.50000000 0.30344926 0.43764420
v 0.50000000 0.28428946 0.47222767
v -0.50000000 0.28428946 0.47222767
v -0.50000000 0.30344926 0.43764420
v -0.50000000 0.13039600 0.47222767
v -0.50000000 0.05344926 0.33333878
v -0.50000000 0.13039600 0.19444989
v -0.50000000 0.28428946 0.19444989
v -0.50000000 0.30344926 0.22903335
v 0.50000000 0.13039600 0.19444989
v 0.50000000 0.28428946 0.19444989
v 0.50000000 0.30344926 0.22903335
v 0.50000000 0.13039600 0.47222767
v 0.50000000 0.05344926 0.33333878
vt 1.00000000 0.00000000
vt 1.00000000 1.00000000
vt 0.00000000 1.00000000
vt 0.00000000 0.00000000
vt 1.00000000 0.69221308
vt 0.50000000 1.00000000
vt 0.00000000 0.69221308
vt 0.00000000 0.07663923
vt 0.12450047 0.00000000
vt 0.87549953 0.00000000
vt 1.00000000 0.07663923
vt 0.00000000 0.00000000
vt 1.00000000 0.00000000
vt 1.00000000 1.00000000
vt 0.00000000 1.00000000
vt 0.00000000 1.00000000
vt 0.00000000 0.00000000
vt 1.00000000 0.00000000
vt 1.00000000 1.00000000
vt 0.00000000 0.00000000
vt 1.00000000 0.00000000
vt 1.00000000 1.00000000
vt 0.00000000 1.00000000
vt 0.00000000 0.00000000
vt 1.00000000 0.00000000
vt 1.00000000 1.00000000
vt 0.00000000 1.00000000
vt 0.00000000 0.00000000
vt 1.00000000 0.00000000
vt 1.00000000 1.00000000
vt 0.00000000 1.00000000
vt 1.00000000 0.69221308
vt 0.50000000 1.00000000
vt 0.00000000 0.69221308
vt 0.00000000 0.07663923
vt 0.12450047 0.00000000
vt 0.87549953 0.00000000
vt 1.00000000 0.07663923
vt 0.00000000 0.00000000
vt 1.00000000 0.00000000
vt 1.00000000 1.00000000
vt 0.00000000 1.00000000
vn 0.00000000 0.87472821 0.48461383
vn 0.00000000 0.87472821 0.48461383
vn 0.00000000 0.87472821 0.48461383
vn 0.00000000 0.87472821 0.48461383
vn -1.00000000 -0.00000000 0.00000000
vn -1.00000000 -0.00000000 0.00000000
vn -1.00000000 -0.00000000 0.00000000
vn -1.00000000 -0.00000000 0.00000000
vn -1.00000000 -0.00000000 0.00000000
vn -1.00000000 -0.00000000 0.00000000
vn -1.00000000 -0.00000000 0.00000000
vn 0.00000000 -0.00000000 -1.00000000
vn 0.00000000 -0.00000000 -1.00000000
vn 0.00000000 -0.00000000 -1.00000000
vn 0.00000000 -0.00000000 -1.00000000
vn 0.00000000 0.87472821 -0.48461383
vn 0.00000000 0.87472821 -0.48461383
vn 0.00000000 0.87472821 -0.48461383
vn 0.00000000 0.87472821 -0.48461383
vn -0.00000000 -0.87472821 0.48461383
vn -0.00000000 -0.87472821 0.48461383
vn -0.00000000 -0.87472821 0.48461383
vn -0.00000000 -0.87472821 0.48461383
vn -0.00000000 -0.87472821 -0.48461383
vn -0.00000000 -0.87472821 -0.48461383
vn -0.00000000 -0.87472821 -0.48461383
vn -0.00000000 -0.87472821 -0.48461383
vn 0.00000000 1.00000000 -0.00000000
vn 0.00000000 1.00000000 -0.00000000
vn 0.00000000 1.00000000 -0.00000000
vn 0.00000000 1.00000000 -0.00000000
vn 1.00000000 0.00000000 -0.00000000
vn 1.00000000 0.00000000 -0.00000000
vn 1.00000000 0.00000000 -0.00000000
vn 1.00000000 0.00000000 -0.00000000
vn 1.00000000 0.00000000 -0.00000000
vn 1.00000000 0.00000000 -0.00000000
vn 1.00000000 0.00000000 -0.00000000
vn -0.00000000 0.00000000 1.00000000
vn -0.00000000 0.00000000 1.00000000
vn -0.00000000 0.00000000 1.00000000
vn -0.00000000 0.00000000 1.00000000
s 1
usemtl Wood_Dark
f 32/88/88 31/87/87 30/86/86
f 32/88/88 30/86/86 29/85/85
s 2
usemtl Wood_Light
f 33/89/89 31/95/95 32/94/94
f 37/93/93 35/91/91 33/89/89
f 37/93/93 36/92/92 35/91/91
f 33/89/89 32/94/94 37/93/93
f 35/91/91 34/90/90 33/89/89
s 3
usemtl Wood_Dark
f 36/99/99 39/98/98 35/96/96
f 39/98/98 38/97/97 35/96/96
s 4
f 40/103/103 39/102/102 37/100/100
f 39/102/102 36/101/101 37/100/100
s 5
f 34/107/107 42/106/106 41/105/105
f 34/107/107 41/105/105 33/104/104
s 6
f 35/111/111 38/110/110 34/108/108
f 38/110/110 42/109/109 34/108/108
s 7
usemtl Wood_Light
f 37/115/115 32/114/114 29/113/113
f 37/115/115 29/113/113 40/112/112
s 8
f 29/121/121 30/122/122 41/116/116
f 41/116/116 38/118/118 40/120/120
f 38/118/118 39/119/119 40/120/120
f 41/116/116 42/117/117 38/118/118
f 40/120/120 29/121/121 41/116/116
s 9
usemtl Wood_Dark
f 33/126/126 41/125/125 30/124/124
f 33/126/126 30/124/124 31/123/123
