mtllib Prop_Mushroom_2.mtl
o object1
g object1
v -0.03000000 0.10000000 0.05196152
v -0.06000000 0.10000000 0.00000000
v -0.07500000 0.00000000 0.00000000
v -0.03750000 0.00000000 0.06495191
v 0.03000000 0.10000000 0.05196152
v 0.03750000 0.00000000 0.06495191
v 0.06000000 0.10000000 0.00000000
v 0.07500000 0.00000000 0.00000000
v 0.03000000 0.10000000 -0.05196152
v 0.03750000 0.00000000 -0.06495191
v -0.03000000 0.10000000 -0.05196152
v -0.03750000 0.00000000 -0.06495191
v -0.00000000 0.10000000 -0.00000000
v -0.00000000 0.00000000 -0.00000000
vt 0.00000000 1.00000000
vt 0.00000000 0.00000000
vt 1.00000000 0.00000000
vt 1.00000000 1.00000000
vt 0.00000000 1.00000000
vt 0.00000000 0.00000000
vt 1.00000000 0.00000000
vt 1.00000000 1.00000000
vt 0.00000000 1.00000000
vt 0.00000000 0.00000000
vt 1.00000000 0.00000000
vt 1.00000000 1.00000000
vt 0.00000000 1.00000000
vt 0.00000000 0.00000000
vt 1.00000000 0.00000000
vt 1.00000000 1.00000000
vt 0.00000000 1.00000000
vt 0.00000000 0.00000000
vt 1.00000000 0.00000000
vt 1.00000000 1.00000000
vt 0.00000000 1.00000000
vt 0.00000000 0.00000000
vt 1.00000000 0.00000000
vt 1.00000000 1.00000000
vt 1.00000000 0.25000000
vt 1.00000000 0.75000000
vt 0.50000000 1.00000000
vt 0.00000000 0.75000000
vt 0.00000000 0.25000000
vt 0.50000000 0.00000000
vt 0.50000000 0.50000000
vt 1.00000000 0.25000000
vt 1.00000000 0.75000000
vt 0.50000000 1.00000000
vt 0.00000000 0.75000000
vt 0.00000000 0.25000000
vt 0.50000000 0.00000000
vt 0.50000000 0.50000000
vn -0.85880951 0.12882143 0.49583390
vn -0.85880951 0.12882143 0.49583390
vn -0.85880951 0.12882143 0.49583390
vn -0.85880951 0.12882143 0.49583390
vn 0.00000000 0.12882143 0.99166781
vn 0.00000000 0.12882143 0.99166781
vn 0.00000000 0.12882143 0.99166781
vn 0.00000000 0.12882143 0.99166781
vn 0.85880951 0.12882143 0.49583390
vn 0.85880951 0.12882143 0.49583390
vn 0.85880951 0.12882143 0.49583390
vn 0.85880951 0.12882143 0.49583390
vn 0.85880951 0.12882143 -0.49583390
vn 0.85880951 0.12882143 -0.49583390
vn 0.85880951 0.12882143 -0.49583390
vn 0.85880951 0.12882143 -0.49583390
vn 0.00000000 0.12882143 -0.99166781
vn 0.00000000 0.12882143 -0.99166781
vn 0.00000000 0.12882143 -0.99166781
vn 0.00000000 0.12882143 -0.99166781
vn -0.85880951 0.12882143 -0.49583390
vn -0.85880951 0.12882143 -0.49583390
vn -0.85880951 0.12882143 -0.49583390
vn -0.85880951 0.12882143 -0.49583390
vn 0.00000000 1.00000000 0.00000000
vn 0.00000000 1.00000000 0.00000000
vn 0.00000000 1.00000000 0.00000000
vn 0.00000000 1.00000000 0.00000000
vn 0.00000000 1.00000000 0.00000000
vn 0.00000000 1.00000000 0.00000000
vn 0.00000000 1.00000000 0.00000000
vn 0.00000000 -1.00000000 0.00000000
vn 0.00000000 -1.00000000 0.00000000
vn 0.00000000 -1.00000000 0.00000000
vn 0.00000000 -1.00000000 0.00000000
vn 0.00000000 -1.00000000 0.00000000
vn 0.00000000 -1.00000000 0.00000000
vn 0.00000000 -1.00000000 0.00000000
s 1
usemtl Mushroom_White
f 1/1/1 2/2/2 4/4/4
f 2/2/2 3/3/3 4/4/4
s 2
f 5/5/5 1/6/6 6/8/8
f 1/6/6 4/7/7 6/8/8
s 3
f 7/9/9 5/10/10 6/11/11
f 7/9/9 6/11/11 8/12/12
s 4
f 9/13/13 7/14/14 8/15/15
f 9/13/13 8/15/15 10/16/16
s 5
f 11/17/17 9/18/18 10/19/19
f 11/17/17 10/19/19 12/20/20
s 6
f 2/21/21 11/22/22 3/24/24
f 11/22/22 12/23/23 3/24/24
s 7
f 9/25/25 11/26/26 13/31/31
f 5/29/29 7/30/30 13/31/31
f 1/28/28 5/29/29 13/31/31
f 2/27/27 1/28/28 13/31/31
f 11/26/26 2/27/27 13/31/31
f 7/30/30 9/25/25 13/31/31
s 8
f 8/37/37 6/36/36 14/38/38
f 12/33/33 10/32/32 14/38/38
f 3/34/34 12/33/33 14/38/38
f 4/35/35 3/34/34 14/38/38
f 6/36/36 4/35/35 14/38/38
f 10/32/32 8/37/37 14/38/38
o object2
g object2
v 0.10511937 0.10000000 -0.18207209
v -0.10511937 0.10000000 -0.18207209
v -0.21023874 0.10000000 0.00000000
v -0.10511937 0.10000000 0.18207209
v 0.10511937 0.10000000 0.18207209
v 0.21023874 0.10000000 0.00000000
v 0.00000000 0.10000000 0.00000000
v 0.12500000 0.15791288 -0.21650635
v 0.25000000 0.15791288 0.00000000
v 0.12500000 0.15791288 0.21650635
v -0.12500000 0.15791288 0.21650635
v -0.25000000 0.15791288 0.00000000
v -0.12500000 0.15791288 -0.21650635
v -0.15000000 0.23474773 0.00000000
v -0.07500000 0.23474773 0.12990381
v -0.07500000 0.23474773 -0.12990381
v 0.15000000 0.23474773 0.00000000
v 0.07500000 0.23474773 -0.12990381
v 0.07500000 0.23474773 0.12990381
v 0.00000000 0.26737386 0.00000000
vt 1.00000000 0.25000000
vt 1.00000000 0.75000000
vt 0.50000000 1.00000000
vt 0.00000000 0.75000000
vt 0.00000000 0.25000000
vt 0.50000000 0.00000000
vt 0.50000000 0.50000000
vt 0.07952952 0.00000000
vt 0.92047808 0.00000000
vt 1.00000000 1.00000000
vt 0.00000760 1.00000000
vt 0.07952252 0.00000000
vt 0.92047748 0.00000000
vt 1.00000000 1.00000000
vt 0.00000000 1.00000000
vt 0.07952252 0.00000000
vt 0.92047748 0.00000000
vt 1.00000000 1.00000000
vt 0.00000000 1.00000000
vt 0.07952252 0.00000000
vt 0.92047748 0.00000000
vt 1.00000000 1.00000000
vt 0.00000000 1.00000000
vt 0.07952252 0.00000000
vt 0.92047748 0.00000000
vt 1.00000000 1.00000000
vt 0.00000000 1.00000000
vt 0.07952252 0.00000000
vt 0.92047748 0.00000000
vt 1.00000000 1.00000000
vt 0.00000000 1.00000000
vt 1.00000000 0.00000000
vt 1.00000000 1.00000000
vt 0.00000000 0.80000000
vt 0.00000000 0.20000000
vt 1.00000000 0.00000000
vt 1.00000000 1.00000000
vt 0.00000000 0.80000000
vt 0.00000000 0.20000000
vt 1.00000000 0.00000000
vt 1.00000000 1.00000000
vt 0.00000000 0.80000000
vt 0.00000000 0.20000000
vt 1.00000000 0.00000000
vt 1.00000000 1.00000000
vt 0.00000000 0.80000000
vt 0.00000000 0.20000000
vt 1.00000000 0.00000000
vt 1.00000000 1.00000000
vt 0.00000000 0.80000000
vt 0.00000000 0.20000000
vt 1.00000000 0.00000000
vt 1.00000000 1.00000000
vt 0.00000000 0.80000000
vt 0.00000000 0.20000000
vt 1.00000000 0.00000000
vt 1.00000000 1.00000000
vt 0.00000000 0.50000000
vt 1.00000000 0.00000000
vt 1.00000000 1.00000000
vt 0.00000000 0.50000000
vt 1.00000000 0.00000000
vt 1.00000000 1.00000000
vt 0.00000000 0.50000000
vt 1.00000000 0.00000000
vt 1.00000000 1.00000000
vt 0.00000000 0.50000000
vt 1.00000000 0.00000000
vt 1.00000000 1.00000000
vt 0.00000000 0.50000000
vt 1.00000000 0.00000000
vt 1.00000000 1.00000000
vt 0.00000000 0.50000000
vn 0.00000000 -1.00000000 0.00000000
vn 0.00000000 -1.00000000 0.00000000
vn 0.00000000 -1.00000000 0.00000000
vn 0.00000000 -1.00000000 0.00000000
vn 0.00000000 -1.00000000 0.00000000
vn 0.00000000 -1.00000000 0.00000000
vn 0.00000000 -1.00000000 0.00000000
vn 0.74438230 -0.51107076 -0.42976932
vn 0.74438230 -0.51107076 -0.42976932
vn 0.74438230 -0.51107076 -0.42976932
vn 0.74438230 -0.51107076 -0.42976932
vn 0.74438230 -0.51107076 0.42976932
vn 0.74438230 -0.51107076 0.42976932
vn 0.74438230 -0.51107076 0.42976932
vn 0.74438230 -0.51107076 0.42976932
vn 0.00000000 -0.51107076 0.85953864
vn 0.00000000 -0.51107076 0.85953864
vn 0.00000000 -0.51107076 0.85953864
vn 0.00000000 -0.51107076 0.85953864
vn -0.74438230 -0.51107076 0.42976932
vn -0.74438230 -0.51107076 0.42976932
vn -0.74438230 -0.51107076 0.42976932
vn -0.74438230 -0.51107076 0.42976932
vn -0.74438230 -0.51107076 -0.42976932
vn -0.74438230 -0.51107076 -0.42976932
vn -0.74438230 -0.51107076 -0.42976932
vn -0.74438230 -0.51107076 -0.42976932
vn 0.00000000 -0.51107076 -0.85953864
vn 0.00000000 -0.51107076 -0.85953864
vn 0.00000000 -0.51107076 -0.85953864
vn 0.00000000 -0.51107076 -0.85953864
vn -0.57474902 0.74803170 0.33183150
vn -0.57474902 0.74803170 0.33183150
vn -0.57474902 0.74803170 0.33183150
vn -0.57474902 0.74803170 0.33183150
vn -0.57474902 0.74803170 -0.33183150
vn -0.57474902 0.74803170 -0.33183150
vn -0.57474902 0.74803170 -0.33183150
vn -0.57474902 0.74803170 -0.33183150
vn 0.57474902 0.74803170 -0.33183150
vn 0.57474902 0.74803170 -0.33183150
vn 0.57474902 0.74803170 -0.33183150
vn 0.57474902 0.74803170 -0.33183150
vn 0.57474902 0.74803170 0.33183150
vn 0.57474902 0.74803170 0.33183150
vn 0.57474902 0.74803170 0.33183150
vn 0.57474902 0.74803170 0.33183150
vn -0.00000000 0.74803170 0.66366300
vn -0.00000000 0.74803170 0.66366300
vn -0.00000000 0.74803170 0.66366300
vn -0.00000000 0.74803170 0.66366300
vn 0.00000000 0.74803170 -0.66366300
vn 0.00000000 0.74803170 -0.66366300
vn 0.00000000 0.74803170 -0.66366300
vn 0.00000000 0.74803170 -0.66366300
vn -0.21095583 0.96987809 0.12179541
vn -0.21095583 0.96987809 0.12179541
vn -0.21095583 0.96987809 0.12179541
vn -0.21095583 0.96987809 -0.12179541
vn -0.21095583 0.96987809 -0.12179541
vn -0.21095583 0.96987809 -0.12179541
vn 0.21095583 0.96987809 -0.12179541
vn 0.21095583 0.96987809 -0.12179541
vn 0.21095583 0.96987809 -0.12179541
vn 0.21095583 0.96987809 0.12179541
vn 0.21095583 0.96987809 0.12179541
vn 0.21095583 0.96987809 0.12179541
vn 0.00000000 0.96987809 0.24359081
vn 0.00000000 0.96987809 0.24359081
vn 0.00000000 0.96987809 0.24359081
vn 0.00000000 0.96987809 -0.24359081
vn 0.00000000 0.96987809 -0.24359081
vn 0.00000000 0.96987809 -0.24359081
s 1
usemtl Mushroom_White
f 20/44/44 19/43/43 21/45/45
f 16/40/40 15/39/39 21/45/45
f 17/41/41 16/40/40 21/45/45
f 18/42/42 17/41/41 21/45/45
f 19/43/43 18/42/42 21/45/45
f 15/39/39 20/44/44 21/45/45
s 2
usemtl Red_Mushroom
f 20/46/46 15/47/47 22/48/48
f 20/46/46 22/48/48 23/49/49
s 3
f 19/50/50 20/51/51 23/52/52
f 19/50/50 23/52/52 24/53/53
s 4
f 18/54/54 19/55/55 24/56/56
f 18/54/54 24/56/56 25/57/57
s 5
f 17/58/58 18/59/59 26/61/61
f 18/59/59 25/60/60 26/61/61
s 6
f 16/62/62 17/63/63 27/65/65
f 17/63/63 26/64/64 27/65/65
s 7
f 15/66/66 16/67/67 22/69/69
f 16/67/67 27/68/68 22/69/69
s 8
f 29/73/73 28/72/72 26/71/71
f 29/73/73 26/71/71 25/70/70
s 9
f 28/77/77 30/76/76 26/74/74
f 30/76/76 27/75/75 26/74/74
s 10
f 32/81/81 31/80/80 22/78/78
f 31/80/80 23/79/79 22/78/78
s 11
f 31/85/85 33/84/84 24/83/83
f 31/85/85 24/83/83 23/82/82
s 12
f 33/89/89 29/88/88 24/86/86
f 29/88/88 25/87/87 24/86/86
s 13
f 30/93/93 32/92/92 22/91/91
f 30/93/93 22/91/91 27/90/90
s 14
f 28/94/94 29/95/95 34/96/96
s 15
f 30/97/97 28/98/98 34/99/99
s 16
f 31/100/100 32/101/101 34/102/102
s 17
f 33/103/103 31/104/104 34/105/105
s 18
f 29/106/106 33/107/107 34/108/108
s 19
f 32/109/109 30/110/110 34/111/111
