mtllib Prop_Fence_Boards_1.mtl
o object1
g object1
v -0.50000000 0.27500000 0.52500000
v -0.50000000 0.27500000 0.47500000
v -0.50000000 0.42500000 0.47500000
v -0.50000000 0.42500000 0.52500000
v 0.50000000 0.42500000 0.52500000
v 0.50000000 0.42500000 0.47500000
v 0.50000000 0.27500000 0.52500000
v 0.50000000 0.27500000 0.47500000
v 0.10000000 0.27500000 0.52500000
v 0.10000000 0.27500000 0.47500000
v 0.05000000 0.30000000 0.52500000
v 0.05000000 0.30000000 0.47500000
v -0.00000000 0.27500000 0.52500000
v -0.00000000 0.27500000 0.47500000
vt 0.00000000 1.00000000
vt 0.00000000 0.00000000
vt 1.00000000 0.00000000
vt 1.00000000 1.00000000
vt 0.00000000 1.00000000
vt 0.00000000 0.00000000
vt 1.00000000 0.00000000
vt 1.00000000 1.00000000
vt 0.00000000 1.00000000
vt 0.00000000 0.00000000
vt 1.00000000 0.00000000
vt 1.00000000 1.00000000
vt 1.00000000 1.00000000
vt 0.00000000 1.00000000
vt 0.00000000 0.00000000
vt 1.00000000 0.00000000
vt 0.00000000 0.00000000
vt 1.00000000 0.00000000
vt 1.00000000 1.00000000
vt 0.00000000 1.00000000
vt 0.00000000 0.00000000
vt 1.00000000 0.00000000
vt 1.00000000 1.00000000
vt 0.00000000 1.00000000
vt 1.00000000 1.00000000
vt 0.00000000 1.00000000
vt 0.00000000 0.00000000
vt 0.40000000 0.00000000
vt 0.45000000 0.16666667
vt 0.50000000 0.00000000
vt 1.00000000 0.00000000
vt 0.00000000 0.00000000
vt 1.00000000 0.00000000
vt 1.00000000 1.00000000
vt 0.00000000 1.00000000
vt 1.00000000 1.00000000
vt 0.00000000 1.00000000
vt 0.00000000 0.00000000
vt 0.40000000 0.00000000
vt 0.45000000 0.16666667
vt 0.50000000 0.00000000
vt 1.00000000 0.00000000
vn -1.00000000 0.00000000 0.00000000
vn -1.00000000 0.00000000 0.00000000
vn -1.00000000 0.00000000 0.00000000
vn -1.00000000 0.00000000 0.00000000
vn 0.00000000 1.00000000 0.00000000
vn 0.00000000 1.00000000 0.00000000
vn 0.00000000 1.00000000 0.00000000
vn 0.00000000 1.00000000 0.00000000
vn 1.00000000 0.00000000 0.00000000
vn 1.00000000 0.00000000 0.00000000
vn 1.00000000 0.00000000 0.00000000
vn 1.00000000 0.00000000 0.00000000
vn 0.00000000 -1.00000000 0.00000000
vn 0.00000000 -1.00000000 0.00000000
vn 0.00000000 -1.00000000 0.00000000
vn 0.00000000 -1.00000000 0.00000000
vn -0.44721360 -0.89442719 0.00000000
vn -0.44721360 -0.89442719 0.00000000
vn -0.44721360 -0.89442719 0.00000000
vn -0.44721360 -0.89442719 0.00000000
vn 0.44721360 -0.89442719 0.00000000
vn 0.44721360 -0.89442719 0.00000000
vn 0.44721360 -0.89442719 0.00000000
vn 0.44721360 -0.89442719 0.00000000
vn 0.00000000 0.00000000 1.00000000
vn 0.00000000 0.00000000 1.00000000
vn 0.00000000 0.00000000 1.00000000
vn 0.00000000 0.00000000 1.00000000
vn 0.00000000 0.00000000 1.00000000
vn 0.00000000 0.00000000 1.00000000
vn 0.00000000 0.00000000 1.00000000
vn 0.00000000 -1.00000000 0.00000000
vn 0.00000000 -1.00000000 0.00000000
vn 0.00000000 -1.00000000 0.00000000
vn 0.00000000 -1.00000000 0.00000000
vn 0.00000000 0.00000000 -1.00000000
vn 0.00000000 0.00000000 -1.00000000
vn 0.00000000 0.00000000 -1.00000000
vn 0.00000000 0.00000000 -1.00000000
vn 0.00000000 0.00000000 -1.00000000
vn 0.00000000 0.00000000 -1.00000000
vn 0.00000000 0.00000000 -1.00000000
s 1
usemtl Wood_Light
f 4/4/4 3/3/3 1/1/1
f 3/3/3 2/2/2 1/1/1
s 2
f 5/5/5 6/6/6 4/8/8
f 6/6/6 3/7/7 4/8/8
s 3
f 7/9/9 8/10/10 5/12/12
f 8/10/10 6/11/11 5/12/12
s 4
f 10/16/16 8/15/15 7/14/14
f 10/16/16 7/14/14 9/13/13
s 5
f 10/17/17 9/18/18 12/20/20
f 9/18/18 11/19/19 12/20/20
s 6
f 12/21/21 11/22/22 14/24/24
f 11/22/22 13/23/23 14/24/24
s 7
f 9/28/28 7/27/27 5/26/26
f 11/29/29 5/26/26 4/25/25
f 4/25/25 1/31/31 13/30/30
f 13/30/30 11/29/29 4/25/25
f 11/29/29 9/28/28 5/26/26
s 8
f 13/35/35 1/34/34 14/32/32
f 1/34/34 2/33/33 14/32/32
s 9
f 6/37/37 8/38/38 10/39/39
f 3/36/36 6/37/37 12/40/40
f 3/36/36 12/40/40 14/41/41
f 14/41/41 2/42/42 3/36/36
f 6/37/37 10/39/39 12/40/40
o object2
g object2
v 0.34737500 0.70862120 0.52500000
v 0.49729780 0.71343291 0.52500000
v 0.50210951 0.56351010 0.52500000
v 0.05234110 0.54907497 0.52500000
v -0.04840939 0.57085430 0.52500000
v -0.09758171 0.54426326 0.52500000
v -0.49737585 0.53143203 0.52500000
v -0.50218756 0.68135483 0.52500000
v 0.24742646 0.70541339 0.52500000
v 0.29900463 0.65704302 0.52500000
v 0.50210951 0.56351010 0.47500000
v 0.05234110 0.54907497 0.47500000
v 0.34737500 0.70862120 0.47500000
v 0.49729780 0.71343291 0.47500000
v -0.04840939 0.57085430 0.47500000
v -0.09758171 0.54426326 0.47500000
v -0.49737585 0.53143203 0.47500000
v -0.50218756 0.68135483 0.47500000
v 0.24742646 0.70541339 0.47500000
v 0.29900463 0.65704302 0.47500000
vt 0.15000000 1.00000000
vt 0.00000000 1.00000000
vt 0.00000000 0.00000000
vt 0.45000000 0.00000000
vt 0.55000000 0.16666667
vt 0.60000000 0.00000000
vt 1.00000000 0.00000000
vt 1.00000000 1.00000000
vt 0.25000000 1.00000000
vt 0.20000000 0.66666667
vt 1.00000000 1.00000000
vt 0.00000000 1.00000000
vt 0.00000000 0.00000000
vt 1.00000000 0.00000000
vt 0.15000000 1.00000000
vt 0.00000000 1.00000000
vt 0.00000000 0.00000000
vt 0.45000000 0.00000000
vt 0.55000000 0.16666667
vt 0.60000000 0.00000000
vt 1.00000000 0.00000000
vt 1.00000000 1.00000000
vt 0.25000000 1.00000000
vt 0.20000000 0.66666667
vt 0.00000000 0.00000000
vt 1.00000000 0.00000000
vt 1.00000000 1.00000000
vt 0.00000000 1.00000000
vt 0.00000000 0.00000000
vt 1.00000000 0.00000000
vt 1.00000000 1.00000000
vt 0.00000000 1.00000000
vt 0.00000000 0.00000000
vt 1.00000000 0.00000000
vt 1.00000000 1.00000000
vt 0.00000000 1.00000000
vt 0.00000000 1.00000000
vt 0.00000000 0.00000000
vt 1.00000000 0.00000000
vt 1.00000000 1.00000000
vt 0.00000000 0.00000000
vt 1.00000000 0.00000000
vt 1.00000000 1.00000000
vt 0.00000000 1.00000000
vt 0.00000000 0.00000000
vt 1.00000000 0.00000000
vt 1.00000000 1.00000000
vt 0.00000000 1.00000000
vt 0.00000000 0.00000000
vt 1.00000000 0.00000000
vt 1.00000000 1.00000000
vt 0.00000000 1.00000000
vt 1.00000000 1.00000000
vt 0.00000000 1.00000000
vt 0.00000000 0.00000000
vt 1.00000000 0.00000000
vt 0.00000000 1.00000000
vt 0.00000000 0.00000000
vt 1.00000000 0.00000000
vt 1.00000000 1.00000000
vn 0.00000000 0.00000000 1.00000000
vn 0.00000000 0.00000000 1.00000000
vn 0.00000000 0.00000000 1.00000000
vn 0.00000000 0.00000000 1.00000000
vn 0.00000000 0.00000000 1.00000000
vn 0.00000000 0.00000000 1.00000000
vn 0.00000000 0.00000000 1.00000000
vn 0.00000000 0.00000000 1.00000000
vn 0.00000000 0.00000000 1.00000000
vn 0.00000000 0.00000000 1.00000000
vn 0.03207808 -0.99948537 0.00000000
vn 0.03207808 -0.99948537 0.00000000
vn 0.03207808 -0.99948537 0.00000000
vn 0.03207808 -0.99948537 0.00000000
vn 0.00000000 0.00000000 -1.00000000
vn 0.00000000 0.00000000 -1.00000000
vn 0.00000000 0.00000000 -1.00000000
vn 0.00000000 0.00000000 -1.00000000
vn 0.00000000 0.00000000 -1.00000000
vn 0.00000000 0.00000000 -1.00000000
vn 0.00000000 0.00000000 -1.00000000
vn 0.00000000 0.00000000 -1.00000000
vn 0.00000000 0.00000000 -1.00000000
vn 0.00000000 0.00000000 -1.00000000
vn -0.21129050 -0.97742331 0.00000000
vn -0.21129050 -0.97742331 0.00000000
vn -0.21129050 -0.97742331 0.00000000
vn -0.21129050 -0.97742331 0.00000000
vn 0.47567495 -0.87962114 0.00000000
vn 0.47567495 -0.87962114 0.00000000
vn 0.47567495 -0.87962114 0.00000000
vn 0.47567495 -0.87962114 0.00000000
vn 0.03207808 -0.99948537 0.00000000
vn 0.03207808 -0.99948537 0.00000000
vn 0.03207808 -0.99948537 0.00000000
vn 0.03207808 -0.99948537 0.00000000
vn -0.99948537 -0.03207808 0.00000000
vn -0.99948537 -0.03207808 0.00000000
vn -0.99948537 -0.03207808 0.00000000
vn -0.99948537 -0.03207808 0.00000000
vn -0.03207808 0.99948537 0.00000000
vn -0.03207808 0.99948537 0.00000000
vn -0.03207808 0.99948537 0.00000000
vn -0.03207808 0.99948537 0.00000000
vn 0.68406025 0.72942551 0.00000000
vn 0.68406025 0.72942551 0.00000000
vn 0.68406025 0.72942551 0.00000000
vn 0.68406025 0.72942551 0.00000000
vn -0.72942551 0.68406025 0.00000000
vn -0.72942551 0.68406025 0.00000000
vn -0.72942551 0.68406025 0.00000000
vn -0.72942551 0.68406025 0.00000000
vn -0.03207808 0.99948537 0.00000000
vn -0.03207808 0.99948537 0.00000000
vn -0.03207808 0.99948537 0.00000000
vn -0.03207808 0.99948537 0.00000000
vn 0.99948537 0.03207808 0.00000000
vn 0.99948537 0.03207808 0.00000000
vn 0.99948537 0.03207808 0.00000000
vn 0.99948537 0.03207808 0.00000000
s 1
usemtl Wood_Light
f 16/44/44 15/43/43 24/52/52
f 18/46/46 24/52/52 23/51/51
f 19/47/47 23/51/51 22/50/50
f 22/50/50 21/49/49 20/48/48
f 22/50/50 20/48/48 19/47/47
f 19/47/47 18/46/46 23/51/51
f 18/46/46 17/45/45 24/52/52
f 17/45/45 16/44/44 24/52/52
s 2
f 26/56/56 25/55/55 17/54/54
f 26/56/56 17/54/54 18/53/53
s 3
f 34/66/66 27/57/57 28/58/58
f 33/65/65 34/66/66 26/60/60
f 32/64/64 33/65/65 29/61/61
f 29/61/61 30/62/62 32/64/64
f 30/62/62 31/63/63 32/64/64
f 33/65/65 26/60/60 29/61/61
f 34/66/66 25/59/59 26/60/60
f 34/66/66 28/58/58 25/59/59
s 4
f 26/67/67 18/68/68 29/70/70
f 18/68/68 19/69/69 29/70/70
s 5
f 29/71/71 19/72/72 30/74/74
f 19/72/72 20/73/73 30/74/74
s 6
f 20/78/78 21/77/77 30/75/75
f 21/77/77 31/76/76 30/75/75
s 7
f 22/82/82 32/81/81 31/80/80
f 22/82/82 31/80/80 21/79/79
s 8
f 33/83/83 32/84/84 23/86/86
f 32/84/84 22/85/85 23/86/86
s 9
f 33/90/90 23/89/89 24/88/88
f 33/90/90 24/88/88 34/87/87
s 10
f 34/94/94 24/93/93 15/92/92
f 34/94/94 15/92/92 27/91/91
s 11
f 15/95/95 16/96/96 28/97/97
f 15/95/95 28/97/97 27/98/98
s 12
f 17/99/99 25/100/100 16/102/102
f 25/100/100 28/101/101 16/102/102
