mtllib Prop_Fence_Post_1.mtl
o object1
g object1
v -0.40310866 0.74494874 0.57500000
v -0.55284982 0.75375704 0.57500000
v -0.55284982 0.75375704 0.42500000
v -0.44334366 0.74731550 0.42500000
v -0.40310866 0.74494874 0.46356144
v -0.44715018 -0.00375704 0.42500000
v -0.59689134 0.00505126 0.42500000
v -0.40607019 0.69460285 0.42500000
v -0.44715018 -0.00375704 0.57500000
v -0.59689134 0.00505126 0.57500000
vt 0.00000000 1.00000000
vt 0.00000000 0.00000000
vt 1.00000000 0.00000000
vt 1.00000000 0.73130301
vt 0.74292372 1.00000000
vt 0.00000000 1.00000000
vt 0.00000000 0.00000000
vt 1.00000000 0.00000000
vt 1.00000000 0.73130301
vt 0.93275611 1.00000000
vt 0.00000000 1.00000000
vt 0.00000000 0.00000000
vt 1.00000000 0.00000000
vt 1.00000000 1.00000000
vt 1.00000000 0.00000000
vt 0.95510064 1.00000000
vt 0.00000000 0.47303501
vt 0.00000000 1.00000000
vt 0.00000000 0.00000000
vt 1.00000000 0.00000000
vt 1.00000000 0.74292372
vt 0.93275611 1.00000000
vt 0.00000000 1.00000000
vt 0.00000000 0.00000000
vt 1.00000000 0.00000000
vt 1.00000000 1.00000000
vt 0.00000000 1.00000000
vt 0.00000000 0.00000000
vt 1.00000000 0.00000000
vt 1.00000000 1.00000000
vn 0.05872202 0.99827437 0.00000000
vn 0.05872202 0.99827437 0.00000000
vn 0.05872202 0.99827437 0.00000000
vn 0.05872202 0.99827437 0.00000000
vn 0.05872202 0.99827437 0.00000000
vn 0.00000000 0.00000000 -1.00000000
vn 0.00000000 0.00000000 -1.00000000
vn 0.00000000 0.00000000 -1.00000000
vn 0.00000000 0.00000000 -1.00000000
vn 0.00000000 0.00000000 -1.00000000
vn -0.05872202 -0.99827437 0.00000000
vn -0.05872202 -0.99827437 0.00000000
vn -0.05872202 -0.99827437 0.00000000
vn -0.05872202 -0.99827437 0.00000000
vn 0.63245553 0.44721360 -0.63245553
vn 0.63245553 0.44721360 -0.63245553
vn 0.63245553 0.44721360 -0.63245553
vn 0.99827437 -0.05872202 0.00000000
vn 0.99827437 -0.05872202 0.00000000
vn 0.99827437 -0.05872202 0.00000000
vn 0.99827437 -0.05872202 0.00000000
vn 0.99827437 -0.05872202 0.00000000
vn 0.00000000 0.00000000 1.00000000
vn 0.00000000 0.00000000 1.00000000
vn 0.00000000 0.00000000 1.00000000
vn 0.00000000 0.00000000 1.00000000
vn -0.99827437 0.05872202 0.00000000
vn -0.99827437 0.05872202 0.00000000
vn -0.99827437 0.05872202 0.00000000
vn -0.99827437 0.05872202 0.00000000
s 1
usemtl Wood_Dark
f 5/5/5 4/4/4 3/3/3
f 5/5/5 3/3/3 2/2/2
f 2/2/2 1/1/1 5/5/5
s 2
f 3/8/8 4/9/9 8/10/10
f 8/10/10 6/6/6 7/7/7
f 7/7/7 3/8/8 8/10/10
s 3
f 9/11/11 10/12/12 6/14/14
f 10/12/12 7/13/13 6/14/14
s 4
f 4/15/15 5/16/16 8/17/17
s 5
f 8/22/22 5/21/21 1/20/20
f 8/22/22 1/20/20 9/19/19
f 9/19/19 6/18/18 8/22/22
s 6
f 1/26/26 2/25/25 9/23/23
f 2/25/25 10/24/24 9/23/23
s 7
f 7/27/27 10/28/28 2/29/29
f 7/27/27 2/29/29 3/30/30
