mtllib Prop_Tree_Pine_1.mtl
o object1
g object1
v 0.13928591 0.83871849 -0.27794422
v 0.27857182 0.84919773 -0.03692164
v 0.13928591 0.85967698 0.20410093
v -0.13928591 0.85967698 0.20410093
v -0.27857182 0.84919773 -0.03692164
v -0.13928591 0.83871849 -0.27794422
v 0.00000000 0.84919773 -0.03692164
v 0.13928591 0.01047924 0.24102257
v -0.13928591 0.01047924 0.24102257
v 0.13928591 -0.01047924 -0.24102257
v 0.27857182 -0.00000000 0.00000000
v -0.27857182 0.00000000 -0.00000000
v -0.13928591 -0.01047924 -0.24102257
v 0.00000000 0.00000000 0.00000000
vt 0.00000000 0.25000000
vt 0.50000000 0.00000000
vt 1.00000000 0.25000000
vt 1.00000000 0.75000000
vt 0.50000000 1.00000000
vt 0.00000000 0.75000000
vt 0.50000000 0.50000000
vt 0.00000000 0.00000000
vt 1.00000000 0.00000000
vt 1.00000000 1.00000000
vt 0.00000000 1.00000000
vt 0.00000000 0.25000000
vt 0.50000000 0.00000000
vt 1.00000000 0.25000000
vt 1.00000000 0.75000000
vt 0.50000000 1.00000000
vt 0.00000000 0.75000000
vt 0.50000000 0.50000000
vt 0.00000000 0.00000000
vt 1.00000000 0.00000000
vt 1.00000000 1.00000000
vt 0.00000000 1.00000000
vt 0.00000000 0.00000000
vt 1.00000000 0.00000000
vt 1.00000000 1.00000000
vt 0.00000000 1.00000000
vt 0.00000000 0.00000000
vt 1.00000000 0.00000000
vt 1.00000000 1.00000000
vt 0.00000000 1.00000000
vt 0.00000000 0.00000000
vt 1.00000000 0.00000000
vt 1.00000000 1.00000000
vt 0.00000000 1.00000000
vt 0.00000000 0.00000000
vt 1.00000000 0.00000000
vt 1.00000000 1.00000000
vt 0.00000000 1.00000000
vn 0.00000000 0.99905616 -0.04343722
vn 0.00000000 0.99905616 -0.04343722
vn 0.00000000 0.99905616 -0.04343722
vn 0.00000000 0.99905616 -0.04343722
vn 0.00000000 0.99905616 -0.04343722
vn 0.00000000 0.99905616 -0.04343722
vn 0.00000000 0.99905616 -0.04343722
vn -0.00000000 0.04343722 0.99905616
vn -0.00000000 0.04343722 0.99905616
vn -0.00000000 0.04343722 0.99905616
vn -0.00000000 0.04343722 0.99905616
vn -0.00000000 -0.99905616 0.04343722
vn -0.00000000 -0.99905616 0.04343722
vn -0.00000000 -0.99905616 0.04343722
vn -0.00000000 -0.99905616 0.04343722
vn -0.00000000 -0.99905616 0.04343722
vn -0.00000000 -0.99905616 0.04343722
vn -0.00000000 -0.99905616 0.04343722
vn -0.86602540 0.02171861 0.49952808
vn -0.86602540 0.02171861 0.49952808
vn -0.86602540 0.02171861 0.49952808
vn -0.86602540 0.02171861 0.49952808
vn -0.86602540 -0.02171861 -0.49952808
vn -0.86602540 -0.02171861 -0.49952808
vn -0.86602540 -0.02171861 -0.49952808
vn -0.86602540 -0.02171861 -0.49952808
vn 0.00000000 -0.04343722 -0.99905616
vn 0.00000000 -0.04343722 -0.99905616
vn 0.00000000 -0.04343722 -0.99905616
vn 0.00000000 -0.04343722 -0.99905616
vn 0.86602540 -0.02171861 -0.49952808
vn 0.86602540 -0.02171861 -0.49952808
vn 0.86602540 -0.02171861 -0.49952808
vn 0.86602540 -0.02171861 -0.49952808
vn 0.86602540 0.02171861 0.49952808
vn 0.86602540 0.02171861 0.49952808
vn 0.86602540 0.02171861 0.49952808
vn 0.86602540 0.02171861 0.49952808
s 1
usemtl Wood_Dark
f 6/6/6 5/5/5 7/7/7
f 2/2/2 1/1/1 7/7/7
f 3/3/3 2/2/2 7/7/7
f 4/4/4 3/3/3 7/7/7
f 5/5/5 4/4/4 7/7/7
f 1/1/1 6/6/6 7/7/7
s 2
f 4/11/11 9/10/10 8/9/9
f 4/11/11 8/9/9 3/8/8
s 3
f 10/12/12 11/13/13 14/18/18
f 12/16/16 13/17/17 14/18/18
f 9/15/15 12/16/16 14/18/18
f 8/14/14 9/15/15 14/18/18
f 11/13/13 8/14/14 14/18/18
f 13/17/17 10/12/12 14/18/18
s 4
f 5/22/22 12/21/21 4/19/19
f 12/21/21 9/20/20 4/19/19
s 5
f 6/26/26 13/25/25 12/24/24
f 6/26/26 12/24/24 5/23/23
s 6
f 1/30/30 10/29/29 6/27/27
f 10/29/29 13/28/28 6/27/27
s 7
f 2/34/34 11/33/33 1/31/31
f 11/33/33 10/32/32 1/31/31
s 8
f 3/38/38 8/37/37 11/36/36
f 3/38/38 11/36/36 2/35/35
o object2
g object2
v 0.62500000 0.74929212 1.00108696
v -0.62500000 0.74929212 1.00108696
v -1.18750000 0.82034475 -0.08144480
v 1.18750000 0.82034475 -0.08144480
v 0.00000000 2.17034475 -0.08144480
v 0.62500000 0.74929212 -1.16397655
v -0.62500000 0.74929212 -1.16397655
vt 0.76315789 1.00000000
vt 0.23684211 1.00000000
vt 0.00000000 0.00000000
vt 1.00000000 0.00000000
vt 1.00000000 0.00000000
vt 1.00000000 1.00000000
vt 0.00000000 0.50000000
vt 1.00000000 0.94736842
vt 0.00000000 1.00000000
vt 0.00000000 0.00000000
vt 0.00000000 0.05263158
vt 1.00000000 0.00000000
vt 1.00000000 1.00000000
vt 0.00000000 1.00000000
vt 0.00000000 0.00000000
vt 1.00000000 0.50000000
vt 1.00000000 1.00000000
vt 0.00000000 0.94736842
vt 1.00000000 0.00000000
vt 1.00000000 1.00000000
vt 0.00000000 1.00000000
vt 0.23684211 0.00000000
vt 0.76315789 0.00000000
vt 1.00000000 0.94736842
vt 0.00000000 1.00000000
vt 0.00000000 0.00000000
vn -0.00000000 -0.99785292 -0.06549468
vn -0.00000000 -0.99785292 -0.06549468
vn -0.00000000 -0.99785292 -0.06549468
vn -0.00000000 -0.99785292 -0.06549468
vn 0.00000000 0.60598123 0.79547894
vn 0.00000000 0.60598123 0.79547894
vn 0.00000000 0.60598123 0.79547894
vn 0.68890497 0.60598123 0.39773947
vn 0.68890497 0.60598123 0.39773947
vn 0.68890497 0.60598123 0.39773947
vn 0.68890497 0.60598123 -0.39773947
vn 0.68890497 0.60598123 -0.39773947
vn 0.68890497 0.60598123 -0.39773947
vn 0.00000000 0.60598123 -0.79547894
vn 0.00000000 0.60598123 -0.79547894
vn 0.00000000 0.60598123 -0.79547894
vn -0.68890497 0.60598123 -0.39773947
vn -0.68890497 0.60598123 -0.39773947
vn -0.68890497 0.60598123 -0.39773947
vn -0.00000000 -0.99785292 0.06549468
vn -0.00000000 -0.99785292 0.06549468
vn -0.00000000 -0.99785292 0.06549468
vn -0.00000000 -0.99785292 0.06549468
vn -0.68890497 0.60598123 0.39773947
vn -0.68890497 0.60598123 0.39773947
vn -0.68890497 0.60598123 0.39773947
s 1
usemtl Pine_Leaves
f 15/39/39 16/40/40 17/41/41
f 15/39/39 17/41/41 18/42/42
s 2
f 16/43/43 15/44/44 19/45/45
s 3
f 15/46/46 18/47/47 19/48/48
s 4
f 19/51/51 18/50/50 20/49/49
s 5
f 19/54/54 20/53/53 21/52/52
s 6
f 19/57/57 21/56/56 17/55/55
s 7
f 18/58/58 17/59/59 20/61/61
f 17/59/59 21/60/60 20/61/61
s 8
f 19/64/64 17/63/63 16/62/62
o object3
g object3
v 0.33333333 1.96005048 0.54420588
v 0.66666667 1.97785407 -0.03286982
v 0.33333333 1.99565766 -0.60994553
v -0.33333333 1.99565766 -0.60994553
v -0.66666667 1.97785407 -0.03286982
v -0.33333333 1.96005048 0.54420588
v 0.00000000 1.97785407 -0.03286982
v 0.00000000 3.22725961 0.00567607
vt 1.00000000 0.75000000
vt 0.50000000 1.00000000
vt 0.00000000 0.75000000
vt 0.00000000 0.25000000
vt 0.50000000 0.00000000
vt 1.00000000 0.25000000
vt 0.50000000 0.50000000
vt 0.00000000 1.00000000
vt 0.00000000 0.00000000
vt 1.00000000 0.50000000
vt 1.00000000 1.00000000
vt 0.00000000 0.90000000
vt 1.00000000 0.00000000
vt 1.00000000 0.90000000
vt 0.00000000 1.00000000
vt 0.00000000 0.00000000
vt 1.00000000 0.00000000
vt 1.00000000 1.00000000
vt 0.00000000 0.50000000
vt 1.00000000 0.90000000
vt 0.00000000 1.00000000
vt 0.00000000 0.00000000
vt 0.00000000 0.10000000
vt 1.00000000 0.00000000
vt 1.00000000 1.00000000
vn -0.00000000 -0.99952444 -0.03083672
vn -0.00000000 -0.99952444 -0.03083672
vn -0.00000000 -0.99952444 -0.03083672
vn -0.00000000 -0.99952444 -0.03083672
vn -0.00000000 -0.99952444 -0.03083672
vn -0.00000000 -0.99952444 -0.03083672
vn -0.00000000 -0.99952444 -0.03083672
vn -0.00000000 0.44710937 -0.89447930
vn -0.00000000 0.44710937 -0.89447930
vn -0.00000000 0.44710937 -0.89447930
vn -0.78621363 0.43311195 -0.44077452
vn -0.78621363 0.43311195 -0.44077452
vn -0.78621363 0.43311195 -0.44077452
vn -0.78621363 0.40511710 0.46663505
vn -0.78621363 0.40511710 0.46663505
vn -0.78621363 0.40511710 0.46663505
vn 0.00000000 0.39111968 0.92033983
vn 0.00000000 0.39111968 0.92033983
vn 0.00000000 0.39111968 0.92033983
vn 0.78621363 0.40511710 0.46663505
vn 0.78621363 0.40511710 0.46663505
vn 0.78621363 0.40511710 0.46663505
vn 0.78621363 0.43311195 -0.44077452
vn 0.78621363 0.43311195 -0.44077452
vn 0.78621363 0.43311195 -0.44077452
s 1
usemtl Pine_Leaves
f 27/70/70 26/69/69 28/71/71
f 23/66/66 22/65/65 28/71/71
f 24/67/67 23/66/66 28/71/71
f 25/68/68 24/67/67 28/71/71
f 26/69/69 25/68/68 28/71/71
f 22/65/65 27/70/70 28/71/71
s 2
f 29/74/74 24/73/73 25/72/72
s 3
f 29/77/77 25/76/76 26/75/75
s 4
f 29/80/80 26/79/79 27/78/78
s 5
f 27/81/81 22/82/82 29/83/83
s 6
f 22/84/84 23/85/85 29/86/86
s 7
f 29/89/89 23/88/88 24/87/87
o object4
g object4
v 0.47142857 1.40500178 -0.87335111
v 0.99000000 1.35343489 -0.05657958
v 0.00000000 2.51131856 -0.06164264
v -0.47142857 1.40500178 -0.87335111
v -0.99000000 1.35343489 -0.05657958
v -0.47142857 1.41214264 0.75970975
v 0.47142857 1.41214264 0.75970975
vt 0.00000000 0.14285714
vt 1.00000000 0.00000000
vt 1.00000000 1.00000000
vt 0.00000000 1.00000000
vt 0.00000000 0.00000000
vt 1.00000000 0.50000000
vt 1.00000000 1.00000000
vt 0.00000000 0.85714286
vt 1.00000000 0.00000000
vt 1.00000000 0.85714286
vt 0.00000000 1.00000000
vt 0.00000000 0.00000000
vt 1.00000000 0.00000000
vt 1.00000000 1.00000000
vt 0.00000000 0.50000000
vt 0.26190476 1.00000000
vt 0.00000000 0.00000000
vt 1.00000000 0.00000000
vt 0.73809524 1.00000000
vt 1.00000000 1.00000000
vt 0.00000000 1.00000000
vt 0.26190476 0.00000000
vt 0.73809524 0.00000000
vt 1.00000000 0.85714286
vt 0.00000000 1.00000000
vt 0.00000000 0.00000000
vn 0.69599714 0.59331479 -0.40443236
vn 0.69599714 0.59331479 -0.40443236
vn 0.69599714 0.59331479 -0.40443236
vn -0.00000000 0.59155772 -0.80626266
vn -0.00000000 0.59155772 -0.80626266
vn -0.00000000 0.59155772 -0.80626266
vn -0.69599714 0.59331479 -0.40443236
vn -0.69599714 0.59331479 -0.40443236
vn -0.69599714 0.59331479 -0.40443236
vn -0.69599714 0.59682895 0.39922824
vn -0.69599714 0.59682895 0.39922824
vn -0.69599714 0.59682895 0.39922824
vn 0.00000000 0.59858602 0.80105853
vn 0.00000000 0.59858602 0.80105853
vn 0.00000000 0.59858602 0.80105853
vn -0.00000000 -0.99742373 0.07173498
vn -0.00000000 -0.99742373 0.07173498
vn -0.00000000 -0.99742373 0.07173498
vn -0.00000000 -0.99742373 0.07173498
vn -0.00000000 -0.99801292 -0.06300957
vn -0.00000000 -0.99801292 -0.06300957
vn -0.00000000 -0.99801292 -0.06300957
vn -0.00000000 -0.99801292 -0.06300957
vn 0.69599714 0.59682895 0.39922824
vn 0.69599714 0.59682895 0.39922824
vn 0.69599714 0.59682895 0.39922824
s 1
usemtl Pine_Leaves
f 32/92/92 31/91/91 30/90/90
s 2
f 32/95/95 30/94/94 33/93/93
s 3
f 32/98/98 33/97/97 34/96/96
s 4
f 32/101/101 34/100/100 35/99/99
s 5
f 35/102/102 36/103/103 32/104/104
s 6
f 35/105/105 34/106/106 31/107/107
f 35/105/105 31/107/107 36/108/108
s 7
f 31/109/109 34/110/110 30/112/112
f 34/110/110 33/111/111 30/112/112
s 8
f 36/113/113 31/114/114 32/115/115
o object5
g object5
v -0.24960788 2.53543192 0.42463117
v -0.49921575 2.54303757 -0.00854092
v -0.05598681 3.56818643 0.04262462
v 0.24960788 2.56339052 0.42602659
v 0.49921575 2.59895478 -0.00575007
v 0.24960788 2.60656043 -0.43892217
v -0.24960788 2.57860182 -0.44031759
v 0.00000000 2.57099617 -0.00714550
vt 1.00000000 0.90000000
vt 0.00000000 1.00000000
vt 0.00000000 0.00000000
vt 1.00000000 0.00000000
vt 1.00000000 1.00000000
vt 0.00000000 0.50000000
vt 1.00000000 0.90000000
vt 0.00000000 1.00000000
vt 0.00000000 0.00000000
vt 0.00000000 0.10000000
vt 1.00000000 0.00000000
vt 1.00000000 1.00000000
vt 0.00000000 1.00000000
vt 0.00000000 0.00000000
vt 1.00000000 0.50000000
vt 1.00000000 0.75000000
vt 0.50000000 1.00000000
vt 0.00000000 0.75000000
vt 0.00000000 0.25000000
vt 0.50000000 0.00000000
vt 1.00000000 0.25000000
vt 0.50000000 0.50000000
vt 1.00000000 1.00000000
vt 0.00000000 0.90000000
vt 1.00000000 0.00000000
vn -0.81571981 0.32893276 0.47581975
vn -0.81571981 0.32893276 0.47581975
vn -0.81571981 0.32893276 0.47581975
vn -0.02224690 0.35049928 0.93629874
vn -0.02224690 0.35049928 0.93629874
vn -0.02224690 0.35049928 0.93629874
vn 0.77122600 0.41780975 0.48025563
vn 0.77122600 0.41780975 0.48025563
vn 0.77122600 0.41780975 0.48025563
vn 0.77122600 0.46355370 -0.43626647
vn 0.77122600 0.46355370 -0.43626647
vn 0.77122600 0.46355370 -0.43626647
vn -0.02224690 0.44198718 -0.89674546
vn -0.02224690 0.44198718 -0.89674546
vn -0.02224690 0.44198718 -0.89674546
vn 0.05598681 -0.99719026 -0.04977012
vn 0.05598681 -0.99719026 -0.04977012
vn 0.05598681 -0.99719026 -0.04977012
vn 0.05598681 -0.99719026 -0.04977012
vn 0.05598681 -0.99719026 -0.04977012
vn 0.05598681 -0.99719026 -0.04977012
vn 0.05598681 -0.99719026 -0.04977012
vn -0.81571981 0.37467671 -0.44070235
vn -0.81571981 0.37467671 -0.44070235
vn -0.81571981 0.37467671 -0.44070235
s 1
usemtl Pine_Leaves
f 39/118/118 38/117/117 37/116/116
s 2
f 37/119/119 40/120/120 39/121/121
s 3
f 40/122/122 41/123/123 39/124/124
s 4
f 39/127/127 41/126/126 42/125/125
s 5
f 39/130/130 42/129/129 43/128/128
s 6
f 37/136/136 38/135/135 44/137/137
f 41/132/132 40/131/131 44/137/137
f 42/133/133 41/132/132 44/137/137
f 43/134/134 42/133/133 44/137/137
f 38/135/135 43/134/134 44/137/137
f 40/131/131 37/136/136 44/137/137
s 7
f 39/140/140 43/139/139 38/138/138
