mtllib Prop_Cattail_1.mtl
o object1
g object1
v 0.00070111 0.24733919 -0.00903619
v 0.00894396 0.24735449 0.00058031
v 0.00752769 0.00000000 -0.00698651
v -0.00350578 0.24735449 0.00291050
v 0.00332079 0.00001530 0.00496018
v -0.00492205 -0.00000000 -0.00465632
vt 1.00000000 1.00000000
vt 0.00000000 1.00000000
vt 0.50000000 0.00000000
vt 0.00000000 0.00000000
vt 1.00000000 0.00000000
vt 0.50000000 1.00000000
vt 0.00000000 0.00000000
vt 1.00000000 0.61475410
vt 0.00000000 1.00000000
vt 0.50000000 1.00000000
vt 0.00000000 0.00000000
vt 1.00000000 0.00000000
vt 1.00000000 1.00000000
vt 0.00000000 1.00000000
vt 0.50000000 0.00000000
vt 0.00000000 0.38524590
vt 1.00000000 0.00000000
vt 1.00000000 1.00000000
vt 1.00000000 0.00000000
vt 1.00000000 1.00000000
vt 0.00000000 0.38524590
vt 0.00000000 0.00000000
vt 1.00000000 0.38524590
vt 0.00000000 1.00000000
vn 0.75914726 0.01555994 -0.65073292
vn 0.75914726 0.01555994 -0.65073292
vn 0.75914726 0.01555994 -0.65073292
vn -0.00025661 0.99999903 -0.00137100
vn -0.00025661 0.99999903 -0.00137100
vn -0.00025661 0.99999903 -0.00137100
vn 0.18395748 0.01322198 0.98284527
vn 0.18395748 0.01322198 0.98284527
vn 0.18395748 0.01322198 0.98284527
vn -0.75914726 -0.01555994 0.65073292
vn -0.75914726 -0.01555994 0.65073292
vn -0.75914726 -0.01555994 0.65073292
vn 0.00025661 -0.99999903 0.00137100
vn 0.00025661 -0.99999903 0.00137100
vn 0.00025661 -0.99999903 0.00137100
vn -0.94310708 0.01555994 -0.33212487
vn -0.94310708 0.01555994 -0.33212487
vn -0.94310708 0.01555994 -0.33212487
vn -0.18395748 -0.01322198 -0.98284527
vn -0.18395748 -0.01322198 -0.98284527
vn -0.18395748 -0.01322198 -0.98284527
vn 0.94310708 -0.01555994 0.33212487
vn 0.94310708 -0.01555994 0.33212487
vn 0.94310708 -0.01555994 0.33212487
s 1
usemtl Oak_Leaves
f 1/1/1 2/2/2 3/3/3
s 2
f 2/4/4 1/5/5 4/6/6
s 3
f 2/7/7 4/8/8 5/9/9
s 4
f 6/12/12 5/11/11 4/10/10
s 5
f 3/15/15 5/14/14 6/13/13
s 6
f 1/18/18 6/17/17 4/16/16
s 7
f 3/21/21 6/20/20 1/19/19
s 8
f 5/24/24 3/23/23 2/22/22
o object2
g object2
v -0.02618123 0.51481258 0.02202302
v -0.02951750 0.50712955 0.03323057
v 0.00894396 0.24735449 0.00058031
v -0.03776174 0.50713961 0.02361513
v -0.00263655 0.23968153 0.00217241
v 0.00069972 0.24736455 -0.00903513
vt 0.00000000 0.00000000
vt 1.00000000 0.16853933
vt 1.00000000 1.00000000
vt 0.00000000 0.00000000
vt 1.00000000 0.00000000
vt 0.50000000 1.00000000
vt 0.00000000 1.00000000
vt 0.50000000 0.00000000
vt 1.00000000 1.00000000
vt 0.00000000 0.00000000
vt 1.00000000 1.00000000
vt 0.00000000 0.83146067
vt 1.00000000 1.00000000
vt 0.00000000 1.00000000
vt 0.50000000 0.00000000
vt 1.00000000 1.00000000
vt 0.00000000 0.83146067
vt 0.00000000 0.00000000
vt 0.50000000 1.00000000
vt 0.00000000 0.00000000
vt 1.00000000 0.00000000
vt 1.00000000 1.00000000
vt 0.00000000 0.00000000
vt 1.00000000 0.16853933
vn 0.93435834 0.09517877 0.34338826
vn 0.93435834 0.09517877 0.34338826
vn 0.93435834 0.09517877 0.34338826
vn -0.46696735 0.78802274 0.40120028
vn -0.46696735 0.78802274 0.40120028
vn -0.46696735 0.78802274 0.40120028
vn -0.75063115 -0.15016545 0.64343082
vn -0.75063115 -0.15016545 0.64343082
vn -0.75063115 -0.15016545 0.64343082
vn -0.93435834 -0.09517877 -0.34338826
vn -0.93435834 -0.09517877 -0.34338826
vn -0.93435834 -0.09517877 -0.34338826
vn 0.46696735 -0.78802274 -0.40120028
vn 0.46696735 -0.78802274 -0.40120028
vn 0.46696735 -0.78802274 -0.40120028
vn -0.19622778 0.09362716 -0.97607818
vn -0.19622778 0.09362716 -0.97607818
vn -0.19622778 0.09362716 -0.97607818
vn 0.75063115 0.15016545 -0.64343082
vn 0.75063115 0.15016545 -0.64343082
vn 0.75063115 0.15016545 -0.64343082
vn 0.19622778 -0.09362716 0.97607818
vn 0.19622778 -0.09362716 0.97607818
vn 0.19622778 -0.09362716 0.97607818
s 1
usemtl Oak_Leaves
f 7/25/25 8/26/26 9/27/27
s 2
f 10/28/28 8/29/29 7/30/30
s 3
f 10/31/31 11/32/32 8/33/33
s 4
f 12/36/36 11/35/35 10/34/34
s 5
f 11/39/39 12/38/38 9/37/37
s 6
f 12/42/42 10/41/41 7/40/40
s 7
f 9/45/45 12/44/44 7/43/43
s 8
f 8/46/46 11/47/47 9/48/48
o object3
g object3
v -0.05678048 0.70528999 0.05302192
v -0.02618123 0.51481258 0.02202302
v -0.03776174 0.50713961 0.02361513
v -0.02951750 0.50712955 0.03323057
vt 0.00000000 0.00000000
vt 1.00000000 0.88322407
vt 0.84277292 1.00000000
vt 0.15804517 0.00000000
vt 1.00000000 0.02775391
vt 0.00000000 1.00000000
vt 1.00000000 0.99160392
vt 0.18752996 1.00000000
vt 0.00000000 0.00000000
vt 0.00000000 0.35854711
vt 1.00000000 0.00000000
vt 0.81325948 1.00000000
vn -0.21480785 0.12316733 -0.96885881
vn -0.21480785 0.12316733 -0.96885881
vn -0.21480785 0.12316733 -0.96885881
vn 0.93462549 0.09433953 0.34289247
vn 0.93462549 0.09433953 0.34289247
vn 0.93462549 0.09433953 0.34289247
vn -0.74857750 -0.16707480 0.64165234
vn -0.74857750 -0.16707480 0.64165234
vn -0.74857750 -0.16707480 0.64165234
vn 0.46696735 -0.78802274 -0.40120028
vn 0.46696735 -0.78802274 -0.40120028
vn 0.46696735 -0.78802274 -0.40120028
s 1
usemtl Oak_Leaves
f 13/49/49 14/50/50 15/51/51
s 2
f 16/52/52 14/53/53 13/54/54
s 3
f 15/55/55 16/56/56 13/57/57
s 4
f 15/60/60 14/59/59 16/58/58
o object4
g object4
v -0.05712961 0.63779000 0.02847096
v -0.03857767 0.64005236 0.02858695
v -0.04862465 0.64425464 0.04549221
v -0.03332727 0.44697448 0.00498437
v -0.01477533 0.44923685 0.00510036
v -0.02299954 0.43882651 0.02020703
v -0.03825828 0.45621136 -0.00046348
v -0.01217745 0.45939185 -0.00030042
v -0.03376059 0.63241677 0.02099641
v -0.05984142 0.62923628 0.02083334
v -0.02916132 0.63921069 0.04470890
v -0.05684886 0.63384430 0.06059888
v -0.06626521 0.63468597 0.04447692
v -0.03304653 0.44302878 0.03711229
v -0.04246287 0.44387045 0.02099034
v -0.03786361 0.45066438 0.04470283
v -0.05110136 0.45184762 0.02203814
v -0.07268450 0.62487254 0.04333497
v -0.05944674 0.62368930 0.06599966
v -0.03829692 0.63610666 0.06071487
v -0.01449459 0.44529114 0.03722828
v -0.01178277 0.45384487 0.04486589
v -0.03336591 0.62686979 0.06616272
v -0.00535899 0.44839518 0.02122232
v 0.00106030 0.45820860 0.02236427
v -0.02052283 0.63123352 0.04366109
vt 1.00000000 0.00000000
vt 1.00000000 1.00000000
vt 0.00000000 0.50000000
vt 1.00000000 0.00000000
vt 1.00000000 1.00000000
vt 0.00000000 0.50000000
vt 0.00000000 1.00000000
vt 0.00000000 0.00000000
vt 1.00000000 0.00000000
vt 1.00000000 1.00000000
vt 1.00000000 0.75000000
vt 0.00000000 1.00000000
vt 0.00000000 0.00000000
vt 0.00000000 0.25000000
vt 1.00000000 0.00000000
vt 1.00000000 1.00000000
vt 0.00000000 0.25000000
vt 1.00000000 0.00000000
vt 1.00000000 1.00000000
vt 0.00000000 1.00000000
vt 0.00000000 0.00000000
vt 1.00000000 0.00000000
vt 1.00000000 1.00000000
vt 0.00000000 0.00000000
vt 1.00000000 0.25000000
vt 0.00000000 1.00000000
vt 0.00000000 0.00000000
vt 1.00000000 0.25000000
vt 0.00000000 1.00000000
vt 0.00000000 1.00000000
vt 0.00000000 0.00000000
vt 1.00000000 0.00000000
vt 1.00000000 1.00000000
vt 0.00000000 1.00000000
vt 0.00000000 0.00000000
vt 1.00000000 0.50000000
vt 0.00000000 1.00000000
vt 0.00000000 0.00000000
vt 1.00000000 0.50000000
vt 0.00000000 1.00000000
vt 0.00000000 0.00000000
vt 1.00000000 0.00000000
vt 1.00000000 1.00000000
vt 1.00000000 0.75000000
vt 0.00000000 1.00000000
vt 0.00000000 0.00000000
vt 0.00000000 1.00000000
vt 0.00000000 0.00000000
vt 1.00000000 0.00000000
vt 1.00000000 1.00000000
vt 1.00000000 1.00000000
vt 0.00000000 0.75000000
vt 1.00000000 0.00000000
vt 1.00000000 1.00000000
vt 0.00000000 0.75000000
vt 1.00000000 0.00000000
vt 0.00000000 1.00000000
vt 0.00000000 0.00000000
vt 1.00000000 0.00000000
vt 1.00000000 1.00000000
vt 0.00000000 0.00000000
vt 1.00000000 0.00000000
vt 0.85566243 1.00000000
vt 0.14433757 1.00000000
vt 0.14433757 0.00000000
vt 0.85566243 0.00000000
vt 1.00000000 1.00000000
vt 0.00000000 1.00000000
vt 0.00001500 0.00000000
vt 1.00000000 0.00000000
vt 0.85566460 1.00000000
vt 0.14435040 1.00000000
vt 0.00000000 0.00000000
vt 0.99997500 0.00000000
vt 0.85564104 1.00000000
vt 0.14433396 1.00000000
vt 0.14433396 0.00000000
vt 0.85564104 0.00000000
vt 0.99997500 1.00000000
vt 0.00000000 1.00000000
vt 0.00001500 0.00000000
vt 0.99997500 0.00000000
vt 0.85564321 1.00000000
vt 0.14434679 1.00000000
vt 0.14435040 0.00000000
vt 0.85566460 0.00000000
vt 1.00000000 1.00000000
vt 0.00001500 1.00000000
vt 0.00000000 0.00000000
vt 1.00000000 0.00000000
vt 0.85566243 1.00000000
vt 0.14433757 1.00000000
vt 0.14433757 0.00000000
vt 0.85566243 0.00000000
vt 1.00000000 1.00000000
vt 0.00000000 1.00000000
vt 0.14435040 0.00000000
vt 0.85566460 0.00000000
vt 1.00000000 1.00000000
vt 0.00001500 1.00000000
vt 0.00001500 0.00000000
vt 0.99997500 0.00000000
vt 0.85564321 1.00000000
vt 0.14434679 1.00000000
vt 0.14435040 0.00000000
vt 0.85566460 0.00000000
vt 1.00000000 1.00000000
vt 0.00001500 1.00000000
vn -0.11350717 0.94630613 -0.30268932
vn -0.11350717 0.94630613 -0.30268932
vn -0.11350717 0.94630613 -0.30268932
vn 0.10630577 -0.84485188 -0.52433232
vn 0.10630577 -0.84485188 -0.52433232
vn 0.10630577 -0.84485188 -0.52433232
vn -0.00856272 0.12110667 -0.99260257
vn -0.00856272 0.12110667 -0.99260257
vn -0.00856272 0.12110667 -0.99260257
vn -0.00856272 0.12110667 -0.99260257
vn 0.24623987 0.96469245 -0.09345805
vn 0.24623987 0.96469245 -0.09345805
vn 0.24623987 0.96469245 -0.09345805
vn -0.46640588 0.82637179 0.31555542
vn -0.46640588 0.82637179 0.31555542
vn -0.46640588 0.82637179 0.31555542
vn -0.24623987 -0.96469245 0.09345805
vn -0.24623987 -0.96469245 0.09345805
vn -0.24623987 -0.96469245 0.09345805
vn -0.85513892 -0.16707274 0.49073835
vn -0.85513892 -0.16707274 0.49073835
vn -0.85513892 -0.16707274 0.49073835
vn -0.85513892 -0.16707274 0.49073835
vn -0.47011835 0.87712051 -0.09822602
vn -0.47011835 0.87712051 -0.09822602
vn -0.47011835 0.87712051 -0.09822602
vn -0.24973057 -0.91398665 -0.31978593
vn -0.24973057 -0.91398665 -0.31978593
vn -0.24973057 -0.91398665 -0.31978593
vn -0.86371084 -0.04596438 -0.50188730
vn -0.86371084 -0.04596438 -0.50188730
vn -0.86371084 -0.04596438 -0.50188730
vn -0.86371084 -0.04596438 -0.50188730
vn -0.10630577 0.84485188 0.52433232
vn -0.10630577 0.84485188 0.52433232
vn -0.10630577 0.84485188 0.52433232
vn 0.11350717 -0.94630613 0.30268932
vn 0.11350717 -0.94630613 0.30268932
vn 0.11350717 -0.94630613 0.30268932
vn 0.00856272 -0.12110667 0.99260257
vn 0.00856272 -0.12110667 0.99260257
vn 0.00856272 -0.12110667 0.99260257
vn 0.00856272 -0.12110667 0.99260257
vn 0.46640588 -0.82637179 -0.31555542
vn 0.46640588 -0.82637179 -0.31555542
vn 0.46640588 -0.82637179 -0.31555542
vn 0.85513892 0.16707274 -0.49073835
vn 0.85513892 0.16707274 -0.49073835
vn 0.85513892 0.16707274 -0.49073835
vn 0.85513892 0.16707274 -0.49073835
vn 0.24973057 0.91398665 0.31978593
vn 0.24973057 0.91398665 0.31978593
vn 0.24973057 0.91398665 0.31978593
vn 0.47011835 -0.87712051 0.09822602
vn 0.47011835 -0.87712051 0.09822602
vn 0.47011835 -0.87712051 0.09822602
vn 0.86371084 0.04596438 0.50188730
vn 0.86371084 0.04596438 0.50188730
vn 0.86371084 0.04596438 0.50188730
vn 0.86371084 0.04596438 0.50188730
vn -0.07806686 0.67765734 -0.73122233
vn -0.07806686 0.67765734 -0.73122233
vn -0.07806686 0.67765734 -0.73122233
vn -0.07806686 0.67765734 -0.73122233
vn 0.06416326 -0.48133593 -0.87418465
vn 0.06416326 -0.48133593 -0.87418465
vn 0.06416326 -0.48133593 -0.87418465
vn 0.06416326 -0.48133593 -0.87418465
vn 0.62005707 0.71413306 -0.32487412
vn 0.62005707 0.71413306 -0.32487412
vn 0.62005707 0.71413306 -0.32487412
vn 0.62005707 0.71413306 -0.32487412
vn -0.76314792 0.44463097 0.46894408
vn -0.76314792 0.44463097 0.46894408
vn -0.76314792 0.44463097 0.46894408
vn -0.76314792 0.44463097 0.46894408
vn -0.62005707 -0.71413306 0.32487412
vn -0.62005707 -0.71413306 0.32487412
vn -0.62005707 -0.71413306 0.32487412
vn -0.62005707 -0.71413306 0.32487412
vn -0.77037550 0.54284418 -0.33442755
vn -0.77037550 0.54284418 -0.33442755
vn -0.77037550 0.54284418 -0.33442755
vn -0.77037550 0.54284418 -0.33442755
vn -0.62674413 -0.61602303 -0.47718699
vn -0.62674413 -0.61602303 -0.47718699
vn -0.62674413 -0.61602303 -0.47718699
vn -0.62674413 -0.61602303 -0.47718699
vn -0.06416326 0.48133593 0.87418465
vn -0.06416326 0.48133593 0.87418465
vn -0.06416326 0.48133593 0.87418465
vn -0.06416326 0.48133593 0.87418465
vn 0.07806686 -0.67765734 0.73122233
vn 0.07806686 -0.67765734 0.73122233
vn 0.07806686 -0.67765734 0.73122233
vn 0.07806686 -0.67765734 0.73122233
vn 0.76314792 -0.44463097 -0.46894408
vn 0.76314792 -0.44463097 -0.46894408
vn 0.76314792 -0.44463097 -0.46894408
vn 0.76314792 -0.44463097 -0.46894408
vn 0.62674413 0.61602303 0.47718699
vn 0.62674413 0.61602303 0.47718699
vn 0.62674413 0.61602303 0.47718699
vn 0.62674413 0.61602303 0.47718699
vn 0.77037550 -0.54284418 0.33442755
vn 0.77037550 -0.54284418 0.33442755
vn 0.77037550 -0.54284418 0.33442755
vn 0.77037550 -0.54284418 0.33442755
s 1
usemtl Cattail
f 19/63/63 18/62/62 17/61/61
s 2
f 20/64/64 21/65/65 22/66/66
s 3
f 26/70/70 25/69/69 23/67/67
f 25/69/69 24/68/68 23/67/67
s 4
f 19/73/73 27/72/72 18/71/71
s 5
f 19/76/76 29/75/75 28/74/74
s 6
f 30/77/77 31/78/78 22/79/79
s 7
f 35/83/83 34/82/82 33/81/81
f 35/83/83 33/81/81 32/80/80
s 8
f 19/86/86 17/85/85 29/84/84
s 9
f 31/87/87 20/88/88 22/89/89
s 10
f 34/93/93 26/92/92 33/90/90
f 26/92/92 23/91/91 33/90/90
s 11
f 19/96/96 28/95/95 36/94/94
s 12
f 37/97/97 30/98/98 22/99/99
s 13
f 39/103/103 35/102/102 32/101/101
f 39/103/103 32/101/101 38/100/100
s 14
f 21/104/104 40/105/105 22/106/106
s 15
f 25/110/110 42/109/109 24/107/107
f 42/109/109 41/108/108 24/107/107
s 16
f 19/113/113 36/112/112 27/111/111
s 17
f 40/114/114 37/115/115 22/116/116
s 18
f 42/120/120 39/119/119 38/118/118
f 42/120/120 38/118/118 41/117/117
s 19
f 25/121/121 26/122/122 18/124/124
f 26/122/122 17/123/123 18/124/124
s 20
f 21/125/125 20/126/126 24/128/128
f 20/126/126 23/127/127 24/128/128
s 21
f 42/129/129 25/130/130 27/132/132
f 25/130/130 18/131/131 27/132/132
s 22
f 34/133/133 35/134/134 28/135/135
f 34/133/133 28/135/135 29/136/136
s 23
f 31/137/137 30/138/138 32/139/139
f 31/137/137 32/139/139 33/140/140
s 24
f 26/141/141 34/142/142 17/144/144
f 34/142/142 29/143/143 17/144/144
s 25
f 20/145/145 31/146/146 23/148/148
f 31/146/146 33/147/147 23/148/148
s 26
f 35/149/149 39/150/150 36/151/151
f 35/149/149 36/151/151 28/152/152
s 27
f 30/153/153 37/154/154 38/155/155
f 30/153/153 38/155/155 32/156/156
s 28
f 40/157/157 21/158/158 41/160/160
f 21/158/158 24/159/159 41/160/160
s 29
f 39/161/161 42/162/162 27/163/163
f 39/161/161 27/163/163 36/164/164
s 30
f 37/165/165 40/166/166 41/167/167
f 37/165/165 41/167/167 38/168/168
