mtllib Prop_Fence_Boards_2.mtl
o object1
g object1
v -0.40061083 0.58833981 0.47500000
v -0.40061083 0.58833981 0.52500000
v -0.45141595 0.56501943 0.52500000
v -0.45141595 0.56501943 0.47500000
v -0.35147146 0.56168795 0.47500000
v -0.35147146 0.56168795 0.52500000
v 0.49805671 0.53337034 0.52500000
v 0.49805671 0.53337034 0.47500000
v 0.50305394 0.68328708 0.47500000
v 0.50305394 0.68328708 0.52500000
v -0.49639097 0.71660191 0.47500000
v -0.49639097 0.71660191 0.52500000
v -0.50138820 0.56668517 0.52500000
v -0.50138820 0.56668517 0.47500000
vt 0.00000000 0.00000000
vt 1.00000000 0.00000000
vt 1.00000000 1.00000000
vt 0.00000000 1.00000000
vt 0.00000000 0.00000000
vt 1.00000000 0.00000000
vt 1.00000000 1.00000000
vt 0.00000000 1.00000000
vt 1.00000000 1.00000000
vt 0.00000000 1.00000000
vt 0.00000000 0.00000000
vt 1.00000000 0.00000000
vt 0.00000000 1.00000000
vt 0.00000000 0.00000000
vt 1.00000000 0.00000000
vt 1.00000000 1.00000000
vt 0.00000000 1.00000000
vt 0.00000000 0.00000000
vt 1.00000000 0.00000000
vt 1.00000000 1.00000000
vt 0.00000000 1.00000000
vt 0.00000000 0.00000000
vt 1.00000000 0.00000000
vt 1.00000000 1.00000000
vt 1.00000000 1.00000000
vt 0.00000000 1.00000000
vt 0.00000000 0.00000000
vt 0.85000000 0.00000000
vt 0.90000000 0.16666667
vt 0.95000000 0.00000000
vt 1.00000000 0.00000000
vt 0.00000000 0.00000000
vt 1.00000000 0.00000000
vt 1.00000000 1.00000000
vt 0.00000000 1.00000000
vt 1.00000000 1.00000000
vt 0.00000000 1.00000000
vt 0.00000000 0.00000000
vt 0.85000000 0.00000000
vt 0.90000000 0.16666667
vt 0.95000000 0.00000000
vt 1.00000000 0.00000000
vn 0.41716766 -0.90882955 0.00000000
vn 0.41716766 -0.90882955 0.00000000
vn 0.41716766 -0.90882955 0.00000000
vn 0.41716766 -0.90882955 0.00000000
vn -0.47676304 -0.87903186 0.00000000
vn -0.47676304 -0.87903186 0.00000000
vn -0.47676304 -0.87903186 0.00000000
vn -0.47676304 -0.87903186 0.00000000
vn -0.03331483 -0.99944491 0.00000000
vn -0.03331483 -0.99944491 0.00000000
vn -0.03331483 -0.99944491 0.00000000
vn -0.03331483 -0.99944491 0.00000000
vn 0.99944491 -0.03331483 0.00000000
vn 0.99944491 -0.03331483 0.00000000
vn 0.99944491 -0.03331483 0.00000000
vn 0.99944491 -0.03331483 0.00000000
vn 0.03331483 0.99944491 0.00000000
vn 0.03331483 0.99944491 0.00000000
vn 0.03331483 0.99944491 0.00000000
vn 0.03331483 0.99944491 0.00000000
vn -0.99944491 0.03331483 0.00000000
vn -0.99944491 0.03331483 0.00000000
vn -0.99944491 0.03331483 0.00000000
vn -0.99944491 0.03331483 0.00000000
vn 0.00000000 0.00000000 -1.00000000
vn 0.00000000 0.00000000 -1.00000000
vn 0.00000000 0.00000000 -1.00000000
vn 0.00000000 0.00000000 -1.00000000
vn 0.00000000 0.00000000 -1.00000000
vn 0.00000000 0.00000000 -1.00000000
vn 0.00000000 0.00000000 -1.00000000
vn -0.03331483 -0.99944491 0.00000000
vn -0.03331483 -0.99944491 0.00000000
vn -0.03331483 -0.99944491 0.00000000
vn -0.03331483 -0.99944491 0.00000000
vn 0.00000000 0.00000000 1.00000000
vn 0.00000000 0.00000000 1.00000000
vn 0.00000000 0.00000000 1.00000000
vn 0.00000000 0.00000000 1.00000000
vn 0.00000000 0.00000000 1.00000000
vn 0.00000000 0.00000000 1.00000000
vn 0.00000000 0.00000000 1.00000000
s 1
usemtl Wood_Light
f 1/1/1 2/2/2 4/4/4
f 2/2/2 3/3/3 4/4/4
s 2
f 5/5/5 6/6/6 1/8/8
f 6/6/6 2/7/7 1/8/8
s 3
f 5/12/12 8/11/11 7/10/10
f 5/12/12 7/10/10 6/9/9
s 4
f 7/13/13 8/14/14 9/15/15
f 7/13/13 9/15/15 10/16/16
s 5
f 10/17/17 9/18/18 12/20/20
f 9/18/18 11/19/19 12/20/20
s 6
f 12/24/24 11/23/23 13/21/21
f 11/23/23 14/22/22 13/21/21
s 7
f 1/29/29 4/30/30 14/31/31
f 11/25/25 5/28/28 1/29/29
f 9/26/26 8/27/27 5/28/28
f 11/25/25 9/26/26 5/28/28
f 1/29/29 14/31/31 11/25/25
s 8
f 3/35/35 13/34/34 4/32/32
f 13/34/34 14/33/33 4/32/32
s 9
f 13/42/42 3/41/41 2/40/40
f 2/40/40 6/39/39 12/36/36
f 6/39/39 10/37/37 12/36/36
f 6/39/39 7/38/38 10/37/37
f 12/36/36 13/42/42 2/40/40
o object2
g object2
v -0.05120087 0.27681244 0.47500000
v -0.05120087 0.27681244 0.52500000
v -0.10041085 0.32759017 0.52500000
v -0.10041085 0.32759017 0.47500000
v 0.49873153 0.26818981 0.52500000
v 0.49873153 0.26818981 0.47500000
v 0.50108316 0.41817137 0.47500000
v 0.50108316 0.41817137 0.52500000
v 0.40109545 0.41973912 0.52500000
v 0.40109545 0.41973912 0.47500000
v 0.30071580 0.39630995 0.52500000
v 0.30071580 0.39630995 0.47500000
v 0.25111388 0.42209075 0.52500000
v 0.25111388 0.42209075 0.47500000
v -0.49879394 0.43384889 0.47500000
v -0.49879394 0.43384889 0.52500000
v -0.50114557 0.28386732 0.52500000
v -0.50114557 0.28386732 0.47500000
v -0.15118858 0.27838019 0.47500000
v -0.15118858 0.27838019 0.52500000
vt 0.00000000 0.00000000
vt 1.00000000 0.00000000
vt 1.00000000 1.00000000
vt 0.00000000 1.00000000
vt 1.00000000 1.00000000
vt 0.00000000 1.00000000
vt 0.00000000 0.00000000
vt 1.00000000 0.00000000
vt 0.00000000 1.00000000
vt 0.00000000 0.00000000
vt 1.00000000 0.00000000
vt 1.00000000 1.00000000
vt 1.00000000 1.00000000
vt 0.00000000 1.00000000
vt 0.00000000 0.00000000
vt 1.00000000 0.00000000
vt 0.00000000 0.00000000
vt 1.00000000 0.00000000
vt 1.00000000 1.00000000
vt 0.00000000 1.00000000
vt 0.00000000 0.00000000
vt 1.00000000 0.00000000
vt 1.00000000 1.00000000
vt 0.00000000 1.00000000
vt 0.00000000 0.00000000
vt 1.00000000 0.00000000
vt 1.00000000 1.00000000
vt 0.00000000 1.00000000
vt 0.00000000 1.00000000
vt 0.00000000 0.00000000
vt 1.00000000 0.00000000
vt 1.00000000 1.00000000
vt 0.00000000 0.00000000
vt 1.00000000 0.00000000
vt 1.00000000 1.00000000
vt 0.00000000 1.00000000
vt 0.10000000 1.00000000
vt 0.00000000 1.00000000
vt 0.00000000 0.00000000
vt 0.55000000 0.00000000
vt 0.60000000 0.33333333
vt 0.65000000 0.00000000
vt 1.00000000 0.00000000
vt 1.00000000 1.00000000
vt 0.25000000 1.00000000
vt 0.20000000 0.83333333
vt 0.00000000 0.00000000
vt 1.00000000 0.00000000
vt 1.00000000 1.00000000
vt 0.00000000 1.00000000
vt 0.10000000 1.00000000
vt 0.00000000 1.00000000
vt 0.00000000 0.00000000
vt 0.55000000 0.00000000
vt 0.60000000 0.33333333
vt 0.65000000 0.00000000
vt 1.00000000 0.00000000
vt 1.00000000 1.00000000
vt 0.25000000 1.00000000
vt 0.20000000 0.83333333
vn -0.71810556 -0.69593420 0.00000000
vn -0.71810556 -0.69593420 0.00000000
vn -0.71810556 -0.69593420 0.00000000
vn -0.71810556 -0.69593420 0.00000000
vn -0.01567752 -0.99987710 0.00000000
vn -0.01567752 -0.99987710 0.00000000
vn -0.01567752 -0.99987710 0.00000000
vn -0.01567752 -0.99987710 0.00000000
vn 0.99987710 -0.01567752 0.00000000
vn 0.99987710 -0.01567752 0.00000000
vn 0.99987710 -0.01567752 0.00000000
vn 0.99987710 -0.01567752 0.00000000
vn 0.01567752 0.99987710 0.00000000
vn 0.01567752 0.99987710 0.00000000
vn 0.01567752 0.99987710 0.00000000
vn 0.01567752 0.99987710 0.00000000
vn -0.22729639 0.97382563 0.00000000
vn -0.22729639 0.97382563 0.00000000
vn -0.22729639 0.97382563 0.00000000
vn -0.22729639 0.97382563 0.00000000
vn 0.46118103 0.88730607 0.00000000
vn 0.46118103 0.88730607 0.00000000
vn 0.46118103 0.88730607 0.00000000
vn 0.46118103 0.88730607 0.00000000
vn 0.01567752 0.99987710 0.00000000
vn 0.01567752 0.99987710 0.00000000
vn 0.01567752 0.99987710 0.00000000
vn 0.01567752 0.99987710 0.00000000
vn -0.99987710 0.01567752 0.00000000
vn -0.99987710 0.01567752 0.00000000
vn -0.99987710 0.01567752 0.00000000
vn -0.99987710 0.01567752 0.00000000
vn -0.01567752 -0.99987710 0.00000000
vn -0.01567752 -0.99987710 0.00000000
vn -0.01567752 -0.99987710 0.00000000
vn -0.01567752 -0.99987710 0.00000000
vn 0.00000000 0.00000000 -1.00000000
vn 0.00000000 0.00000000 -1.00000000
vn 0.00000000 0.00000000 -1.00000000
vn 0.00000000 0.00000000 -1.00000000
vn 0.00000000 0.00000000 -1.00000000
vn 0.00000000 0.00000000 -1.00000000
vn 0.00000000 0.00000000 -1.00000000
vn 0.00000000 0.00000000 -1.00000000
vn 0.00000000 0.00000000 -1.00000000
vn 0.00000000 0.00000000 -1.00000000
vn 0.69593420 -0.71810556 0.00000000
vn 0.69593420 -0.71810556 0.00000000
vn 0.69593420 -0.71810556 0.00000000
vn 0.69593420 -0.71810556 0.00000000
vn 0.00000000 0.00000000 1.00000000
vn 0.00000000 0.00000000 1.00000000
vn 0.00000000 0.00000000 1.00000000
vn 0.00000000 0.00000000 1.00000000
vn 0.00000000 0.00000000 1.00000000
vn 0.00000000 0.00000000 1.00000000
vn 0.00000000 0.00000000 1.00000000
vn 0.00000000 0.00000000 1.00000000
vn 0.00000000 0.00000000 1.00000000
vn 0.00000000 0.00000000 1.00000000
s 1
usemtl Wood_Light
f 15/43/43 16/44/44 18/46/46
f 16/44/44 17/45/45 18/46/46
s 2
f 15/50/50 20/49/49 19/48/48
f 15/50/50 19/48/48 16/47/47
s 3
f 19/51/51 20/52/52 21/53/53
f 19/51/51 21/53/53 22/54/54
s 4
f 23/55/55 22/56/56 21/57/57
f 23/55/55 21/57/57 24/58/58
s 5
f 26/62/62 25/61/61 23/60/60
f 26/62/62 23/60/60 24/59/59
s 6
f 28/66/66 27/65/65 25/64/64
f 28/66/66 25/64/64 26/63/63
s 7
f 28/67/67 29/68/68 27/70/70
f 29/68/68 30/69/69 27/70/70
s 8
f 30/74/74 29/73/73 31/71/71
f 29/73/73 32/72/72 31/71/71
s 9
f 34/78/78 31/77/77 33/75/75
f 31/77/77 32/76/76 33/75/75
s 10
f 24/79/79 21/80/80 20/81/81
f 26/88/88 20/81/81 15/82/82
f 28/87/87 15/82/82 18/83/83
f 18/83/83 33/84/84 29/86/86
f 33/84/84 32/85/85 29/86/86
f 29/86/86 28/87/87 18/83/83
f 28/87/87 26/88/88 15/82/82
f 26/88/88 24/79/79 20/81/81
s 11
f 18/89/89 17/90/90 33/92/92
f 17/90/90 34/91/91 33/92/92
s 12
f 19/95/95 22/94/94 23/93/93
f 16/96/96 19/95/95 25/102/102
f 17/97/97 16/96/96 27/101/101
f 30/100/100 34/98/98 17/97/97
f 30/100/100 31/99/99 34/98/98
f 17/97/97 27/101/101 30/100/100
f 16/96/96 25/102/102 27/101/101
f 19/95/95 23/93/93 25/102/102
