mtllib Prop_Tree_Cedar_2.mtl
o object1
g object1
v 0.08660254 0.00000000 -0.05000000
v -0.00000000 0.00000000 -0.10000000
v -0.08660254 0.00000000 -0.05000000
v -0.08660254 0.00000000 0.05000000
v -0.00000000 0.00000000 0.10000000
v 0.08660254 0.00000000 0.05000000
v -0.00000000 0.00000000 0.00000000
v -0.08660254 0.40000000 -0.05000000
v -0.08660254 0.40000000 0.05000000
v 0.08660254 0.40000000 -0.05000000
v -0.00000000 0.40000000 -0.10000000
v -0.00000000 0.40000000 0.10000000
v 0.08660254 0.40000000 0.05000000
v -0.00000000 0.40000000 0.00000000
vt 0.75000000 0.00000000
vt 1.00000000 0.50000000
vt 0.75000000 1.00000000
vt 0.25000000 1.00000000
vt 0.00000000 0.50000000
vt 0.25000000 0.00000000
vt 0.50000000 0.50000000
vt 0.00000000 0.00000000
vt 1.00000000 0.00000000
vt 1.00000000 1.00000000
vt 0.00000000 1.00000000
vt 0.75000000 0.00000000
vt 1.00000000 0.50000000
vt 0.75000000 1.00000000
vt 0.25000000 1.00000000
vt 0.00000000 0.50000000
vt 0.25000000 0.00000000
vt 0.50000000 0.50000000
vt 0.00000000 0.00000000
vt 1.00000000 0.00000000
vt 1.00000000 1.00000000
vt 0.00000000 1.00000000
vt 0.00000000 0.00000000
vt 1.00000000 0.00000000
vt 1.00000000 1.00000000
vt 0.00000000 1.00000000
vt 0.00000000 0.00000000
vt 1.00000000 0.00000000
vt 1.00000000 1.00000000
vt 0.00000000 1.00000000
vt 0.00000000 0.00000000
vt 1.00000000 0.00000000
vt 1.00000000 1.00000000
vt 0.00000000 1.00000000
vt 0.00000000 0.00000000
vt 1.00000000 0.00000000
vt 1.00000000 1.00000000
vt 0.00000000 1.00000000
vn 0.00000000 -1.00000000 0.00000000
vn 0.00000000 -1.00000000 0.00000000
vn 0.00000000 -1.00000000 0.00000000
vn 0.00000000 -1.00000000 0.00000000
vn 0.00000000 -1.00000000 0.00000000
vn 0.00000000 -1.00000000 0.00000000
vn 0.00000000 -1.00000000 0.00000000
vn -1.00000000 0.00000000 0.00000000
vn -1.00000000 0.00000000 0.00000000
vn -1.00000000 0.00000000 0.00000000
vn -1.00000000 0.00000000 0.00000000
vn 0.00000000 1.00000000 0.00000000
vn 0.00000000 1.00000000 0.00000000
vn 0.00000000 1.00000000 0.00000000
vn 0.00000000 1.00000000 0.00000000
vn 0.00000000 1.00000000 0.00000000
vn 0.00000000 1.00000000 0.00000000
vn 0.00000000 1.00000000 0.00000000
vn -0.50000000 0.00000000 0.86602540
vn -0.50000000 0.00000000 0.86602540
vn -0.50000000 0.00000000 0.86602540
vn -0.50000000 0.00000000 0.86602540
vn 0.50000000 0.00000000 0.86602540
vn 0.50000000 0.00000000 0.86602540
vn 0.50000000 0.00000000 0.86602540
vn 0.50000000 0.00000000 0.86602540
vn 1.00000000 0.00000000 0.00000000
vn 1.00000000 0.00000000 0.00000000
vn 1.00000000 0.00000000 0.00000000
vn 1.00000000 0.00000000 0.00000000
vn 0.50000000 0.00000000 -0.86602540
vn 0.50000000 0.00000000 -0.86602540
vn 0.50000000 0.00000000 -0.86602540
vn 0.50000000 0.00000000 -0.86602540
vn -0.50000000 0.00000000 -0.86602540
vn -0.50000000 0.00000000 -0.86602540
vn -0.50000000 0.00000000 -0.86602540
vn -0.50000000 0.00000000 -0.86602540
s 1
usemtl Wood_Dark
f 6/6/6 5/5/5 7/7/7
f 2/2/2 1/1/1 7/7/7
f 3/3/3 2/2/2 7/7/7
f 4/4/4 3/3/3 7/7/7
f 5/5/5 4/4/4 7/7/7
f 1/1/1 6/6/6 7/7/7
s 2
f 4/11/11 9/10/10 3/8/8
f 9/10/10 8/9/9 3/8/8
s 3
f 10/12/12 11/13/13 14/18/18
f 12/16/16 13/17/17 14/18/18
f 9/15/15 12/16/16 14/18/18
f 8/14/14 9/15/15 14/18/18
f 11/13/13 8/14/14 14/18/18
f 13/17/17 10/12/12 14/18/18
s 4
f 5/22/22 12/21/21 4/19/19
f 12/21/21 9/20/20 4/19/19
s 5
f 6/26/26 13/25/25 5/23/23
f 13/25/25 12/24/24 5/23/23
s 6
f 1/30/30 10/29/29 6/27/27
f 10/29/29 13/28/28 6/27/27
s 7
f 2/34/34 11/33/33 1/31/31
f 11/33/33 10/32/32 1/31/31
s 8
f 3/38/38 8/37/37 2/35/35
f 8/37/37 11/36/36 2/35/35
o object2
g object2
v -0.38971143 0.55000000 0.22500000
v -0.38971143 0.55000000 -0.22500000
v -0.43301270 1.05000000 -0.25000000
v -0.43301270 1.05000000 0.25000000
v -0.21650635 2.05000000 -0.12500000
v -0.21650635 2.05000000 0.12500000
v -0.00000000 2.05000000 -0.25000000
v -0.00000000 1.05000000 -0.50000000
v 0.21650635 2.05000000 -0.12500000
v 0.43301270 1.05000000 -0.25000000
v -0.00000000 0.55000000 -0.45000000
v 0.38971143 0.55000000 -0.22500000
v -0.00000000 0.30000000 -0.20000000
v 0.17320508 0.30000000 -0.10000000
v 0.17320508 0.30000000 0.10000000
v 0.38971143 0.55000000 0.22500000
v -0.00000000 0.30000000 0.20000000
v -0.00000000 0.55000000 0.45000000
v -0.17320508 0.30000000 0.10000000
v -0.00000000 1.05000000 0.50000000
v 0.43301270 1.05000000 0.25000000
v -0.00000000 2.05000000 0.25000000
v 0.21650635 2.05000000 0.12500000
v -0.00000000 2.30000000 0.00000000
v -0.17320508 0.30000000 -0.10000000
v -0.00000000 0.30000000 0.00000000
vt 0.81818182 1.00000000
vt 0.00000000 0.88260870
vt 0.09090909 0.00000000
vt 1.00000000 0.13043478
vt 0.00000000 0.07894737
vt 0.33333333 0.00000000
vt 1.00000000 0.84210526
vt 0.33333333 1.00000000
vt 0.00000000 0.07894737
vt 0.33333333 0.00000000
vt 1.00000000 0.84210526
vt 0.33333333 1.00000000
vt 0.00000000 0.07894737
vt 0.33333333 0.00000000
vt 1.00000000 0.84210526
vt 0.33333333 1.00000000
vt 0.81818182 1.00000000
vt 0.00000000 0.88260870
vt 0.09090909 0.00000000
vt 1.00000000 0.13043478
vt 1.00000000 0.72972973
vt 0.28571429 1.00000000
vt 0.00000000 0.67567568
vt 0.35714286 0.00000000
vt 1.00000000 0.72972973
vt 0.28571429 1.00000000
vt 0.00000000 0.67567568
vt 0.35714286 0.00000000
vt 1.00000000 0.72972973
vt 0.28571429 1.00000000
vt 0.00000000 0.67567568
vt 0.35714286 0.00000000
vt 1.00000000 0.72972973
vt 0.28571429 1.00000000
vt 0.00000000 0.67567568
vt 0.35714286 0.00000000
vt 0.81818182 1.00000000
vt 0.00000000 0.88260870
vt 0.09090909 0.00000000
vt 1.00000000 0.13043478
vt 0.00000000 0.07894737
vt 0.33333333 0.00000000
vt 1.00000000 0.84210526
vt 0.33333333 1.00000000
vt 0.50000000 1.00000000
vt 0.00000000 0.00000000
vt 1.00000000 0.40000000
vt 0.50000000 1.00000000
vt 0.00000000 0.00000000
vt 1.00000000 0.40000000
vt 0.50000000 1.00000000
vt 0.00000000 0.00000000
vt 1.00000000 0.40000000
vt 1.00000000 0.72972973
vt 0.28571429 1.00000000
vt 0.00000000 0.67567568
vt 0.35714286 0.00000000
vt 0.25000000 1.00000000
vt 0.00000000 0.50000000
vt 0.25000000 0.00000000
vt 0.75000000 0.00000000
vt 1.00000000 0.50000000
vt 0.75000000 1.00000000
vt 0.50000000 0.50000000
vt 0.81818182 1.00000000
vt 0.00000000 0.88260870
vt 0.09090909 0.00000000
vt 1.00000000 0.13043478
vt 0.00000000 0.07894737
vt 0.33333333 0.00000000
vt 1.00000000 0.84210526
vt 0.33333333 1.00000000
vt 0.50000000 1.00000000
vt 0.00000000 0.00000000
vt 1.00000000 0.40000000
vt 0.50000000 1.00000000
vt 0.00000000 0.00000000
vt 1.00000000 0.40000000
vt 0.50000000 1.00000000
vt 0.00000000 0.00000000
vt 1.00000000 0.40000000
vt 0.00000000 0.07894737
vt 0.33333333 0.00000000
vt 1.00000000 0.84210526
vt 0.33333333 1.00000000
vt 0.81818182 1.00000000
vt 0.00000000 0.88260870
vt 0.09090909 0.00000000
vt 1.00000000 0.13043478
vt 1.00000000 0.72972973
vt 0.28571429 1.00000000
vt 0.00000000 0.67567568
vt 0.35714286 0.00000000
vt 0.81818182 1.00000000
vt 0.00000000 0.88260870
vt 0.09090909 0.00000000
vt 1.00000000 0.13043478
vn -0.99627096 -0.08627960 0.00000000
vn -0.99627096 -0.08627960 0.00000000
vn -0.99627096 -0.08627960 0.00000000
vn -0.99627096 -0.08627960 0.00000000
vn -0.97735555 0.21160368 0.00000000
vn -0.97735555 0.21160368 0.00000000
vn -0.97735555 0.21160368 0.00000000
vn -0.97735555 0.21160368 0.00000000
vn -0.48867778 0.21160368 -0.84641474
vn -0.48867778 0.21160368 -0.84641474
vn -0.48867778 0.21160368 -0.84641474
vn -0.48867778 0.21160368 -0.84641474
vn 0.48867778 0.21160368 -0.84641474
vn 0.48867778 0.21160368 -0.84641474
vn 0.48867778 0.21160368 -0.84641474
vn 0.48867778 0.21160368 -0.84641474
vn 0.49813548 -0.08627960 -0.86279596
vn 0.49813548 -0.08627960 -0.86279596
vn 0.49813548 -0.08627960 -0.86279596
vn 0.49813548 -0.08627960 -0.86279596
vn 0.37796447 -0.65465367 -0.65465367
vn 0.37796447 -0.65465367 -0.65465367
vn 0.37796447 -0.65465367 -0.65465367
vn 0.37796447 -0.65465367 -0.65465367
vn 0.75592895 -0.65465367 0.00000000
vn 0.75592895 -0.65465367 0.00000000
vn 0.75592895 -0.65465367 0.00000000
vn 0.75592895 -0.65465367 0.00000000
vn 0.37796447 -0.65465367 0.65465367
vn 0.37796447 -0.65465367 0.65465367
vn 0.37796447 -0.65465367 0.65465367
vn 0.37796447 -0.65465367 0.65465367
vn -0.37796447 -0.65465367 0.65465367
vn -0.37796447 -0.65465367 0.65465367
vn -0.37796447 -0.65465367 0.65465367
vn -0.37796447 -0.65465367 0.65465367
vn 0.49813548 -0.08627960 0.86279596
vn 0.49813548 -0.08627960 0.86279596
vn 0.49813548 -0.08627960 0.86279596
vn 0.49813548 -0.08627960 0.86279596
vn 0.48867778 0.21160368 0.84641474
vn 0.48867778 0.21160368 0.84641474
vn 0.48867778 0.21160368 0.84641474
vn 0.48867778 0.21160368 0.84641474
vn 0.37796447 0.65465367 0.65465367
vn 0.37796447 0.65465367 0.65465367
vn 0.37796447 0.65465367 0.65465367
vn -0.37796447 0.65465367 0.65465367
vn -0.37796447 0.65465367 0.65465367
vn -0.37796447 0.65465367 0.65465367
vn 0.75592895 0.65465367 0.00000000
vn 0.75592895 0.65465367 0.00000000
vn 0.75592895 0.65465367 0.00000000
vn -0.37796447 -0.65465367 -0.65465367
vn -0.37796447 -0.65465367 -0.65465367
vn -0.37796447 -0.65465367 -0.65465367
vn -0.37796447 -0.65465367 -0.65465367
vn 0.00000000 -1.00000000 0.00000000
vn 0.00000000 -1.00000000 0.00000000
vn 0.00000000 -1.00000000 0.00000000
vn 0.00000000 -1.00000000 0.00000000
vn 0.00000000 -1.00000000 0.00000000
vn 0.00000000 -1.00000000 0.00000000
vn 0.00000000 -1.00000000 0.00000000
vn 0.99627096 -0.08627960 0.00000000
vn 0.99627096 -0.08627960 0.00000000
vn 0.99627096 -0.08627960 0.00000000
vn 0.99627096 -0.08627960 0.00000000
vn 0.97735555 0.21160368 0.00000000
vn 0.97735555 0.21160368 0.00000000
vn 0.97735555 0.21160368 0.00000000
vn 0.97735555 0.21160368 0.00000000
vn 0.37796447 0.65465367 -0.65465367
vn 0.37796447 0.65465367 -0.65465367
vn 0.37796447 0.65465367 -0.65465367
vn -0.37796447 0.65465367 -0.65465367
vn -0.37796447 0.65465367 -0.65465367
vn -0.37796447 0.65465367 -0.65465367
vn -0.75592895 0.65465367 0.00000000
vn -0.75592895 0.65465367 0.00000000
vn -0.75592895 0.65465367 0.00000000
vn -0.48867778 0.21160368 0.84641474
vn -0.48867778 0.21160368 0.84641474
vn -0.48867778 0.21160368 0.84641474
vn -0.48867778 0.21160368 0.84641474
vn -0.49813548 -0.08627960 0.86279596
vn -0.49813548 -0.08627960 0.86279596
vn -0.49813548 -0.08627960 0.86279596
vn -0.49813548 -0.08627960 0.86279596
vn -0.75592895 -0.65465367 0.00000000
vn -0.75592895 -0.65465367 0.00000000
vn -0.75592895 -0.65465367 0.00000000
vn -0.75592895 -0.65465367 0.00000000
vn -0.49813548 -0.08627960 -0.86279596
vn -0.49813548 -0.08627960 -0.86279596
vn -0.49813548 -0.08627960 -0.86279596
vn -0.49813548 -0.08627960 -0.86279596
s 1
usemtl Cedar_Leaves
f 17/41/41 16/40/40 15/39/39
f 18/42/42 17/41/41 15/39/39
s 2
f 20/44/44 19/43/43 17/46/46
f 17/46/46 18/45/45 20/44/44
s 3
f 17/49/49 19/48/48 21/47/47
f 22/50/50 17/49/49 21/47/47
s 4
f 21/52/52 23/51/51 24/54/54
f 24/54/54 22/53/53 21/52/52
s 5
f 24/57/57 26/56/56 25/55/55
f 22/58/58 24/57/57 25/55/55
s 6
f 28/61/61 27/60/60 25/59/59
f 26/62/62 28/61/61 25/59/59
s 7
f 29/65/65 28/64/64 26/63/63
f 30/66/66 29/65/65 26/63/63
s 8
f 32/70/70 31/69/69 29/68/68
f 32/70/70 29/68/68 30/67/67
s 9
f 33/73/73 31/72/72 32/71/71
f 15/74/74 33/73/73 32/71/71
s 10
f 34/77/77 32/76/76 30/75/75
f 35/78/78 34/77/77 30/75/75
s 11
f 35/81/81 37/80/80 36/79/79
f 34/82/82 35/81/81 36/79/79
s 12
f 37/85/85 38/84/84 36/83/83
s 13
f 36/88/88 38/87/87 20/86/86
s 14
f 23/91/91 38/90/90 37/89/89
s 15
f 25/95/95 27/94/94 39/93/93
f 25/95/95 39/93/93 16/92/92
s 16
f 29/96/96 31/97/97 40/102/102
f 27/100/100 28/101/101 40/102/102
f 39/99/99 27/100/100 40/102/102
f 33/98/98 39/99/99 40/102/102
f 31/97/97 33/98/98 40/102/102
f 28/101/101 29/96/96 40/102/102
s 17
f 35/105/105 30/104/104 26/103/103
f 24/106/106 35/105/105 26/103/103
s 18
f 24/109/109 23/108/108 37/107/107
f 35/110/110 24/109/109 37/107/107
s 19
f 21/113/113 38/112/112 23/111/111
s 20
f 19/116/116 38/115/115 21/114/114
s 21
f 20/119/119 38/118/118 19/117/117
s 22
f 34/122/122 36/121/121 20/120/120
f 18/123/123 34/122/122 20/120/120
s 23
f 15/125/125 32/124/124 34/127/127
f 34/127/127 18/126/126 15/125/125
s 24
f 16/131/131 39/130/130 33/129/129
f 16/131/131 33/129/129 15/128/128
s 25
f 25/133/133 16/132/132 17/135/135
f 17/135/135 22/134/134 25/133/133
