mtllib Prop_Fence_Boards_4.mtl
o object1
g object1
v 0.50267824 0.68751531 0.52500000
v 0.49839428 0.53757649 0.52500000
v 0.19851665 0.54614443 0.52500000
v 0.14996504 0.59755202 0.52500000
v 0.09855744 0.54900040 0.52500000
v -0.50119781 0.56613627 0.52500000
v -0.49691384 0.71607508 0.52500000
v 0.14996504 0.59755202 0.47500000
v 0.19851665 0.54614443 0.47500000
v 0.50267824 0.68751531 0.47500000
v 0.49839428 0.53757649 0.47500000
v 0.09855744 0.54900040 0.47500000
v -0.50119781 0.56613627 0.47500000
v -0.49691384 0.71607508 0.47500000
vt 0.00000000 1.00000000
vt 0.00000000 0.00000000
vt 0.30000000 0.00000000
vt 0.35000000 0.33333333
vt 0.40000000 0.00000000
vt 1.00000000 0.00000000
vt 1.00000000 1.00000000
vt 0.00000000 0.00000000
vt 1.00000000 0.00000000
vt 1.00000000 1.00000000
vt 0.00000000 1.00000000
vt 0.00000000 1.00000000
vt 0.00000000 0.00000000
vt 0.30000000 0.00000000
vt 0.35000000 0.33333333
vt 0.40000000 0.00000000
vt 1.00000000 0.00000000
vt 1.00000000 1.00000000
vt 0.00000000 0.00000000
vt 1.00000000 0.00000000
vt 1.00000000 1.00000000
vt 0.00000000 1.00000000
vt 0.00000000 0.00000000
vt 1.00000000 0.00000000
vt 1.00000000 1.00000000
vt 0.00000000 1.00000000
vt 0.00000000 1.00000000
vt 0.00000000 0.00000000
vt 1.00000000 0.00000000
vt 1.00000000 1.00000000
vt 0.00000000 1.00000000
vt 0.00000000 0.00000000
vt 1.00000000 0.00000000
vt 1.00000000 1.00000000
vt 0.00000000 1.00000000
vt 0.00000000 0.00000000
vt 1.00000000 0.00000000
vt 1.00000000 1.00000000
vt 1.00000000 1.00000000
vt 0.00000000 1.00000000
vt 0.00000000 0.00000000
vt 1.00000000 0.00000000
vn 0.00000000 0.00000000 1.00000000
vn 0.00000000 0.00000000 1.00000000
vn 0.00000000 0.00000000 1.00000000
vn 0.00000000 0.00000000 1.00000000
vn 0.00000000 0.00000000 1.00000000
vn 0.00000000 0.00000000 1.00000000
vn 0.00000000 0.00000000 1.00000000
vn -0.72701315 -0.68662353 0.00000000
vn -0.72701315 -0.68662353 0.00000000
vn -0.72701315 -0.68662353 0.00000000
vn -0.72701315 -0.68662353 0.00000000
vn 0.00000000 0.00000000 -1.00000000
vn 0.00000000 0.00000000 -1.00000000
vn 0.00000000 0.00000000 -1.00000000
vn 0.00000000 0.00000000 -1.00000000
vn 0.00000000 0.00000000 -1.00000000
vn 0.00000000 0.00000000 -1.00000000
vn 0.00000000 0.00000000 -1.00000000
vn 0.68662353 -0.72701315 0.00000000
vn 0.68662353 -0.72701315 0.00000000
vn 0.68662353 -0.72701315 0.00000000
vn 0.68662353 -0.72701315 0.00000000
vn -0.02855977 -0.99959209 0.00000000
vn -0.02855977 -0.99959209 0.00000000
vn -0.02855977 -0.99959209 0.00000000
vn -0.02855977 -0.99959209 0.00000000
vn -0.99959209 0.02855977 0.00000000
vn -0.99959209 0.02855977 0.00000000
vn -0.99959209 0.02855977 0.00000000
vn -0.99959209 0.02855977 0.00000000
vn 0.02855977 0.99959209 0.00000000
vn 0.02855977 0.99959209 0.00000000
vn 0.02855977 0.99959209 0.00000000
vn 0.02855977 0.99959209 0.00000000
vn 0.99959209 -0.02855977 0.00000000
vn 0.99959209 -0.02855977 0.00000000
vn 0.99959209 -0.02855977 0.00000000
vn 0.99959209 -0.02855977 0.00000000
vn -0.02855977 -0.99959209 0.00000000
vn -0.02855977 -0.99959209 0.00000000
vn -0.02855977 -0.99959209 0.00000000
vn -0.02855977 -0.99959209 0.00000000
s 1
usemtl Wood_Light
f 3/3/3 2/2/2 1/1/1
f 7/7/7 4/4/4 1/1/1
f 7/7/7 5/5/5 4/4/4
f 7/7/7 6/6/6 5/5/5
f 4/4/4 3/3/3 1/1/1
s 2
f 9/11/11 3/10/10 8/8/8
f 3/10/10 4/9/9 8/8/8
s 3
f 10/12/12 11/13/13 9/14/14
f 10/12/12 8/15/15 14/18/18
f 12/16/16 13/17/17 14/18/18
f 8/15/15 12/16/16 14/18/18
f 10/12/12 9/14/14 8/15/15
s 4
f 8/22/22 4/21/21 12/19/19
f 4/21/21 5/20/20 12/19/19
s 5
f 5/26/26 6/25/25 12/23/23
f 6/25/25 13/24/24 12/23/23
s 6
f 7/30/30 14/29/29 6/27/27
f 14/29/29 13/28/28 6/27/27
s 7
f 1/31/31 10/32/32 7/34/34
f 10/32/32 14/33/33 7/34/34
s 8
f 2/35/35 11/36/36 10/37/37
f 2/35/35 10/37/37 1/38/38
s 9
f 9/42/42 11/41/41 2/40/40
f 9/42/42 2/40/40 3/39/39
o object2
g object2
v -0.50182418 0.28863382 0.52500000
v -0.49765912 0.43857598 0.52500000
v -0.34771696 0.43441092 0.52500000
v -0.29912459 0.38304185 0.52500000
v -0.24775551 0.43163421 0.52500000
v 0.50195530 0.41080891 0.52500000
v 0.49779024 0.26086675 0.52500000
v 0.34784808 0.26503181 0.52500000
v 0.24858081 0.29279888 0.52500000
v 0.19790592 0.26919687 0.52500000
v -0.29912459 0.38304185 0.47500000
v -0.34771696 0.43441092 0.47500000
v -0.50182418 0.28863382 0.47500000
v -0.49765912 0.43857598 0.47500000
v -0.24775551 0.43163421 0.47500000
v 0.50195530 0.41080891 0.47500000
v 0.49779024 0.26086675 0.47500000
v 0.34784808 0.26503181 0.47500000
v 0.24858081 0.29279888 0.47500000
v 0.19790592 0.26919687 0.47500000
vt 1.00000000 0.00000000
vt 1.00000000 1.00000000
vt 0.85000000 1.00000000
vt 0.80000000 0.66666667
vt 0.75000000 1.00000000
vt 0.00000000 1.00000000
vt 0.00000000 0.00000000
vt 0.15000000 0.00000000
vt 0.25000000 0.16666667
vt 0.30000000 0.00000000
vt 0.00000000 0.00000000
vt 1.00000000 0.00000000
vt 1.00000000 1.00000000
vt 0.00000000 1.00000000
vt 1.00000000 0.00000000
vt 1.00000000 1.00000000
vt 0.85000000 1.00000000
vt 0.80000000 0.66666667
vt 0.75000000 1.00000000
vt 0.00000000 1.00000000
vt 0.00000000 0.00000000
vt 0.15000000 0.00000000
vt 0.25000000 0.16666667
vt 0.30000000 0.00000000
vt 0.00000000 0.00000000
vt 1.00000000 0.00000000
vt 1.00000000 1.00000000
vt 0.00000000 1.00000000
vt 1.00000000 1.00000000
vt 0.00000000 1.00000000
vt 0.00000000 0.00000000
vt 1.00000000 0.00000000
vt 0.00000000 1.00000000
vt 0.00000000 0.00000000
vt 1.00000000 0.00000000
vt 1.00000000 1.00000000
vt 1.00000000 1.00000000
vt 0.00000000 1.00000000
vt 0.00000000 0.00000000
vt 1.00000000 0.00000000
vt 0.00000000 0.00000000
vt 1.00000000 0.00000000
vt 1.00000000 1.00000000
vt 0.00000000 1.00000000
vt 0.00000000 0.00000000
vt 1.00000000 0.00000000
vt 1.00000000 1.00000000
vt 0.00000000 1.00000000
vt 0.00000000 0.00000000
vt 1.00000000 0.00000000
vt 1.00000000 1.00000000
vt 0.00000000 1.00000000
vt 0.00000000 1.00000000
vt 0.00000000 0.00000000
vt 1.00000000 0.00000000
vt 1.00000000 1.00000000
vt 0.00000000 0.00000000
vt 1.00000000 0.00000000
vt 1.00000000 1.00000000
vt 0.00000000 1.00000000
vn 0.00000000 0.00000000 1.00000000
vn 0.00000000 0.00000000 1.00000000
vn 0.00000000 0.00000000 1.00000000
vn 0.00000000 0.00000000 1.00000000
vn 0.00000000 0.00000000 1.00000000
vn 0.00000000 0.00000000 1.00000000
vn 0.00000000 0.00000000 1.00000000
vn 0.00000000 0.00000000 1.00000000
vn 0.00000000 0.00000000 1.00000000
vn 0.00000000 0.00000000 1.00000000
vn 0.72646842 0.68719985 0.00000000
vn 0.72646842 0.68719985 0.00000000
vn 0.72646842 0.68719985 0.00000000
vn 0.72646842 0.68719985 0.00000000
vn 0.00000000 0.00000000 -1.00000000
vn 0.00000000 0.00000000 -1.00000000
vn 0.00000000 0.00000000 -1.00000000
vn 0.00000000 0.00000000 -1.00000000
vn 0.00000000 0.00000000 -1.00000000
vn 0.00000000 0.00000000 -1.00000000
vn 0.00000000 0.00000000 -1.00000000
vn 0.00000000 0.00000000 -1.00000000
vn 0.00000000 0.00000000 -1.00000000
vn 0.00000000 0.00000000 -1.00000000
vn -0.68719985 0.72646842 0.00000000
vn -0.68719985 0.72646842 0.00000000
vn -0.68719985 0.72646842 0.00000000
vn -0.68719985 0.72646842 0.00000000
vn 0.02776707 0.99961442 0.00000000
vn 0.02776707 0.99961442 0.00000000
vn 0.02776707 0.99961442 0.00000000
vn 0.02776707 0.99961442 0.00000000
vn 0.99961442 -0.02776707 0.00000000
vn 0.99961442 -0.02776707 0.00000000
vn 0.99961442 -0.02776707 0.00000000
vn 0.99961442 -0.02776707 0.00000000
vn -0.02776707 -0.99961442 0.00000000
vn -0.02776707 -0.99961442 0.00000000
vn -0.02776707 -0.99961442 0.00000000
vn -0.02776707 -0.99961442 0.00000000
vn -0.26938012 -0.96303393 0.00000000
vn -0.26938012 -0.96303393 0.00000000
vn -0.26938012 -0.96303393 0.00000000
vn -0.26938012 -0.96303393 0.00000000
vn 0.42220554 -0.90650013 0.00000000
vn 0.42220554 -0.90650013 0.00000000
vn 0.42220554 -0.90650013 0.00000000
vn 0.42220554 -0.90650013 0.00000000
vn -0.02776707 -0.99961442 0.00000000
vn -0.02776707 -0.99961442 0.00000000
vn -0.02776707 -0.99961442 0.00000000
vn -0.02776707 -0.99961442 0.00000000
vn -0.99961442 0.02776707 0.00000000
vn -0.99961442 0.02776707 0.00000000
vn -0.99961442 0.02776707 0.00000000
vn -0.99961442 0.02776707 0.00000000
vn 0.02776707 0.99961442 0.00000000
vn 0.02776707 0.99961442 0.00000000
vn 0.02776707 0.99961442 0.00000000
vn 0.02776707 0.99961442 0.00000000
s 1
usemtl Wood_Light
f 18/46/46 17/45/45 16/44/44
f 24/52/52 19/47/47 18/46/46
f 23/51/51 20/48/48 19/47/47
f 22/50/50 21/49/49 20/48/48
f 23/51/51 22/50/50 20/48/48
f 24/52/52 23/51/51 19/47/47
f 18/46/46 15/43/43 24/52/52
f 18/46/46 16/44/44 15/43/43
s 2
f 26/56/56 17/55/55 18/54/54
f 26/56/56 18/54/54 25/53/53
s 3
f 28/58/58 26/59/59 25/60/60
f 25/60/60 29/61/61 34/66/66
f 29/61/61 33/65/65 34/66/66
f 30/62/62 32/64/64 33/65/65
f 30/62/62 31/63/63 32/64/64
f 29/61/61 30/62/62 33/65/65
f 34/66/66 27/57/57 25/60/60
f 27/57/57 28/58/58 25/60/60
s 4
f 25/70/70 18/69/69 19/68/68
f 25/70/70 19/68/68 29/67/67
s 5
f 19/71/71 20/72/72 30/73/73
f 19/71/71 30/73/73 29/74/74
s 6
f 21/75/75 31/76/76 30/77/77
f 21/75/75 30/77/77 20/78/78
s 7
f 32/82/82 31/81/81 21/80/80
f 32/82/82 21/80/80 22/79/79
s 8
f 32/83/83 22/84/84 33/86/86
f 22/84/84 23/85/85 33/86/86
s 9
f 33/87/87 23/88/88 34/90/90
f 23/88/88 24/89/89 34/90/90
s 10
f 24/94/94 15/93/93 34/91/91
f 15/93/93 27/92/92 34/91/91
s 11
f 16/98/98 28/97/97 15/95/95
f 28/97/97 27/96/96 15/95/95
s 12
f 26/99/99 28/100/100 17/102/102
f 28/100/100 16/101/101 17/102/102
