mtllib Prop_Tree_Pine_3.mtl
o object1
g object1
v 0.65841454 2.06545305 0.00450882
v -0.63048808 2.02660167 0.01642960
v -0.30001899 2.10962901 -0.51699690
v 0.31374416 2.12812967 -0.52267346
v -0.28949226 2.08665426 0.54630007
v 0.32427089 2.10515492 0.54062351
v -0.02461967 3.33468408 0.03869530
vt 1.00000000 1.00000000
vt 0.00000000 1.00000000
vt 0.26190476 0.00000000
vt 0.73809524 0.00000000
vt 0.26190476 1.00000000
vt 0.00000000 0.00000000
vt 1.00000000 0.00000000
vt 0.73809524 1.00000000
vt 1.00000000 0.85714286
vt 0.00000000 1.00000000
vt 0.00000000 0.00000000
vt 1.00000000 0.00000000
vt 1.00000000 1.00000000
vt 0.00000000 0.50000000
vt 1.00000000 0.85714286
vt 0.00000000 1.00000000
vt 0.00000000 0.00000000
vt 0.00000000 0.14285714
vt 1.00000000 0.00000000
vt 1.00000000 1.00000000
vt 0.00000000 1.00000000
vt 0.00000000 0.00000000
vt 1.00000000 0.50000000
vt 1.00000000 1.00000000
vt 0.00000000 0.85714286
vt 1.00000000 0.00000000
vn 0.02858703 -0.99023862 -0.13641945
vn 0.02858703 -0.99023862 -0.13641945
vn 0.02858703 -0.99023862 -0.13641945
vn 0.02858703 -0.99023862 -0.13641945
vn 0.03085763 -0.99519422 0.09293152
vn 0.03085763 -0.99519422 0.09293152
vn 0.03085763 -0.99519422 0.09293152
vn 0.03085763 -0.99519422 0.09293152
vn -0.80167242 0.36323204 0.47474605
vn -0.80167242 0.36323204 0.47474605
vn -0.80167242 0.36323204 0.47474605
vn -0.00280656 0.37726414 0.92610145
vn -0.00280656 0.37726414 0.92610145
vn -0.00280656 0.37726414 0.92610145
vn 0.78697693 0.41111867 0.46005298
vn 0.78697693 0.41111867 0.46005298
vn 0.78697693 0.41111867 0.46005298
vn 0.77789456 0.43094110 -0.45735088
vn 0.77789456 0.43094110 -0.45735088
vn 0.77789456 0.43094110 -0.45735088
vn -0.02097131 0.41690899 -0.90870628
vn -0.02097131 0.41690899 -0.90870628
vn -0.02097131 0.41690899 -0.90870628
vn -0.81075480 0.38305446 -0.44265781
vn -0.81075480 0.38305446 -0.44265781
vn -0.81075480 0.38305446 -0.44265781
s 1
usemtl Pine_Leaves
f 1/1/1 2/2/2 4/4/4
f 2/2/2 3/3/3 4/4/4
s 2
f 5/5/5 2/6/6 1/7/7
f 5/5/5 1/7/7 6/8/8
s 3
f 7/11/11 2/10/10 5/9/9
s 4
f 5/12/12 6/13/13 7/14/14
s 5
f 6/15/15 1/16/16 7/17/17
s 6
f 7/20/20 1/19/19 4/18/18
s 7
f 7/23/23 4/22/22 3/21/21
s 8
f 7/26/26 3/25/25 2/24/24
o object2
g object2
v 0.13928591 0.75000000 -0.24125028
v 0.27857182 0.75000000 0.00000000
v 0.13928591 0.75000000 0.24125028
v -0.13928591 0.75000000 0.24125028
v -0.27857182 0.75000000 -0.00000000
v -0.13928591 0.75000000 -0.24125028
v 0.00000000 0.75000000 0.00000000
v 0.13928591 -0.00000000 0.24125028
v -0.13928591 0.00000000 0.24125028
v 0.13928591 -0.00000000 -0.24125028
v 0.27857182 -0.00000000 0.00000000
v -0.27857182 0.00000000 -0.00000000
v -0.13928591 0.00000000 -0.24125028
v 0.00000000 -0.00000000 0.00000000
vt 0.00000000 0.25000000
vt 0.50000000 0.00000000
vt 1.00000000 0.25000000
vt 1.00000000 0.75000000
vt 0.50000000 1.00000000
vt 0.00000000 0.75000000
vt 0.50000000 0.50000000
vt 0.00000000 0.00000000
vt 1.00000000 0.00000000
vt 1.00000000 1.00000000
vt 0.00000000 1.00000000
vt 0.00000000 0.25000000
vt 0.50000000 0.00000000
vt 1.00000000 0.25000000
vt 1.00000000 0.75000000
vt 0.50000000 1.00000000
vt 0.00000000 0.75000000
vt 0.50000000 0.50000000
vt 0.00000000 0.00000000
vt 1.00000000 0.00000000
vt 1.00000000 1.00000000
vt 0.00000000 1.00000000
vt 0.00000000 0.00000000
vt 1.00000000 0.00000000
vt 1.00000000 1.00000000
vt 0.00000000 1.00000000
vt 0.00000000 0.00000000
vt 1.00000000 0.00000000
vt 1.00000000 1.00000000
vt 0.00000000 1.00000000
vt 0.00000000 0.00000000
vt 1.00000000 0.00000000
vt 1.00000000 1.00000000
vt 0.00000000 1.00000000
vt 0.00000000 0.00000000
vt 1.00000000 0.00000000
vt 1.00000000 1.00000000
vt 0.00000000 1.00000000
vn 0.00000000 1.00000000 0.00000000
vn 0.00000000 1.00000000 0.00000000
vn 0.00000000 1.00000000 0.00000000
vn 0.00000000 1.00000000 0.00000000
vn 0.00000000 1.00000000 0.00000000
vn 0.00000000 1.00000000 0.00000000
vn 0.00000000 1.00000000 0.00000000
vn -0.00000000 -0.00000000 1.00000000
vn -0.00000000 -0.00000000 1.00000000
vn -0.00000000 -0.00000000 1.00000000
vn -0.00000000 -0.00000000 1.00000000
vn -0.00000000 -1.00000000 -0.00000000
vn -0.00000000 -1.00000000 -0.00000000
vn -0.00000000 -1.00000000 -0.00000000
vn -0.00000000 -1.00000000 -0.00000000
vn -0.00000000 -1.00000000 -0.00000000
vn -0.00000000 -1.00000000 -0.00000000
vn -0.00000000 -1.00000000 -0.00000000
vn -0.86602540 0.00000000 0.50000000
vn -0.86602540 0.00000000 0.50000000
vn -0.86602540 0.00000000 0.50000000
vn -0.86602540 0.00000000 0.50000000
vn -0.86602540 0.00000000 -0.50000000
vn -0.86602540 0.00000000 -0.50000000
vn -0.86602540 0.00000000 -0.50000000
vn -0.86602540 0.00000000 -0.50000000
vn 0.00000000 -0.00000000 -1.00000000
vn 0.00000000 -0.00000000 -1.00000000
vn 0.00000000 -0.00000000 -1.00000000
vn 0.00000000 -0.00000000 -1.00000000
vn 0.86602540 -0.00000000 -0.50000000
vn 0.86602540 -0.00000000 -0.50000000
vn 0.86602540 -0.00000000 -0.50000000
vn 0.86602540 -0.00000000 -0.50000000
vn 0.86602540 -0.00000000 0.50000000
vn 0.86602540 -0.00000000 0.50000000
vn 0.86602540 -0.00000000 0.50000000
vn 0.86602540 -0.00000000 0.50000000
s 1
usemtl Wood_Dark
f 13/32/32 12/31/31 14/33/33
f 9/28/28 8/27/27 14/33/33
f 10/29/29 9/28/28 14/33/33
f 11/30/30 10/29/29 14/33/33
f 12/31/31 11/30/30 14/33/33
f 8/27/27 13/32/32 14/33/33
s 2
f 11/37/37 16/36/36 15/35/35
f 11/37/37 15/35/35 10/34/34
s 3
f 17/38/38 18/39/39 21/44/44
f 19/42/42 20/43/43 21/44/44
f 16/41/41 19/42/42 21/44/44
f 15/40/40 16/41/41 21/44/44
f 18/39/39 15/40/40 21/44/44
f 20/43/43 17/38/38 21/44/44
s 4
f 12/48/48 19/47/47 11/45/45
f 19/47/47 16/46/46 11/45/45
s 5
f 13/52/52 20/51/51 12/49/49
f 20/51/51 19/50/50 12/49/49
s 6
f 8/56/56 17/55/55 13/53/53
f 17/55/55 20/54/54 13/53/53
s 7
f 9/60/60 18/59/59 8/57/57
f 18/59/59 17/58/58 8/57/57
s 8
f 10/64/64 15/63/63 9/61/61
f 15/63/63 18/62/62 9/61/61
o object3
g object3
v -0.60776006 0.69376931 1.05219805
v 0.60776006 0.69376931 1.05219805
v 0.00000000 2.49062513 -0.00047324
v -0.62409620 0.69506556 1.02238422
v 0.62409620 0.69506556 1.02238422
v -1.24472728 0.65059350 -0.00047324
v -0.63863041 0.60250044 -1.10661356
v 0.63863041 0.60250044 -1.10661356
v 1.24472728 0.65059350 -0.00047324
vt 1.00000000 0.00000000
vt 1.00000000 1.00000000
vt 0.00000000 0.50000000
vt 0.01308784 1.00000000
vt 0.00000000 0.00000000
vt 1.00000000 0.00000000
vt 0.98691216 1.00000000
vt 0.00000000 0.51955917
vt 0.24346573 0.00000000
vt 0.75653427 0.00000000
vt 1.00000000 0.51955917
vt 0.75069596 1.00000000
vt 0.24930404 1.00000000
vt 1.00000000 1.00000000
vt 0.00000000 0.92352337
vt 1.00000000 0.00000000
vt 0.00000000 0.07647663
vt 1.00000000 0.00000000
vt 1.00000000 1.00000000
vt 0.00000000 1.00000000
vt 0.00000000 0.00000000
vt 1.00000000 0.50000000
vt 0.00000000 1.00000000
vt 0.00000000 0.00000000
vt 1.00000000 0.87888176
vt 0.97167793 0.88094304
vt 0.00000000 1.00000000
vt 0.00000000 0.00000000
vt 1.00000000 0.87888176
vt 0.97167793 0.88094304
vn 0.00000000 0.50548433 0.86283578
vn 0.00000000 0.50548433 0.86283578
vn 0.00000000 0.50548433 0.86283578
vn -0.00000000 -0.99905616 -0.04343722
vn -0.00000000 -0.99905616 -0.04343722
vn -0.00000000 -0.99905616 -0.04343722
vn -0.00000000 -0.99905616 -0.04343722
vn -0.00000000 -0.99905616 0.04343722
vn -0.00000000 -0.99905616 0.04343722
vn -0.00000000 -0.99905616 0.04343722
vn -0.00000000 -0.99905616 0.04343722
vn -0.00000000 -0.99905616 0.04343722
vn -0.00000000 -0.99905616 0.04343722
vn -0.74723771 0.50548433 -0.43141789
vn -0.74723771 0.50548433 -0.43141789
vn -0.74723771 0.50548433 -0.43141789
vn 0.74723771 0.50548433 -0.43141789
vn 0.74723771 0.50548433 -0.43141789
vn 0.74723771 0.50548433 -0.43141789
vn 0.00000000 0.50548433 -0.86283578
vn 0.00000000 0.50548433 -0.86283578
vn 0.00000000 0.50548433 -0.86283578
vn -0.74723771 0.50548433 0.43141789
vn -0.74723771 0.50548433 0.43141789
vn -0.74723771 0.50548433 0.43141789
vn -0.74723771 0.50548433 0.43141789
vn 0.74723771 0.50548433 0.43141789
vn 0.74723771 0.50548433 0.43141789
vn 0.74723771 0.50548433 0.43141789
vn 0.74723771 0.50548433 0.43141789
s 1
usemtl Pine_Leaves
f 22/65/65 23/66/66 24/67/67
s 2
f 22/68/68 25/69/69 23/71/71
f 25/69/69 26/70/70 23/71/71
s 3
f 26/76/76 25/77/77 27/72/72
f 27/72/72 28/73/73 29/74/74
f 27/72/72 29/74/74 26/76/76
f 29/74/74 30/75/75 26/76/76
s 4
f 24/80/80 28/79/79 27/78/78
s 5
f 24/83/83 30/82/82 29/81/81
s 6
f 24/86/86 29/85/85 28/84/84
s 7
f 24/88/88 27/87/87 25/90/90
f 25/90/90 22/89/89 24/88/88
s 8
f 26/94/94 30/91/91 24/92/92
f 24/92/92 23/93/93 26/94/94
o object4
g object4
v -0.97355007 1.37761017 0.00489902
v -0.51818778 1.30735560 -0.88597410
v 0.01486935 2.84631214 0.01325975
v -0.50802179 1.28361630 0.88893153
v 0.51691293 1.27396807 0.88297100
v 0.97382590 1.35927853 -0.00642599
v 0.50674694 1.29770737 -0.89193463
vt 1.00000000 1.00000000
vt 0.00000000 0.94736842
vt 1.00000000 0.00000000
vt 1.00000000 0.94736842
vt 0.00000000 1.00000000
vt 0.00000000 0.00000000
vt 1.00000000 0.00000000
vt 1.00000000 1.00000000
vt 0.00000000 0.50000000
vt 1.00000000 0.94736842
vt 0.00000000 1.00000000
vt 0.00000000 0.00000000
vt 0.00000000 0.05263158
vt 1.00000000 0.00000000
vt 1.00000000 1.00000000
vt 0.76315789 1.00000000
vt 0.23684211 1.00000000
vt 0.00000000 0.00000000
vt 1.00000000 0.00000000
vt 1.00000000 1.00000000
vt 0.00000000 1.00000000
vt 0.23684211 0.00000000
vt 0.76315789 0.00000000
vt 0.00000000 1.00000000
vt 0.00000000 0.00000000
vt 1.00000000 0.50000000
vn -0.75040236 0.50742336 -0.42357743
vn -0.75040236 0.50742336 -0.42357743
vn -0.75040236 0.50742336 -0.42357743
vn -0.74417931 0.49829164 0.44486245
vn -0.74417931 0.49829164 0.44486245
vn -0.74417931 0.49829164 0.44486245
vn 0.00965939 0.48635774 0.87370638
vn 0.00965939 0.48635774 0.87370638
vn 0.00965939 0.48635774 0.87370638
vn 0.75884519 0.48358831 0.43622967
vn 0.75884519 0.48358831 0.43622967
vn 0.75884519 0.48358831 0.43622967
vn 0.75509905 0.49267361 -0.43254842
vn 0.75509905 0.49267361 -0.43254842
vn 0.75509905 0.49267361 -0.43254842
vn -0.00995003 -0.99488323 -0.10054031
vn -0.00995003 -0.99488323 -0.10054031
vn -0.00995003 -0.99488323 -0.10054031
vn -0.00995003 -0.99488323 -0.10054031
vn -0.00895656 -0.99721338 0.07406253
vn -0.00895656 -0.99721338 0.07406253
vn -0.00895656 -0.99721338 0.07406253
vn -0.00895656 -0.99721338 0.07406253
vn -0.00027115 0.50457263 -0.86336921
vn -0.00027115 0.50457263 -0.86336921
vn -0.00027115 0.50457263 -0.86336921
s 1
usemtl Pine_Leaves
f 33/97/97 32/96/96 31/95/95
s 2
f 33/100/100 31/99/99 34/98/98
s 3
f 34/101/101 35/102/102 33/103/103
s 4
f 35/104/104 36/105/105 33/106/106
s 5
f 33/109/109 36/108/108 37/107/107
s 6
f 35/110/110 34/111/111 31/112/112
f 35/110/110 31/112/112 36/113/113
s 7
f 36/114/114 31/115/115 37/117/117
f 31/115/115 32/116/116 37/117/117
s 8
f 33/120/120 37/119/119 32/118/118
