mtllib Prop_Rock_3.mtl
o object1
g object1
v -0.35000000 0.15000000 0.04444444
v -0.35000000 0.00000000 0.04444444
v -0.27500000 0.00000000 -0.26666667
v -0.27500000 0.15000000 -0.26666667
v -0.08750000 0.00000000 -0.40000000
v -0.08750000 0.15000000 -0.40000000
v 0.13750000 0.00000000 -0.40000000
v 0.13750000 0.15000000 -0.40000000
v 0.28750000 0.00000000 -0.26666667
v 0.28750000 0.15000000 -0.26666667
v 0.40000000 0.00000000 0.04444444
v 0.40000000 0.15000000 0.04444444
v 0.36250000 0.00000000 0.26666667
v 0.36250000 0.15000000 0.26666667
v 0.13750000 0.00000000 0.40000000
v 0.13750000 0.15000000 0.40000000
v -0.20000000 0.00000000 0.26666667
v -0.20000000 0.15000000 0.26666667
v -0.15910809 0.24142136 0.19716232
v 0.13223895 0.24142136 0.31226239
v -0.27434879 0.24142136 0.02643536
v -0.09585164 0.30000000 0.08964479
v -0.15732256 0.30000000 -0.00142323
v -0.12602896 0.30000000 -0.13123369
v -0.21650930 0.24142136 -0.21349143
v -0.03912973 0.30000000 -0.19302870
v -0.06850831 0.24142136 -0.31873657
v 0.07928932 0.30000000 -0.19302870
v 0.11464466 0.24142136 -0.31873657
v 0.14537625 0.30000000 -0.13428477
v 0.23169775 0.24142136 -0.21468938
v 0.21812207 0.30000000 0.06688887
v 0.32858902 0.24142136 0.05325683
v 0.20800942 0.30000000 0.12681569
v 0.30184215 0.24142136 0.21175678
v 0.12410053 0.30000000 0.17653948
vt 1.00000000 1.00000000
vt 0.00000000 1.00000000
vt 0.00000000 0.00000000
vt 1.00000000 0.00000000
vt 1.00000000 1.00000000
vt 0.00000000 1.00000000
vt 0.00000000 0.00000000
vt 1.00000000 0.00000000
vt 1.00000000 1.00000000
vt 0.00000000 1.00000000
vt 0.00000000 0.00000000
vt 1.00000000 0.00000000
vt 1.00000000 1.00000000
vt 0.00000000 1.00000000
vt 0.00000000 0.00000000
vt 1.00000000 0.00000000
vt 1.00000000 1.00000000
vt 0.00000000 1.00000000
vt 0.00000000 0.00000000
vt 1.00000000 0.00000000
vt 1.00000000 1.00000000
vt 0.00000000 1.00000000
vt 0.00000000 0.00000000
vt 1.00000000 0.00000000
vt 1.00000000 1.00000000
vt 0.00000000 1.00000000
vt 0.00000000 0.00000000
vt 1.00000000 0.00000000
vt 1.00000000 1.00000000
vt 0.00000000 1.00000000
vt 0.00000000 0.00000000
vt 1.00000000 0.00000000
vt 0.05691684 1.00000000
vt 0.00000000 0.00000000
vt 1.00000000 0.00000000
vt 0.92016732 1.00000000
vt 0.14740098 1.00000000
vt 0.00000000 0.00000000
vt 1.00000000 0.00000000
vt 0.91567232 1.00000000
vt 1.00000000 0.00000000
vt 0.83020581 1.00000000
vt 0.29679260 1.00000000
vt 0.00000000 0.00000000
vt 1.00000000 0.00000000
vt 0.73994903 1.00000000
vt 0.19890707 1.00000000
vt 0.00000000 0.00000000
vt 1.00000000 0.00000000
vt 0.75736772 1.00000000
vt 0.17021461 1.00000000
vt 0.00000000 0.00000000
vt 1.00000000 0.00000000
vt 0.83959536 1.00000000
vt 0.19303721 1.00000000
vt 0.00000000 0.00000000
vt 1.00000000 0.00000000
vt 0.75836374 1.00000000
vt 0.19377443 1.00000000
vt 0.00000000 0.00000000
vt 1.00000000 0.00000000
vt 0.88473114 1.00000000
vt 0.13393254 1.00000000
vt 0.00000000 0.00000000
vt 1.00000000 0.00000000
vt 0.75845177 1.00000000
vt 0.38036448 1.00000000
vt 0.00000000 0.00000000
vt 1.00000000 0.00000000
vt 0.72642873 1.00000000
vt 0.23169226 1.00000000
vt 0.00000000 0.00000000
vt 0.23512492 0.83627170
vt 0.00000000 0.25042718
vt 0.13454564 0.02693513
vt 0.29669926 0.00000000
vt 0.84104710 0.19375913
vt 1.00000000 0.36978223
vt 1.00000000 0.68519238
vt 0.83279130 0.91664925
vt 0.48154229 1.00000000
vt 1.00000000 0.00000000
vt 0.85694230 1.00000000
vt 0.10199322 1.00000000
vt 0.00000000 0.00000000
vt 0.11290046 1.00000000
vt 0.00000000 0.00000000
vt 1.00000000 0.00000000
vt 0.86669247 1.00000000
vt 0.17537766 1.00000000
vt 0.00000000 0.00000000
vt 1.00000000 0.00000000
vt 0.88862745 1.00000000
vt 0.07456772 1.00000000
vt 0.00000000 0.00000000
vt 1.00000000 0.00000000
vt 0.93582339 1.00000000
vt 0.09775090 1.00000000
vt 0.00000000 0.00000000
vt 1.00000000 0.00000000
vt 0.87810486 1.00000000
vt 0.10157928 1.00000000
vt 0.00000000 0.00000000
vt 1.00000000 0.00000000
vt 0.91559250 1.00000000
vt 0.08685460 1.00000000
vt 0.00000000 0.00000000
vt 1.00000000 0.00000000
vt 0.87619318 1.00000000
vt 0.09916219 1.00000000
vt 0.00000000 0.00000000
vt 1.00000000 0.00000000
vt 0.87035542 1.00000000
vt 1.00000000 1.00000000
vt 0.00000000 1.00000000
vt 0.00000000 0.00000000
vt 1.00000000 0.00000000
vt 0.00000000 0.35000000
vt 0.16666667 0.05000000
vt 0.44444444 0.00000000
vt 0.83333333 0.15000000
vt 1.00000000 0.35000000
vt 1.00000000 0.65000000
vt 0.83333333 0.90000000
vt 0.44444444 1.00000000
vt 0.16666667 0.80000000
vn -0.97215044 0.00000000 -0.23435769
vn -0.97215044 0.00000000 -0.23435769
vn -0.97215044 0.00000000 -0.23435769
vn -0.97215044 0.00000000 -0.23435769
vn -0.57952379 0.00000000 -0.81495532
vn -0.57952379 0.00000000 -0.81495532
vn -0.57952379 0.00000000 -0.81495532
vn -0.57952379 0.00000000 -0.81495532
vn 0.00000000 0.00000000 -1.00000000
vn 0.00000000 0.00000000 -1.00000000
vn 0.00000000 0.00000000 -1.00000000
vn 0.00000000 0.00000000 -1.00000000
vn 0.66436384 0.00000000 -0.74740932
vn 0.66436384 0.00000000 -0.74740932
vn 0.66436384 0.00000000 -0.74740932
vn 0.66436384 0.00000000 -0.74740932
vn 0.94040479 0.00000000 -0.34005709
vn 0.94040479 0.00000000 -0.34005709
vn 0.94040479 0.00000000 -0.34005709
vn 0.94040479 0.00000000 -0.34005709
vn 0.98605877 0.00000000 0.16639742
vn 0.98605877 0.00000000 0.16639742
vn 0.98605877 0.00000000 0.16639742
vn 0.98605877 0.00000000 0.16639742
vn 0.50980239 0.00000000 0.86029153
vn 0.50980239 0.00000000 0.86029153
vn 0.50980239 0.00000000 0.86029153
vn 0.50980239 0.00000000 0.86029153
vn -0.36742795 0.00000000 0.93005199
vn -0.36742795 0.00000000 0.93005199
vn -0.36742795 0.00000000 0.93005199
vn -0.36742795 0.00000000 0.93005199
vn -0.27700697 0.65697970 0.70117388
vn -0.27700697 0.65697970 0.70117388
vn -0.27700697 0.65697970 0.70117388
vn -0.27700697 0.65697970 0.70117388
vn -0.64845921 0.62282473 0.43770996
vn -0.64845921 0.62282473 0.43770996
vn -0.64845921 0.62282473 0.43770996
vn -0.64845921 0.62282473 0.43770996
vn -0.38257358 0.88710260 0.25823717
vn -0.38257358 0.88710260 0.25823717
vn -0.38257358 0.88710260 0.25823717
vn -0.38257358 0.88710260 0.25823717
vn -0.46603780 0.87760276 -0.11234840
vn -0.46603780 0.87760276 -0.11234840
vn -0.46603780 0.87760276 -0.11234840
vn -0.46603780 0.87760276 -0.11234840
vn -0.25513071 0.89787916 -0.35877756
vn -0.25513071 0.89787916 -0.35877756
vn -0.25513071 0.89787916 -0.35877756
vn -0.25513071 0.89787916 -0.35877756
vn 0.00000000 0.90641795 -0.42238193
vn 0.00000000 0.90641795 -0.42238193
vn 0.00000000 0.90641795 -0.42238193
vn 0.00000000 0.90641795 -0.42238193
vn 0.29653176 0.89486375 -0.33359823
vn 0.29653176 0.89486375 -0.33359823
vn 0.29653176 0.89486375 -0.33359823
vn 0.29653176 0.89486375 -0.33359823
vn 0.44670368 0.87997925 -0.16153124
vn 0.44670368 0.87997925 -0.16153124
vn 0.44670368 0.87997925 -0.16153124
vn 0.44670368 0.87997925 -0.16153124
vn 0.47468023 0.87650573 0.08010229
vn 0.47468023 0.87650573 0.08010229
vn 0.47468023 0.87650573 0.08010229
vn 0.47468023 0.87650573 0.08010229
vn 0.22227652 0.89994412 0.37509163
vn 0.22227652 0.89994412 0.37509163
vn 0.22227652 0.89994412 0.37509163
vn 0.22227652 0.89994412 0.37509163
vn 0.00000000 1.00000000 0.00000000
vn 0.00000000 1.00000000 0.00000000
vn 0.00000000 1.00000000 0.00000000
vn 0.00000000 1.00000000 0.00000000
vn 0.00000000 1.00000000 0.00000000
vn 0.00000000 1.00000000 0.00000000
vn 0.00000000 1.00000000 0.00000000
vn 0.00000000 1.00000000 0.00000000
vn 0.00000000 1.00000000 0.00000000
vn -0.15773552 0.90316363 0.39926803
vn -0.15773552 0.90316363 0.39926803
vn -0.15773552 0.90316363 0.39926803
vn -0.15773552 0.90316363 0.39926803
vn 0.38748758 0.64983643 0.65388530
vn 0.38748758 0.64983643 0.65388530
vn 0.38748758 0.64983643 0.65388530
vn 0.38748758 0.64983643 0.65388530
vn 0.78726088 0.60213879 0.13285027
vn 0.78726088 0.60213879 0.13285027
vn 0.78726088 0.60213879 0.13285027
vn 0.78726088 0.60213879 0.13285027
vn 0.74606591 0.60877165 -0.26978276
vn 0.74606591 0.60877165 -0.26978276
vn 0.74606591 0.60877165 -0.26978276
vn 0.74606591 0.60877165 -0.26978276
vn 0.51110125 0.63887656 -0.57498891
vn 0.51110125 0.63887656 -0.57498891
vn 0.51110125 0.63887656 -0.57498891
vn 0.51110125 0.63887656 -0.57498891
vn 0.00000000 0.66436384 -0.74740932
vn 0.00000000 0.66436384 -0.74740932
vn 0.00000000 0.66436384 -0.74740932
vn 0.00000000 0.66436384 -0.74740932
vn -0.44269726 0.64533660 -0.62254302
vn -0.44269726 0.64533660 -0.62254302
vn -0.44269726 0.64533660 -0.62254302
vn -0.44269726 0.64533660 -0.62254302
vn -0.77462755 0.60421861 -0.18674057
vn -0.77462755 0.60421861 -0.18674057
vn -0.77462755 0.60421861 -0.18674057
vn -0.77462755 0.60421861 -0.18674057
vn -0.82884867 0.00000000 0.55947286
vn -0.82884867 0.00000000 0.55947286
vn -0.82884867 0.00000000 0.55947286
vn -0.82884867 0.00000000 0.55947286
vn 0.00000000 -1.00000000 0.00000000
vn 0.00000000 -1.00000000 0.00000000
vn 0.00000000 -1.00000000 0.00000000
vn 0.00000000 -1.00000000 0.00000000
vn 0.00000000 -1.00000000 0.00000000
vn 0.00000000 -1.00000000 0.00000000
vn 0.00000000 -1.00000000 0.00000000
vn 0.00000000 -1.00000000 0.00000000
vn 0.00000000 -1.00000000 0.00000000
s 1
usemtl Rock
f 4/4/4 3/3/3 1/1/1
f 3/3/3 2/2/2 1/1/1
s 2
f 6/8/8 5/7/7 4/5/5
f 5/7/7 3/6/6 4/5/5
s 3
f 8/12/12 7/11/11 6/9/9
f 7/11/11 5/10/10 6/9/9
s 4
f 10/16/16 9/15/15 7/14/14
f 10/16/16 7/14/14 8/13/13
s 5
f 12/20/20 11/19/19 9/18/18
f 12/20/20 9/18/18 10/17/17
s 6
f 14/24/24 13/23/23 12/21/21
f 13/23/23 11/22/22 12/21/21
s 7
f 16/28/28 15/27/27 14/25/25
f 15/27/27 13/26/26 14/25/25
s 8
f 18/32/32 17/31/31 16/29/29
f 17/31/31 15/30/30 16/29/29
s 9
f 19/33/33 18/34/34 20/36/36
f 18/34/34 16/35/35 20/36/36
s 10
f 21/37/37 1/38/38 19/40/40
f 1/38/38 18/39/39 19/40/40
s 11
f 19/41/41 22/42/42 21/44/44
f 22/42/42 23/43/43 21/44/44
s 12
f 21/45/45 23/46/46 24/47/47
f 21/45/45 24/47/47 25/48/48
s 13
f 25/49/49 24/50/50 26/51/51
f 25/49/49 26/51/51 27/52/52
s 14
f 27/53/53 26/54/54 28/55/55
f 27/53/53 28/55/55 29/56/56
s 15
f 29/57/57 28/58/58 31/60/60
f 28/58/58 30/59/59 31/60/60
s 16
f 31/61/61 30/62/62 33/64/64
f 30/62/62 32/63/63 33/64/64
s 17
f 33/65/65 32/66/66 34/67/67
f 33/65/65 34/67/67 35/68/68
s 18
f 35/69/69 34/70/70 36/71/71
f 35/69/69 36/71/71 20/72/72
s 19
f 36/74/74 34/75/75 32/76/76
f 22/73/73 36/74/74 30/77/77
f 30/77/77 28/78/78 26/79/79
f 26/79/79 24/80/80 23/81/81
f 30/77/77 26/79/79 22/73/73
f 26/79/79 23/81/81 22/73/73
f 36/74/74 32/76/76 30/77/77
s 20
f 20/82/82 36/83/83 19/85/85
f 36/83/83 22/84/84 19/85/85
s 21
f 20/86/86 16/87/87 14/88/88
f 20/86/86 14/88/88 35/89/89
s 22
f 35/90/90 14/91/91 12/92/92
f 35/90/90 12/92/92 33/93/93
s 23
f 33/94/94 12/95/95 31/97/97
f 12/95/95 10/96/96 31/97/97
s 24
f 31/98/98 10/99/99 29/101/101
f 10/99/99 8/100/100 29/101/101
s 25
f 29/102/102 8/103/103 6/104/104
f 29/102/102 6/104/104 27/105/105
s 26
f 27/106/106 6/107/107 4/108/108
f 27/106/106 4/108/108 25/109/109
s 27
f 25/110/110 4/111/111 1/112/112
f 25/110/110 1/112/112 21/113/113
s 28
f 1/117/117 2/116/116 18/114/114
f 2/116/116 17/115/115 18/114/114
s 29
f 5/123/123 7/122/122 9/121/121
f 2/125/125 5/123/123 11/120/120
f 11/120/120 13/119/119 15/118/118
f 11/120/120 15/118/118 2/125/125
f 15/118/118 17/126/126 2/125/125
f 5/123/123 9/121/121 11/120/120
f 2/125/125 3/124/124 5/123/123
