mtllib Water_Slope.mtl
o object1
g object1
v 0.50000000 0.50000000 -1.00000000
v 0.50000000 0.35000000 -1.50000000
v -0.50000000 0.35000000 -1.50000000
v -0.50000000 0.50000000 -1.00000000
v 0.50000000 1.35000000 0.50000000
v 0.50000000 0.00000000 0.50000000
v 0.50000000 -0.00000000 -1.50000000
v 0.50000000 1.20000000 0.00000000
v -0.50000000 1.35000000 0.50000000
v -0.50000000 0.00000000 0.50000000
v -0.50000000 1.20000000 0.00000000
v -0.50000000 -0.00000000 -1.50000000
vt 0.00000000 1.00000000
vt 0.00000000 0.00000000
vt 1.00000000 0.00000000
vt 1.00000000 1.00000000
vt 1.00000000 0.00000000
vt 1.00000000 1.00000000
vt 0.00000000 1.00000000
vt 0.00000000 0.74074074
vt 0.25000000 0.62962963
vt 0.75000000 0.11111111
vt 1.00000000 0.00000000
vt 1.00000000 1.00000000
vt 0.00000000 1.00000000
vt 0.00000000 0.00000000
vt 0.00000000 1.00000000
vt 0.00000000 0.00000000
vt 1.00000000 0.00000000
vt 1.00000000 1.00000000
vt 0.00000000 1.00000000
vt 0.00000000 0.00000000
vt 1.00000000 0.00000000
vt 1.00000000 1.00000000
vt 1.00000000 0.00000000
vt 1.00000000 1.00000000
vt 0.00000000 1.00000000
vt 0.11111111 0.75000000
vt 0.62962963 0.25000000
vt 0.74074074 0.00000000
vt 0.00000000 1.00000000
vt 0.00000000 0.00000000
vt 1.00000000 0.00000000
vt 1.00000000 1.00000000
vt 1.00000000 0.00000000
vt 1.00000000 1.00000000
vt 0.00000000 1.00000000
vt 0.00000000 0.00000000
vn 0.00000000 0.95782629 -0.28734789
vn 0.00000000 0.95782629 -0.28734789
vn 0.00000000 0.95782629 -0.28734789
vn 0.00000000 0.95782629 -0.28734789
vn 1.00000000 0.00000000 -0.00000000
vn 1.00000000 0.00000000 -0.00000000
vn 1.00000000 0.00000000 -0.00000000
vn 1.00000000 0.00000000 -0.00000000
vn 1.00000000 0.00000000 -0.00000000
vn 1.00000000 0.00000000 -0.00000000
vn 0.00000000 0.00000000 1.00000000
vn 0.00000000 0.00000000 1.00000000
vn 0.00000000 0.00000000 1.00000000
vn 0.00000000 0.00000000 1.00000000
vn 0.00000000 0.95782629 -0.28734789
vn 0.00000000 0.95782629 -0.28734789
vn 0.00000000 0.95782629 -0.28734789
vn 0.00000000 0.95782629 -0.28734789
vn 0.00000000 0.81923192 -0.57346234
vn 0.00000000 0.81923192 -0.57346234
vn 0.00000000 0.81923192 -0.57346234
vn 0.00000000 0.81923192 -0.57346234
vn -1.00000000 0.00000000 0.00000000
vn -1.00000000 0.00000000 0.00000000
vn -1.00000000 0.00000000 0.00000000
vn -1.00000000 0.00000000 0.00000000
vn -1.00000000 0.00000000 0.00000000
vn -1.00000000 0.00000000 0.00000000
vn 0.00000000 -1.00000000 0.00000000
vn 0.00000000 -1.00000000 0.00000000
vn 0.00000000 -1.00000000 0.00000000
vn 0.00000000 -1.00000000 0.00000000
vn 0.00000000 -0.00000000 -1.00000000
vn 0.00000000 -0.00000000 -1.00000000
vn 0.00000000 -0.00000000 -1.00000000
vn 0.00000000 -0.00000000 -1.00000000
s 1
usemtl Water
f 1/1/1 2/2/2 4/4/4
f 2/2/2 3/3/3 4/4/4
s 2
f 7/7/7 2/8/8 1/9/9
f 1/9/9 8/10/10 6/6/6
f 8/10/10 5/5/5 6/6/6
f 6/6/6 7/7/7 1/9/9
s 3
f 9/11/11 10/12/12 6/13/13
f 9/11/11 6/13/13 5/14/14
s 4
f 5/15/15 8/16/16 9/18/18
f 8/16/16 11/17/17 9/18/18
s 5
f 8/19/19 1/20/20 11/22/22
f 1/20/20 4/21/21 11/22/22
s 6
f 4/27/27 3/28/28 12/23/23
f 12/23/23 10/24/24 4/27/27
f 10/24/24 9/25/25 11/26/26
f 10/24/24 11/26/26 4/27/27
s 7
f 10/32/32 12/31/31 7/30/30
f 10/32/32 7/30/30 6/29/29
s 8
f 7/33/33 12/34/34 2/36/36
f 12/34/34 3/35/35 2/36/36
